<svg id="Layer_1" data-name="Layer 1" xmlns="http://www.w3.org/2000/svg" xmlns:xlink="http://www.w3.org/1999/xlink" viewBox="0 0 50 50"><defs><style>.cls-1{fill:none;}.cls-2{clip-path:url(#clip-path);}.cls-3{fill:#2a2a2a;}</style><clipPath id="clip-path"><rect class="cls-1" width="50" height="50"/></clipPath></defs><title>business-personal-texts</title><g class="cls-2"><path class="cls-3" d="M31.14,39.91V38.57a14.84,14.84,0,0,1-16.68-3,16.9,16.9,0,0,1,4.65-2.15c1.45-.6,2.42-1.62,2.42-2.81a2.3,2.3,0,0,0-.41-1.3,16.5,16.5,0,0,1-1.83-7.82c0-5.44,5.53-5.26,5.71-5.26h0c.17,0,5.71-.18,5.71,5.26a16.5,16.5,0,0,1-1.83,7.82,2.38,2.38,0,0,0-.41,1.3c0,1.19,1,2.21,2.42,2.81l.25.08V31.14a3.51,3.51,0,0,1,3.51-3.51h5.26a3.49,3.49,0,0,1,1.48.34c0-.31.1-.61.14-.92,0-.11,0-.23,0-.34A16,16,0,0,0,41.67,25,16.67,16.67,0,0,0,8.33,25a16,16,0,0,0,.09,1.71c0,.11,0,.22.05.33.06.45.12.9.21,1.33,0,.1.05.19.07.28.1.45.21.89.34,1.33l.06.17c.15.46.32.92.51,1.37l0,.07a16.57,16.57,0,0,0,3.59,5.25h0a16.64,16.64,0,0,0,6.34,3.92c.37.13.74.23,1.11.33.12,0,.23.07.35.09.32.08.64.15,1,.21l.68.1c.25,0,.49.08.74.1.5,0,1,.08,1.53.08s1,0,1.53-.08c.25,0,.49-.06.74-.1l.69-.1,1-.21a3.37,3.37,0,0,0,.34-.09c.38-.1.75-.2,1.12-.33s.54-.21.81-.32a4.75,4.75,0,0,1-.05-.53"/><path class="cls-3" d="M39.91,38.15H34.65v-7h5.26Zm-1.75,2.39a.25.25,0,0,1-.25.25H36.65a.25.25,0,0,1-.25-.25V39.28a.25.25,0,0,1,.25-.24h1.26a.25.25,0,0,1,.25.24Zm1.75-11.15H34.65a1.75,1.75,0,0,0-1.76,1.75v8.77a1.76,1.76,0,0,0,1.76,1.76h5.26a1.76,1.76,0,0,0,1.76-1.76V31.14a1.75,1.75,0,0,0-1.76-1.75"/></g></svg>