<?xml version="1.0" encoding="UTF-8"?>
<svg width="50px" height="50px" viewBox="0 0 50 50" version="1.1" xmlns="http://www.w3.org/2000/svg" xmlns:xlink="http://www.w3.org/1999/xlink">
    <!-- Generator: Sketch 64 (93537) - https://sketch.com -->
    <title>archive</title>
    <desc>Created with Sketch.</desc>
    <defs>
        <rect id="path-1" x="0" y="0" width="50" height="50"></rect>
    </defs>
    <g id="archive" stroke="none" stroke-width="1" fill="none" fill-rule="evenodd">
        <g id="Group-25">
            <mask id="mask-2" fill="white">
                <use xlink:href="#path-1"></use>
            </mask>
            <g id="Mask"></g>
            <g id="Group-11" mask="url(#mask-2)" stroke="#1D1D1B" stroke-linecap="round" stroke-linejoin="round" stroke-width="1.38408203">
                <g transform="translate(4.003906, 8.398438)">
                    <path d="M38.8048926,30.5009277 C38.5402441,32.0003418 37.0780371,33.227002 35.5555762,33.227002 L6.48936523,33.227002 C4.9669043,33.227002 3.50469727,32.0003418 3.24004883,30.5009277 L0.0499121094,12.423291 C-0.214638672,10.9239746 0.814560547,9.6972168 2.33702148,9.6972168 L39.7079199,9.6972168 C41.2303809,9.6972168 42.2595801,10.9239746 41.9950293,12.423291 L38.8048926,30.5009277 Z" id="Stroke-1"></path>
                    <path d="M5.1052832,6.92900391 L5.1052832,5.54492188 C5.1052832,4.78369141 5.72813477,4.16083984 6.48936523,4.16083984 L35.5555762,4.16083984 C36.3168066,4.16083984 36.9396582,4.78369141 36.9396582,5.54492188 L36.9396582,6.92900391" id="Stroke-3"></path>
                    <path d="M9.25757813,1.39258789 L9.25757813,1.39258789 C9.25757813,0.631357422 9.88042969,0.00850585938 10.6416602,0.00850585938 L31.4031836,0.00850585938 C32.1645117,0.00850585938 32.7873633,0.631357422 32.7873633,1.39258789" id="Stroke-5"></path>
                    <path d="M23.7907227,16.6177148 C23.7907227,18.1465234 22.5513672,19.3859766 21.0224609,19.3859766 C19.4936523,19.3859766 18.2542969,18.1465234 18.2542969,16.6177148 C18.2542969,15.0889063 19.4936523,13.8495508 21.0224609,13.8495508 C22.5513672,13.8495508 23.7907227,15.0889063 23.7907227,16.6177148 Z" id="Stroke-7"></path>
                    <line x1="21.0236621" y1="22.1541797" x2="21.0236621" y2="19.385918" id="Stroke-9"></line>
                </g>
            </g>
        </g>
    </g>
</svg>