<?xml version="1.0" encoding="UTF-8"?>
<svg width="25px" height="25px" viewBox="0 0 25 25" version="1.1" xmlns="http://www.w3.org/2000/svg" xmlns:xlink="http://www.w3.org/1999/xlink">
    <!-- Generator: Sketch 53.1 (72631) - https://sketchapp.com -->
    <title>Group 5</title>
    <desc>Created with Sketch.</desc>
    <g id="Page-1" stroke="none" stroke-width="1" fill="none" fill-rule="evenodd">
        <g id="Global-Relay-Archive-for-Slack-Landing-Page" transform="translate(-926.000000, -1052.000000)">
            <g id="Group-5" transform="translate(926.000000, 1052.000000)">
                <path d="M12.5,21.875 C7.3234375,21.875 3.125,17.675 3.125,12.5 C3.125,7.3234375 7.3234375,3.125 12.5,3.125 C17.6765625,3.125 21.875,7.3234375 21.875,12.5 C21.875,17.675 17.6765625,21.875 12.5,21.875 M12.5,0 C5.596875,0 0,5.596875 0,12.5 C0,19.403125 5.596875,25 12.5,25 C19.403125,25 25,19.403125 25,12.5 C25,5.596875 19.403125,0 12.5,0" id="Fill-1" fill="#B8BFC7"></path>
                <path d="M16.1834375,8.258125 L10.885,13.56125 L8.769375,11.439375 C8.1834375,10.8534375 7.235,10.8534375 6.6490625,11.439375 C6.0646875,12.0253125 6.0646875,12.97375 6.6490625,13.5596875 L9.82875,16.7409375 C10.413125,17.326875 11.3615625,17.326875 11.9475,16.7409375 L18.300625,10.376875 C18.885,9.7909375 18.885,8.8425 18.300625,8.258125 C17.7178125,7.6721875 16.769375,7.6721875 16.1834375,8.258125" id="Fill-3" fill="#DF1F26"></path>
            </g>
        </g>
    </g>
</svg>