<?xml version="1.0" encoding="UTF-8"?>
<svg width="50px" height="50px" viewBox="0 0 50 50" version="1.1" xmlns="http://www.w3.org/2000/svg" xmlns:xlink="http://www.w3.org/1999/xlink">
    <!-- Generator: Sketch 64 (93537) - https://sketch.com -->
    <title>configure</title>
    <desc>Created with Sketch.</desc>
    <defs>
        <rect id="path-1" x="0" y="0" width="50" height="50"></rect>
    </defs>
    <g id="configure" stroke="none" stroke-width="1" fill="none" fill-rule="evenodd">
        <g id="Group-25">
            <mask id="mask-2" fill="white">
                <use xlink:href="#path-1"></use>
            </mask>
            <g id="Mask"></g>
            <g id="Group-13" mask="url(#mask-2)">
                <g transform="translate(4.003906, 3.515625)">
                    <path d="M36.2839258,31.4395801 C36.5424219,31.9809863 36.6872461,32.587041 36.6872461,33.2269824 C36.6872461,35.5201465 34.8281641,37.3792285 32.5349023,37.3792285 C30.2416406,37.3792285 28.3826563,35.5201465 28.3826563,33.2269824 C28.3826563,30.933623 30.2416406,29.0746387 32.5349023,29.0746387 C33.175332,29.0746387 33.781875,29.2196582 34.3234766,29.4785449" id="Stroke-1" stroke="#1D1D1B" stroke-width="1.38408203" fill="none" stroke-linecap="round" stroke-linejoin="round"></path>
                    <path d="M16.6177246,13.8494922 C16.6177246,15.3783008 15.3783691,16.6176562 13.8494629,16.6176562 C12.3206543,16.6176562 11.0812988,15.3783008 11.0812988,13.8494922 C11.0812988,12.3206836 12.3206543,11.0812305 13.8494629,11.0812305 C15.3783691,11.0812305 16.6177246,12.3206836 16.6177246,13.8494922 Z" id="Stroke-3" stroke="#1D1D1B" stroke-width="1.38408203" fill="none"></path>
                    <path d="M33.2269238,33.2269531 C33.2269238,33.609082 32.9170605,33.9189453 32.5349316,33.9189453 C32.1527051,33.9189453 31.8428418,33.609082 31.8428418,33.2269531 C31.8428418,32.8447266 32.1527051,32.5348633 32.5349316,32.5348633 C32.9170605,32.5348633 33.2269238,32.8447266 33.2269238,33.2269531" id="Fill-5" stroke="none" fill="#1D1D1B" fill-rule="evenodd"></path>
                    <path d="M39.455459,33.2269531 C39.455459,33.1558594 39.4522363,33.0857422 39.4500879,33.0151367 L41.9636621,30.1805664 L39.8874902,26.5844727 L36.1784082,27.3435547 C36.0572168,27.2682617 35.933877,27.1961914 35.8078027,27.1285156 L34.611123,23.5381836 L30.4587793,23.5381836 L29.262002,27.1285156 C29.1359277,27.1961914 29.0125879,27.2682617 28.8913965,27.3435547 L25.1823145,26.5844727 L23.1061426,30.1805664 L25.6197168,33.0151367 C25.617666,33.0857422 25.6144434,33.1558594 25.6144434,33.2269531 C25.6144434,33.2979492 25.617666,33.3681641 25.6197168,33.4386719 L23.1061426,36.2732422 L25.1823145,39.8693359 L28.8913965,39.1102539 C29.0125879,39.1855469 29.1359277,39.2576172 29.262002,39.3253906 L30.4587793,42.915625 L34.611123,42.915625 L35.8078027,39.3253906 C35.933877,39.2576172 36.0572168,39.1855469 36.1784082,39.1102539 L39.8874902,39.8693359 L41.9636621,36.2732422 L39.4500879,33.4386719 C39.4522363,33.3681641 39.455459,33.2979492 39.455459,33.2269531 Z" id="Stroke-7" stroke="#1D1D1B" stroke-width="1.38408203" fill="none" stroke-linecap="round" stroke-linejoin="round"></path>
                    <path d="M27.6905566,15.9256348 L27.6905566,11.773291 L24.4667285,10.6987793 C24.2459277,9.95336914 23.9494434,9.24047852 23.5849902,8.56977539 L25.1047168,5.53041992 L22.1684863,2.59428711 L19.1291309,4.11401367 C18.4584277,3.74946289 17.7456348,3.45307617 17.0002246,3.23227539 L15.9256152,0.00844726563 L11.7733691,0.00844726563 L10.6987598,3.23227539 C9.95344727,3.45307617 9.24055664,3.74946289 8.56985352,4.11401367 L5.53049805,2.59428711 L2.59436523,5.53041992 L4.11399414,8.56977539 C3.74954102,9.24047852 3.4531543,9.95336914 3.23225586,10.6987793 L0.00842773437,11.773291 L0.00842773437,15.9256348 L3.23225586,17.0002441 C3.4531543,17.7455566 3.74954102,18.4584473 4.11399414,19.1291504 L2.59436523,22.1685059 L5.53049805,25.1046387 L8.56985352,23.5849121 C9.24055664,23.9494629 9.95344727,24.2458496 10.6987598,24.4666504 L11.7733691,27.6904785 L15.9256152,27.6904785 L17.0002246,24.4666504 C17.7456348,24.2458496 18.4584277,23.9494629 19.1291309,23.5849121 L22.1684863,25.1046387 L25.1047168,22.1685059 L23.5849902,19.1291504 C23.9494434,18.4584473 24.2459277,17.7455566 24.4667285,17.0002441 L27.6905566,15.9256348 Z" id="Stroke-9" stroke="#1D1D1B" stroke-width="1.38408203" fill="none" stroke-linecap="round" stroke-linejoin="round"></path>
                    <path d="M7.07921875,18.6600098 C6.11300781,17.3026855 5.54484375,15.6424316 5.54484375,13.8494629 C5.54484375,9.26293945 9.26300781,5.54487305 13.8495313,5.54487305 C18.435957,5.54487305 22.1541211,9.26293945 22.1541211,13.8494629 C22.1541211,18.4359863 18.435957,22.1541504 13.8495313,22.1541504 C12.0570508,22.1541504 10.3971875,21.5861816 9.04005859,20.6205566" id="Stroke-11" stroke="#1D1D1B" stroke-width="1.38408203" fill="none" stroke-linecap="round" stroke-linejoin="round"></path>
                </g>
            </g>
        </g>
    </g>
</svg>