<?xml version="1.0" encoding="UTF-8"?>
<svg width="22px" height="25px" viewBox="0 0 22 25" version="1.1" xmlns="http://www.w3.org/2000/svg" xmlns:xlink="http://www.w3.org/1999/xlink">
    <!-- Generator: Sketch 53.1 (72631) - https://sketchapp.com -->
    <title>Group 12</title>
    <desc>Created with Sketch.</desc>
    <g id="Page-1" stroke="none" stroke-width="1" fill="none" fill-rule="evenodd">
        <g id="Global-Relay-Archive-for-Slack-Landing-Page" transform="translate(-576.000000, -1052.000000)">
            <g id="Group-12" transform="translate(576.000000, 1052.000000)">
                <g id="Group-3" fill="#B8BFC7">
                    <path d="M19.6776563,1.54421875 C19.6776563,1.54421875 16.4057813,0.00046875 10.9370312,0.00046875 C5.46828125,0.00046875 2.19640625,1.54421875 2.19640625,1.54421875 C0.98390625,1.98484375 -0.00046875,3.38328125 -0.00046875,4.68484375 L-0.00046875,11.7192187 C-0.00046875,16.7614063 5.11515625,23.5692187 10.9370312,25.0004687 C16.7604688,23.5692187 21.8745313,18.3239063 21.8745313,11.7192187 L21.8745313,4.68484375 C21.8745313,3.39265625 20.9073438,1.96765625 19.6776563,1.54421875" id="Fill-1"></path>
                </g>
                <path d="M5.43671875,3.4928125 C4.14609375,3.6975 3.12578125,4.956875 3.12578125,6.2553125 L3.12578125,10.1521875 C3.12578125,10.935 3.14921875,11.719375 3.19140625,12.500625 L4.68828125,12.500625 L5.46953125,12.500625 L10.9382813,12.500625 L10.9382813,3.125625 C6.25078125,3.125625 5.43671875,3.4928125 5.43671875,3.4928125" id="Fill-4" fill="#FFFFFF"></path>
                <path d="M16.4382812,3.4928125 C16.4382812,3.4928125 15.6242188,3.125625 10.9367188,3.125625 L10.9367188,12.500625 L18.6835938,12.500625 C18.7257813,11.719375 18.7492188,10.935 18.7492188,10.1521875 L18.7492188,6.2553125 C18.7492188,4.956875 17.7289063,3.6975 16.4382812,3.4928125" id="Fill-6" fill="#DF1F26"></path>
                <path d="M18.684375,12.5 L17.1875,12.5 L16.40625,12.5 L10.9375,12.5 L10.9375,14.0625 L10.9375,21.875 C14.675,20.6296875 17.4171875,17.8953125 18.378125,14.859375 C18.559375,14.28125 18.6515625,13.1125 18.684375,12.5" id="Fill-8" fill="#FFFFFF"></path>
                <path d="M3.190625,12.5 C3.2234375,13.1125 3.315625,14.28125 3.496875,14.859375 C4.4578125,17.8953125 7.2,20.6296875 10.9375,21.875 L10.9375,12.5 L3.190625,12.5 Z" id="Fill-10" fill="#DF1F26"></path>
            </g>
        </g>
    </g>
</svg>