<?xml version="1.0" encoding="UTF-8"?>
<svg width="512px" height="512px" viewBox="0 0 512 512" version="1.1" xmlns="http://www.w3.org/2000/svg" xmlns:xlink="http://www.w3.org/1999/xlink">
    <!-- Generator: Sketch 61 (89581) - https://sketch.com -->
    <title>complianttexting</title>
    <desc>Created with Sketch.</desc>
    <defs>
        <rect id="path-1" x="0" y="0" width="512" height="512"></rect>
    </defs>
    <g id="complianttexting" stroke="none" stroke-width="1" fill="none" fill-rule="evenodd">
        <g id="Group-23">
            <mask id="mask-2" fill="white">
                <use xlink:href="#path-1"></use>
            </mask>
            <g id="Mask"></g>
            <g mask="url(#mask-2)" fill="#1D1D1B">
                <g transform="translate(29.000000, 58.000000)">
                    <path d="M389.7637,141.7319 L205.5117,141.7319 C201.5977,141.7319 198.4257,138.5599 198.4257,134.6459 C198.4257,130.7319 201.5977,127.5589 205.5117,127.5589 L389.7637,127.5589 C393.6777,127.5589 396.8507,130.7319 396.8507,134.6459 C396.8507,138.5599 393.6777,141.7319 389.7637,141.7319" id="Fill-1"></path>
                    <path d="M177.165,141.7319 L120.472,141.7319 C116.558,141.7319 113.386,138.5599 113.386,134.6459 C113.386,130.7319 116.558,127.5589 120.472,127.5589 L177.165,127.5589 C181.079,127.5589 184.251,130.7319 184.251,134.6459 C184.251,138.5599 181.079,141.7319 177.165,141.7319" id="Fill-3"></path>
                    <path d="M389.7637,184.2524 L347.2437,184.2524 C343.3297,184.2524 340.1577,181.0794 340.1577,177.1654 C340.1577,173.2514 343.3297,170.0794 347.2437,170.0794 L389.7637,170.0794 C393.6777,170.0794 396.8507,173.2514 396.8507,177.1654 C396.8507,181.0794 393.6777,184.2524 389.7637,184.2524" id="Fill-5"></path>
                    <path d="M318.8975,184.2524 L233.8585,184.2524 C229.9445,184.2524 226.7725,181.0794 226.7725,177.1654 C226.7725,173.2514 229.9445,170.0794 233.8585,170.0794 L318.8975,170.0794 C322.8115,170.0794 325.9845,173.2514 325.9845,177.1654 C325.9845,181.0794 322.8115,184.2524 318.8975,184.2524" id="Fill-7"></path>
                    <path d="M205.5117,184.2524 L120.4717,184.2524 C116.5577,184.2524 113.3857,181.0794 113.3857,177.1654 C113.3857,173.2514 116.5577,170.0794 120.4717,170.0794 L205.5117,170.0794 C209.4257,170.0794 212.5977,173.2514 212.5977,177.1654 C212.5977,181.0794 209.4257,184.2524 205.5117,184.2524" id="Fill-9"></path>
                    <path d="M389.7637,226.7719 L276.3777,226.7719 C272.4637,226.7719 269.2907,223.5989 269.2907,219.6849 C269.2907,215.7709 272.4637,212.5979 276.3777,212.5979 L389.7637,212.5979 C393.6777,212.5979 396.8507,215.7709 396.8507,219.6849 C396.8507,223.5989 393.6777,226.7719 389.7637,226.7719" id="Fill-11"></path>
                    <path d="M248.0312,226.7719 L120.4722,226.7719 C116.5582,226.7719 113.3852,223.5989 113.3852,219.6849 C113.3852,215.7709 116.5582,212.5979 120.4722,212.5979 L248.0312,212.5979 C251.9452,212.5979 255.1182,215.7709 255.1182,219.6849 C255.1182,223.5989 251.9452,226.7719 248.0312,226.7719" id="Fill-13"></path>
                    <path d="M389.7637,269.2914 L290.5507,269.2914 C286.6367,269.2914 283.4637,266.1184 283.4637,262.2044 C283.4637,258.2904 286.6367,255.1174 290.5507,255.1174 L389.7637,255.1174 C393.6777,255.1174 396.8507,258.2904 396.8507,262.2044 C396.8507,266.1184 393.6777,269.2914 389.7637,269.2914" id="Fill-15"></path>
                    <path d="M262.2041,269.2914 L120.4721,269.2914 C116.5581,269.2914 113.3861,266.1184 113.3861,262.2044 C113.3861,258.2904 116.5581,255.1174 120.4721,255.1174 L262.2041,255.1174 C266.1181,255.1174 269.2911,258.2904 269.2911,262.2044 C269.2911,266.1184 266.1181,269.2914 262.2041,269.2914" id="Fill-17"></path>
                    <path d="M35.418,283.6332 C25.991,283.6332 17.108,279.9432 10.403,273.2412 C3.694,266.5352 0,257.6482 0,248.2142 L0,35.4332 C0,15.8952 15.895,0.0002 35.433,0.0002 L361.417,0.0002 C380.955,0.0002 396.851,15.8952 396.851,35.4332 C396.851,39.3462 393.678,42.5192 389.764,42.5192 C385.85,42.5192 382.677,39.3462 382.677,35.4332 C382.677,23.7102 373.14,14.1732 361.417,14.1732 L35.433,14.1732 C23.71,14.1732 14.173,23.7102 14.173,35.4332 L14.173,248.2142 C14.173,253.8612 16.393,259.1892 20.423,263.2172 C24.451,267.2422 29.776,269.4592 35.418,269.4592 C35.423,269.4592 35.428,269.4582 35.433,269.4592 C39.345,269.4592 42.517,272.6302 42.519,276.5422 C42.521,280.4562 39.35,283.6332 35.436,283.6332 L35.418,283.6332 Z" id="Fill-19"></path>
                    <path d="M389.7656,396.851 C387.9206,396.851 386.1086,396.131 384.7526,394.775 L313.8866,323.909 C311.1196,321.141 311.1196,316.655 313.8866,313.887 C316.6546,311.12 321.1406,311.12 323.9086,313.887 L382.6766,372.656 L382.6766,333.071 C382.6766,329.157 385.8496,325.984 389.7636,325.984 L418.1106,325.984 C429.8326,325.984 439.3696,316.447 439.3696,304.724 L439.3696,92.126 C439.3696,80.403 429.8326,70.866 418.1106,70.866 L92.1256,70.866 C80.4036,70.866 70.8656,80.403 70.8656,92.126 L70.8656,304.724 C70.8656,316.447 80.4036,325.984 92.1256,325.984 L290.6536,325.984 C294.5676,325.984 297.7406,329.157 297.7406,333.071 C297.7406,336.985 294.5676,340.158 290.6536,340.158 L92.1256,340.158 C72.5876,340.158 56.6926,324.262 56.6926,304.724 L56.6926,92.126 C56.6926,72.588 72.5876,56.693 92.1256,56.693 L418.1106,56.693 C437.6476,56.693 453.5426,72.588 453.5426,92.126 L453.5426,304.724 C453.5426,324.262 437.6476,340.158 418.1106,340.158 L396.8506,340.158 L396.8506,389.764 C396.8506,392.63 395.1236,395.214 392.4756,396.311 C391.5986,396.674 390.6776,396.851 389.7656,396.851" id="Fill-21"></path>
                </g>
            </g>
        </g>
    </g>
</svg>