<svg xmlns="http://www.w3.org/2000/svg" width="70.959" height="70" viewBox="0 0 70.959 70"><defs><style>.a{fill:none;}.b{fill:#1da1f2;}</style></defs><g transform="translate(0.091 -0.488)"><rect class="a" width="70.959" height="70" transform="translate(-0.091 0.488)"/><path class="b" d="M88.923,134.424c16.707,0,25.844-13.841,25.844-25.844,0-.393,0-.785-.027-1.174a18.482,18.482,0,0,0,4.532-4.7,18.13,18.13,0,0,1-5.217,1.429,9.115,9.115,0,0,0,3.993-5.024,18.2,18.2,0,0,1-5.768,2.2A9.092,9.092,0,0,0,96.8,109.6a25.788,25.788,0,0,1-18.72-9.49,9.09,9.09,0,0,0,2.812,12.125,9.016,9.016,0,0,1-4.123-1.137v.115a9.086,9.086,0,0,0,7.287,8.9,9.068,9.068,0,0,1-4.1.156,9.094,9.094,0,0,0,8.486,6.308,18.226,18.226,0,0,1-11.281,3.9A18.486,18.486,0,0,1,75,130.344a25.715,25.715,0,0,0,13.923,4.073" transform="translate(-61.748 -81.048)"/></g></svg>