<svg xmlns="http://www.w3.org/2000/svg" width="35.003" height="40" viewBox="0 0 35.003 40"><defs><style>.a{fill:#444;}</style></defs><g transform="translate(-56.67 -28.36)"><path class="a" d="M164.66,99.21a5.055,5.055,0,0,0-5,5.1v4.9h-1.875a1.877,1.877,0,0,0-1.875,1.875v10a1.876,1.876,0,0,0,1.875,1.875h13.75a1.877,1.877,0,0,0,1.875-1.875v-10a1.878,1.878,0,0,0-1.875-1.875H169.66v-4.9A5.055,5.055,0,0,0,164.66,99.21Zm-3.75,5.1a3.751,3.751,0,1,1,7.5,0v4.9h-7.5Zm11.25,6.777v10a.626.626,0,0,1-.625.625h-13.75a.626.626,0,0,1-.625-.625v-10a.626.626,0,0,1,.625-.625h13.75a.626.626,0,0,1,.625.625Z" transform="translate(-90.487 -64.601)"/><path class="a" d="M229.21,255.12a2.5,2.5,0,0,0-.628,4.921v1.954a.625.625,0,0,0,1.251,0V260.04a2.5,2.5,0,0,0-.625-4.921Zm0,3.75a1.251,1.251,0,1,1,1.25-1.25A1.251,1.251,0,0,1,229.21,258.87Z" transform="translate(-155.037 -206.76)"/><path class="a" d="M89.861,34.547c-6.23-.625-14.222-5.757-14.3-5.809a2.739,2.739,0,0,0-2.778,0c-.08.052-8.071,5.183-14.3,5.809a1.972,1.972,0,0,0-1.811,1.94V52.671c0,2.926,1.9,5.943,5.66,8.964a48.547,48.547,0,0,0,9.07,5.542.625.625,0,1,0,.542-1.127,47.325,47.325,0,0,1-8.829-5.389c-3.443-2.775-5.19-5.463-5.19-7.991V36.484a.733.733,0,0,1,.685-.693c6.533-.655,14.518-5.787,14.855-6a1.484,1.484,0,0,1,1.419,0c.339.216,8.322,5.347,14.856,6a.735.735,0,0,1,.685.693V52.671c0,2.2-1.411,5.748-8.137,10.1A56.033,56.033,0,0,1,74.8,66.789v-5.3a.625.625,0,1,0-1.251,0v6.25a.625.625,0,0,0,.858.58,56,56,0,0,0,8.545-4.482c5.788-3.747,8.723-7.5,8.723-11.164V36.484A1.97,1.97,0,0,0,89.861,34.547Z" transform="translate(0 0)"/></g></svg>