<svg xmlns="http://www.w3.org/2000/svg" width="39.991" height="40" viewBox="0 0 39.991 40"><defs><style>.a{fill:#444;}</style></defs><g transform="translate(-42.536 -42.475)"><path class="a" d="M44.021,60.077a18.664,18.664,0,0,1,31.707-10.8c.113.113.225.229.335.345H71.888a.667.667,0,1,0,0,1.333h5.656a.666.666,0,0,0,.666-.667V44.634a.667.667,0,0,0-1.333,0v3.91c-.069-.071-.137-.142-.207-.212A20,20,0,0,0,45.119,72.323a.667.667,0,1,0,1.16-.658A18.787,18.787,0,0,1,44.021,60.077Z" transform="translate(0)"/><path class="a" d="M121.5,147.167a.667.667,0,1,0-1.16.658A18.667,18.667,0,0,1,90.89,170.213q-.169-.169-.336-.344H94.73a.667.667,0,0,0,0-1.334H89.077a.667.667,0,0,0-.667.667v5.654a.667.667,0,1,0,1.334,0v-3.913c.069.071.137.142.207.212A20,20,0,0,0,121.5,147.167Z" transform="translate(-41.56 -94.539)"/><path class="a" d="M213.562,207.85a.668.668,0,0,0-.314.889,3.328,3.328,0,1,1-1.574-1.575.667.667,0,1,0,.575-1.2,4.662,4.662,0,1,0,2.2,2.2.666.666,0,0,0-.889-.314Z" transform="translate(-147.708 -147.697)"/><circle class="a" cx="0.667" cy="0.667" r="0.667" transform="translate(61.864 61.809)"/><path class="a" d="M170.888,155.551l-2-3.463a.668.668,0,0,0-.711-.32l-3.263.668-1.053-3.16a.666.666,0,0,0-.632-.455h-4a.666.666,0,0,0-.632.455l-1.053,3.16-3.263-.668a.666.666,0,0,0-.711.32l-2,3.463a.667.667,0,0,0,.079.776l2.209,2.492-2.209,2.492a.667.667,0,0,0-.079.776l2,3.463a.668.668,0,0,0,.711.32l3.263-.668,1.053,3.159a.665.665,0,0,0,.632.456h4a.665.665,0,0,0,.632-.456l1.053-3.157,3.263.668a.668.668,0,0,0,.711-.32l2-3.463a.667.667,0,0,0-.079-.776L168.6,158.82l2.212-2.493A.667.667,0,0,0,170.888,155.551Zm-3.5,2.621a.658.658,0,0,0-.167.462V159a.658.658,0,0,0,.167.462l2.1,2.37-1.519,2.634-3.1-.635a.671.671,0,0,0-.485.087c-.112.07-.217.131-.321.188a.663.663,0,0,0-.317.376l-1,3h-3.035l-1-3a.663.663,0,0,0-.317-.376c-.1-.056-.209-.118-.321-.188a.671.671,0,0,0-.485-.087l-3.1.635-1.519-2.634,2.1-2.369a.667.667,0,0,0,.167-.462v-.369a.667.667,0,0,0-.167-.462l-2.1-2.376,1.519-2.634,3.1.635a.664.664,0,0,0,.484-.087c.113-.07.217-.13.322-.188a.667.667,0,0,0,.317-.376l1-2.993h3.038l1,3a.667.667,0,0,0,.317.376c.1.056.209.118.321.188a.666.666,0,0,0,.485.087l3.1-.635L169.5,155.8Z" transform="translate(-98.699 -96.343)"/></g></svg>