<?xml version="1.0" encoding="UTF-8"?>
<svg width="512px" height="512px" viewBox="0 0 512 512" version="1.1" xmlns="http://www.w3.org/2000/svg" xmlns:xlink="http://www.w3.org/1999/xlink">
    <!-- Generator: Sketch 61 (89581) - https://sketch.com -->
    <title>archive</title>
    <desc>Created with Sketch.</desc>
    <defs>
        <rect id="path-1" x="0" y="0" width="512" height="512"></rect>
        <polygon id="path-3" points="0 0.8819 444.555 0.8819 444.555 255.9999 0 255.9999"></polygon>
    </defs>
    <g id="archive" stroke="none" stroke-width="1" fill="none" fill-rule="evenodd">
        <g id="Group-10">
            <mask id="mask-2" fill="white">
                <use xlink:href="#path-1"></use>
            </mask>
            <g id="Mask"></g>
            <g mask="url(#mask-2)">
                <g transform="translate(34.000000, 79.000000)">
                    <g id="Group-3" stroke-width="1" fill="none" transform="translate(0.000000, 98.331000)">
                        <mask id="mask-4" fill="white">
                            <use xlink:href="#path-3"></use>
                        </mask>
                        <g id="Clip-2"></g>
                        <path d="M430.0581,34.6519 L397.3911,219.7669 C395.2801,231.7249 383.2391,241.8259 371.0961,241.8259 L73.4591,241.8259 C61.3161,241.8259 49.2751,231.7249 47.1651,219.7669 L14.4981,34.6519 C13.5581,29.3249 14.7291,24.3789 17.7951,20.7229 C20.8621,17.0679 25.5301,15.0549 30.9391,15.0549 L413.6171,15.0549 C419.0261,15.0549 423.6931,17.0679 426.7591,20.7229 C429.8271,24.3779 430.9971,29.3249 430.0581,34.6519 M437.6181,11.6129 C431.8111,4.6929 423.2871,0.8819 413.6171,0.8819 L30.9391,0.8819 C21.2671,0.8819 12.7441,4.6929 6.9371,11.6129 C1.1311,18.5339 -1.1409,27.5899 0.5401,37.1149 L33.2071,222.2299 C36.4931,240.8509 54.5501,255.9999 73.4591,255.9999 L371.0961,255.9999 C390.0041,255.9999 408.0621,240.8509 411.3481,222.2299 L444.0151,37.1149 C445.6961,27.5899 443.4231,18.5339 437.6181,11.6129" id="Fill-1" fill="#1D1D1B" mask="url(#mask-4)"></path>
                    </g>
                    <path d="M59.2857,85.039 C63.1997,85.039 66.3717,81.867 66.3717,77.953 L66.3717,63.779 C66.3717,59.872 69.5517,56.693 73.4587,56.693 L371.0967,56.693 C375.0047,56.693 378.1827,59.872 378.1827,63.779 L378.1827,77.953 C378.1827,81.867 381.3557,85.039 385.2697,85.039 C389.1837,85.039 392.3567,81.867 392.3567,77.953 L392.3567,63.779 C392.3567,52.057 382.8187,42.52 371.0967,42.52 L73.4587,42.52 C61.7367,42.52 52.1997,52.057 52.1997,63.779 L52.1997,77.953 C52.1997,81.867 55.3717,85.039 59.2857,85.039" id="Fill-4" fill="#1D1D1B"></path>
                    <path d="M101.8052,28.3461 C105.7192,28.3461 108.8912,25.1741 108.8912,21.2601 C108.8912,17.3521 112.0712,14.1731 115.9782,14.1731 L328.5762,14.1731 C332.4852,14.1731 335.6632,17.3521 335.6632,21.2601 C335.6632,25.1741 338.8362,28.3461 342.7502,28.3461 C346.6642,28.3461 349.8372,25.1741 349.8372,21.2601 C349.8372,9.5371 340.2992,0.0001 328.5762,0.0001 L115.9782,0.0001 C104.2562,0.0001 94.7192,9.5371 94.7192,21.2601 C94.7192,25.1741 97.8912,28.3461 101.8052,28.3461" id="Fill-6" fill="#1D1D1B"></path>
                    <path d="M222.2778,198.4248 C210.5548,198.4248 201.0178,188.8878 201.0178,177.1648 C201.0178,165.4428 210.5548,155.9048 222.2778,155.9048 C234.0008,155.9048 243.5378,165.4428 243.5378,177.1648 C243.5378,188.8878 234.0008,198.4248 222.2778,198.4248 M222.2778,141.7328 C202.7398,141.7328 186.8448,157.6278 186.8448,177.1648 C186.8448,194.2778 199.0378,208.5938 215.1918,211.8858 L215.1918,233.8588 C215.1918,237.7728 218.3638,240.9448 222.2778,240.9448 C226.1918,240.9448 229.3648,237.7728 229.3648,233.8588 L229.3648,211.8858 C245.5178,208.5938 257.7118,194.2768 257.7118,177.1648 C257.7118,157.6278 241.8158,141.7328 222.2778,141.7328" id="Fill-8" fill="#1D1D1B"></path>
                </g>
            </g>
        </g>
    </g>
</svg>