<?xml version="1.0" encoding="UTF-8"?>
<svg width="512px" height="512px" viewBox="0 0 512 512" version="1.1" xmlns="http://www.w3.org/2000/svg" xmlns:xlink="http://www.w3.org/1999/xlink">
    <!-- Generator: Sketch 61 (89581) - https://sketch.com -->
    <title>separate</title>
    <desc>Created with Sketch.</desc>
    <defs>
        <rect id="path-1" x="0" y="0" width="512" height="512"></rect>
        <polygon id="path-3" points="0.2912 0.44 127.851 0.44 127.851 128 0.2912 128"></polygon>
        <polygon id="path-5" points="0.07055 0.149 24.8508 0.149 24.8508 24.9287 0.07055 24.9287"></polygon>
        <polygon id="path-7" points="0.146072138 0.149 165.350829 0.149 165.350829 165.646 0.146072138 165.646"></polygon>
    </defs>
    <g id="separate" stroke="none" stroke-width="1" fill="none" fill-rule="evenodd">
        <g id="Group-18">
            <mask id="mask-2" fill="white">
                <use xlink:href="#path-1"></use>
            </mask>
            <g id="Mask"></g>
            <g mask="url(#mask-2)">
                <g transform="translate(58.000000, 57.000000)">
                    <path d="M7.0865,128.705 C3.1725,128.705 0.0005,125.532 0.0005,121.619 L0.0005,8.233 C0.0005,4.319 3.1725,1.146 7.0865,1.146 L120.4725,1.146 C124.3865,1.146 127.5595,4.319 127.5595,8.233 C127.5595,12.147 124.3865,15.319 120.4725,15.319 L14.1725,15.319 L14.1725,121.619 C14.1725,125.532 11.0005,128.705 7.0865,128.705" id="Fill-1" fill="#1D1D1B"></path>
                    <g id="Group-5" stroke-width="1" fill="none" transform="translate(269.000000, 269.851000)">
                        <mask id="mask-4" fill="white">
                            <use xlink:href="#path-3"></use>
                        </mask>
                        <g id="Clip-4"></g>
                        <path d="M120.7642,128 L7.3782,128 C3.4642,128 0.2912,124.827 0.2912,120.913 C0.2912,116.999 3.4642,113.826 7.3782,113.826 L113.6772,113.826 L113.6772,7.527 C113.6772,3.613 116.8502,0.44 120.7642,0.44 C124.6782,0.44 127.8512,3.613 127.8512,7.527 L127.8512,120.913 C127.8512,124.827 124.6782,128 120.7642,128" id="Fill-3" fill="#1D1D1B" mask="url(#mask-4)"></path>
                    </g>
                    <path d="M7.0865,397.851 C5.2735,397.851 3.4595,397.159 2.0755,395.775 C-0.6915,393.008 -0.6915,388.521 2.0755,385.753 L12.6825,375.146 C15.4495,372.378 19.9365,372.378 22.7045,375.146 C25.4715,377.913 25.4715,382.4 22.7045,385.167 L12.0975,395.775 C10.7135,397.159 8.8995,397.851 7.0865,397.851" id="Fill-6" fill="#1D1D1B"></path>
                    <path d="M336.6324,68.3051 C334.8194,68.3051 333.0054,67.6131 331.6214,66.2301 C328.8544,63.4621 328.8544,58.9751 331.6214,56.2071 L352.8844,34.9451 C355.6524,32.1781 360.1384,32.1781 362.9054,34.9451 C365.6734,37.7121 365.6734,42.2001 362.9054,44.9671 L341.6434,66.2301 C340.2594,67.6131 338.4454,68.3051 336.6324,68.3051 M294.1074,110.8301 C292.2934,110.8301 290.4804,110.1381 289.0964,108.7551 C286.3284,105.9871 286.3284,101.5001 289.0964,98.7321 L310.3594,77.4701 C313.1264,74.7021 317.6124,74.7021 320.3804,77.4701 C323.1484,80.2371 323.1484,84.7241 320.3804,87.4921 L299.1174,108.7551 C297.7344,110.1381 295.9204,110.8301 294.1074,110.8301 M251.5814,153.3551 C249.7684,153.3551 247.9544,152.6631 246.5704,151.2801 C243.8034,148.5131 243.8034,144.0251 246.5704,141.2581 L267.8334,119.9951 C270.6014,117.2281 275.0874,117.2281 277.8554,119.9951 C280.6224,122.7631 280.6224,127.2501 277.8554,130.0171 L256.5924,151.2801 C255.2084,152.6631 253.3954,153.3551 251.5814,153.3551 M209.0564,195.8811 C207.2424,195.8811 205.4294,195.1891 204.0454,193.8051 C201.2784,191.0381 201.2784,186.5511 204.0454,183.7831 L225.3084,162.5201 C228.0754,159.7541 232.5624,159.7541 235.3294,162.5201 C238.0974,165.2881 238.0974,169.7751 235.3294,172.5431 L214.0674,193.8051 C212.6834,195.1891 210.8694,195.8811 209.0564,195.8811 M166.5314,238.4071 C164.7174,238.4071 162.9034,237.7141 161.5204,236.3301 C158.7534,233.5631 158.7534,229.0761 161.5204,226.3091 L182.7834,205.0461 C185.5494,202.2791 190.0384,202.2791 192.8044,205.0461 C195.5724,207.8141 195.5724,212.3001 192.8044,215.0681 L171.5424,236.3301 C170.1584,237.7141 168.3444,238.4071 166.5314,238.4071 M124.0064,280.9311 C122.1934,280.9311 120.3794,280.2391 118.9954,278.8551 C116.2284,276.0871 116.2284,271.6011 118.9954,268.8331 L140.2584,247.5711 C143.0254,244.8031 147.5134,244.8031 150.2794,247.5711 C153.0474,250.3381 153.0474,254.8251 150.2794,257.5921 L129.0174,278.8551 C127.6334,280.2391 125.8204,280.9311 124.0064,280.9311 M81.4814,323.4561 C79.6674,323.4561 77.8534,322.7641 76.4704,321.3801 C73.7024,318.6131 73.7024,314.1261 76.4704,311.3591 L97.7324,290.0961 C100.5004,287.3281 104.9874,287.3281 107.7554,290.0961 C110.5224,292.8641 110.5224,297.3501 107.7554,300.1171 L86.4914,321.3801 C85.1084,322.7641 83.2944,323.4561 81.4814,323.4561 M38.9564,365.9821 C37.1424,365.9821 35.3284,365.2891 33.9454,363.9061 C31.1774,361.1381 31.1774,356.6521 33.9454,353.8841 L55.2074,332.6211 C57.9754,329.8541 62.4624,329.8541 65.2304,332.6211 C67.9974,335.3891 67.9974,339.8751 65.2304,342.6431 L43.9674,363.9061 C42.5834,365.2891 40.7694,365.9821 38.9564,365.9821" id="Fill-8" fill="#1D1D1B"></path>
                    <g id="Group-12" stroke-width="1" fill="none" transform="translate(372.000000, 0.851000)">
                        <mask id="mask-6" fill="white">
                            <use xlink:href="#path-5"></use>
                        </mask>
                        <g id="Clip-11"></g>
                        <path d="M7.1568,24.9287 C5.3438,24.9287 3.5298,24.2377 2.1458,22.8527 C-0.6212,20.0857 -0.6212,15.5987 2.1458,12.8307 L12.7538,2.2237 C15.5208,-0.5423 20.0078,-0.5443 22.7748,2.2247 C25.5428,4.9917 25.5428,9.4787 22.7748,12.2467 L12.1678,22.8537 C10.7838,24.2367 8.9698,24.9287 7.1568,24.9287" id="Fill-10" fill="#1D1D1B" mask="url(#mask-6)"></path>
                    </g>
                    <g id="Group-15" stroke-width="1" fill="none" transform="translate(0.000000, 0.851000)">
                        <mask id="mask-8" fill="white">
                            <use xlink:href="#path-7"></use>
                        </mask>
                        <g id="Clip-14"></g>
                        <path d="M158.2642,165.646 C156.4482,165.646 154.6332,164.953 153.2482,163.566 L2.2172,12.242 C-0.5478,9.471 -0.5438,4.984 2.2262,2.22 C4.9972,-0.546 9.4842,-0.541 12.2482,2.229 L163.2802,153.553 C166.0452,156.324 166.0402,160.811 163.2702,163.575 C161.8872,164.956 160.0752,165.646 158.2642,165.646" id="Fill-13" fill="#1D1D1B" mask="url(#mask-8)"></path>
                    </g>
                    <path d="M389.7642,397.851 C387.9482,397.851 386.1322,397.158 384.7482,395.77 L233.6442,244.372 C230.8792,241.603 230.8832,237.116 233.6542,234.351 C236.4232,231.585 240.9112,231.589 243.6752,234.361 L394.7802,385.758 C397.5442,388.528 397.5402,393.015 394.7702,395.78 C393.3872,397.161 391.5762,397.851 389.7642,397.851" id="Fill-16" fill="#1D1D1B"></path>
                </g>
            </g>
        </g>
    </g>
</svg>