<?xml version="1.0" encoding="UTF-8"?>
<svg width="512px" height="512px" viewBox="0 0 512 512" version="1.1" xmlns="http://www.w3.org/2000/svg" xmlns:xlink="http://www.w3.org/1999/xlink">
    <!-- Generator: Sketch 62 (91390) - https://sketch.com -->
    <title>search</title>
    <desc>Created with Sketch.</desc>
    <defs>
        <rect id="path-1" x="0" y="0" width="512" height="512"></rect>
        <polygon id="path-3" points="0.6057 0.4221 154.544 0.4221 154.544 128 0.6057 128"></polygon>
    </defs>
    <g id="search" stroke="none" stroke-width="1" fill="none" fill-rule="evenodd">
        <g id="Group-25">
            <mask id="mask-2" fill="white">
                <use xlink:href="#path-1"></use>
            </mask>
            <g id="Mask"></g>
            <g id="Group-12" mask="url(#mask-2)">
                <g transform="translate(29.000000, 29.000000)">
                    <path d="M184.252,354.3305 C90.47,354.3305 14.173,278.0335 14.173,184.2525 C14.173,90.4705 90.47,14.1735 184.252,14.1735 C278.033,14.1735 354.33,90.4705 354.33,184.2525 C354.33,278.0335 278.033,354.3305 184.252,354.3305 M329.712,297.2135 L350.535,318.0375 C351.919,319.4215 353.732,320.1135 355.546,320.1135 C357.359,320.1135 359.173,319.4215 360.557,318.0375 C363.324,315.2695 363.324,310.7835 360.557,308.0165 L338.084,285.5425 C357.298,256.4595 368.504,221.6425 368.504,184.2525 C368.504,82.6555 285.849,0.0005 184.252,0.0005 C82.655,0.0005 0,82.6555 0,184.2525 C0,285.8495 82.655,368.5045 184.252,368.5045 C243.315,368.5045 295.97,340.5635 329.712,297.2135" id="Fill-1" fill="#1D1D1B"></path>
                    <path d="M184.252,325.9839 C106.1,325.9839 42.519,262.4039 42.519,184.2529 C42.519,106.1009 106.1,42.5199 184.252,42.5199 C262.403,42.5199 325.983,106.1009 325.983,184.2529 C325.983,262.4039 262.403,325.9839 184.252,325.9839 M184.252,28.3469 C98.285,28.3469 28.346,98.2859 28.346,184.2529 C28.346,270.2179 98.285,340.1579 184.252,340.1579 C270.218,340.1579 340.157,270.2179 340.157,184.2529 C340.157,98.2859 270.218,28.3469 184.252,28.3469" id="Fill-3" fill="#1D1D1B"></path>
                    <path d="M210.5225,87.1152 C207.7555,84.3482 203.2685,84.3482 200.5005,87.1152 C197.7335,89.8832 197.7335,94.3702 200.5005,97.1372 L271.3675,168.0032 C272.7515,169.3862 274.5645,170.0782 276.3775,170.0782 C278.1915,170.0782 280.0045,169.3862 281.3885,168.0032 C284.1565,165.2362 284.1565,160.7482 281.3885,157.9812 L210.5225,87.1152 Z" id="Fill-5" fill="#1D1D1B"></path>
                    <path d="M253.042,87.1152 C250.274,84.3482 245.788,84.3482 243.021,87.1152 C240.253,89.8832 240.253,94.3702 243.021,97.1372 L271.367,125.4842 C272.751,126.8672 274.564,127.5592 276.378,127.5592 C278.191,127.5592 280.005,126.8672 281.389,125.4832 C284.156,122.7162 284.156,118.2292 281.389,115.4612 L253.042,87.1152 Z" id="Fill-7" fill="#1D1D1B"></path>
                    <g id="Group-11" stroke-width="1" fill="none" transform="translate(299.000000, 325.562000)">
                        <mask id="mask-4" fill="white">
                            <use xlink:href="#path-3"></use>
                        </mask>
                        <g id="Clip-10"></g>
                        <path d="M143.6797,64.5771 L81.6007,2.4981 C78.8327,-0.2699 74.3467,-0.2699 71.5787,2.4981 L50.3197,23.7581 C47.5517,26.5251 47.5517,31.0121 50.3197,33.7791 C53.0867,36.5471 57.5737,36.5471 60.3407,33.7791 L76.5897,17.5311 L133.6587,74.5981 C142.6177,83.5581 142.6177,98.1371 133.6587,107.0971 C124.6977,116.0561 110.1207,116.0561 101.1597,107.0971 L12.7027,18.6391 C9.9357,15.8721 5.4497,15.8721 2.6817,18.6391 C-0.0863,21.4071 -0.0863,25.8931 2.6817,28.6611 L91.1387,117.1181 C98.1557,124.1361 107.4857,128.0001 117.4087,128.0001 C127.3327,128.0001 136.6627,124.1361 143.6797,117.1181 C158.1657,102.6331 158.1657,79.0621 143.6797,64.5771" id="Fill-9" fill="#1D1D1B" mask="url(#mask-4)"></path>
                    </g>
                </g>
            </g>
        </g>
    </g>
</svg>