<svg xmlns="http://www.w3.org/2000/svg" width="40" height="40" viewBox="0 0 40 40"><defs><style>.a{fill:#e01e5a;}.b{fill:#36c5f0;}.c{fill:#2eb67d;}.d{fill:#ecb22e;}</style></defs><g transform="translate(-73.6 -73.6)"><g transform="translate(73.6 94.675)"><path class="a" d="M82,142.5a4.2,4.2,0,1,1-4.2-4.2H82Z" transform="translate(-73.6 -138.3)"/><path class="a" d="M105.9,142.5a4.2,4.2,0,0,1,8.4,0v10.521a4.2,4.2,0,0,1-8.4,0V142.5Z" transform="translate(-95.379 -138.3)"/></g><g transform="translate(73.6 73.6)"><path class="b" d="M110.1,82a4.2,4.2,0,1,1,4.2-4.2V82Z" transform="translate(-95.379 -73.6)"/><path class="b" d="M88.323,105.9a4.2,4.2,0,1,1,0,8.4H77.8a4.2,4.2,0,0,1,0-8.4H88.323Z" transform="translate(-73.6 -95.379)"/></g><g transform="translate(94.675 73.6)"><path class="c" d="M170.6,110.1a4.2,4.2,0,1,1,4.2,4.2h-4.2Z" transform="translate(-160.079 -95.379)"/><path class="c" d="M146.7,88.323a4.2,4.2,0,1,1-8.4,0V77.8a4.2,4.2,0,1,1,8.4,0Z" transform="translate(-138.3 -73.6)"/></g><g transform="translate(94.675 94.675)"><path class="d" d="M142.5,170.6a4.2,4.2,0,1,1-4.2,4.2v-4.2Z" transform="translate(-138.3 -160.079)"/><path class="d" d="M142.5,146.7a4.2,4.2,0,0,1,0-8.4h10.521a4.2,4.2,0,0,1,0,8.4Z" transform="translate(-138.3 -138.3)"/></g></g></svg>