<svg xmlns="http://www.w3.org/2000/svg" width="40" height="40" viewBox="0 0 40 40"><defs><style>.a{fill:#7b83eb;}.b{opacity:0.1;}.c{opacity:0.2;}.d{fill:#5059c9;}.e{fill:#4b53bc;}.f{fill:#fff;}.g{fill:none;}</style></defs><circle class="a" cx="5.833" cy="5.833" r="5.833" transform="translate(15.417 1.667)"/><path class="b" d="M17.723,7H12.441q.013.058.027.117l0,.01c.009.036.018.071.027.107a5.839,5.839,0,0,0,6.893,4.215V8.667A1.672,1.672,0,0,0,17.723,7Z" transform="translate(3.11 1.75)"/><path class="c" d="M16.388,8h-3.6a5.834,5.834,0,0,0,5.272,3.333V9.667A1.672,1.672,0,0,0,16.388,8Z" transform="translate(3.196 2)"/><circle class="d" cx="4.375" cy="4.375" r="4.375" transform="translate(30 5)"/><path class="d" d="M32.625,12H22.8a.8.8,0,0,0-.8.8V22.937a6.4,6.4,0,0,0,4.958,6.356,6.257,6.257,0,0,0,7.542-6.12v-9.3A1.875,1.875,0,0,0,32.625,12Z" transform="translate(5.5 3)"/><path class="a" d="M29,13.875V25.75a9.993,9.993,0,0,1-18.65,5,8.966,8.966,0,0,1-.625-1.25,10.459,10.459,0,0,1-.412-1.25A10.3,10.3,0,0,1,9,25.75V13.875A1.873,1.873,0,0,1,10.875,12h16.25A1.872,1.872,0,0,1,29,13.875Z" transform="translate(2.25 3)"/><path class="c" d="M16.388,8h-3.6a5.834,5.834,0,0,0,5.272,3.333V9.667A1.672,1.672,0,0,0,16.388,8Z" transform="translate(3.196 2)"/><path class="b" d="M20.25,12V27.837a1.65,1.65,0,0,1-1.3,1.612,1.208,1.208,0,0,1-.363.05H9.725a10.458,10.458,0,0,1-.413-1.25A10.3,10.3,0,0,1,9,25.75V13.875A1.873,1.873,0,0,1,10.875,12Z" transform="translate(2.25 3)"/><path class="c" d="M19,12V29.088a1.209,1.209,0,0,1-.05.363,1.65,1.65,0,0,1-1.612,1.3H10.35a8.966,8.966,0,0,1-.625-1.25,10.459,10.459,0,0,1-.412-1.25A10.3,10.3,0,0,1,9,25.75V13.875A1.873,1.873,0,0,1,10.875,12Z" transform="translate(2.25 3)"/><path class="c" d="M19,12V26.587a1.67,1.67,0,0,1-1.663,1.662H9.313A10.3,10.3,0,0,1,9,25.75V13.875A1.872,1.872,0,0,1,10.875,12Z" transform="translate(2.25 3)"/><path class="c" d="M10.875,12A1.872,1.872,0,0,0,9,13.875V25.75a10.3,10.3,0,0,0,.313,2.5h6.775a1.67,1.67,0,0,0,1.663-1.663V12Z" transform="translate(2.25 3)"/><path class="e" d="M1.667,8H18.333A1.667,1.667,0,0,1,20,9.667V26.333A1.667,1.667,0,0,1,18.333,28H1.667A1.667,1.667,0,0,1,0,26.333V9.667A1.667,1.667,0,0,1,1.667,8Z" transform="translate(0 2)"/><path class="f" d="M13.969,13.468H10.233V23.493H7.778V13.468H4.02V11h9.949Z" transform="translate(1.005 2.751)"/><rect class="g" width="40" height="40"/></svg>