<svg xmlns="http://www.w3.org/2000/svg" width="40" height="40" viewBox="0 0 40 40"><defs><style>.a{fill:none;}.b{fill:#00aff0;}.c{fill:#fff;}</style></defs><path class="a" d="M0,0H40V40H0Z"/><path class="b" d="M14.352,11.889A10.381,10.381,0,0,1,25.4,11.361a17.355,17.355,0,0,1,20.1,20.1A10.324,10.324,0,0,1,31.422,45.544a17.359,17.359,0,0,1-20.1-20.1,10.328,10.328,0,0,1,3.03-13.555Z" transform="translate(-8.414 -8.453)"/><path class="c" d="M30.322,28.14a7.68,7.68,0,0,1,6.659-.87,11.518,11.518,0,0,1,2.191,1.083,15.238,15.238,0,0,1,8.348.441,14.8,14.8,0,0,1,9.1,9.258,15.244,15.244,0,0,1,.361,8.114A8.957,8.957,0,0,1,58.4,49.839a7.682,7.682,0,0,1-9.58,8.381A10.194,10.194,0,0,1,46.156,57a15.191,15.191,0,0,1-8.77-.6,14.8,14.8,0,0,1-8.723-9.23,15.238,15.238,0,0,1-.317-7.989,8.406,8.406,0,0,1-1.481-4.636A7.7,7.7,0,0,1,30.322,28.14Z" transform="translate(-22.666 -22.675)"/><path class="b" d="M79.593,60.014a11.825,11.825,0,0,1,7.361,1.214,5.174,5.174,0,0,1,2.372,2.322,2.03,2.03,0,0,1-.217,2.17,2.354,2.354,0,0,1-2.347.536c-.917-.384-1.373-1.345-2.152-1.917a5.339,5.339,0,0,0-3.528-1,3.711,3.711,0,0,0-2.525.906,1.959,1.959,0,0,0-.241,2.489,4.312,4.312,0,0,0,2.216,1.106c1.511.378,3.039.683,4.556,1.041A7.442,7.442,0,0,1,89.3,71.217a5.985,5.985,0,0,1-.842,7.927,9.889,9.889,0,0,1-6.589,2.034,10.647,10.647,0,0,1-7.014-2.233,3.842,3.842,0,0,1-1.467-3.483,2.046,2.046,0,0,1,3.152-1.008c.784.63,1.209,1.588,1.966,2.245a4.8,4.8,0,0,0,3.372,1.13,4.2,4.2,0,0,0,3.25-1.231,2.183,2.183,0,0,0,.486-2.311,2.512,2.512,0,0,0-1.77-1.327c-1.331-.348-2.672-.666-4-1.017A12.4,12.4,0,0,1,75.6,70.388a4.563,4.563,0,0,1-1.964-2.828,5.892,5.892,0,0,1,1.208-5.306A7.866,7.866,0,0,1,79.593,60.014Z" transform="translate(-61.873 -50.519)"/></svg>