<svg xmlns="http://www.w3.org/2000/svg" width="44.37" height="25" viewBox="0 0 44.37 25"><defs><style>.a{fill:#3ddc84;}</style></defs><path class="a" d="M32.706,18.639a1.848,1.848,0,1,1,1.847-1.848,1.848,1.848,0,0,1-1.847,1.848m-20.422,0a1.848,1.848,0,1,1,1.847-1.848,1.848,1.848,0,0,1-1.847,1.848M33.368,7.51l3.692-6.4A.768.768,0,1,0,35.73.346L31.991,6.822A23.211,23.211,0,0,0,13,6.822L9.26.346a.768.768,0,1,0-1.331.768l3.693,6.4A21.8,21.8,0,0,0,.31,24.962H44.68A21.8,21.8,0,0,0,33.368,7.51" transform="translate(-0.31 0.039)"/></svg>