<?xml version="1.0" encoding="UTF-8"?>
<svg width="512px" height="512px" viewBox="0 0 512 512" version="1.1" xmlns="http://www.w3.org/2000/svg" xmlns:xlink="http://www.w3.org/1999/xlink">
    <!-- Generator: Sketch 61 (89581) - https://sketch.com -->
    <title>nosoftware</title>
    <desc>Created with Sketch.</desc>
    <defs>
        <rect id="path-1" x="0" y="0" width="512" height="512"></rect>
        <polygon id="path-3" points="0.0004 0.457 396.851 0.457 396.851 453.9996 0.0004 453.9996"></polygon>
    </defs>
    <g id="nosoftware" stroke="none" stroke-width="1" fill="none" fill-rule="evenodd">
        <g id="Group-6">
            <mask id="mask-2" fill="white">
                <use xlink:href="#path-1"></use>
            </mask>
            <g id="Mask"></g>
            <g mask="url(#mask-2)">
                <g transform="translate(58.000000, 29.000000)">
                    <g id="Group-3" stroke-width="1" fill="none" transform="translate(0.000000, 0.543000)">
                        <mask id="mask-4" fill="white">
                            <use xlink:href="#path-3"></use>
                        </mask>
                        <g id="Clip-2"></g>
                        <path d="M368.5044,42.9766 C360.6894,42.9766 354.3304,36.6186 354.3304,28.8036 C354.3304,20.9886 360.6894,14.6296 368.5044,14.6296 C376.3194,14.6296 382.6774,20.9886 382.6774,28.8036 C382.6774,36.6186 376.3194,42.9766 368.5044,42.9766 L368.5044,42.9766 Z M311.8114,385.7236 L198.4254,439.0806 L85.0394,385.7236 L85.0394,238.8126 L198.4254,185.4546 L311.8114,238.8126 L311.8114,385.7236 Z M184.2524,28.8036 C184.2524,20.9886 190.6104,14.6296 198.4254,14.6296 C206.2404,14.6296 212.5984,20.9886 212.5984,28.8036 C212.5984,36.6186 206.2404,42.9766 198.4254,42.9766 C190.6104,42.9766 184.2524,36.6186 184.2524,28.8036 L184.2524,28.8036 Z M14.1724,28.8036 C14.1724,20.9886 20.5314,14.6296 28.3464,14.6296 C36.1614,14.6296 42.5204,20.9886 42.5204,28.8036 C42.5204,36.6186 36.1614,42.9766 28.3464,42.9766 C20.5314,42.9766 14.1724,36.6186 14.1724,28.8036 L14.1724,28.8036 Z M396.8514,28.8036 C396.8514,13.1726 384.1344,0.4566 368.5044,0.4566 C352.8734,0.4566 340.1564,13.1726 340.1564,28.8036 C340.1564,41.9876 349.2044,53.0976 361.4174,56.2526 L361.4174,99.6696 L276.3784,99.6696 C272.4644,99.6696 269.2914,102.8416 269.2914,106.7556 L269.2914,203.1396 L205.5124,173.1246 L205.5124,56.2526 C217.7244,53.0976 226.7724,41.9876 226.7724,28.8036 C226.7724,13.1726 214.0554,0.4566 198.4254,0.4566 C182.7954,0.4566 170.0794,13.1726 170.0794,28.8036 C170.0794,41.9876 179.1264,53.0976 191.3384,56.2526 L191.3384,173.1246 L127.5594,203.1396 L127.5594,106.7556 C127.5594,102.8416 124.3864,99.6696 120.4724,99.6696 L35.4334,99.6696 L35.4334,56.2526 C47.6454,53.0976 56.6924,41.9876 56.6924,28.8036 C56.6924,13.1726 43.9774,0.4566 28.3464,0.4566 C12.7164,0.4566 0.0004,13.1726 0.0004,28.8036 C0.0004,41.9876 9.0474,53.0986 21.2604,56.2526 L21.2604,106.7556 C21.2604,110.6696 24.4324,113.8426 28.3464,113.8426 L113.3864,113.8426 L113.3864,209.8086 L74.9354,227.9036 C72.4514,229.0726 70.8664,231.5706 70.8664,234.3156 L70.8664,390.2206 C70.8664,392.9656 72.4514,395.4636 74.9354,396.6326 L195.4074,453.3256 C196.3634,453.7746 197.3944,453.9996 198.4254,453.9996 C199.4564,453.9996 200.4864,453.7746 201.4424,453.3256 L321.9154,396.6326 C324.3994,395.4636 325.9844,392.9656 325.9844,390.2206 L325.9844,234.3156 C325.9844,231.5706 324.3994,229.0726 321.9154,227.9036 L283.4654,209.8096 L283.4654,113.8426 L368.5044,113.8426 C372.4184,113.8426 375.5914,110.6696 375.5914,106.7556 L375.5914,56.2526 C387.8034,53.0976 396.8514,41.9876 396.8514,28.8036 L396.8514,28.8036 Z" id="Fill-1" fill="#1D1D1B" mask="url(#mask-4)"></path>
                    </g>
                    <path d="M139.6562,244.0205 C136.8892,241.2525 132.4022,241.2525 129.6342,244.0205 C126.8672,246.7885 126.8672,251.2745 129.6352,254.0415 L188.4042,312.8105 L129.6352,371.5795 C126.8672,374.3465 126.8672,378.8325 129.6342,381.6005 C131.0182,382.9845 132.8312,383.6765 134.6452,383.6765 C136.4592,383.6765 138.2732,382.9845 139.6562,381.6005 L198.4252,322.8325 L257.1942,381.6005 C258.5772,382.9845 260.3912,383.6765 262.2042,383.6765 C264.0182,383.6765 265.8312,382.9845 267.2152,381.6005 C269.9832,378.8325 269.9832,374.3465 267.2152,371.5795 L208.4472,312.8105 L267.2152,254.0415 C269.9832,251.2745 269.9832,246.7885 267.2152,244.0205 C264.4482,241.2525 259.9612,241.2525 257.1942,244.0205 L198.4252,302.7895 L139.6562,244.0205 Z" id="Fill-4" fill="#1D1D1B"></path>
                </g>
            </g>
        </g>
    </g>
</svg>