<svg xmlns="http://www.w3.org/2000/svg" width="40" height="40" viewBox="0 0 40 40"><defs><style>.a{fill:#444;}</style></defs><g transform="translate(-28.35 -28.35)"><path class="a" d="M57.484,54.612l1.84,1.84a.626.626,0,0,0,.884-.884l-1.985-1.985a16.306,16.306,0,1,0-.737,1.028ZM44.631,59.659A15.028,15.028,0,1,1,59.659,44.631,15.046,15.046,0,0,1,44.631,59.659Z" transform="translate(0 0)"/><path class="a" d="M70.466,56.69A13.776,13.776,0,1,0,84.242,70.466,13.79,13.79,0,0,0,70.466,56.69Zm0,26.3A12.523,12.523,0,1,1,82.99,70.466,12.538,12.538,0,0,1,70.466,82.99Z" transform="translate(-25.836 -25.836)"/><path class="a" d="M228.182,113.889a.626.626,0,0,0-.884.884l6.261,6.262a.626.626,0,1,0,.884-.884Z" transform="translate(-181.23 -77.841)"/><path class="a" d="M270.7,113.889a.626.626,0,0,0-.884.884l2.5,2.505a.626.626,0,1,0,.884-.884Z" transform="translate(-219.993 -77.841)"/><path class="a" d="M340.265,360.011l-5.478-5.485a.626.626,0,0,0-.884,0l-1.879,1.879a.626.626,0,0,0,.884.884l1.436-1.436,5.037,5.045a2.032,2.032,0,0,1-2.871,2.871l-7.816-7.816a.626.626,0,1,0-.884.884l7.815,7.816a3.283,3.283,0,0,0,4.64-4.64Z" transform="translate(-272.802 -297.188)"/></g></svg>