<?xml version="1.0" encoding="UTF-8"?>
<svg width="512px" height="512px" viewBox="0 0 512 512" version="1.1" xmlns="http://www.w3.org/2000/svg" xmlns:xlink="http://www.w3.org/1999/xlink">
    <!-- Generator: Sketch 61 (89581) - https://sketch.com -->
    <title>sync</title>
    <desc>Created with Sketch.</desc>
    <defs>
        <rect id="path-1" x="0" y="0" width="512" height="512"></rect>
        <polygon id="path-3" points="0.8682 0.105453686 380.148638 0.105453686 380.148638 321 0.8682 321"></polygon>
    </defs>
    <g id="sync" stroke="none" stroke-width="1" fill="none" fill-rule="evenodd">
        <g id="Group-6">
            <mask id="mask-2" fill="white">
                <use xlink:href="#path-1"></use>
            </mask>
            <g id="Mask"></g>
            <g mask="url(#mask-2)">
                <g transform="translate(43.000000, 43.000000)">
                    <path d="M1.7267,185.2932 C7.7727,138.3552 28.6997,95.8142 62.2457,62.2692 C102.3997,22.1142 155.7877,0.0002 212.5747,0.0002 C269.3617,0.0002 322.7487,22.1142 362.9037,62.2692 C363.6457,63.0102 364.3747,63.7672 365.1067,64.5212 L365.1067,22.9132 C365.1067,18.9992 368.2797,15.8272 372.1937,15.8272 C376.1077,15.8272 379.2797,18.9992 379.2797,22.9132 L379.2797,83.0452 C379.2797,86.9592 376.1077,90.1312 372.1937,90.1312 L312.0617,90.1312 C308.1477,90.1312 304.9747,86.9592 304.9747,83.0452 C304.9747,79.1312 308.1477,75.9592 312.0617,75.9592 L356.4497,75.9592 C355.2727,74.7212 354.0857,73.4942 352.8817,72.2902 C315.4047,34.8132 265.5757,14.1732 212.5747,14.1732 C159.5737,14.1732 109.7447,34.8132 72.2667,72.2912 C40.9567,103.6002 21.4247,143.3022 15.7837,187.1042 C10.3177,229.5432 18.8527,273.2992 39.8177,310.3142 C41.7467,313.7192 40.5497,318.0432 37.1437,319.9722 C36.0407,320.5972 34.8417,320.8942 33.6587,320.8942 C31.1887,320.8942 28.7887,319.6012 27.4857,317.2982 C5.0197,277.6332 -4.1283,230.7532 1.7267,185.2932" id="Fill-1" fill="#1D1D1B"></path>
                    <g id="Group-5" stroke-width="1" fill="none" transform="translate(45.000000, 104.197000)">
                        <mask id="mask-4" fill="white">
                            <use xlink:href="#path-3"></use>
                        </mask>
                        <g id="Clip-4"></g>
                        <path d="M7.9552,230.8672 L68.0872,230.8672 C72.0012,230.8672 75.1742,234.0402 75.1742,237.9542 C75.1742,241.8682 72.0012,245.0412 68.0872,245.0412 L23.6992,245.0412 C24.8762,246.2792 26.0632,247.5062 27.2672,248.7092 C64.7442,286.1862 114.5732,306.8262 167.5742,306.8262 C220.5752,306.8262 270.4042,286.1862 307.8822,248.7092 C339.1912,217.3992 358.7232,177.6972 364.3642,133.8952 C369.8312,91.4562 361.2952,47.7002 340.3312,10.6852 C338.4012,7.2802 339.5992,2.9552 343.0042,1.0272 C346.4092,-0.9018 350.7342,0.2952 352.6632,3.7002 C375.1292,43.3652 384.2772,90.2452 378.4222,135.7062 C372.3762,182.6442 351.4492,225.1852 317.9042,258.7302 C277.7492,298.8862 224.3612,321.0002 167.5742,321.0002 C110.7872,321.0002 57.3992,298.8862 17.2452,258.7312 C16.5042,257.9902 15.7742,257.2332 15.0422,256.4792 L15.0422,298.0862 C15.0422,302.0002 11.8692,305.1732 7.9552,305.1732 C4.0412,305.1732 0.8682,302.0002 0.8682,298.0862 L0.8682,237.9542 C0.8682,234.0402 4.0412,230.8672 7.9552,230.8672" id="Fill-3" fill="#1D1D1B" mask="url(#mask-4)"></path>
                    </g>
                </g>
            </g>
        </g>
    </g>
</svg>