<svg xmlns="http://www.w3.org/2000/svg" width="30.011" height="40" viewBox="0 0 30.011 40"><defs><style>.a{fill:#444;}</style></defs><g transform="translate(-85 -28.45)"><path class="a" d="M314.693,184.2h-2.5a.625.625,0,1,0,0,1.25h2.5a.625.625,0,1,0,0-1.25Z" transform="translate(-206.559 -142.006)"/><path class="a" d="M219.233,184.2h-6.251a.625.625,0,1,0,0,1.25h6.251a.625.625,0,1,0,0-1.25Z" transform="translate(-116.101 -142.006)"/><path class="a" d="M145.863,185.445a.625.625,0,0,0,0-1.25h-3.751a.625.625,0,1,0,0,1.25Z" transform="translate(-51.483 -142.006)"/><path class="a" d="M303.5,226.72h-5a.625.625,0,0,0,0,1.25h5a.625.625,0,0,0,0-1.25Z" transform="translate(-194.116 -180.78)"/><path class="a" d="M142.113,227.965h11.253a.625.625,0,0,0,0-1.25H142.113a.625.625,0,1,0,0,1.25Z" transform="translate(-51.483 -180.775)"/><path class="a" d="M342.026,270.481a.625.625,0,1,0,0-1.251h-1.251a.625.625,0,1,0,0,1.251Z" transform="translate(-232.642 -219.54)"/><path class="a" d="M234.934,269.23h-7.5a.625.625,0,1,0,0,1.251h7.5a.625.625,0,1,0,0-1.251Z" transform="translate(-129.3 -219.54)"/><path class="a" d="M142.355,270.481h5a.625.625,0,1,0,0-1.251h-5a.625.625,0,0,0,0,1.251Z" transform="translate(-51.726 -219.54)"/><path class="a" d="M283.46,312.375a.625.625,0,0,0,.625.625h6.252a.625.625,0,1,0,0-1.251h-6.252A.626.626,0,0,0,283.46,312.375Z" transform="translate(-180.953 -258.309)"/><path class="a" d="M142.355,313h10a.625.625,0,1,0,0-1.251h-10a.625.625,0,0,0,0,1.251Z" transform="translate(-51.726 -258.309)"/><path class="a" d="M115.011,39.068a.625.625,0,0,0-.625-.625h-5a1.876,1.876,0,0,1-1.875-1.875v-2.5a.625.625,0,0,0-1.251,0v2.5a3.13,3.13,0,0,0,3.126,3.126h4.374V65.325a1.877,1.877,0,0,1-1.875,1.875H88.129a1.878,1.878,0,0,1-1.875-1.875V31.567a1.878,1.878,0,0,1,1.875-1.875h17.249l7.322,7.322a.625.625,0,1,0,.882-.882l-7.5-7.5a.625.625,0,0,0-.441-.183H88.129A3.129,3.129,0,0,0,85,31.567V65.325a3.129,3.129,0,0,0,3.125,3.125h23.759a3.13,3.13,0,0,0,3.126-3.125Z" transform="translate(0 0)"/></g></svg>