<?xml version="1.0" encoding="UTF-8"?>
<svg width="512px" height="512px" viewBox="0 0 512 512" version="1.1" xmlns="http://www.w3.org/2000/svg" xmlns:xlink="http://www.w3.org/1999/xlink">
    <!-- Generator: Sketch 61 (89581) - https://sketch.com -->
    <title>communitychannels</title>
    <desc>Created with Sketch.</desc>
    <defs>
        <rect id="path-1" x="0" y="0" width="512" height="512"></rect>
        <polygon id="path-3" points="0.6671 0.8924 235.1451 0.8924 235.1451 281 0.6671 281"></polygon>
        <polygon id="path-5" points="0.0003 0.176 57.76155 0.176 57.76155 224.811 0.0003 224.811"></polygon>
        <polygon id="path-7" points="0.05095 0.0822386093 57.811 0.0822386093 57.811 148.8096 0.05095 148.8096"></polygon>
    </defs>
    <g id="communitychannels" stroke="none" stroke-width="1" fill="none" fill-rule="evenodd">
        <g id="Group-18">
            <mask id="mask-2" fill="white">
                <use xlink:href="#path-1"></use>
            </mask>
            <g id="Mask"></g>
            <g mask="url(#mask-2)">
                <g transform="translate(100.000000, 15.000000)">
                    <path d="M155.9067,84.9705 C171.5367,84.9705 184.2527,97.6865 184.2527,113.3175 C184.2527,128.9475 171.5367,141.6635 155.9067,141.6635 C140.2767,141.6635 127.5597,128.9475 127.5597,113.3175 C127.5597,97.6865 140.2767,84.9705 155.9067,84.9705 M155.9067,155.8365 C179.3517,155.8365 198.4267,136.7625 198.4267,113.3175 C198.4267,89.8715 179.3517,70.7975 155.9067,70.7975 C132.4617,70.7975 113.3867,89.8715 113.3867,113.3175 C113.3867,136.7625 132.4617,155.8365 155.9067,155.8365" id="Fill-1" fill="#1D1D1B"></path>
                    <g id="Group-5" stroke-width="1" fill="none" transform="translate(38.000000, 200.824000)">
                        <mask id="mask-4" fill="white">
                            <use xlink:href="#path-3"></use>
                        </mask>
                        <g id="Clip-4"></g>
                        <path d="M146.8491,134.8164 C144.0811,132.0484 139.5951,132.0484 136.8281,134.8164 L117.9071,153.7374 L80.6391,116.4684 L117.9071,26.4964 L207.8781,243.7094 L127.9281,163.7584 L146.8491,144.8374 C149.6171,142.0704 149.6171,137.5844 146.8491,134.8164 L146.8491,134.8164 Z M27.9341,243.7094 L74.7681,130.6414 L107.8851,163.7584 L27.9341,243.7094 Z M234.3191,277.2334 C234.4021,277.0764 234.4741,276.9154 234.5441,276.7534 C234.5651,276.7074 234.5901,276.6624 234.6101,276.6144 C234.6691,276.4684 234.7181,276.3204 234.7681,276.1714 C234.7911,276.1024 234.8201,276.0354 234.8411,275.9644 C234.8771,275.8444 234.9041,275.7224 234.9331,275.6014 C234.9581,275.4984 234.9891,275.3954 235.0091,275.2914 C235.0271,275.2044 235.0361,275.1154 235.0501,275.0274 C235.0731,274.8864 235.0971,274.7474 235.1111,274.6044 C235.1171,274.5514 235.1161,274.4994 235.1201,274.4454 C235.1331,274.2694 235.1451,274.0924 235.1451,273.9154 C235.1451,273.8954 235.1451,273.8764 235.1451,273.8554 C235.1411,273.6484 235.1331,273.4404 235.1131,273.2324 C235.1131,273.2284 235.1121,273.2244 235.1121,273.2214 C235.0901,273.0014 235.0591,272.7804 235.0161,272.5594 C234.9271,272.0974 234.7891,271.6434 234.6071,271.2034 C234.6071,271.2024 234.6071,271.2004 234.6061,271.1994 L124.4561,5.2734 C124.3661,5.0544 124.2641,4.8404 124.1521,4.6314 C124.1091,4.5494 124.0581,4.4734 124.0111,4.3944 C123.9411,4.2744 123.8721,4.1534 123.7951,4.0374 C123.7331,3.9434 123.6621,3.8564 123.5961,3.7654 C123.5261,3.6704 123.4581,3.5734 123.3821,3.4814 C123.3111,3.3934 123.2331,3.3124 123.1571,3.2284 C123.0781,3.1404 123.0001,3.0504 122.9151,2.9664 C122.8401,2.8914 122.7601,2.8224 122.6821,2.7514 C122.5881,2.6664 122.4971,2.5794 122.4001,2.4994 C122.3211,2.4344 122.2381,2.3774 122.1571,2.3164 C122.0531,2.2384 121.9521,2.1594 121.8431,2.0864 C121.7491,2.0244 121.6521,1.9704 121.5561,1.9134 C121.4531,1.8514 121.3551,1.7864 121.2481,1.7304 C121.0851,1.6434 120.9171,1.5664 120.7481,1.4934 C120.7041,1.4734 120.6631,1.4494 120.6191,1.4314 C120.5681,1.4104 120.5161,1.3964 120.4641,1.3764 C120.2991,1.3124 120.1321,1.2494 119.9621,1.1974 C119.8501,1.1634 119.7381,1.1394 119.6251,1.1114 C119.5131,1.0834 119.4031,1.0514 119.2901,1.0294 C119.1651,1.0044 119.0401,0.9894 118.9151,0.9714 C118.8111,0.9564 118.7081,0.9374 118.6031,0.9274 C118.4811,0.9154 118.3591,0.9124 118.2371,0.9064 C118.1271,0.9014 118.0181,0.8924 117.9091,0.8924 C117.7921,0.8924 117.6771,0.9014 117.5611,0.9074 C117.4461,0.9134 117.3291,0.9154 117.2131,0.9264 C117.1011,0.9384 116.9911,0.9584 116.8791,0.9744 C116.7621,0.9914 116.6441,1.0054 116.5271,1.0284 C116.4041,1.0534 116.2851,1.0874 116.1631,1.1174 C116.0601,1.1444 115.9561,1.1654 115.8531,1.1964 C115.6641,1.2544 115.4791,1.3224 115.2961,1.3954 C115.2631,1.4084 115.2281,1.4174 115.1951,1.4314 C115.1661,1.4424 115.1401,1.4584 115.1121,1.4704 C114.9261,1.5504 114.7421,1.6354 114.5631,1.7314 C114.4671,1.7824 114.3771,1.8414 114.2841,1.8964 C114.1781,1.9604 114.0711,2.0194 113.9681,2.0874 C113.8691,2.1544 113.7761,2.2284 113.6811,2.2984 C113.5901,2.3654 113.4971,2.4304 113.4101,2.5024 C113.3211,2.5754 113.2391,2.6544 113.1541,2.7314 C113.0661,2.8104 112.9771,2.8864 112.8941,2.9694 C112.8181,3.0454 112.7491,3.1274 112.6771,3.2064 C112.5931,3.2984 112.5071,3.3884 112.4281,3.4844 C112.3621,3.5654 112.3031,3.6504 112.2411,3.7334 C112.1641,3.8354 112.0861,3.9354 112.0151,4.0424 C111.9511,4.1374 111.8961,4.2374 111.8371,4.3354 C111.7771,4.4354 111.7141,4.5324 111.6581,4.6364 C111.5631,4.8154 111.4781,4.9984 111.3981,5.1844 C111.3861,5.2124 111.3711,5.2384 111.3591,5.2664 L66.2961,114.0584 C65.7511,114.8654 65.3871,115.7574 65.2101,116.6794 L1.2061,271.1994 L1.2031,271.2084 C1.1141,271.4244 1.0361,271.6444 0.9691,271.8674 C0.9671,271.8734 0.9641,271.8784 0.9631,271.8834 C0.9061,272.0754 0.8611,272.2684 0.8201,272.4624 C0.7211,272.9344 0.6711,273.4084 0.6671,273.8784 C0.6671,273.8894 0.6671,273.9014 0.6671,273.9134 C0.6671,274.0944 0.6791,274.2754 0.6931,274.4554 C0.6971,274.5034 0.6971,274.5534 0.7021,274.6034 C0.7161,274.7474 0.7411,274.8884 0.7641,275.0314 C0.7771,275.1174 0.7871,275.2054 0.8041,275.2914 C0.8241,275.3934 0.8531,275.4944 0.8781,275.5964 C0.9081,275.7194 0.9351,275.8434 0.9721,275.9654 C0.9921,276.0314 1.0181,276.0944 1.0401,276.1594 C1.0911,276.3124 1.1421,276.4654 1.2041,276.6154 C1.2211,276.6564 1.2421,276.6954 1.2591,276.7354 C1.3321,276.9034 1.4081,277.0714 1.4951,277.2344 C1.5221,277.2864 1.5551,277.3354 1.5841,277.3854 C1.6661,277.5314 1.7481,277.6774 1.8421,277.8194 C2.1021,278.2134 2.4041,278.5834 2.7431,278.9204 C2.7431,278.9214 2.7431,278.9214 2.7431,278.9214 C2.7451,278.9244 2.7481,278.9264 2.7511,278.9284 C2.9131,279.0914 3.0851,279.2464 3.2651,279.3934 C3.3221,279.4404 3.3821,279.4804 3.4401,279.5254 C3.5641,279.6204 3.6871,279.7154 3.8191,279.8034 C3.9421,279.8854 4.0701,279.9594 4.1971,280.0324 C4.2681,280.0744 4.3361,280.1194 4.4091,280.1574 C4.6121,280.2664 4.8191,280.3644 5.0291,280.4524 C5.0341,280.4544 5.0371,280.4564 5.0421,280.4584 L5.0431,280.4584 C5.2471,280.5434 5.4551,280.6174 5.6651,280.6814 C5.6821,280.6864 5.6991,280.6934 5.7161,280.6994 C5.8521,280.7404 5.9911,280.7694 6.1291,280.8014 C6.6681,280.9294 7.2121,281.0004 7.7511,281.0004 C7.7741,281.0004 7.7971,280.9954 7.8211,280.9954 C8.1001,280.9924 8.3791,280.9684 8.6581,280.9334 C8.7381,280.9224 8.8181,280.9114 8.8981,280.8984 C9.5011,280.7994 10.0921,280.6234 10.6581,280.3684 C10.7151,280.3424 10.7711,280.3174 10.8281,280.2904 C11.3701,280.0284 11.8861,279.6944 12.3621,279.2864 C12.4361,279.2224 12.5071,279.1564 12.5781,279.0894 C12.6401,279.0334 12.7051,278.9814 12.7651,278.9214 L117.9071,173.7804 L223.0481,278.9214 C223.1071,278.9804 223.1701,279.0304 223.2311,279.0874 C223.3051,279.1554 223.3781,279.2234 223.4541,279.2894 C223.6841,279.4864 223.9191,279.6704 224.1651,279.8334 C224.1701,279.8364 224.1741,279.8384 224.1791,279.8414 C224.4371,280.0104 224.7061,280.1554 224.9801,280.2874 C225.0391,280.3164 225.0991,280.3434 225.1601,280.3714 C225.4421,280.4974 225.7291,280.6114 226.0231,280.6994 C226.0231,280.6994 226.0241,280.7004 226.0251,280.7004 C226.3171,280.7874 226.6141,280.8494 226.9121,280.8984 C226.9941,280.9114 227.0751,280.9224 227.1571,280.9334 C227.4341,280.9684 227.7121,280.9924 227.9921,280.9954 C228.0151,280.9954 228.0381,281.0004 228.0621,281.0004 C228.5081,281.0004 228.9581,280.9574 229.4071,280.8694 C229.4091,280.8694 229.4111,280.8684 229.4121,280.8684 C229.4791,280.8554 229.5441,280.8354 229.6111,280.8194 C230.0041,280.7314 230.3921,280.6144 230.7691,280.4594 C230.7701,280.4594 230.7701,280.4584 230.7711,280.4584 C230.7781,280.4554 230.7851,280.4514 230.7911,280.4484 C230.9991,280.3614 231.2031,280.2654 231.4031,280.1584 C231.4791,280.1174 231.5491,280.0714 231.6231,280.0284 C231.7471,279.9554 231.8721,279.8844 231.9941,279.8034 C232.1281,279.7144 232.2541,279.6164 232.3811,279.5194 C232.4361,279.4764 232.4941,279.4384 232.5471,279.3944 C233.1051,278.9384 233.5841,278.4064 233.9721,277.8184 C234.0541,277.6954 234.1231,277.5664 234.1971,277.4394 C234.2371,277.3704 234.2821,277.3034 234.3191,277.2334 L234.3191,277.2334 Z" id="Fill-3" fill="#1D1D1B" mask="url(#mask-4)"></path>
                    </g>
                    <path d="M73.4087,168.4475 C74.7757,170.4895 77.0187,171.5925 79.3037,171.5925 C80.6587,171.5925 82.0297,171.2045 83.2397,170.3935 C86.4917,168.2165 87.3637,163.8155 85.1857,160.5625 C75.8177,146.5695 70.8657,130.2325 70.8657,113.3175 C70.8657,96.4025 75.8177,80.0645 85.1867,66.0715 C87.3637,62.8195 86.4927,58.4175 83.2407,56.2405 C79.9897,54.0635 75.5867,54.9345 73.4087,58.1865 C62.4727,74.5205 56.6927,93.5845 56.6927,113.3175 C56.6927,133.0495 62.4727,152.1135 73.4087,168.4475" id="Fill-6" fill="#1D1D1B"></path>
                    <path d="M228.5718,170.3933 C229.7828,171.2043 231.1528,171.5923 232.5078,171.5923 C234.7928,171.5923 237.0368,170.4883 238.4028,168.4473 C249.3388,152.1123 255.1188,133.0483 255.1188,113.3173 C255.1188,93.5863 249.3388,74.5223 238.4028,58.1873 C236.2258,54.9373 231.8278,54.0633 228.5718,56.2413 C225.3198,58.4183 224.4478,62.8203 226.6258,66.0723 C235.9938,80.0663 240.9448,96.4033 240.9448,113.3173 C240.9448,130.2313 235.9938,146.5683 226.6258,160.5623 C224.4478,163.8143 225.3198,168.2163 228.5718,170.3933" id="Fill-8" fill="#1D1D1B"></path>
                    <g id="Group-12" stroke-width="1" fill="none" transform="translate(0.000000, 0.824000)">
                        <mask id="mask-6" fill="white">
                            <use xlink:href="#path-5"></use>
                        </mask>
                        <g id="Clip-11"></g>
                        <path d="M50.6753,224.811 C52.4883,224.811 54.3023,224.119 55.6863,222.735 C58.4533,219.968 58.4533,215.481 55.6863,212.713 C28.9163,185.944 14.1733,150.352 14.1733,112.493 C14.1733,74.635 28.9163,39.043 55.6863,12.273 C58.4533,9.505 58.4533,5.018 55.6863,2.25 C52.9193,-0.516 48.4313,-0.516 45.6643,2.25 C16.2173,31.698 0.0003,70.85 0.0003,112.493 C0.0003,154.137 16.2173,193.289 45.6643,222.736 C47.0483,224.12 48.8623,224.811 50.6753,224.811" id="Fill-10" fill="#1D1D1B" mask="url(#mask-6)"></path>
                    </g>
                    <g id="Group-15" stroke-width="1" fill="none" transform="translate(254.000000, 76.824000)">
                        <mask id="mask-8" fill="white">
                            <use xlink:href="#path-7"></use>
                        </mask>
                        <g id="Clip-14"></g>
                        <path d="M40.8872,8.5596 C42.7122,17.6916 43.6372,27.0896 43.6372,36.4936 C43.6372,74.3516 28.8952,109.9436 2.1262,136.7126 C-0.6408,139.4796 -0.6408,143.9676 2.1262,146.7346 C3.5102,148.1186 5.3242,148.8096 7.1372,148.8096 C8.9502,148.8096 10.7642,148.1186 12.1482,146.7346 C41.5942,117.2886 57.8112,78.1376 57.8112,36.4936 C57.8112,26.1596 56.7922,15.8266 54.7852,5.7826 C54.0182,1.9436 50.2792,-0.5474 46.4482,0.2216 C42.6102,0.9886 40.1202,4.7216 40.8872,8.5596" id="Fill-13" fill="#1D1D1B" mask="url(#mask-8)"></path>
                    </g>
                    <path d="M286.9927,59.325 C288.1207,62.059 290.7627,63.712 293.5477,63.712 C294.4467,63.712 295.3627,63.539 296.2457,63.175 C299.8637,61.683 301.5887,57.54 300.0967,53.922 C292.2277,34.842 280.8057,17.735 266.1477,3.076 C263.3807,0.309 258.8937,0.309 256.1267,3.076 C253.3587,5.844 253.3587,10.331 256.1267,13.098 C269.4567,26.428 279.8417,41.981 286.9927,59.325" id="Fill-16" fill="#1D1D1B"></path>
                </g>
            </g>
        </g>
    </g>
</svg>