<svg xmlns="http://www.w3.org/2000/svg" width="42.577" height="40" viewBox="0 0 42.577 40"><defs><style>.a{fill:#444;}</style></defs><g transform="translate(-14.17 -28.307)"><path class="a" d="M369.976,269.694a.645.645,0,1,0-1.29,0,.91.91,0,1,1-1.821,0,.645.645,0,1,0-1.29,0,2.2,2.2,0,1,0,4.4,0Z" transform="translate(-319.416 -218.804)"/><path class="a" d="M155.54,186.759a.644.644,0,0,0,.868.278,13.573,13.573,0,0,1,12.391,0,.632.632,0,0,0,.294.072.645.645,0,0,0,.3-1.219,14.865,14.865,0,0,0-13.573,0,.645.645,0,0,0-.278.869Z" transform="translate(-128.436 -141.747)"/><path class="a" d="M144.161,42.3a.645.645,0,0,0,.5-1.056,7.1,7.1,0,1,1,10.924-.032.645.645,0,0,0,.995.819,8.387,8.387,0,1,0-12.911.036A.642.642,0,0,0,144.161,42.3Z" transform="translate(-115.938)"/><path class="a" d="M56.258,150.2l-3.715-.929a12.245,12.245,0,0,0-2.485-4.976,12.183,12.183,0,0,0,.664-2.822,3.3,3.3,0,0,0-.614-2.718c-.784-.784-2.082-.651-3.86.4a17.885,17.885,0,0,0-3.2,2.485,3.871,3.871,0,0,0,5.3,5.637.645.645,0,1,0-.856-.966,2.581,2.581,0,0,1-3.533-3.759,16.378,16.378,0,0,1,2.948-2.285c1.34-.789,2.063-.825,2.292-.6.442.442.388,2.292-.471,4.511a.637.637,0,0,0-.037.123.645.645,0,0,0,.15.551,10.938,10.938,0,0,1,2.53,5.074.646.646,0,0,0,.474.5l3.614.9v4.154l-4.58,1.144a.645.645,0,0,0-.421.34,11.042,11.042,0,0,1-5.13,5.056.643.643,0,0,0-.364.522l-.413,4.408h-2.7l-.285-3.041a.645.645,0,0,0-.91-.527,10.983,10.983,0,0,1-8.52.248.645.645,0,0,0-.876.541l-.26,2.78h-2.7l-.386-4.113a.646.646,0,0,0-.4-.539,10.97,10.97,0,0,1-1.682-19.522.645.645,0,0,0-.678-1.1,12.2,12.2,0,0,0-5.044,6.1,2.258,2.258,0,1,0-.837,3.49,1.934,1.934,0,0,1-3.815-.455.645.645,0,0,0-1.291,0,3.224,3.224,0,0,0,5.225,2.529,12.255,12.255,0,0,0,7.275,9.992l.405,4.312a.644.644,0,0,0,.642.585h3.871a.645.645,0,0,0,.643-.585l.238-2.549a12.3,12.3,0,0,0,7.9-.2l.258,2.757a.646.646,0,0,0,.643.585h3.871a.646.646,0,0,0,.643-.585l.434-4.634a12.344,12.344,0,0,0,5.265-5.216l4.781-1.191a.645.645,0,0,0,.489-.626v-5.165A.645.645,0,0,0,56.258,150.2Zm-37.894-.019a.968.968,0,1,1,.968-.968A.968.968,0,0,1,18.364,150.184Z" transform="translate(0 -99.94)"/><path class="a" d="M212.386,71.6a.859.859,0,0,1-.86-.859.645.645,0,1,0-1.29,0,2.154,2.154,0,0,0,1.5,2.052v.455a.645.645,0,1,0,1.29,0V72.8a2.151,2.151,0,0,0,.876-3.573.383.383,0,0,0-.028-.026l-2.112-1.872a.86.86,0,1,1,1.48-.6.645.645,0,1,0,1.29,0,2.153,2.153,0,0,0-1.506-2.052v-.455a.645.645,0,1,0-1.29,0v.455a2.151,2.151,0,0,0-.875,3.573c.009.009.018.018.028.026l2.112,1.871a.859.859,0,0,1-.62,1.456Z" transform="translate(-178.217 -32.038)"/></g></svg>