<svg xmlns="http://www.w3.org/2000/svg" width="40.272" height="40" viewBox="0 0 40.272 40"><defs><style>.a{fill:#444;}</style></defs><g transform="translate(-54.001 -56.697)"><path class="a" d="M62.4,68.126a5.721,5.721,0,0,0,5.668-5H75.3a5.713,5.713,0,0,0,11.337,0h2.189a6.429,6.429,0,0,1,0,12.858H76.271l3.066-3.066a.715.715,0,0,0-1.008-1.008l-4.286,4.286h0a.583.583,0,0,0-.047.052.237.237,0,0,0-.019.025l-.022.03c-.007.01-.013.021-.019.031s-.012.019-.017.029-.01.021-.016.032-.009.02-.014.031a.234.234,0,0,0-.011.031c0,.01-.009.023-.012.034l-.009.032a.222.222,0,0,1-.008.035.132.132,0,0,1-.006.038c-.006.013,0,.02,0,.031a.542.542,0,0,0,0,.071h0a.55.55,0,0,0,0,.071V76.8l.006.036a.16.16,0,0,0,.009.036.284.284,0,0,0,.008.031.128.128,0,0,0,.012.036l.011.03.015.032a.075.075,0,0,0,.015.031l.018.031.017.028c.008.012.017.023.026.035l.016.021c.015.018.031.036.048.053l4.285,4.285a.715.715,0,0,0,1.008-1.008l-3.066-3.07H88.829a7.862,7.862,0,0,0,0-15.715H86.64a5.713,5.713,0,0,0-11.337,0H68.068A5.714,5.714,0,1,0,62.4,68.126Zm18.572-10a4.286,4.286,0,1,1-4.286,4.286A4.286,4.286,0,0,1,80.972,58.126Zm-18.572,0a4.286,4.286,0,1,1-4.286,4.286A4.286,4.286,0,0,1,62.4,58.126Z" transform="translate(-2.413)"/><path class="a" d="M88.559,257.276a5.721,5.721,0,0,0-5.668,5H75.655a5.713,5.713,0,0,0-11.337,0H62.13a6.429,6.429,0,1,1,0-12.857h7.143a.715.715,0,1,0,0-1.429H62.13a7.862,7.862,0,1,0,0,15.715h2.188a5.713,5.713,0,0,0,11.337,0h7.236a5.713,5.713,0,1,0,5.668-6.429Zm-18.572,10a4.286,4.286,0,1,1,4.286-4.286A4.286,4.286,0,0,1,69.987,267.276Zm18.572,0a4.286,4.286,0,1,1,4.286-4.286A4.286,4.286,0,0,1,88.559,267.276Z" transform="translate(0 -172.006)"/></g></svg>