<svg xmlns="http://www.w3.org/2000/svg" width="37.337" height="40" viewBox="0 0 37.337 40"><defs><style>.a{fill:#444;}</style></defs><g transform="translate(-56.65 -28.34)"><path class="a" d="M57.357,248.942a.667.667,0,0,0,.667-.666v-6H90.69a.667.667,0,1,0,0-1.334H57.357a.668.668,0,0,0-.667.664v6.67a.667.667,0,0,0,.667.668Z" transform="translate(-0.036 -192.6)"/><path class="a" d="M138.649,192.668a.667.667,0,1,0,0-1.333H127.986a.667.667,0,1,0,0,1.333Z" transform="translate(-63.998 -147.661)"/><path class="a" d="M127.986,290.545a.667.667,0,1,0,0,1.333h10.663a.667.667,0,1,0,0-1.333Z" transform="translate(-63.998 -237.538)"/><path class="a" d="M128.227,389.76a.667.667,0,1,0,0,1.334H138.89a.667.667,0,0,0,0-1.334Z" transform="translate(-64.239 -327.42)"/><path class="a" d="M301.64,179.17a2,2,0,1,0-2,2A2,2,0,0,0,301.64,179.17Zm-2.667,0a.667.667,0,1,1,.667.666A.667.667,0,0,1,298.973,179.17Z" transform="translate(-218.319 -134.829)"/><path class="a" d="M358.33,179.17a2,2,0,1,0-2,2A2,2,0,0,0,358.33,179.17Zm-2.667,0a.667.667,0,1,1,.667.666A.667.667,0,0,1,355.663,179.17Z" transform="translate(-269.676 -134.829)"/><path class="a" d="M297.64,278.38a2,2,0,1,0,2-2A2,2,0,0,0,297.64,278.38Zm2.666,0a.664.664,0,1,1-.194-.472.667.667,0,0,1,.194.472Z" transform="translate(-218.319 -224.706)"/><path class="a" d="M354.33,278.38a2,2,0,1,0,2-2A2,2,0,0,0,354.33,278.38Zm2.667,0a.667.667,0,1,1-.667-.667A.667.667,0,0,1,357,278.38Z" transform="translate(-269.676 -224.706)"/><path class="a" d="M297.64,377.59a2,2,0,1,0,2-2A2,2,0,0,0,297.64,377.59Zm2.666,0a.664.664,0,1,1-.194-.472.667.667,0,0,1,.194.472Z" transform="translate(-218.319 -314.583)"/><path class="a" d="M354.33,377.59a2,2,0,1,0,2-2A2,2,0,0,0,354.33,377.59Zm2.667,0a.667.667,0,1,1-.667-.667A.667.667,0,0,1,357,377.59Z" transform="translate(-269.676 -314.583)"/><path class="a" d="M91.321,141.73h-32A2.67,2.67,0,0,0,56.65,144.4v4.667a.667.667,0,0,0,1.334,0V144.4a1.334,1.334,0,0,1,1.333-1.333h32a1.334,1.334,0,0,1,1.333,1.333v24a1.335,1.335,0,0,1-1.333,1.333h-32a1.334,1.334,0,0,1-1.329-1.333v-5.334a1.334,1.334,0,0,1,1.329-1.333H90.654a.667.667,0,1,0,0-1.333H59.317a2.67,2.67,0,0,0-2.663,2.666V168.4a2.67,2.67,0,0,0,2.663,2.666h32a2.669,2.669,0,0,0,2.666-2.666v-24A2.67,2.67,0,0,0,91.321,141.73Z" transform="translate(0 -102.723)"/><path class="a" d="M128.224,33.715a.664.664,0,0,0,.47-.2l2.862-2.862v6.39a.667.667,0,1,0,1.333,0V30.662l2.863,2.865a.667.667,0,1,0,.941-.941l-4-4c-.016-.016-.032-.031-.049-.045l-.022-.016-.031-.023-.028-.017-.028-.017-.029-.014-.029-.013-.03-.011-.032-.011-.03-.008-.033-.008-.037-.006h-.027a.781.781,0,0,0-.133,0h-.025l-.039.006-.031.008-.032.008-.03.01-.032.012-.027.012-.032.015-.025.015-.03.019-.027.021-.025.018a.534.534,0,0,0-.048.044h0l-4,4a.667.667,0,0,0,.47,1.138Z" transform="translate(-64.236 -0.045)"/><path class="a" d="M287.333,37.478a.535.535,0,0,0,.048.044l.011.008.041.03.01.007.046.027h.008l.052.024h0a.5.5,0,0,0,.056.02h.006a.562.562,0,0,0,.057.014h.017a.376.376,0,0,0,.047.007.6.6,0,0,0,.134,0l.049-.007h.016a.564.564,0,0,0,.057-.014H288c.019-.006.038-.013.056-.021h0c.018-.008.035-.016.053-.025h.006a.513.513,0,0,0,.049-.029h.008a.527.527,0,0,0,.046-.034h.007c.017-.014.033-.029.049-.044l4-4a.667.667,0,1,0-.941-.941L288.473,35.4v-6.4a.667.667,0,1,0-1.334,0V35.4l-2.864-2.862a.667.667,0,1,0-.941.941Z" transform="translate(-205.15)"/></g></svg>