<svg xmlns="http://www.w3.org/2000/svg" width="37.331" height="40" viewBox="0 0 37.331 40"><defs><style>.a{fill:#444;}</style></defs><g transform="translate(-56.69 -42.52)"><path class="a" d="M113,58.52a.667.667,0,0,0,.666.667h2.667A.668.668,0,0,0,117,58.52a16,16,0,0,0-32,0,.667.667,0,0,0,.667.667h2.666A.667.667,0,0,0,89,58.52a12,12,0,1,1,24,0Zm-25.317-.667H86.352a14.667,14.667,0,0,1,29.3,0h-1.335a13.334,13.334,0,0,0-26.634,0Z" transform="translate(-25.647)"/><path class="a" d="M116.723,269.285H115.39a.667.667,0,1,0,0,1.333h.666v10.667h-1.333v-8.667a.667.667,0,0,0-1.333,0v9.334a.666.666,0,0,0,.666.666h2.667a.667.667,0,0,0,.667-.666v-12a.667.667,0,0,0-.667-.667Z" transform="translate(-51.366 -205.432)"/><path class="a" d="M268.692,271.952a.666.666,0,0,0-.666.666v8.667h-1.334V270.618h.667a.667.667,0,1,0,0-1.333h-1.333a.666.666,0,0,0-.667.667v12a.666.666,0,0,0,.667.666h1.057l-2.667,2.667h-1.628v-.667a.666.666,0,0,0-.667-.666h-5.334a.667.667,0,0,0-.667.666v2.667a.668.668,0,0,0,.667.667h5.333a.667.667,0,0,0,.667-.667v-.667h1.9a.664.664,0,0,0,.47-.195l4-4a.591.591,0,0,0,.046-.051l.013-.017.025-.035.015-.024c.007-.011.013-.021.019-.032a.219.219,0,0,0,.012-.026.344.344,0,0,0,.015-.033.092.092,0,0,1,.009-.025c0-.008.009-.024.013-.036a.268.268,0,0,1,.007-.026.262.262,0,0,1,.008-.037.09.09,0,0,1,0-.029l.006-.036v-9.4A.666.666,0,0,0,268.692,271.952Zm-7.238,14.666h-4v-1.333h4Z" transform="translate(-180.669 -205.432)"/><path class="a" d="M61.357,240.94a.668.668,0,0,0-.667.664v2h-.666a3.338,3.338,0,0,0-3.334,3.333V253.6a3.337,3.337,0,0,0,3.334,3.334.667.667,0,0,0,0-1.333,2,2,0,0,1-2-2V246.94a2,2,0,0,1,2-2h1.333a.667.667,0,0,0,.667-.666V241.6A.668.668,0,0,0,61.357,240.94Z" transform="translate(0 -179.754)"/><path class="a" d="M398.827,243.339h-.669v-2a.667.667,0,1,0-1.333,0V244a.666.666,0,0,0,.667.666h1.333a2,2,0,0,1,2,2v6.667a2,2,0,0,1-2,2,.667.667,0,1,0,0,1.333,3.337,3.337,0,0,0,3.333-3.333v-6.664A3.337,3.337,0,0,0,398.827,243.339Z" transform="translate(-308.137 -179.486)"/></g></svg>