<?xml version="1.0" encoding="UTF-8"?>
<svg width="512px" height="512px" viewBox="0 0 512 512" version="1.1" xmlns="http://www.w3.org/2000/svg" xmlns:xlink="http://www.w3.org/1999/xlink">
    <!-- Generator: Sketch 61 (89581) - https://sketch.com -->
    <title>receipts</title>
    <desc>Created with Sketch.</desc>
    <defs>
        <rect id="path-1" x="0" y="0" width="512" height="512"></rect>
    </defs>
    <g id="receipts" stroke="none" stroke-width="1" fill="none" fill-rule="evenodd">
        <g id="Group-7">
            <mask id="mask-2" fill="white">
                <use xlink:href="#path-1"></use>
            </mask>
            <g id="Mask"></g>
            <g mask="url(#mask-2)" fill="#1D1D1B">
                <g transform="translate(29.000000, 58.000000)">
                    <path d="M139.4577,396.853 C137.6147,396.853 135.8327,396.133 134.5017,394.831 L2.1297,265.281 C-0.6673,262.543 -0.7153,258.057 2.0217,255.259 C4.7597,252.463 9.2457,252.414 12.0427,255.152 L138.3107,378.728 L389.2617,3.151 C391.4357,-0.103 395.8357,-0.98 399.0917,1.196 C402.3457,3.371 403.2207,7.771 401.0467,11.025 L145.3507,393.704 C144.1787,395.457 142.2877,396.597 140.1907,396.815 C139.9457,396.84 139.7017,396.853 139.4577,396.853" id="Fill-1"></path>
                    <path d="M190.7595,396.853 C188.9285,396.853 187.1565,396.142 185.8275,394.854 L175.3725,384.719 C172.5625,381.996 172.4925,377.509 175.2175,374.699 C177.9425,371.889 182.4285,371.819 185.2385,374.543 L189.5895,378.762 L440.5635,3.151 C442.7375,-0.103 447.1375,-0.98 450.3935,1.196 C453.6475,3.371 454.5225,7.771 452.3485,11.025 L196.6525,393.704 C195.4845,395.452 193.6005,396.59 191.5095,396.813 C191.2595,396.839 191.0085,396.853 190.7595,396.853" id="Fill-3"></path>
                    <path d="M139.4577,346.3589 C137.6737,346.3589 135.8887,345.6889 134.5107,344.3449 L53.4407,265.2899 C50.6387,262.5569 50.5827,258.0709 53.3147,255.2689 C56.0467,252.4649 60.5337,252.4099 63.3357,255.1429 L144.4057,334.1989 C147.2077,336.9309 147.2647,341.4179 144.5317,344.2189 C143.1437,345.6439 141.3007,346.3589 139.4577,346.3589" id="Fill-5"></path>
                </g>
            </g>
        </g>
    </g>
</svg>