<?xml version="1.0" encoding="UTF-8"?>
<svg width="512px" height="512px" viewBox="0 0 512 512" version="1.1" xmlns="http://www.w3.org/2000/svg" xmlns:xlink="http://www.w3.org/1999/xlink">
    <!-- Generator: Sketch 61 (89581) - https://sketch.com -->
    <title>offlinemessaging</title>
    <desc>Created with Sketch.</desc>
    <defs>
        <rect id="path-1" x="0" y="0" width="512" height="512"></rect>
        <polygon id="path-3" points="0 0.456 453.543 0.456 453.543 454 0 454"></polygon>
    </defs>
    <g id="offlinemessaging" stroke="none" stroke-width="1" fill="none" fill-rule="evenodd">
        <g id="Group-30">
            <mask id="mask-2" fill="white">
                <use xlink:href="#path-1"></use>
            </mask>
            <g id="Mask"></g>
            <g mask="url(#mask-2)">
                <g transform="translate(29.000000, 29.000000)">
                    <path d="M113.3853,227.7715 C113.3853,223.8575 110.2133,220.6855 106.2993,220.6855 L77.9523,220.6855 C74.0383,220.6855 70.8663,223.8575 70.8663,227.7715 C70.8663,231.6855 74.0383,234.8585 77.9523,234.8585 L106.2993,234.8585 C110.2133,234.8585 113.3853,231.6855 113.3853,227.7715" id="Fill-1" fill="#1D1D1B"></path>
                    <path d="M226.7715,341.1573 C222.8575,341.1573 219.6855,344.3303 219.6855,348.2443 L219.6855,376.5913 C219.6855,380.5053 222.8575,383.6783 226.7715,383.6783 C230.6855,383.6783 233.8585,380.5053 233.8585,376.5913 L233.8585,348.2443 C233.8585,344.3303 230.6855,341.1573 226.7715,341.1573" id="Fill-3" fill="#1D1D1B"></path>
                    <path d="M375.5898,220.6851 L347.2438,220.6851 C343.3298,220.6851 340.1568,223.8571 340.1568,227.7711 C340.1568,231.6851 343.3298,234.8581 347.2438,234.8581 L375.5898,234.8581 C379.5038,234.8581 382.6768,231.6851 382.6768,227.7711 C382.6768,223.8571 379.5038,220.6851 375.5898,220.6851" id="Fill-5" fill="#1D1D1B"></path>
                    <path d="M162.0454,101.4805 C160.0874,98.0915 155.7544,96.9305 152.3644,98.8865 C148.9754,100.8435 147.8144,105.1775 149.7714,108.5675 L156.8584,120.8415 C158.1704,123.1155 160.5524,124.3865 163.0024,124.3865 C164.2044,124.3865 165.4224,124.0795 166.5384,123.4355 C169.9284,121.4785 171.0894,117.1445 169.1324,113.7545 L162.0454,101.4805 Z" id="Fill-7" fill="#1D1D1B"></path>
                    <path d="M119.8491,157.8458 L107.5751,150.7598 C104.1841,148.8008 99.8501,149.9638 97.8941,153.3528 C95.9371,156.7428 97.0991,161.0768 100.4881,163.0338 L112.7621,170.1198 C113.8781,170.7648 115.0971,171.0708 116.2991,171.0708 C118.7481,171.0708 121.1301,169.7998 122.4431,167.5268 C124.4001,164.1368 123.2381,159.8028 119.8491,157.8458" id="Fill-9" fill="#1D1D1B"></path>
                    <path d="M112.7563,285.3975 L100.4823,292.4845 C97.0923,294.4415 95.9313,298.7755 97.8883,302.1645 C99.2013,304.4385 101.5823,305.7095 104.0323,305.7095 C105.2343,305.7095 106.4533,305.4025 107.5693,304.7575 L119.8433,297.6705 C123.2323,295.7135 124.3943,291.3795 122.4373,287.9915 C120.4803,284.6005 116.1463,283.4385 112.7563,285.3975" id="Fill-11" fill="#1D1D1B"></path>
                    <path d="M166.5278,332.086 C163.1368,330.13 158.8028,331.29 156.8468,334.681 L149.7608,346.955 C147.8038,350.345 148.9658,354.679 152.3548,356.636 C153.4708,357.279 154.6888,357.586 155.8908,357.586 C158.3398,357.586 160.7228,356.315 162.0348,354.041 L169.1218,341.767 C171.0788,338.377 169.9168,334.043 166.5278,332.086" id="Fill-13" fill="#1D1D1B"></path>
                    <path d="M296.6738,334.6866 C294.7168,331.2966 290.3828,330.1356 286.9928,332.0916 C283.6038,334.0486 282.4428,338.3826 284.3988,341.7726 L291.4848,354.0466 C292.7968,356.3206 295.1798,357.5916 297.6288,357.5916 C298.8308,357.5916 300.0488,357.2856 301.1648,356.6416 C304.5548,354.6846 305.7158,350.3506 303.7598,346.9606 L296.6738,334.6866 Z" id="Fill-15" fill="#1D1D1B"></path>
                    <path d="M353.043,292.4952 L340.769,285.4082 C337.381,283.4502 333.046,284.6112 331.089,288.0022 C329.132,291.3912 330.293,295.7242 333.683,297.6822 L345.957,304.7682 C347.072,305.4132 348.291,305.7202 349.493,305.7202 C351.942,305.7202 354.324,304.4482 355.637,302.1752 C357.594,298.7862 356.433,294.4522 353.043,292.4952" id="Fill-17" fill="#1D1D1B"></path>
                    <path d="M337.2383,171.0816 C338.4403,171.0816 339.6593,170.7746 340.7743,170.1306 L353.0493,163.0436 C356.4383,161.0866 357.5993,156.7526 355.6423,153.3636 C353.6853,149.9736 349.3493,148.8116 345.9633,150.7696 L333.6883,157.8566 C330.2993,159.8136 329.1373,164.1476 331.0943,167.5376 C332.4073,169.8106 334.7893,171.0816 337.2383,171.0816" id="Fill-19" fill="#1D1D1B"></path>
                    <path d="M287.0029,123.4415 C288.1179,124.0865 289.3369,124.3925 290.5389,124.3925 C292.9879,124.3925 295.3699,123.1215 296.6829,120.8475 L303.7699,108.5735 C305.7269,105.1835 304.5649,100.8495 301.1759,98.8925 C297.7879,96.9335 293.4529,98.0965 291.4959,101.4865 L284.4089,113.7605 C282.4519,117.1505 283.6129,121.4845 287.0029,123.4415" id="Fill-21" fill="#1D1D1B"></path>
                    <path d="M226.7715,241.9444 C218.9565,241.9444 212.5985,235.5874 212.5985,227.7714 C212.5985,219.9564 218.9565,213.5984 226.7715,213.5984 C234.5865,213.5984 240.9445,219.9564 240.9445,227.7714 C240.9445,235.5874 234.5865,241.9444 226.7715,241.9444 M318.8975,220.6854 L254.2215,220.6854 C251.6515,210.7384 243.8045,202.8924 233.8585,200.3224 L233.8585,107.2994 L233.8585,100.2124 L233.8585,86.0394 L233.8585,78.9524 C233.8585,75.0384 230.6855,71.8664 226.7715,71.8664 C222.8575,71.8664 219.6855,75.0384 219.6855,78.9524 L219.6855,86.0394 L219.6855,100.2124 L219.6855,107.2994 L219.6855,200.3224 C209.7385,202.8914 201.8915,210.7384 199.3225,220.6854 L191.3385,220.6854 C187.4245,220.6854 184.2515,223.8574 184.2515,227.7714 C184.2515,231.6854 187.4245,234.8584 191.3385,234.8584 L199.3225,234.8584 C201.8925,244.8044 209.7385,252.6514 219.6855,255.2214 L219.6855,263.2054 C219.6855,267.1194 222.8575,270.2924 226.7715,270.2924 C230.6855,270.2924 233.8585,267.1194 233.8585,263.2054 L233.8585,255.2204 C243.8045,252.6514 251.6515,244.8044 254.2205,234.8584 L318.8975,234.8584 C322.8115,234.8584 325.9845,231.6854 325.9845,227.7714 C325.9845,223.8574 322.8115,220.6854 318.8975,220.6854" id="Fill-23" fill="#1D1D1B"></path>
                    <path d="M226.7715,397.8497 C132.9895,397.8497 56.6925,321.5527 56.6925,227.7717 C56.6925,133.9897 132.9895,57.6927 226.7715,57.6927 C320.5525,57.6927 396.8495,133.9897 396.8495,227.7717 C396.8495,321.5527 320.5525,397.8497 226.7715,397.8497 M226.7715,43.5197 C125.1745,43.5197 42.5195,126.1747 42.5195,227.7717 C42.5195,329.3687 125.1745,412.0237 226.7715,412.0237 C328.3685,412.0237 411.0235,329.3687 411.0235,227.7717 C411.0235,126.1747 328.3685,43.5197 226.7715,43.5197" id="Fill-25" fill="#1D1D1B"></path>
                    <g id="Group-29" stroke-width="1" fill="none" transform="translate(0.000000, 0.544000)">
                        <mask id="mask-4" fill="white">
                            <use xlink:href="#path-3"></use>
                        </mask>
                        <g id="Clip-28"></g>
                        <path d="M387.123,66.876 C344.292,24.044 287.345,0.456 226.771,0.456 C166.199,0.456 109.251,24.044 66.42,66.876 C23.588,109.708 0,166.655 0,227.228 C0,287.801 23.588,344.748 66.42,387.58 C109.251,430.411 166.199,454 226.771,454 C281.914,454 335.066,433.97 376.435,397.601 C379.375,395.017 379.663,390.539 377.079,387.6 C374.497,384.66 370.017,384.369 367.078,386.956 C328.297,421.05 278.468,439.826 226.771,439.826 C109.544,439.826 14.173,344.455 14.173,227.228 C14.173,110.001 109.544,14.629 226.771,14.629 C343.998,14.629 439.369,110.001 439.369,227.228 C439.369,278.851 420.642,328.624 386.636,367.379 C384.055,370.32 384.347,374.798 387.289,377.38 C390.232,379.96 394.708,379.667 397.29,376.727 C433.565,335.385 453.543,282.292 453.543,227.228 C453.543,166.655 429.954,109.707 387.123,66.876" id="Fill-27" fill="#1D1D1B" mask="url(#mask-4)"></path>
                    </g>
                </g>
            </g>
        </g>
    </g>
</svg>