<svg xmlns="http://www.w3.org/2000/svg" width="38.472" height="40" viewBox="0 0 38.472 40"><defs><style>.a{fill:#444;}</style></defs><g transform="translate(-37.006 -28.34)"><path class="a" d="M57.315,156.73a.625.625,0,0,0,.625-.625V144.856a1.876,1.876,0,0,1,1.875-1.875H71.69a.625.625,0,1,0,0-1.251H59.816a3.129,3.129,0,0,0-3.126,3.126V156.1A.625.625,0,0,0,57.315,156.73Z" transform="translate(-17.948 -103.39)"/><path class="a" d="M277,142.981H288.87a1.877,1.877,0,0,1,1.875,1.875V156.1a.625.625,0,1,0,1.25,0V144.856a3.128,3.128,0,0,0-3.125-3.126H277a.625.625,0,0,0,0,1.251Z" transform="translate(-218.253 -103.39)"/><path class="a" d="M219.475,368.5h-6.249a.625.625,0,0,0,0,1.251h6.249a.625.625,0,0,0,0-1.251Z" transform="translate(-160.107 -310.16)"/><path class="a" d="M170.822,43.523a.625.625,0,1,0-.882.882l6.879,6.879a.626.626,0,0,0,.882,0l6.875-6.879a.625.625,0,1,0-.882-.882l-5.808,5.808V28.965a.625.625,0,1,0-1.251,0V49.332Z" transform="translate(-121.012)"/><path class="a" d="M75.127,326.937a2.357,2.357,0,0,0-2.01-.957H39.368a2.2,2.2,0,0,0-2.152,3.177l3.141,7.86a4.6,4.6,0,0,0,4.008,2.714H68.117a4.6,4.6,0,0,0,4.009-2.714l3.143-7.86A2.352,2.352,0,0,0,75.127,326.937Zm-1.019,1.758-3.143,7.857a3.362,3.362,0,0,1-2.849,1.929H44.367a3.358,3.358,0,0,1-2.848-1.929l-3.143-7.857a.965.965,0,0,1,.991-1.466h33.75a1.131,1.131,0,0,1,.975.407A1.117,1.117,0,0,1,74.109,328.695Z" transform="translate(0 -271.39)"/></g></svg>