<?xml version="1.0" encoding="UTF-8"?>
<svg width="512px" height="512px" viewBox="0 0 512 512" version="1.1" xmlns="http://www.w3.org/2000/svg" xmlns:xlink="http://www.w3.org/1999/xlink">
    <!-- Generator: Sketch 61 (89581) - https://sketch.com -->
    <title>directory</title>
    <desc>Created with Sketch.</desc>
    <defs>
        <rect id="path-1" x="0" y="0" width="512" height="512"></rect>
        <polygon id="path-3" points="0 0.456 354.3307 0.456 354.3307 453.9999 0 453.9999"></polygon>
        <polygon id="path-5" points="0.3472 0.8027 368.851 0.8027 368.851 57.4947 0.3472 57.4947"></polygon>
        <polygon id="path-7" points="0.5032 0.6689 28.851 0.6689 28.851 57.3609 0.5032 57.3609"></polygon>
        <polygon id="path-9" points="0.5032 0.5347 28.851 0.5347 28.851 57.2277 0.5032 57.2277"></polygon>
        <polygon id="path-11" points="0.5032 0.4004 28.851 0.4004 28.851 57.0934 0.5032 57.0934"></polygon>
        <polygon id="path-13" points="0.5032 0.0381 28.851 0.0381 28.851 56.7311 0.5032 56.7311"></polygon>
    </defs>
    <g id="directory" stroke="none" stroke-width="1" fill="none" fill-rule="evenodd">
        <g id="Group-25">
            <mask id="mask-2" fill="white">
                <use xlink:href="#path-1"></use>
            </mask>
            <g id="Mask"></g>
            <g mask="url(#mask-2)">
                <g transform="translate(58.000000, 29.000000)">
                    <g id="Group-3" stroke-width="1" fill="none" transform="translate(0.000000, 0.544000)">
                        <mask id="mask-4" fill="white">
                            <use xlink:href="#path-3"></use>
                        </mask>
                        <g id="Clip-2"></g>
                        <path d="M347.2437,57.1489 L63.7797,57.1489 C59.8657,57.1489 56.6937,60.3209 56.6937,64.2349 C56.6937,68.1489 59.8657,71.3219 63.7797,71.3219 L340.1567,71.3219 L340.1567,418.5659 C340.1567,430.2889 330.6207,439.8259 318.8977,439.8259 L35.4327,439.8259 C23.7107,439.8259 14.1727,430.2889 14.1727,418.5659 L14.1727,64.2159 C18.2957,67.3169 23.1127,69.5419 28.3467,70.6089 L28.3467,418.5659 C28.3467,422.4809 31.5197,425.6529 35.4327,425.6529 C39.3467,425.6529 42.5197,422.4809 42.5197,418.5659 L42.5197,64.2349 C42.5197,63.7459 42.4707,63.2689 42.3757,62.8069 C41.7147,59.5779 38.8577,57.1489 35.4327,57.1489 C23.7107,57.1489 14.1727,47.6119 14.1727,35.8889 C14.1727,24.1669 23.7107,14.6289 35.4327,14.6289 L347.2437,14.6289 C351.1577,14.6289 354.3307,11.4569 354.3307,7.5429 C354.3307,3.6279 351.1577,0.4559 347.2437,0.4559 L35.4327,0.4559 C15.8947,0.4559 -0.0003,16.3509 -0.0003,35.8889 L-0.0003,418.5659 C-0.0003,438.1049 15.8947,453.9999 35.4327,453.9999 L318.8977,453.9999 C338.4347,453.9999 354.3307,438.1049 354.3307,418.5659 L354.3307,64.2349 C354.3307,60.3209 351.1577,57.1489 347.2437,57.1489" id="Fill-1" fill="#1D1D1B" mask="url(#mask-4)"></path>
                    </g>
                    <g id="Group-6" stroke-width="1" fill="none" transform="translate(28.000000, 28.544000)">
                        <mask id="mask-6" fill="white">
                            <use xlink:href="#path-5"></use>
                        </mask>
                        <g id="Clip-5"></g>
                        <path d="M361.7642,0.8027 L7.4332,0.8027 C3.5192,0.8027 0.3472,3.9747 0.3472,7.8887 C0.3472,11.8027 3.5192,14.9757 7.4332,14.9757 L354.6772,14.9757 L354.6772,43.3227 L347.5902,43.3227 C343.6762,43.3227 340.5032,46.4947 340.5032,50.4087 C340.5032,54.3227 343.6762,57.4947 347.5902,57.4947 L361.7642,57.4947 C365.6782,57.4947 368.8512,54.3227 368.8512,50.4087 L368.8512,7.8887 C368.8512,3.9747 365.6782,0.8027 361.7642,0.8027" id="Fill-4" fill="#1D1D1B" mask="url(#mask-6)"></path>
                    </g>
                    <g id="Group-9" stroke-width="1" fill="none" transform="translate(368.000000, 99.544000)">
                        <mask id="mask-8" fill="white">
                            <use xlink:href="#path-7"></use>
                        </mask>
                        <g id="Clip-8"></g>
                        <path d="M21.7642,0.6689 L7.5902,0.6689 C3.6762,0.6689 0.5032,3.8409 0.5032,7.7549 C0.5032,11.6689 3.6762,14.8419 7.5902,14.8419 L14.6772,14.8419 L14.6772,43.1889 L7.5902,43.1889 C3.6762,43.1889 0.5032,46.3609 0.5032,50.2749 C0.5032,54.1889 3.6762,57.3609 7.5902,57.3609 L21.7642,57.3609 C25.6782,57.3609 28.8512,54.1889 28.8512,50.2749 L28.8512,7.7549 C28.8512,3.8409 25.6782,0.6689 21.7642,0.6689" id="Fill-7" fill="#1D1D1B" mask="url(#mask-8)"></path>
                    </g>
                    <g id="Group-12" stroke-width="1" fill="none" transform="translate(368.000000, 170.544000)">
                        <mask id="mask-10" fill="white">
                            <use xlink:href="#path-9"></use>
                        </mask>
                        <g id="Clip-11"></g>
                        <path d="M21.7642,0.5347 L7.5902,0.5347 C3.6762,0.5347 0.5032,3.7067 0.5032,7.6207 C0.5032,11.5347 3.6762,14.7077 7.5902,14.7077 L14.6772,14.7077 L14.6772,43.0547 L7.5902,43.0547 C3.6762,43.0547 0.5032,46.2267 0.5032,50.1407 C0.5032,54.0557 3.6762,57.2277 7.5902,57.2277 L21.7642,57.2277 C25.6782,57.2277 28.8512,54.0557 28.8512,50.1407 L28.8512,7.6207 C28.8512,3.7067 25.6782,0.5347 21.7642,0.5347" id="Fill-10" fill="#1D1D1B" mask="url(#mask-10)"></path>
                    </g>
                    <g id="Group-15" stroke-width="1" fill="none" transform="translate(368.000000, 241.544000)">
                        <mask id="mask-12" fill="white">
                            <use xlink:href="#path-11"></use>
                        </mask>
                        <g id="Clip-14"></g>
                        <path d="M21.7642,0.4004 L7.5902,0.4004 C3.6762,0.4004 0.5032,3.5734 0.5032,7.4874 C0.5032,11.4014 3.6762,14.5744 7.5902,14.5744 L14.6772,14.5744 L14.6772,42.9204 L7.5902,42.9204 C3.6762,42.9204 0.5032,46.0924 0.5032,50.0064 C0.5032,53.9214 3.6762,57.0934 7.5902,57.0934 L21.7642,57.0934 C25.6782,57.0934 28.8512,53.9214 28.8512,50.0064 L28.8512,7.4874 C28.8512,3.5734 25.6782,0.4004 21.7642,0.4004" id="Fill-13" fill="#1D1D1B" mask="url(#mask-12)"></path>
                    </g>
                    <g id="Group-18" stroke-width="1" fill="none" transform="translate(368.000000, 312.544000)">
                        <mask id="mask-14" fill="white">
                            <use xlink:href="#path-13"></use>
                        </mask>
                        <g id="Clip-17"></g>
                        <path d="M21.7642,0.0381 L7.5902,0.0381 C3.6762,0.0381 0.5032,3.2111 0.5032,7.1251 C0.5032,11.0391 3.6762,14.2121 7.5902,14.2121 L14.6772,14.2121 L14.6772,42.5581 L7.5902,42.5581 C3.6762,42.5581 0.5032,45.7301 0.5032,49.6441 C0.5032,53.5591 3.6762,56.7311 7.5902,56.7311 L21.7642,56.7311 C25.6782,56.7311 28.8512,53.5591 28.8512,49.6441 L28.8512,7.1251 C28.8512,3.2111 25.6782,0.0381 21.7642,0.0381" id="Fill-16" fill="#1D1D1B" mask="url(#mask-14)"></path>
                    </g>
                    <path d="M120.4727,341.1573 L262.2047,341.1573 C266.1187,341.1573 269.2917,337.9843 269.2917,334.0703 C269.2917,330.1563 266.1187,326.9833 262.2047,326.9833 L120.4727,326.9833 C116.5587,326.9833 113.3867,330.1563 113.3867,334.0703 C113.3867,337.9843 116.5587,341.1573 120.4727,341.1573" id="Fill-19" fill="#1D1D1B"></path>
                    <path d="M148.8188,355.3301 C144.9048,355.3301 141.7328,358.5031 141.7328,362.4171 C141.7328,366.3311 144.9048,369.5041 148.8188,369.5041 L233.8578,369.5041 C237.7718,369.5041 240.9448,366.3311 240.9448,362.4171 C240.9448,358.5031 237.7718,355.3301 233.8578,355.3301 L148.8188,355.3301 Z" id="Fill-21" fill="#1D1D1B"></path>
                    <path d="M191.3389,227.772 C179.6159,227.772 170.0789,218.234 170.0789,206.512 C170.0789,194.789 179.6159,185.251 191.3389,185.251 C203.0609,185.251 212.5979,194.789 212.5979,206.512 C212.5979,218.234 203.0609,227.772 191.3389,227.772 L191.3389,227.772 Z M226.7719,178.165 C226.7719,174.251 223.5989,171.079 219.6849,171.079 C215.7709,171.079 212.5979,174.251 212.5979,178.165 L212.5979,178.184 C206.6719,173.726 199.3089,171.079 191.3389,171.079 C171.8009,171.079 155.9059,186.974 155.9059,206.512 C155.9059,226.05 171.8009,241.945 191.3389,241.945 C201.8759,241.945 211.3459,237.317 217.8419,229.993 C222.9849,237.219 231.4219,241.945 240.9449,241.945 C252.3129,241.945 262.5469,235.189 267.0149,224.731 C267.1869,224.329 267.3209,223.912 267.4169,223.485 C268.6609,217.89 269.2919,212.18 269.2919,206.512 C269.2919,163.528 234.3219,128.559 191.3389,128.559 C148.3559,128.559 113.3859,163.528 113.3859,206.512 C113.3859,249.495 148.3559,284.465 191.3389,284.465 C212.1619,284.465 231.7349,276.353 246.4539,261.622 C249.2199,258.854 249.2179,254.367 246.4499,251.601 C243.6809,248.834 239.1949,248.837 236.4279,251.605 C224.3859,263.654 208.3739,270.291 191.3389,270.291 C156.1709,270.291 127.5589,241.68 127.5589,206.512 C127.5589,171.344 156.1709,142.732 191.3389,142.732 C226.5059,142.732 255.1179,171.344 255.1179,206.512 C255.1179,210.914 254.6519,215.353 253.7309,219.717 C251.3799,224.63 246.4249,227.772 240.9449,227.772 C233.1299,227.772 226.7719,221.414 226.7719,213.598 L226.7719,178.165 Z" id="Fill-23" fill="#1D1D1B"></path>
                </g>
            </g>
        </g>
    </g>
</svg>