<svg xmlns="http://www.w3.org/2000/svg" width="32.537" height="40" viewBox="0 0 32.537 40"><defs><style>.a{fill:#444;}</style></defs><g transform="translate(-85 -28.45)"><path class="a" d="M103.1,105.805H88.126a1.876,1.876,0,0,1-1.873-1.874V73.956a1.876,1.876,0,0,1,1.873-1.877h1.25a.625.625,0,0,0,0-1.249h-1.25A3.126,3.126,0,0,0,85,73.956v29.976a3.126,3.126,0,0,0,3.122,3.122H103.1a.625.625,0,1,0,0-1.249Z" transform="translate(0 -38.646)"/><path class="a" d="M368.882,72.111h1.249A1.875,1.875,0,0,1,372,73.988V92.723a.625.625,0,1,0,1.25,0V73.988a3.126,3.126,0,0,0-3.123-3.122h-1.247a.625.625,0,1,0,0,1.249Z" transform="translate(-258.274 -38.677)"/><path class="a" d="M128.989,129.186H116.512a1.876,1.876,0,0,1-1.873-1.874V100.46h.625a.625.625,0,0,0,0-1.25h-1.25a.625.625,0,0,0-.624.625v27.478a3.126,3.126,0,0,0,3.122,3.122h12.476a.625.625,0,1,0,0-1.249Z" transform="translate(-25.888 -64.525)"/><path class="a" d="M156.544,37.184H172.78a.624.624,0,0,0,.625-.625V32.816a.621.621,0,0,0-.185-.441.637.637,0,0,0-.445-.176l-3.78.035a4.372,4.372,0,0,0-8.665.005h-3.785a.624.624,0,0,0-.624.625V36.57A.624.624,0,0,0,156.544,37.184Zm.625-3.706h3.748a.617.617,0,0,0,.617-.632v-.029a3.122,3.122,0,1,1,6.244,0v.033a.625.625,0,0,0,.63.632l3.743-.034v2.492H157.168Z" transform="translate(-64.67 0)"/><circle class="a" cx="0.625" cy="0.625" r="0.625" transform="translate(99.367 31.563)"/><path class="a" d="M369.125,100.46h.625v18.11a.625.625,0,0,0,1.249,0V99.835a.625.625,0,0,0-.625-.625h-1.249a.625.625,0,0,0,0,1.25Z" transform="translate(-258.517 -64.525)"/><path class="a" d="M156.544,175.076h3.747a.624.624,0,0,0,.625-.624V170.7a.624.624,0,0,0-.625-.625h-3.747a.624.624,0,0,0-.624.625v3.747A.624.624,0,0,0,156.544,175.076Zm.625-3.747h2.5v2.5h-2.5Z" transform="translate(-64.67 -129.149)"/><path class="a" d="M156.544,260.116h3.747a.624.624,0,0,0,.625-.625v-3.746a.624.624,0,0,0-.625-.625h-3.747a.624.624,0,0,0-.624.625v3.746a.624.624,0,0,0,.624.625Zm.625-3.747h2.5v2.5h-2.5Z" transform="translate(-64.67 -206.695)"/><path class="a" d="M156.544,345.156h3.747a.624.624,0,0,0,.625-.625v-3.747a.624.624,0,0,0-.625-.624h-3.747a.624.624,0,0,0-.624.624v3.747a.624.624,0,0,0,.624.625Zm.625-3.747h2.5v2.5h-2.5Z" transform="translate(-64.67 -284.241)"/><path class="a" d="M241.778,185.494h7.49a.625.625,0,1,0,0-1.249h-7.49a.625.625,0,0,0,0,1.249Z" transform="translate(-142.414 -142.066)"/><path class="a" d="M241.778,213.844h3.747a.625.625,0,1,0,0-1.249h-3.747a.625.625,0,0,0,0,1.249Z" transform="translate(-142.414 -167.918)"/><path class="a" d="M314.689,212.6h-2.5a.625.625,0,1,0,0,1.249h2.5a.625.625,0,1,0,0-1.249Z" transform="translate(-206.58 -167.918)"/><path class="a" d="M241.778,270.539h1.25a.625.625,0,0,0,0-1.249h-1.25a.625.625,0,0,0,0,1.249Z" transform="translate(-142.414 -219.617)"/><path class="a" d="M288.214,269.91a.624.624,0,0,0-.625-.625h-3.747a.625.625,0,1,0,0,1.249h3.747a.624.624,0,0,0,.625-.624Z" transform="translate(-180.728 -219.612)"/><path class="a" d="M241.777,298.884h3.747a.625.625,0,1,0,0-1.249h-3.747a.625.625,0,0,0,0,1.249Z" transform="translate(-142.413 -245.464)"/><path class="a" d="M314.69,297.635h-2.5a.625.625,0,1,0,0,1.249h2.5a.625.625,0,1,0,0-1.249Z" transform="translate(-206.58 -245.464)"/><path class="a" d="M246.882,353.883l-5-.043h-.008a.625.625,0,0,0,0,1.248l5,.043h.006a.625.625,0,0,0,.005-1.249Z" transform="translate(-142.514 -296.716)"/><path class="a" d="M327.611,354.325h-1.249a.625.625,0,1,0,0,1.249h1.249a.625.625,0,1,0,0-1.249Z" transform="translate(-219.502 -297.158)"/><path class="a" d="M245.042,382.675h-3.75a.625.625,0,1,0,0,1.249h3.747a.625.625,0,1,0,0-1.249Z" transform="translate(-141.928 -323.01)"/><path class="a" d="M323.123,340.535a3.122,3.122,0,0,0-4.416,0l-7.066,7.066a.513.513,0,0,0-.041.046.345.345,0,0,0-.026.036l-.011.013c-.01.015-.018.031-.027.046a.035.035,0,0,1,0,.006c-.009.016-.016.033-.023.048v.007c-.006.015-.011.031-.017.047s0,.007,0,.011-.007.027-.011.041a.173.173,0,0,0,0,.018.09.09,0,0,1-.005.037c-.005.012,0,.016,0,.024v3.594a.624.624,0,0,0,.624.624h3.61l.045-.007h.012l.048-.012h.008l.049-.018h0a.525.525,0,0,0,.051-.024h0l.048-.028.012-.009c.012-.009.025-.018.037-.028a.412.412,0,0,0,.046-.041l7.066-7.066a3.125,3.125,0,0,0-.017-4.431Zm-4.857,2.208.881.881-5.3,5.3-.881-.881Zm-5.558,8.207v-1.4l.7.7h0l.7.7Zm2.908-.258-.881-.881,5.3-5.3.881.881Zm6.624-6.624-.441.441-2.65-2.65.441-.441a1.874,1.874,0,0,1,2.65,2.65Z" transform="translate(-206.516 -283.749)"/></g></svg>