<svg xmlns="http://www.w3.org/2000/svg" width="39.149" height="40" viewBox="0 0 39.149 40"><defs><style>.a{fill:#444;}</style></defs><g transform="translate(-35.43 -28.35)"><path class="a" d="M333.6,328.182a.624.624,0,0,0-.295.834,3.122,3.122,0,1,1-1.477-1.477.626.626,0,1,0,.542-1.128,4.371,4.371,0,1,0,2.066,2.066.626.626,0,0,0-.837-.295Z" transform="translate(-265.05 -271.383)"/><path class="a" d="M155.062,144.847a3.126,3.126,0,1,0-3.126,3.125A3.126,3.126,0,0,0,155.062,144.847Zm-5,0a1.875,1.875,0,1,1,1.875,1.875,1.875,1.875,0,0,1-1.875-1.875Z" transform="translate(-103.38 -103.37)"/><circle class="a" cx="0.625" cy="0.625" r="0.625" transform="translate(64.808 58.352)"/><path class="a" d="M288.009,278.639l2.072-2.337a.625.625,0,0,0,.074-.728l-1.881-3.25a.624.624,0,0,0-.667-.3l-3.06.626-.988-2.963a.624.624,0,0,0-.593-.428h-3.749a.624.624,0,0,0-.593.428l-.988,2.963-3.06-.626a.626.626,0,0,0-.667.3l-1.875,3.25a.625.625,0,0,0,.074.728l2.072,2.337-2.072,2.336a.625.625,0,0,0-.074.728l1.875,3.248a.625.625,0,0,0,.667.3l3.06-.626.988,2.959a.624.624,0,0,0,.593.428h3.75a.624.624,0,0,0,.593-.428l.988-2.963,3.06.626a.625.625,0,0,0,.667-.3l1.875-3.248a.625.625,0,0,0-.074-.728Zm-.587,5.3-2.911-.6a.625.625,0,0,0-.455.082c-.1.064-.2.122-.3.176a.622.622,0,0,0-.3.353l-.938,2.815h-2.849l-.941-2.817a.622.622,0,0,0-.3-.353c-.1-.053-.2-.11-.3-.176a.625.625,0,0,0-.455-.082l-2.911.6-1.424-2.47,1.971-2.224a.617.617,0,0,0,.157-.433v-.346a.617.617,0,0,0-.157-.433l-1.971-2.223,1.424-2.47,2.911.6a.629.629,0,0,0,.455-.081c.1-.065.2-.123.3-.176a.627.627,0,0,0,.3-.353l.938-2.815h2.849l.938,2.815a.627.627,0,0,0,.3.353c.1.052.2.109.3.176a.629.629,0,0,0,.455.081l2.911-.6,1.424,2.47-1.971,2.223a.625.625,0,0,0-.157.433v.346a.617.617,0,0,0,.157.433l1.971,2.224Z" transform="translate(-215.66 -219.661)"/><path class="a" d="M59.165,49.431a.624.624,0,0,0,.116-.721l-1.23-2.459a10.6,10.6,0,0,0,.6-1.438l2.609-.87a.625.625,0,0,0,.427-.593V39.6a.626.626,0,0,0-.427-.594l-2.609-.87a10.6,10.6,0,0,0-.6-1.439l1.23-2.459a.624.624,0,0,0-.116-.716l-2.652-2.655a.625.625,0,0,0-.721-.117l-2.459,1.23a10.608,10.608,0,0,0-1.438-.6l-.87-2.609a.624.624,0,0,0-.593-.427h-3.75a.624.624,0,0,0-.593.427l-.87,2.609a10.6,10.6,0,0,0-1.437.6l-2.461-1.23a.625.625,0,0,0-.722.117l-2.65,2.655a.625.625,0,0,0-.117.722L39.061,36.7a10.644,10.644,0,0,0-.6,1.437L35.858,39a.626.626,0,0,0-.428.594v3.75a.624.624,0,0,0,.428.593l2.608.871a10.6,10.6,0,0,0,.6,1.438l-1.23,2.459a.625.625,0,0,0,.118.721L40.6,52.084a.625.625,0,0,0,.722.117l2.46-1.23a10.592,10.592,0,0,0,1.437.594l.87,2.609a.624.624,0,0,0,.593.429h3.75a.624.624,0,0,0,.593-.427l.87-2.609a10.6,10.6,0,0,0,1.438-.594l2.459,1.23a.625.625,0,0,0,.721-.117Zm-3.221,1.449L53.6,49.71a.623.623,0,0,0-.578.01,9.339,9.339,0,0,1-1.8.746.625.625,0,0,0-.415.4l-.828,2.485H47.132L46.3,50.867a.625.625,0,0,0-.415-.4,9.361,9.361,0,0,1-1.8-.746.623.623,0,0,0-.578-.01l-2.343,1.17-2.015-2.01,1.171-2.346a.627.627,0,0,0-.01-.578,9.305,9.305,0,0,1-.746-1.8.625.625,0,0,0-.4-.415L36.681,42.9V40.05l2.484-.827a.629.629,0,0,0,.4-.415,9.313,9.313,0,0,1,.746-1.8.627.627,0,0,0,.01-.578l-1.171-2.341,2.015-2.015,2.341,1.17a.623.623,0,0,0,.578-.01,9.361,9.361,0,0,1,1.8-.746.625.625,0,0,0,.415-.4l.828-2.485h2.849l.828,2.485a.625.625,0,0,0,.415.4,9.338,9.338,0,0,1,1.8.746.623.623,0,0,0,.578.01l2.339-1.17,2.015,2.015L56.79,36.428a.627.627,0,0,0,.011.579,9.315,9.315,0,0,1,.746,1.8.63.63,0,0,0,.4.415l2.485.826V42.9l-2.485.828a.625.625,0,0,0-.4.415,9.361,9.361,0,0,1-.746,1.8.625.625,0,0,0-.011.578l1.171,2.347Z"/><path class="a" d="M100.258,85a8.127,8.127,0,0,0-6.624,12.833.625.625,0,1,0,1.019-.724,6.872,6.872,0,1,1,1.624,1.624.625.625,0,0,0-.725,1.018A8.126,8.126,0,1,0,100.258,85Z" transform="translate(-51.702 -51.653)"/></g></svg>