<svg xmlns="http://www.w3.org/2000/svg" width="40" height="31.256" viewBox="0 0 40 31.256"><defs><style>.a{fill:#444;}</style></defs><g transform="translate(-28.349 -113.39)"><path class="a" d="M190.482,184.25a6.26,6.26,0,0,0-2.957.743h-.01a6.306,6.306,0,0,0-2.1,1.839.625.625,0,0,0,1.012.734,5.07,5.07,0,0,1,1.251-1.211,1.852,1.852,0,0,1,.3,1.016,1.878,1.878,0,0,1-1.875,1.884,1.852,1.852,0,0,1-.882-.22.625.625,0,0,0-.911.45,6.335,6.335,0,0,0-.084,1.019,6.25,6.25,0,1,0,6.25-6.25Zm0,11.249a5.006,5.006,0,0,1-5-5v-.064a3.085,3.085,0,0,0,.624.064,3.124,3.124,0,0,0,2.69-4.709,5,5,0,1,1,1.683,9.709Z" transform="translate(-142.133 -64.611)"/><path class="a" d="M318.639,311.81a6.879,6.879,0,1,0,6.879,6.874A6.879,6.879,0,0,0,318.639,311.81Zm0,12.5a5.625,5.625,0,1,1,5.625-5.625A5.625,5.625,0,0,1,318.639,324.309Z" transform="translate(-258.417 -180.921)"/><path class="a" d="M350.773,350.194a.625.625,0,0,0-.867.176l-3.758,5.62-1.624-1.587a.625.625,0,1,0-.874.893l2.162,2.117a.625.625,0,0,0,.441.176.539.539,0,0,0,.064,0,.625.625,0,0,0,.455-.274l4.176-6.25a.626.626,0,0,0-.176-.871Z" transform="translate(-287.31 -215.825)"/><path class="a" d="M51.309,193.71a11.246,11.246,0,0,1-2.961.394c-4.975,0-9.827-3.142-13.021-5.778a45.212,45.212,0,0,1-5.542-5.468,45.594,45.594,0,0,1,6.067-5.88.625.625,0,1,0-.779-.977,44.943,44.943,0,0,0-6.589,6.467.625.625,0,0,0,0,.776,44.278,44.278,0,0,0,6.029,6.031,32.212,32.212,0,0,0,6.315,4.163,17.266,17.266,0,0,0,7.521,1.918,12.533,12.533,0,0,0,3.289-.441.625.625,0,1,0-.328-1.207Z" transform="translate(0 -56.966)"/><path class="a" d="M114.449,130.933a.626.626,0,1,0,1.146-.505,11.249,11.249,0,1,1,21.15-1.568.625.625,0,0,0,1.206.329,12.5,12.5,0,1,0-23.5,1.744Z" transform="translate(-77.541)"/><path class="a" d="M401.743,182.439a45.094,45.094,0,0,0-6.589-6.467.625.625,0,0,0-.779.977,45.564,45.564,0,0,1,6.067,5.88,44.279,44.279,0,0,1-3.346,3.528.625.625,0,1,0,.859.907,42.454,42.454,0,0,0,3.792-4.047A.625.625,0,0,0,401.743,182.439Z" transform="translate(-333.532 -56.939)"/></g></svg>