<svg xmlns="http://www.w3.org/2000/svg" width="33.046" height="40" viewBox="0 0 33.046 40"><defs><style>.a{fill:#fff;}.b{fill:#b0b7bb;}</style></defs><g transform="translate(0.001)"><path class="a" d="M29.58,44.249c-3.213-.236-5.938,1.795-7.458,1.795s-3.921-1.742-6.442-1.7A9.577,9.577,0,0,0,7.6,49.234C4.161,55.2,6.724,64.048,10.073,68.895c1.637,2.367,3.592,5.034,6.167,4.936,2.471-.1,3.4-1.6,6.39-1.6s3.828,1.6,6.442,1.55c2.658-.051,4.345-2.416,5.972-4.8a21.411,21.411,0,0,0,2.7-5.55,8.607,8.607,0,0,1-5.236-7.892,8.85,8.85,0,0,1,4.215-7.426,9.175,9.175,0,0,0-7.145-3.877" transform="translate(-4.7 -34.824)"/><path class="a" d="M86.05,6.229A8.575,8.575,0,0,0,88.079,0a8.714,8.714,0,0,0-5.742,2.956,8.1,8.1,0,0,0-2.071,6.033A7.225,7.225,0,0,0,86.05,6.225" transform="translate(-63.156)"/><path class="b" d="M23.781,47.827c-3.235-.24-5.982,1.808-7.513,1.808s-3.951-1.757-6.493-1.7a9.605,9.605,0,0,0-8.132,4.921C-1.821,58.871.759,67.784,4.136,72.664c1.65,2.386,3.615,5.072,6.205,4.974,2.49-.1,3.432-1.608,6.442-1.608s3.856,1.608,6.488,1.561c2.682-.049,4.379-2.435,6.016-4.834a21.632,21.632,0,0,0,2.724-5.589,8.677,8.677,0,0,1-5.276-7.956,8.874,8.874,0,0,1,4.253-7.481,9.233,9.233,0,0,0-7.2-3.9" transform="translate(0 -37.641)"/><path class="b" d="M80.672,9.508A8.65,8.65,0,0,0,82.717,3.23a8.81,8.81,0,0,0-5.791,2.977,8.2,8.2,0,0,0-2.084,6.08,7.278,7.278,0,0,0,5.829-2.782" transform="translate(-58.887 -2.543)"/></g></svg>