<svg xmlns="http://www.w3.org/2000/svg" width="40.002" height="40" viewBox="0 0 40.002 40"><defs><style>.a{fill:#444;}</style></defs><g transform="translate(-28.35 -28.35)"><path class="a" d="M249.281,143.185v-15a.625.625,0,1,0-1.251,0v15a.625.625,0,1,0,1.251,0Z" transform="translate(-200.305 -90.46)"/><circle class="a" cx="1.25" cy="1.25" r="1.25" transform="translate(47.101 55.851)"/><path class="a" d="M62.493,34.208a20,20,0,1,0-.944,29.167.625.625,0,1,0-.826-.938,18.691,18.691,0,1,1,1.728-1.725.625.625,0,1,0,.94.825,20,20,0,0,0-.9-27.328Z" transform="translate(0)"/></g></svg>