<svg xmlns="http://www.w3.org/2000/svg" width="41.583" height="40" viewBox="0 0 41.583 40"><defs><style>.a{fill:#046db2;}</style></defs><path class="a" d="M23.244,40,0,35.86V4.151L23.244,0ZM10.331,20.723h4.463V17.434c-.293,0-.558-.036-.819-.04-1.065-.029-2.13-.062-3.195-.076-.362,0-.514-.08-.5-.485.036-.815,0-1.634,0-2.452a1.865,1.865,0,0,1,.105-.92h5.346V10.142l-8.947.616v16.68l8.787,1V24.9l-5.238-.435Z"/><path class="a" d="M70.088,46.316v-2.9c1.087.112,1.616-.685,2.173-1.391a30.154,30.154,0,0,0,3.876-5.814c-.1-.2-.217-.34-.362-.362-.931.9-1.844,1.786-2.749,2.677-.674.67-1.344,1.344-2,2.028a.84.84,0,0,1-.906.275V34.972c.659.362,1.264.7,1.88,1.029.431.232.446.217.775-.235q-1.184-1.179-2.365-2.383a.833.833,0,0,1-.337-.623c0-1.637,0-3.26,0-4.984.482,0,.953-.188,1.369.167.362.293.663.616,1.014.945a7.665,7.665,0,0,0,.906-1.2c.149-.206.029-.362-.12-.489-.623-.587-1.25-1.17-1.869-1.76-.362-.344-.848-.1-1.279-.257V22.355c.192-.167.413-.105.612-.105h13.42c1.507,0,2.148.656,2.148,2.173V43.991c0,1.731-.6,2.325-2.333,2.325Zm10.7-5.433h-2a6.641,6.641,0,0,1-2.738-1.145l-.8,1.047c-.225.261-.145.467.091.681.561.507,1.123,1.021,1.663,1.554a1.166,1.166,0,0,0,.866.362h4.564c.724,0,.869-.188.869-.891,0-1.387-.025-2.775,0-4.166a1.641,1.641,0,0,0-.58-1.395,34.411,34.411,0,0,0-6.158-4.314c-.362-.2-.638-.221-.851.34a5.035,5.035,0,0,1,.489.391q2.1,2.054,4.184,4.126c.174.17.395.319.395.6.011.891.007,1.782.007,2.8ZM79.7,32.588c.362.257.724.5,1.065.768.254.192.438.123.634-.091.551-.6,1.112-1.2,1.673-1.789A.9.9,0,0,0,83.3,30.8q0-2.4,0-4.792c0-.493-.214-.724-.724-.724H77.956a1.108,1.108,0,0,0-.855.384,31.513,31.513,0,0,0-4.56,6.419c-.2.362-.123.594.17.685,1.413-1.369,2.825-2.644,4.122-4.028a2.836,2.836,0,0,1,2.434-1c1.525.083,1.485.022,1.539,1.572.043,1.2.072,2.354-1.087,3.133,0,.007.007.036-.018.134Z" transform="translate(-44.689 -14.184)"/></svg>