<?xml version="1.0" encoding="UTF-8"?>
<svg width="512px" height="512px" viewBox="0 0 512 512" version="1.1" xmlns="http://www.w3.org/2000/svg" xmlns:xlink="http://www.w3.org/1999/xlink">
    <!-- Generator: Sketch 61 (89581) - https://sketch.com -->
    <title>delivery</title>
    <desc>Created with Sketch.</desc>
    <defs>
        <rect id="path-1" x="0" y="0" width="512" height="512"></rect>
        <polygon id="path-3" points="0.000102099583 0.06 453.543 0.06 453.543 396.9102 0.000102099583 396.9102"></polygon>
        <polygon id="path-5" points="0.048622754 0.2832 70.380933 0.2832 70.380933 94 0.048622754 94"></polygon>
    </defs>
    <g id="delivery" stroke="none" stroke-width="1" fill="none" fill-rule="evenodd">
        <g id="Group-7">
            <mask id="mask-2" fill="white">
                <use xlink:href="#path-1"></use>
            </mask>
            <g id="Mask"></g>
            <g mask="url(#mask-2)">
                <g transform="translate(29.000000, 57.000000)">
                    <g id="Group-3" transform="translate(0.000000, 0.940000)">
                        <mask id="mask-4" fill="white">
                            <use xlink:href="#path-3"></use>
                        </mask>
                        <g id="Clip-2"></g>
                        <path d="M361.4172,396.9102 C360.0372,396.9102 358.6672,396.5072 357.4862,395.7202 L187.4072,282.3342 C185.6692,281.1752 184.5302,279.3072 184.2962,277.2312 C184.0622,275.1542 184.7572,273.0812 186.1942,271.5632 L389.8132,56.6332 C392.5042,53.7912 396.9902,53.6702 399.8312,56.3622 C402.6722,59.0542 402.7932,63.5392 400.1022,66.3802 L202.2672,275.2062 L356.7422,378.1902 L436.4662,19.4332 L25.8742,204.8622 L165.4142,255.6032 C169.0922,256.9412 170.9892,261.0072 169.6522,264.6852 C168.3142,268.3642 164.2472,270.2642 160.5702,268.9242 L4.6652,212.2312 C1.9562,211.2462 0.1142,208.7192 0.0052,205.8392 C-0.1038,202.9582 1.5432,200.2992 4.1702,199.1122 L443.5392,0.6872 C445.9832,-0.4158 448.8452,-0.0468 450.9272,1.6472 C453.0092,3.3402 453.9562,6.0642 453.3742,8.6832 L368.3352,391.3602 C367.8282,393.6422 366.2292,395.5272 364.0602,396.3982 C363.2072,396.7412 362.3112,396.9102 361.4172,396.9102" id="Fill-1" fill="#1D1D1B" mask="url(#mask-4)"></path>
                    </g>
                    <g id="Group-6" transform="translate(184.000000, 303.940000)">
                        <mask id="mask-6" fill="white">
                            <use xlink:href="#path-5"></use>
                        </mask>
                        <g id="Clip-5"></g>
                        <path d="M7.3044,94.0002 C7.1344,94.0002 6.9634,93.9942 6.7914,93.9812 C5.7254,93.9022 0.3934,93.1592 0.1624,86.2522 C0.1424,85.6342 0.1244,84.7282 0.1094,83.5772 C0.0814,81.3822 0.0644,78.2482 0.0554,74.4882 C0.0404,67.8772 0.0504,58.6662 0.0844,47.1092 C0.1424,27.2192 0.2524,7.3312 0.2524,7.3312 C0.2734,3.4312 3.4424,0.2832 7.3374,0.2832 L7.3774,0.2832 C11.2914,0.3062 14.4464,3.4952 14.4254,7.4092 C14.3144,27.5192 14.2064,54.8522 14.2224,71.5212 C18.4554,68.2912 24.0154,64.1822 31.3264,58.8812 C45.1474,48.8562 59.0934,39.0982 59.2324,39.0022 C62.4394,36.7572 66.8584,37.5402 69.1004,40.7472 C71.3444,43.9542 70.5624,48.3722 67.3554,50.6152 C43.7634,67.1172 17.6414,86.1702 13.4544,90.4132 C12.2024,92.5672 9.8774,94.0002 7.3044,94.0002 L7.3044,94.0002 Z" id="Fill-4" fill="#1D1D1B" mask="url(#mask-6)"></path>
                    </g>
                </g>
            </g>
        </g>
    </g>
</svg>