<?xml version="1.0" encoding="UTF-8"?>
<svg width="512px" height="512px" viewBox="0 0 512 512" version="1.1" xmlns="http://www.w3.org/2000/svg" xmlns:xlink="http://www.w3.org/1999/xlink">
    <!-- Generator: Sketch 61 (89581) - https://sketch.com -->
    <title> companychannels</title>
    <desc>Created with Sketch.</desc>
    <defs>
        <rect id="path-1" x="0" y="0" width="512" height="512"></rect>
        <polygon id="path-3" points="0 0.121 325.9849 0.121 325.9849 396.9999 0 396.9999"></polygon>
        <polygon id="path-5" points="0.5592 0.3999 326.543 0.3999 326.543 311.9999 0.5592 311.9999"></polygon>
    </defs>
    <g id="-companychannels" stroke="none" stroke-width="1" fill="none" fill-rule="evenodd">
        <g id="Group-9">
            <mask id="mask-2" fill="white">
                <use xlink:href="#path-1"></use>
            </mask>
            <g id="Mask"></g>
            <g mask="url(#mask-2)">
                <g transform="translate(29.000000, 57.000000)">
                    <path d="M184.252,50.6061 C184.252,54.5201 187.424,57.6921 191.338,57.6921 L382.677,57.6921 L382.677,305.7241 C382.677,309.6381 385.85,312.8111 389.764,312.8111 C393.678,312.8111 396.851,309.6381 396.851,305.7241 L396.851,50.6061 C396.851,46.6921 393.678,43.5201 389.764,43.5201 L191.338,43.5201 C187.424,43.5201 184.252,46.6921 184.252,50.6061" id="Fill-1" fill="#1D1D1B"></path>
                    <g id="Group-5" stroke-width="1" fill="none" transform="translate(0.000000, 0.879000)">
                        <mask id="mask-4" fill="white">
                            <use xlink:href="#path-3"></use>
                        </mask>
                        <g id="Clip-4"></g>
                        <path d="M14.1729,319.0469 C14.1729,312.5539 16.7709,290.9739 21.4689,268.9369 C27.7599,239.4249 33.2799,230.2879 35.4329,227.6809 C37.5849,230.2879 43.1059,239.4249 49.3969,268.9369 C54.0949,290.9729 56.6929,312.5539 56.6929,319.0469 C56.6929,330.7699 47.1549,340.3069 35.4329,340.3069 C23.7099,340.3069 14.1729,330.7699 14.1729,319.0469 L14.1729,319.0469 Z M99.2129,56.8139 L162.9919,56.8139 C166.9059,56.8139 170.0779,53.6409 170.0779,49.7269 L170.0779,28.4669 L219.6849,28.4669 C223.5989,28.4669 226.7719,25.2949 226.7719,21.3799 L226.7719,14.2939 L255.1169,14.2939 L255.1169,21.3799 C255.1169,25.2949 258.2899,28.4669 262.2039,28.4669 L318.8979,28.4669 C322.8119,28.4669 325.9849,25.2949 325.9849,21.3799 C325.9849,17.4669 322.8119,14.2939 318.8979,14.2939 L269.2909,14.2939 L269.2909,7.2069 C269.2909,3.2939 266.1179,0.1209 262.2039,0.1209 L219.6849,0.1209 C215.7719,0.1209 212.5989,3.2939 212.5989,7.2069 L212.5989,14.2939 L162.9919,14.2939 C159.0779,14.2939 155.9049,17.4669 155.9049,21.3799 L155.9049,42.6409 L92.1259,42.6409 C88.2119,42.6409 85.0399,45.8129 85.0399,49.7269 L85.0399,382.7979 L42.5189,382.7979 L42.5189,353.7679 C58.6729,350.4759 70.8659,336.1589 70.8659,319.0469 C70.8659,309.9249 67.3859,284.2599 62.3909,262.0179 C54.6369,227.4829 46.5749,212.7469 35.4329,212.7469 C24.2909,212.7469 16.2289,227.4829 8.4739,262.0179 C3.4799,284.2599 -0.0001,309.9249 -0.0001,319.0469 C-0.0001,336.1579 12.1929,350.4759 28.3459,353.7679 L28.3459,382.7979 L7.0869,382.7979 C3.1729,382.7979 -0.0001,385.9709 -0.0001,389.8849 C-0.0001,393.7989 3.1729,396.9719 7.0869,396.9719 L34.8709,396.9719 C35.0569,396.9859 35.2429,396.9999 35.4329,396.9999 C35.6219,396.9999 35.8079,396.9859 35.9939,396.9719 L92.1259,396.9719 C96.0399,396.9719 99.2129,393.7989 99.2129,389.8849 L99.2129,56.8139 Z" id="Fill-3" fill="#1D1D1B" mask="url(#mask-4)"></path>
                    </g>
                    <g id="Group-8" stroke-width="1" fill="none" transform="translate(127.000000, 85.879000)">
                        <mask id="mask-6" fill="white">
                            <use xlink:href="#path-5"></use>
                        </mask>
                        <g id="Clip-7"></g>
                        <path d="M305.2832,297.7979 C302.2622,297.7979 297.1272,297.8039 291.5122,297.8099 C291.4352,297.8069 291.3612,297.7979 291.2842,297.7979 L233.8582,297.7979 C230.2122,297.5119 227.3312,294.4589 227.3312,290.7399 C227.3312,286.8319 230.5102,283.6529 234.4172,283.6529 C236.4512,283.6529 238.3922,284.5409 239.7462,286.0889 C241.7322,288.3629 244.9452,289.1259 247.7422,287.9939 C250.5422,286.8599 252.3142,284.0769 252.1592,281.0609 C252.1422,280.7459 252.1342,280.4299 252.1342,280.1099 C252.1342,270.3409 260.0812,262.3939 269.8502,262.3939 C279.6192,262.3939 287.5662,270.3409 287.5662,280.1099 C287.5662,280.4299 287.5572,280.7459 287.5412,281.0609 C287.3862,284.0769 289.1582,286.8599 291.9582,287.9939 C294.7572,289.1259 297.9672,288.3629 299.9542,286.0889 C301.3072,284.5409 303.2492,283.6529 305.2832,283.6529 C309.1902,283.6529 312.3692,286.8319 312.3692,290.7399 C312.3692,294.6319 309.1902,297.7979 305.2832,297.7979 L305.2832,297.7979 Z M14.7322,14.5729 L43.0782,14.5729 L43.0782,56.8529 L35.9912,56.8529 C32.0772,56.8529 28.9052,60.0259 28.9052,63.9399 C28.9052,67.8539 32.0772,71.0259 35.9912,71.0259 L43.0782,71.0259 L43.0782,113.5739 L35.9912,113.5739 C32.0772,113.5739 28.9052,116.7469 28.9052,120.6609 C28.9052,124.5749 32.0772,127.7479 35.9912,127.7479 L43.0782,127.7479 L43.0782,170.2679 L35.9912,170.2679 C32.0772,170.2679 28.9052,173.4409 28.9052,177.3549 C28.9052,181.2689 32.0772,184.4419 35.9912,184.4419 L43.0782,184.4419 L43.0782,226.9599 L35.9912,226.9599 C32.0772,226.9599 28.9052,230.1329 28.9052,234.0469 C28.9052,237.9609 32.0772,241.1339 35.9912,241.1339 L43.0782,241.1339 L43.0782,297.7979 L14.7322,297.7979 L14.7322,14.5729 Z M99.7712,14.5729 L128.1172,14.5729 L128.1172,56.8529 L121.0312,56.8529 C117.1172,56.8529 113.9442,60.0259 113.9442,63.9399 C113.9442,67.8539 117.1172,71.0259 121.0312,71.0259 L128.1172,71.0259 L128.1172,113.5739 L121.0312,113.5739 C117.1172,113.5739 113.9442,116.7469 113.9442,120.6609 C113.9442,124.5749 117.1172,127.7479 121.0312,127.7479 L128.1172,127.7479 L128.1172,170.2679 L121.0312,170.2679 C117.1172,170.2679 113.9442,173.4409 113.9442,177.3549 C113.9442,181.2689 117.1172,184.4419 121.0312,184.4419 L128.1172,184.4419 L128.1172,226.9599 L121.0312,226.9599 C117.1172,226.9599 113.9442,230.1329 113.9442,234.0469 C113.9442,237.9609 117.1172,241.1339 121.0312,241.1339 L128.1172,241.1339 L128.1172,297.7979 L99.7712,297.7979 L99.7712,14.5729 Z M57.2512,14.5729 L85.5982,14.5729 L85.5982,56.8529 L78.5122,56.8529 C74.5972,56.8529 71.4252,60.0259 71.4252,63.9399 C71.4252,67.8539 74.5972,71.0259 78.5122,71.0259 L85.5982,71.0259 L85.5982,113.5739 L78.5122,113.5739 C74.5972,113.5739 71.4252,116.7469 71.4252,120.6609 C71.4252,124.5749 74.5972,127.7479 78.5122,127.7479 L85.5982,127.7479 L85.5982,170.2679 L78.5122,170.2679 C74.5972,170.2679 71.4252,173.4409 71.4252,177.3549 C71.4252,181.2689 74.5972,184.4419 78.5122,184.4419 L85.5982,184.4419 L85.5982,226.9599 L78.5122,226.9599 C74.5972,226.9599 71.4252,230.1329 71.4252,234.0469 C71.4252,237.9609 74.5972,241.1339 78.5122,241.1339 L85.5982,241.1339 L85.5982,297.7979 L57.2512,297.7979 L57.2512,14.5729 Z M170.6372,56.8529 L163.5512,56.8529 C159.6372,56.8529 156.4642,60.0259 156.4642,63.9399 C156.4642,67.8539 159.6372,71.0259 163.5512,71.0259 L170.6372,71.0259 L170.6372,113.5739 L163.5512,113.5739 C159.6372,113.5739 156.4642,116.7469 156.4642,120.6609 C156.4642,124.5749 159.6372,127.7479 163.5512,127.7479 L170.6372,127.7479 L170.6372,170.2679 L163.5512,170.2679 C159.6372,170.2679 156.4642,173.4409 156.4642,177.3549 C156.4642,181.2689 159.6372,184.4419 163.5512,184.4419 L170.6372,184.4419 L170.6372,226.9599 L163.5512,226.9599 C159.6372,226.9599 156.4642,230.1329 156.4642,234.0469 C156.4642,237.9609 159.6372,241.1339 163.5512,241.1339 L170.6372,241.1339 L170.6372,297.7979 L142.2912,297.7979 L142.2912,14.5729 L170.6372,14.5729 L170.6372,56.8529 Z M305.2832,269.4799 C303.5322,269.4799 301.8042,269.6969 300.1362,270.1149 C295.9332,257.4109 283.9452,248.2199 269.8502,248.2199 C255.7562,248.2199 243.7662,257.4109 239.5642,270.1149 C237.8952,269.6969 236.1682,269.4799 234.4172,269.4799 C222.6942,269.4799 213.1572,279.0179 213.1572,290.7399 C213.1572,293.2169 213.6042,295.5859 214.3872,297.7979 L184.8112,297.7979 L184.8112,14.5729 L213.1572,14.5729 L213.1572,56.8529 L206.0702,56.8529 C202.1562,56.8529 198.9832,60.0259 198.9832,63.9399 C198.9832,67.8539 202.1562,71.0259 206.0702,71.0259 L213.1572,71.0259 L213.1572,113.5739 L206.0702,113.5739 C202.1562,113.5739 198.9832,116.7469 198.9832,120.6609 C198.9832,124.5749 202.1562,127.7479 206.0702,127.7479 L213.1572,127.7479 L213.1572,170.2679 L206.0702,170.2679 C202.1562,170.2679 198.9832,173.4409 198.9832,177.3549 C198.9832,181.2689 202.1562,184.4419 206.0702,184.4419 L213.1572,184.4419 L213.1572,226.9599 L206.0702,226.9599 C202.1562,226.9599 198.9832,230.1329 198.9832,234.0469 C198.9832,237.9609 202.1562,241.1339 206.0702,241.1339 L220.2442,241.1339 C224.1582,241.1339 227.3312,237.9609 227.3312,234.0469 L227.3312,7.4859 C227.3312,3.5719 224.1582,0.3999 220.2442,0.3999 L7.6452,0.3999 C3.7312,0.3999 0.5592,3.5719 0.5592,7.4859 L0.5592,304.8849 C0.5592,308.7989 3.7312,311.9719 7.6452,311.9719 L49.6032,311.9719 C49.7892,311.9859 49.9752,311.9999 50.1652,311.9999 C50.3542,311.9999 50.5402,311.9859 50.7262,311.9719 L92.1242,311.9719 C92.3092,311.9859 92.4952,311.9999 92.6852,311.9999 C92.8742,311.9999 93.0602,311.9859 93.2462,311.9719 L134.6422,311.9719 C134.8282,311.9859 135.0142,311.9999 135.2042,311.9999 C135.3932,311.9999 135.5802,311.9859 135.7652,311.9719 L177.1632,311.9719 C177.3482,311.9859 177.5352,311.9999 177.7242,311.9999 C177.9142,311.9999 178.1002,311.9859 178.2862,311.9719 L233.8582,311.9719 C234.0462,311.9769 234.2282,311.9999 234.4172,311.9999 L269.8502,311.9999 C274.6872,311.9999 282.3352,311.9919 289.5242,311.9849 C295.8962,311.9779 301.9092,311.9719 305.2832,311.9719 C317.0062,311.9719 326.5432,302.4469 326.5432,290.7399 C326.5432,279.0179 317.0062,269.4799 305.2832,269.4799 L305.2832,269.4799 Z" id="Fill-6" fill="#1D1D1B" mask="url(#mask-6)"></path>
                    </g>
                </g>
            </g>
        </g>
    </g>
</svg>