<svg xmlns="http://www.w3.org/2000/svg" width="35.008" height="40" viewBox="0 0 35.008 40"><defs><style>.a{fill:#444;}</style></defs><g transform="translate(-28.35 -28.45)"><path class="a" d="M115.042,90.666a.625.625,0,0,0-.625-.625h-5a1.876,1.876,0,0,1-1.875-1.875v-2.5a.625.625,0,0,0-1.251,0v2.5a3.13,3.13,0,0,0,3.126,3.126h4.374v25.631a1.877,1.877,0,0,1-1.875,1.875H88.161a1.878,1.878,0,0,1-1.875-1.875V105.664a.625.625,0,1,0-1.25,0v11.259a3.129,3.129,0,0,0,3.125,3.125h23.755a3.13,3.13,0,0,0,3.126-3.125Z" transform="translate(-51.685 -51.598)"/><path class="a" d="M330.114,184.245h-3.751a.625.625,0,1,0,0,1.25h3.751a.625.625,0,1,0,0-1.25Z" transform="translate(-271.132 -142.052)"/><path class="a" d="M326.363,213.845h3.751a.625.625,0,1,0,0-1.25h-3.751a.625.625,0,1,0,0,1.25Z" transform="translate(-271.132 -167.901)"/><path class="a" d="M326.605,242.191h3.751a.625.625,0,0,0,0-1.251h-3.751a.625.625,0,1,0,0,1.251Z" transform="translate(-271.375 -193.745)"/><path class="a" d="M28.975,42.194h10a.625.625,0,0,0,.625-.625v-10a.626.626,0,0,0-.625-.625,10.562,10.562,0,0,0-4.376.944v-.318a1.878,1.878,0,0,1,1.875-1.875H53.725l7.322,7.322a.624.624,0,0,0,.882-.882l-7.5-7.5a.625.625,0,0,0-.441-.183H36.476a3.129,3.129,0,0,0-3.129,3.117v.99a10.628,10.628,0,0,0-5,9.013.625.625,0,0,0,.625.625Zm9.377-9.981v8.733H29.619a9.393,9.393,0,0,1,8.733-8.733Z"/><path class="a" d="M148.922,311.81a2.5,2.5,0,0,0-2.153,3.77l-2.831,2.828a2.5,2.5,0,0,0-3.023.372l-2.093-1.26a2.5,2.5,0,1,0-4.8,0l-2.1,1.261a2.5,2.5,0,1,0,.644,1.071l2.1-1.261a2.494,2.494,0,0,0,3.506,0l2.1,1.262a2.5,2.5,0,1,0,4.551-.559l2.829-2.829a2.5,2.5,0,1,0,1.269-4.654Zm-18.754,10a1.251,1.251,0,1,1,1.25-1.253A1.251,1.251,0,0,1,130.169,321.813Zm6.251-3.751a1.252,1.252,0,1,1,.887-.365A1.251,1.251,0,0,1,136.42,318.062Zm6.252,3.751a1.251,1.251,0,1,1,1.25-1.253A1.251,1.251,0,0,1,142.671,321.813Zm6.251-6.252a1.251,1.251,0,1,1,1.251-1.25A1.251,1.251,0,0,1,148.922,315.561Z" transform="translate(-90.566 -258.364)"/><path class="a" d="M74.83,88.118a.564.564,0,0,0-.049-.043A10.592,10.592,0,0,0,67.318,85a.625.625,0,0,0-.625.625V95H57.315a.625.625,0,0,0-.625.625,10.628,10.628,0,1,0,18.185-7.465C74.86,88.149,74.846,88.133,74.83,88.118Zm-1.343.459-5.545,5.545V86.275A9.336,9.336,0,0,1,73.488,88.576Zm-6.17,16.432a9.39,9.39,0,0,1-9.357-8.752h9.357a.468.468,0,0,0,.061,0h.028a.071.071,0,0,0,.033-.005l.031-.008.028-.007.03-.011.028-.01.026-.012.029-.014.025-.015.027-.017.026-.019.023-.017c.015-.012.029-.025.043-.039h0l6.612-6.616a9.372,9.372,0,0,1-7.057,15.548Z" transform="translate(-25.84 -51.561)"/></g></svg>