<svg xmlns="http://www.w3.org/2000/svg" width="34.999" height="40" viewBox="0 0 34.999 40"><defs><style>.a{fill:#444;}</style></defs><g transform="translate(-56.69 -28.24)"><path class="a" d="M88.565,33.241H69.19a.625.625,0,1,0,0,1.25H88.565a1.878,1.878,0,0,1,1.875,1.875V66.989H67.94V36.365a3.125,3.125,0,1,0-6.249,0V62.614a1.875,1.875,0,0,1-3.75,0V29.491h22.5v1.875a.625.625,0,0,0,1.251,0v-2.5a.625.625,0,0,0-.625-.625H57.315a.626.626,0,0,0-.625.625V62.614a3.125,3.125,0,1,0,6.251,0V36.365a1.875,1.875,0,0,1,3.75,0V64.49H64.144a.625.625,0,1,0,0,1.25H66.69v1.875a.624.624,0,0,0,.625.625h23.75a.624.624,0,0,0,.624-.625V36.365A3.128,3.128,0,0,0,88.565,33.241Z"/><path class="a" d="M212.983,412.165h16.25a.625.625,0,0,0,0-1.25h-16.25a.625.625,0,1,0,0,1.25Z" transform="translate(-141.917 -348.926)"/><path class="a" d="M213.225,383.821h16.25a.625.625,0,1,0,0-1.251h-16.25a.625.625,0,1,0,0,1.251Z" transform="translate(-142.16 -323.081)"/><path class="a" d="M216.975,155.446h-2.5a.625.625,0,0,0-.625.625V159.2h-.624a.625.625,0,1,0,0,1.251h1.25a.625.625,0,0,0,.624-.625V156.7h1.251v3.125a.625.625,0,0,0,.625.625h2.5a.626.626,0,0,0,.625-.625V149.2h1.25v10.625a.625.625,0,0,0,.625.626h2.5a.625.625,0,0,0,.625-.625V142.88h1.25v16.942a.626.626,0,0,0,.625.625h2.5a.625.625,0,0,0,0-1.251H227.6V142.255a.625.625,0,0,0-.625-.625h-2.5a.624.624,0,0,0-.624.625V159.2H222.6V148.572a.625.625,0,0,0-.624-.625h-2.5a.626.626,0,0,0-.625.625V159.2H217.6v-3.125A.625.625,0,0,0,216.975,155.446Z" transform="translate(-142.16 -103.39)"/></g></svg>