<svg xmlns="http://www.w3.org/2000/svg" width="40" height="28.756" viewBox="0 0 40 28.756"><defs><style>.a{fill:#444;}</style></defs><g transform="translate(-28.35 -99.199)"><path class="a" d="M87.478,194.123A5.623,5.623,0,0,0,85,198.785a.625.625,0,1,0,1.25,0,4.376,4.376,0,0,1,1.93-3.629.625.625,0,0,0-.7-1.035Z" transform="translate(-51.649 -86.461)"/><path class="a" d="M368.711,175.336a.615.615,0,0,0,.106.009.625.625,0,0,0,.617-.52,8.861,8.861,0,0,0,.123-1.476,8.7,8.7,0,0,0-1.5-4.893.625.625,0,1,0-1.035.7,7.461,7.461,0,0,1,1.281,4.193,7.579,7.579,0,0,1-.107,1.265.626.626,0,0,0,.514.722Z" transform="translate(-308.703 -62.897)"/><path class="a" d="M55.227,293.461H33.976a4.376,4.376,0,1,1,0-8.751.625.625,0,0,0,0-1.25,5.626,5.626,0,0,0,0,11.251H55.227a.625.625,0,1,0,0-1.25Z" transform="translate(0 -168.009)"/><path class="a" d="M57.461,166.277a.651.651,0,0,0,.135-.014.626.626,0,0,0,.476-.745A6.88,6.88,0,0,1,70.744,160.6a.625.625,0,1,0,1.082-.626,8.129,8.129,0,0,0-14.975,5.821A.625.625,0,0,0,57.461,166.277Z" transform="translate(-25.812 -51.707)"/><path class="a" d="M198.268,104.121a.624.624,0,0,0,.882-.079,10,10,0,0,1,17.678,6.41c0,.2-.005.394-.017.589a.625.625,0,0,0,.588.661h.036a.625.625,0,0,0,.624-.589c.012-.22.019-.441.019-.662a11.251,11.251,0,0,0-19.891-7.207A.625.625,0,0,0,198.268,104.121Z" transform="translate(-154.727)"/><path class="a" d="M363.706,261.381h-.625v-3.087a3.125,3.125,0,1,0-6.25,0v3.087h-.625a1.878,1.878,0,0,0-1.875,1.875v5a1.878,1.878,0,0,0,1.875,1.875h7.5a1.878,1.878,0,0,0,1.875-1.875v-5A1.878,1.878,0,0,0,363.706,261.381Zm-5.626-3.087a1.875,1.875,0,0,1,3.75,0v3.087h-3.75Zm6.251,9.967a.626.626,0,0,1-.625.624h-7.5a.626.626,0,0,1-.625-.624v-5a.626.626,0,0,1,.625-.624h7.5a.626.626,0,0,1,.625.624Z" transform="translate(-297.228 -142.177)"/><path class="a" d="M405.168,354.33a1.25,1.25,0,0,0-.627,2.332v.794a.625.625,0,0,0,1.251,0v-.794a1.25,1.25,0,0,0-.625-2.332Z" transform="translate(-342.44 -232.628)"/></g></svg>