<svg xmlns="http://www.w3.org/2000/svg" width="40.111" height="40" viewBox="0 0 40.111 40"><defs><style>.a{fill:#0278b6;}.b{fill:#fff;}</style></defs><path class="a" d="M37,0H3A2.966,2.966,0,0,0,0,2.889V37.111A2.966,2.966,0,0,0,3,40H37.111a2.966,2.966,0,0,0,3-2.889V2.889A3.145,3.145,0,0,0,37,0Z"/><path class="b" d="M5.344,14.444h5.889V33.556H5.344ZM8.344,5A3.444,3.444,0,1,1,4.9,8.444,3.392,3.392,0,0,1,8.344,5" transform="translate(0.544 0.556)"/><path class="b" d="M14,13.556h5.667v2.556h.111A6.218,6.218,0,0,1,25.444,13c6,0,7.111,4,7.111,9.111V32.556H26.667V23.222c0-2.222,0-5.111-3.111-5.111S20,20.556,20,23v9.444H14Z" transform="translate(1.556 1.444)"/></svg>