<svg xmlns="http://www.w3.org/2000/svg" width="33.534" height="40" viewBox="0 0 33.534 40"><defs><style>.a{fill:#dc3e15;}</style></defs><path class="a" d="M21.53,35.056c.062-.386.078-28.172.021-28.779L7.385,9.653v19.59L.086,32.09H.045A.074.074,0,0,1,0,32.037q0-.111,0-.222V8.09a.7.7,0,0,1,.369-.2L21.19.1a1.075,1.075,0,0,1,.726-.057l11.43,3.282.189.062V36.763l-3.262.907c-2.765.763-5.53,1.518-8.291,2.285a1.157,1.157,0,0,1-.771-.029L.73,32.373a.9.9,0,0,1-.382-.226Z" transform="translate(0 -0.007)"/></svg>