<?xml version="1.0" encoding="UTF-8"?>
<svg width="50px" height="50px" viewBox="0 0 50 50" version="1.1" xmlns="http://www.w3.org/2000/svg" xmlns:xlink="http://www.w3.org/1999/xlink">
    <!-- Generator: Sketch 64 (93537) - https://sketch.com -->
    <title>identity-management</title>
    <desc>Created with Sketch.</desc>
    <defs>
        <rect id="path-1" x="0" y="0" width="50" height="50"></rect>
    </defs>
    <g id="identity-management" stroke="none" stroke-width="1" fill="none" fill-rule="evenodd">
        <g id="Group-25">
            <mask id="mask-2" fill="white">
                <use xlink:href="#path-1"></use>
            </mask>
            <g id="Mask"></g>
            <g id="Group-19" mask="url(#mask-2)">
                <g transform="translate(3.222656, 3.515625)">
                    <g id="Group-13" transform="translate(0.000000, 0.053027)">
                        <path d="M43.6077051,6.2815332 C43.6077051,9.72147461 40.8191309,12.5099512 37.3792871,12.5099512 C33.9393457,12.5099512 31.1507715,9.72147461 31.1507715,6.2815332 C31.1507715,2.8415918 33.9393457,0.0530175781 37.3792871,0.0530175781 C40.8191309,0.0530175781 43.6077051,2.8415918 43.6077051,6.2815332 Z" id="Stroke-1" stroke="#1D1D1B" stroke-width="1.38408203"></path>
                        <path d="M10.3892285,35.3477148 C10.3892285,38.0231055 8.22038086,40.1920508 5.54489258,40.1920508 C2.8694043,40.1920508 0.700556641,38.0231055 0.700556641,35.3477148 C0.700556641,32.6723242 2.8694043,30.5033789 5.54489258,30.5033789 C8.22038086,30.5033789 10.3892285,32.6723242 10.3892285,35.3477148 Z" id="Stroke-3" stroke="#1D1D1B" stroke-width="1.38408203"></path>
                        <path d="M6.92896484,11.320791 C6.92896484,13.2318262 5.37974609,14.7810449 3.46871094,14.7810449 C1.55767578,14.7810449 0.00845703125,13.2318262 0.00845703125,11.320791 C0.00845703125,9.40975586 1.55767578,7.86053711 3.46871094,7.86053711 C5.37974609,7.86053711 6.92896484,9.40975586 6.92896484,11.320791 Z" id="Stroke-5" stroke="#1D1D1B" stroke-width="1.38408203"></path>
                        <path d="M5.21874023,8.3350293 C9.14442383,3.29489258 15.2706934,0.0529980469 22.1540918,0.0529980469 C24.8442285,0.0529980469 27.4187402,0.548212891 29.7913965,1.45231445" id="Stroke-7" stroke="#1D1D1B" stroke-width="1.38408203" stroke-linecap="round" stroke-linejoin="round"></path>
                        <path d="M3.01727539,31.2141992 C1.53573242,28.2992578 0.700478516,25.0005273 0.700478516,21.5066797 C0.700478516,19.9973047 0.856435547,18.5242578 1.15291992,17.1028711" id="Stroke-9" stroke="#1D1D1B" stroke-width="1.38408203" stroke-linecap="round" stroke-linejoin="round"></path>
                        <path d="M41.0403125,11.3209863 C42.6781055,14.3512598 43.6076953,17.8204004 43.6076953,21.5066309 C43.6076953,33.355166 34.0027148,42.9603418 22.154082,42.9603418 C18.2658008,42.9603418 14.6190234,41.9258691 11.4741016,40.1171777" id="Stroke-11" stroke="#1D1D1B" stroke-width="1.38408203" stroke-linecap="round" stroke-linejoin="round"></path>
                    </g>
                    <g id="Group-18" transform="translate(12.011719, 8.353809)">
                        <path d="M16.2277148,6.14219727 C16.2277148,9.50303711 13.5033008,12.2274512 10.1424609,12.2274512 C6.78162109,12.2274512 4.05710938,9.50303711 4.05710938,6.14219727 C4.05710938,2.78135742 6.78162109,0.0569433594 10.1424609,0.0569433594 C13.5033008,0.0569433594 16.2277148,2.78135742 16.2277148,6.14219727 Z" id="Stroke-14" stroke="#1D1D1B" stroke-width="1.38408203"></path>
                        <path d="M20.2845508,23.5867187 L20.2845508,19.8162109 C20.2845508,16.5211914 17.613457,13.8501953 14.3185352,13.8501953 L13.7220508,13.8501953 C13.7220508,15.8271484 12.1194141,17.4297852 10.1424609,17.4297852 C8.16541016,17.4297852 6.56287109,15.8271484 6.56287109,13.8501953 L5.96619141,13.8501953 C2.67136719,13.8501953 0.0002734375,16.5211914 0.0002734375,19.8162109 L0.0002734375,23.5867187" id="Stroke-16" stroke="#1D1D1B" stroke-width="1.38408203" stroke-linecap="round" stroke-linejoin="round"></path>
                    </g>
                </g>
            </g>
        </g>
    </g>
</svg>