<?xml version="1.0" encoding="UTF-8"?>
<svg width="50px" height="50px" viewBox="0 0 50 50" version="1.1" xmlns="http://www.w3.org/2000/svg" xmlns:xlink="http://www.w3.org/1999/xlink">
    <!-- Generator: Sketch 64 (93537) - https://sketch.com -->
    <title>integration</title>
    <desc>Created with Sketch.</desc>
    <defs>
        <rect id="path-1" x="0" y="0" width="50" height="50"></rect>
    </defs>
    <g id="integration" stroke="none" stroke-width="1" fill="none" fill-rule="evenodd">
        <g id="Group-25">
            <mask id="mask-2" fill="white">
                <use xlink:href="#path-1"></use>
            </mask>
            <g id="Mask"></g>
            <g id="Group-43" mask="url(#mask-2)" stroke="#1D1D1B" stroke-width="1.38408203">
                <g transform="translate(3.515625, 3.515625)">
                    <path d="M30.4587598,21.4620605 C30.4587598,26.4307129 26.4308301,30.4586426 21.4620801,30.4586426 C16.4933301,30.4586426 12.4654004,26.4307129 12.4654004,21.4620605 C12.4654004,16.4933105 16.4933301,12.4653809 21.4620801,12.4653809 C26.4308301,12.4653809 30.4587598,16.4933105 30.4587598,21.4620605 Z" id="Stroke-1"></path>
                    <path d="M24.9222949,3.46870117 C24.9222949,5.37973633 23.3731738,6.92895508 21.462041,6.92895508 C19.5510059,6.92895508 18.0017871,5.37973633 18.0017871,3.46870117 C18.0017871,1.55766602 19.5510059,0.00844726563 21.462041,0.00844726563 C23.3731738,0.00844726563 24.9222949,1.55766602 24.9222949,3.46870117 Z" id="Stroke-3"></path>
                    <path d="M24.9222949,39.4553613 C24.9222949,41.3663965 23.3731738,42.9157129 21.462041,42.9157129 C19.5510059,42.9157129 18.0017871,41.3663965 18.0017871,39.4553613 C18.0017871,37.5444238 19.5510059,35.9951074 21.462041,35.9951074 C23.3731738,35.9951074 24.9222949,37.5444238 24.9222949,39.4553613 Z" id="Stroke-5"></path>
                    <path d="M3.46873047,18.0017969 C5.37976563,18.0017969 6.92898437,19.5510156 6.92898437,21.4620508 C6.92898437,23.3730859 5.37976563,24.9223047 3.46873047,24.9223047 C1.55769531,24.9223047 0.0084765625,23.3730859 0.0084765625,21.4620508 C0.0084765625,19.5510156 1.55769531,18.0017969 3.46873047,18.0017969 Z" id="Stroke-7"></path>
                    <path d="M39.4554395,18.0017969 C41.3664746,18.0017969 42.9156934,19.5510156 42.9156934,21.4620508 C42.9156934,23.3730859 41.3664746,24.9223047 39.4554395,24.9223047 C37.5444043,24.9223047 35.9950879,23.3730859 35.9950879,21.4620508 C35.9950879,19.5510156 37.5444043,18.0017969 39.4554395,18.0017969 Z" id="Stroke-9"></path>
                    <path d="M4.49614219,15.3202102 C4.50174219,15.3045102 4.50734219,15.2888102 4.51284219,15.2731102" id="Stroke-11" stroke-linecap="round" stroke-linejoin="round"></path>
                    <path d="M5.3653418,13.2739551 C7.24395508,9.52463867 10.3940527,6.5227832 14.2500098,4.83391602" id="Stroke-13" stroke-linecap="round" stroke-linejoin="round" stroke-dasharray="0.09062499739229679,2.174218744039536"></path>
                    <path d="M15.2595273,4.42951797 C15.2752273,4.42371797 15.2908273,4.41801797 15.3065273,4.41231797" id="Stroke-15" stroke-linecap="round" stroke-linejoin="round"></path>
                    <path d="M15.3522305,38.2538723 C15.3365305,38.2481723 15.3209305,38.2425723 15.3052305,38.2367723" id="Stroke-17" stroke-linecap="round" stroke-linejoin="round"></path>
                    <path d="M13.0207324,37.2180469 C9.53606445,35.3635547 6.73342773,32.3966602 5.08655273,28.7909961" id="Stroke-19" stroke-linecap="round" stroke-linejoin="round" stroke-dasharray="0.1042968709953129,2.502148412168026"></path>
                    <path d="M4.60817383,27.636868 C4.60227383,27.621268 4.59647383,27.605668 4.59067383,27.589968" id="Stroke-21" stroke-linecap="round" stroke-linejoin="round"></path>
                    <path d="M38.3357715,27.5900852 C38.3299715,27.6056852 38.3241715,27.6212852 38.3182715,27.6369852" id="Stroke-23" stroke-linecap="round" stroke-linejoin="round"></path>
                    <path d="M37.2786719,29.9096582 C35.393418,33.3749902 32.4025977,36.1519434 28.7798438,37.7666895" id="Stroke-25" stroke-linecap="round" stroke-linejoin="round" stroke-dasharray="0.1042968709953129,2.502148412168026"></path>
                    <path d="M27.6212051,38.236782 C27.6056051,38.242582 27.5900051,38.248182 27.5742051,38.253882" id="Stroke-27" stroke-linecap="round" stroke-linejoin="round"></path>
                    <path d="M27.5745176,4.39583594 C27.5902176,4.40153594 27.6058176,4.40723594 27.6215176,4.41283594" id="Stroke-29" stroke-linecap="round" stroke-linejoin="round"></path>
                    <path d="M29.6188574,5.28101562 C33.3650488,7.18951172 36.353916,10.3717383 38.0147559,14.2570898" id="Stroke-31" stroke-linecap="round" stroke-linejoin="round" stroke-dasharray="0.09091796819120646,2.180859446525574"></path>
                    <path d="M38.4136605,15.2733348 C38.4193605,15.2890348 38.4248605,15.3047348 38.4304605,15.3204348" id="Stroke-33" stroke-linecap="round" stroke-linejoin="round"></path>
                    <line x1="21.463252" y1="9.69719727" x2="21.463252" y2="12.4653613" id="Stroke-35" stroke-linecap="round" stroke-linejoin="round"></line>
                    <line x1="21.463252" y1="30.4586914" x2="21.463252" y2="33.2269531" id="Stroke-37" stroke-linecap="round" stroke-linejoin="round"></line>
                    <line x1="9.6972168" y1="21.4632324" x2="12.4653809" y2="21.4632324" id="Stroke-39" stroke-linecap="round" stroke-linejoin="round"></line>
                    <line x1="30.4587598" y1="21.4632324" x2="33.2269238" y2="21.4632324" id="Stroke-41" stroke-linecap="round" stroke-linejoin="round"></line>
                </g>
            </g>
        </g>
    </g>
</svg>