<?xml version="1.0" encoding="UTF-8"?>
<svg width="24px" height="25px" viewBox="0 0 24 25" version="1.1" xmlns="http://www.w3.org/2000/svg" xmlns:xlink="http://www.w3.org/1999/xlink">
    <!-- Generator: Sketch 53.2 (72643) - https://sketchapp.com -->
    <title>Group 7</title>
    <desc>Created with Sketch.</desc>
    <g id="Page-1" stroke="none" stroke-width="1" fill="none" fill-rule="evenodd">
        <g id="Global-Relay-Archive-for-Slack-Landing-Page" transform="translate(-576.000000, -926.000000)">
            <g id="Group-7" transform="translate(576.000000, 926.000000)">
                <g id="Group-3" transform="translate(12.019231, 21.033654)" fill="#DF1F26">
                    <path d="M0.405949519,1.62124399 L0.405949519,1.38386418 C0.405949519,0.619140625 1.02644231,0.000150240385 1.79116587,0.000150240385 L10.5021034,0.000150240385 C11.2668269,0.000150240385 11.8858173,0.619140625 11.8858173,1.38386418 L11.8858173,1.62124399 C11.8858173,2.38596755 11.2668269,3.00495793 10.5021034,3.00495793 L1.79116587,3.00495793 C1.02644231,3.00495793 0.405949519,2.38596755 0.405949519,1.62124399" id="Fill-1"></path>
                </g>
                <g id="Group-6" fill="#B8BFC7">
                    <path d="M19.2152945,10.0018029 L16.5575421,12.6580529 L14.964994,14.250601 L9.65399639,8.93960337 L11.2465445,7.34555288 L13.9027945,4.68930288 L19.2152945,10.0018029 Z M21.3396935,7.87590144 L16.0271935,2.56490385 C16.6146334,1.97746394 16.6146334,1.02644231 16.0286959,0.440504808 C15.441256,-0.146935096 14.488732,-0.146935096 13.9027945,0.440504808 L11.4042969,2.94050481 L5.40519832,8.93810096 C4.81775841,9.52554087 4.81775841,10.4765625 5.40519832,11.0640024 C5.99113582,11.6499399 6.94215745,11.6499399 7.52959736,11.0640024 L9.12214543,12.6580529 L0.405198317,21.3734976 C-0.135667067,21.9158654 -0.135667067,22.7932692 0.405198317,23.3341346 L0.57046274,23.4978966 C1.11132812,24.0402644 1.98873197,24.0402644 2.53109976,23.4978966 L11.2465445,14.7824519 L12.840595,16.375 C12.2546575,16.9624399 12.2546575,17.9134615 12.840595,18.499399 C13.4265325,19.0868389 14.3790565,19.0868389 14.964994,18.499399 L20.809345,12.6580529 L23.4640925,10.0018029 C24.0515325,9.41436298 24.0515325,8.46334135 23.4640925,7.87590144 C22.878155,7.28996394 21.9271334,7.28996394 21.3396935,7.87590144 Z" id="Fill-4"></path>
                </g>
            </g>
        </g>
    </g>
</svg>