<?xml version="1.0" encoding="UTF-8"?>
<svg width="25px" height="25px" viewBox="0 0 25 25" version="1.1" xmlns="http://www.w3.org/2000/svg" xmlns:xlink="http://www.w3.org/1999/xlink">
    <!-- Generator: Sketch 53.1 (72631) - https://sketchapp.com -->
    <title>Group 6</title>
    <desc>Created with Sketch.</desc>
    <g id="Page-1" stroke="none" stroke-width="1" fill="none" fill-rule="evenodd">
        <g id="Global-Relay-Archive-for-Slack-Landing-Page" transform="translate(-576.000000, -801.000000)">
            <g id="Group-6" transform="translate(576.000000, 801.000000)">
                <path d="M10.9375,18.75 C6.6296875,18.75 3.125,15.2453125 3.125,10.9375 C3.125,6.6296875 6.6296875,3.125 10.9375,3.125 C15.2453125,3.125 18.75,6.6296875 18.75,10.9375 C18.75,15.2453125 15.2453125,18.75 10.9375,18.75 M10.9375,0 C4.896875,0 0,4.896875 0,10.9375 C0,16.978125 4.896875,21.875 10.9375,21.875 C11.4953125,21.875 12.040625,21.8203125 12.5765625,21.7390625 C12.6671875,21.725 12.7609375,21.7125 12.853125,21.696875 C13.3828125,21.6015625 13.9046875,21.4734375 14.4078125,21.3046875 C14.440625,21.2921875 14.475,21.278125 14.5078125,21.2671875 C15.5828125,20.8921875 16.5828125,20.3578125 17.4796875,19.6890625 C18.3171875,19.0609375 19.0609375,18.3171875 19.6890625,17.4796875 C20.3578125,16.5828125 20.8921875,15.5828125 21.2671875,14.50625 C21.278125,14.4734375 21.2921875,14.440625 21.3046875,14.4078125 C21.4734375,13.9046875 21.6015625,13.3828125 21.696875,12.853125 C21.7125,12.7609375 21.725,12.6671875 21.7390625,12.5765625 C21.8203125,12.040625 21.875,11.4953125 21.875,10.9375 C21.875,4.896875 16.978125,0 10.9375,0" id="Fill-1" fill="#B8BFC7"></path>
                <g id="Group-5" transform="translate(17.187500, 17.187500)" fill="#DF1F26">
                    <path d="M7.3546875,5.1453125 L2.5015625,0.2921875 C1.8734375,1.1296875 1.1296875,1.8734375 0.290625,2.5015625 L5.1453125,7.3546875 C5.75625,7.965625 6.74375,7.965625 7.3546875,7.3546875 C7.965625,6.74375 7.965625,5.75625 7.3546875,5.1453125" id="Fill-3"></path>
                </g>
            </g>
        </g>
    </g>
</svg>