<?xml version="1.0" encoding="UTF-8"?>
<svg width="50px" height="50px" viewBox="0 0 50 50" version="1.1" xmlns="http://www.w3.org/2000/svg" xmlns:xlink="http://www.w3.org/1999/xlink">
    <!-- Generator: Sketch 64 (93537) - https://sketch.com -->
    <title>secure-cloud</title>
    <desc>Created with Sketch.</desc>
    <defs>
        <rect id="path-1" x="0" y="0" width="50" height="50"></rect>
    </defs>
    <g id="secure-cloud" stroke="none" stroke-width="1" fill="none" fill-rule="evenodd">
        <g id="Group-25">
            <mask id="mask-2" fill="white">
                <use xlink:href="#path-1"></use>
            </mask>
            <g id="Mask"></g>
            <g id="Group-21" mask="url(#mask-2)">
                <g transform="translate(3.515625, 9.765625)">
                    <g id="Group-11" transform="translate(0.000000, 0.096094)" stroke-linecap="round" stroke-linejoin="round">
                        <path d="M5.54487305,13.8510156 C5.54487305,11.9399805 6.51313477,10.2551172 7.98588867,9.26019531" id="Stroke-1" stroke="#1D1D1B" stroke-width="1.38408203"></path>
                        <path d="M33.0745898,6.74475586 C34.044707,8.1805957 34.6110156,9.91165039 34.6110156,11.774834 C34.6110156,12.2921191 34.5673633,12.7991504 34.4836719,13.2925098" id="Stroke-3" stroke="#1D1D1B" stroke-width="1.38408203"></path>
                        <path d="M29.0745898,29.0761426 L5.54490234,29.0761426 C2.4871875,29.0761426 0.0084765625,26.5974316 0.0084765625,23.5398145 C0.0084765625,20.4820996 2.4871875,18.003291 5.54490234,18.003291" id="Stroke-5" stroke="#1D1D1B" stroke-width="1.38408203"></path>
                        <path d="M18.2749023,9.6987207 C16.8389648,7.21649414 14.1551758,5.54637695 11.08125,5.54637695 C6.49482422,5.54637695 2.77666016,9.26454102 2.77666016,13.8510645 C2.77666016,14.4663965 2.84355469,15.0662012 2.97060547,15.6433496" id="Stroke-7" stroke="#1D1D1B" stroke-width="1.38408203"></path>
                        <path d="M37.3592578,12.4672363 C37.3725391,12.2381348 37.3792773,12.007373 37.3792773,11.7748535 C37.3792773,5.27729492 32.1119922,0.0100097656 25.6143359,0.0100097656 C21.9842578,0.0100097656 18.7379688,1.65415039 16.5798633,4.23852539" id="Stroke-9" stroke="#1D1D1B" stroke-width="1.38408203"></path>
                    </g>
                    <g id="Group-20" transform="translate(31.835938, 15.330469)">
                        <path d="M1.39105469,6.92132812 C0.629726563,6.92132812 0.006875,7.54417969 0.006875,8.30541016 L0.006875,13.8417383 C0.006875,14.6030664 0.629726563,15.225918 1.39105469,15.225918 L9.69564453,15.225918 C10.456875,15.225918 11.0797266,14.6030664 11.0797266,13.8417383 L11.0797266,8.30541016 C11.0797266,7.54417969 10.456875,6.92132812 9.69564453,6.92132812 L1.39105469,6.92132812 Z" id="Stroke-12" stroke="#1D1D1B" stroke-width="1.38408203" stroke-linecap="round" stroke-linejoin="round"></path>
                        <path d="M2.77511719,6.79401367 L2.77511719,2.81139648 C2.77511719,1.25915039 4.01447266,0.000849609375 5.54337891,0.000849609375 C7.0721875,0.000849609375 8.31154297,1.25915039 8.31154297,2.81139648 L8.31154297,6.92135742" id="Stroke-14" stroke="#1D1D1B" stroke-width="1.38408203" stroke-linecap="round" stroke-linejoin="round"></path>
                        <path d="M6.92741211,10.3815527 C6.92741211,11.1460059 6.30768555,11.7656348 5.54333008,11.7656348 C4.77887695,11.7656348 4.15915039,11.1460059 4.15915039,10.3815527 C4.15915039,9.61719727 4.77887695,8.9974707 5.54333008,8.9974707 C6.30768555,8.9974707 6.92741211,9.61719727 6.92741211,10.3815527" id="Fill-16" fill="#1D1D1B"></path>
                        <line x1="5.54452148" y1="12.4576953" x2="5.54452148" y2="11.0736133" id="Stroke-18" stroke="#1D1D1B" stroke-width="1.38408203" stroke-linecap="round" stroke-linejoin="round"></line>
                    </g>
                </g>
            </g>
        </g>
    </g>
</svg>