<?xml version="1.0" encoding="UTF-8"?>
<svg width="25px" height="25px" viewBox="0 0 25 25" version="1.1" xmlns="http://www.w3.org/2000/svg" xmlns:xlink="http://www.w3.org/1999/xlink">
    <!-- Generator: Sketch 53.1 (72631) - https://sketchapp.com -->
    <title>Group 7</title>
    <desc>Created with Sketch.</desc>
    <g id="Page-1" stroke="none" stroke-width="1" fill="none" fill-rule="evenodd">
        <g id="Global-Relay-Archive-for-Slack-Landing-Page" transform="translate(-226.000000, -1052.000000)">
            <g id="Group-7" transform="translate(226.000000, 1052.000000)">
                <path d="M16.3376563,9.648125 C16.3423438,9.345 16.2939063,8.2871875 15.4954688,7.4075 C14.7985938,6.63875 13.7720313,6.2496875 12.4454688,6.2496875 C11.3251563,6.2496875 10.4017188,6.6215625 9.69859375,7.3575 C8.46109375,8.6590625 8.66265625,10.6434375 8.67203125,10.72625 L8.70328125,11.0278125 L10.9001563,11.02625 L10.8407813,10.6403125 C10.8392188,10.629375 10.6798438,9.5075 11.2548438,8.904375 C11.5376563,8.6075 11.9157813,8.4684375 12.4454688,8.4684375 C13.1345313,8.4684375 13.6251563,8.6153125 13.8970313,8.9075 C14.1735938,9.204375 14.1720312,9.5965625 14.1673438,9.6746875 L14.1798438,9.8121875 C14.1845313,9.845 14.2595313,10.6371875 13.4173438,11.1184375 C12.0126563,11.923125 11.4673438,12.8090625 11.4673438,14.2871875 L11.4673438,14.6246875 L13.6345313,14.6246875 L13.6345313,14.2871875 C13.6345313,13.6278125 13.7360938,13.4778125 14.4751563,13.0559375 C16.4110938,11.9465625 16.3673438,9.9965625 16.3376563,9.648125" id="Fill-1" fill="#DF1F26"></path>
                <path d="M12.57625,16.0232813 C11.8246875,16.0232813 11.2121875,16.6342188 11.2121875,17.3857813 C11.2121875,18.1389063 11.8246875,18.7498438 12.57625,18.7498438 C13.3278125,18.7498438 13.9403125,18.1389063 13.9403125,17.3857813 C13.9403125,16.6342188 13.3278125,16.0232813 12.57625,16.0232813" id="Fill-3" fill="#DF1F26"></path>
                <path d="M12.5,21.875 C7.3234375,21.875 3.125,17.675 3.125,12.5 C3.125,7.3234375 7.3234375,3.125 12.5,3.125 C17.6765625,3.125 21.875,7.3234375 21.875,12.5 C21.875,17.675 17.6765625,21.875 12.5,21.875 M12.5,0 C5.596875,0 0,5.596875 0,12.5 C0,19.403125 5.596875,25 12.5,25 C19.403125,25 25,19.403125 25,12.5 C25,5.596875 19.403125,0 12.5,0" id="Fill-5" fill="#B8BFC7"></path>
            </g>
        </g>
    </g>
</svg>