<?xml version="1.0" encoding="UTF-8"?>
<svg width="23px" height="20px" viewBox="0 0 23 20" version="1.1" xmlns="http://www.w3.org/2000/svg" xmlns:xlink="http://www.w3.org/1999/xlink">
    <!-- Generator: Sketch 53.1 (72631) - https://sketchapp.com -->
    <title>Group 16</title>
    <desc>Created with Sketch.</desc>
    <g id="Page-1" stroke="none" stroke-width="1" fill="none" fill-rule="evenodd">
        <g id="Global-Relay-Archive-for-Slack-Landing-Page" transform="translate(-226.000000, -804.000000)">
            <g id="Group-16" transform="translate(226.000000, 801.000000)">
                <g id="Group-14" transform="translate(0.250000, 3.750000)">
                    <path d="M17.3793079,3.7163221 C17.0156819,2.74764483 15.9345141,2.25704419 14.9655298,2.62079141 C13.9966711,2.98421021 13.5063478,4.06501731 13.8709903,5.0351553 C14.2343181,6.00303897 15.3154859,6.49363961 16.283677,6.13019024 C17.2531379,5.76579576 17.7435805,4.68472588 17.3793079,3.7163221 Z M17.1627817,8.47052668 C14.9017739,9.31928696 12.3791475,8.17459679 11.5306489,5.91424669 C10.6803001,3.65187934 11.8249626,1.12872897 14.0872183,0.280157121 C16.3480938,-0.568553489 18.8705573,0.575953068 19.7193882,2.83653565 C20.5696379,5.0975407 19.4250959,7.62018328 17.1627817,8.47052668 Z" id="Stroke-5" fill="#B8BFC7" fill-rule="nonzero"></path>
                    <path d="M10.625,18.7503419 C9.58946609,18.7503419 8.75,17.9108758 8.75,16.8753419 L8.75,14.3753419 C8.75,11.9590961 10.7087542,10.0003419 13.125,10.0003419 L18.125,10.0003419 C20.5412458,10.0003419 22.5,11.9590961 22.5,14.3753419 L22.5,16.8753419 C22.5,17.9108758 21.6605339,18.7503419 20.625,18.7503419 L10.625,18.7503419 Z M11.25,16.2503419 L20,16.2503419 L20,14.3753419 C20,13.339808 19.1605339,12.5003419 18.125,12.5003419 L13.125,12.5003419 C12.0894661,12.5003419 11.25,13.339808 11.25,14.3753419 L11.25,16.2503419 Z" id="Stroke-7" fill="#B8BFC7" fill-rule="nonzero"></path>
                    <path d="M2.5,13.7503669 C2.5,12.3716169 3.62125,11.2503669 5,11.2503669 L7.30125,11.2503669 C7.89125,10.2441169 8.7075,9.3866169 9.6825,8.7503669 L5,8.7503669 C2.2425,8.7503669 -4.07673895e-13,10.9928669 -4.07673895e-13,13.7503669 L-4.07673895e-13,15.6191169 C-4.07673895e-13,16.6528669 0.84125,17.4941169 1.875,17.4941169 L6.26375,17.4941169 L6.26375,14.9941169 L2.5,14.9941169 L2.5,13.7503669 Z" id="Fill-1" fill="#DF1F26"></path>
                    <path d="M7.5,3.7503419 C7.5,3.05997613 6.94017246,2.5003419 6.25,2.5003419 C5.55982754,2.5003419 5,3.05997613 5,3.7503419 C5,4.43998596 5.56035594,5.0003419 6.25,5.0003419 C6.93964406,5.0003419 7.5,4.43998596 7.5,3.7503419 Z M10,3.7503419 C10,5.82069784 8.32035594,7.5003419 6.25,7.5003419 C4.17964406,7.5003419 2.5,5.82069784 2.5,3.7503419 C2.5,1.67907094 4.17930891,0.000341902047 6.25,0.000341902047 C8.32069109,0.000341902047 10,1.67907094 10,3.7503419 Z" id="Stroke-3" fill="#DF1F26" fill-rule="nonzero"></path>
                </g>
                <rect id="Rectangle" fill="#FFFFFF" opacity="0" x="0" y="0" width="25" height="25"></rect>
            </g>
        </g>
    </g>
</svg>