<?xml version="1.0" encoding="utf-8"?>
<!-- Generator: Adobe Illustrator 24.1.0, SVG Export Plug-In . SVG Version: 6.00 Build 0)  -->
<svg version="1.1" id="Layer_1" xmlns="http://www.w3.org/2000/svg" xmlns:xlink="http://www.w3.org/1999/xlink" x="0px" y="0px"
	 viewBox="0 0 527.7 150" style="enable-background:new 0 0 527.7 150;" xml:space="preserve">
<style type="text/css">
	.st0{fill:#0087B6;}
</style>
<g>
	<path d="M391.5,67.5c-11.5,0-17,6.2-17,18.9c0,11.4,6.7,18.5,17.5,18.5c2.1,0,4.5-0.1,7.7-0.4V68.3
		C396.5,67.8,393.9,67.5,391.5,67.5 M391.6,114.1c-18.1,0-29.4-10.5-29.4-27.4c0-17.6,10.4-28.5,27.1-28.5l1.4,0
		c2.1,0,5,0.1,8.9,0.6V37.5h11.8v74.7C411.5,112.2,400.3,114.1,391.6,114.1"/>
	<polygon points="229.6,112.4 197.7,56.7 197.7,112.4 186.5,112.4 186.5,41.8 202.1,41.8 234.1,97.1 234.1,41.8 245.3,41.8 
		245.3,112.4 	"/>
	<path d="M331.4,113.5c-5.4,0-11-0.6-17.7-1.9l-0.7-0.1v-9.9l1.1,0.2c5.9,1.2,11,2.3,16.1,2.3c4.1,0,13.7-0.7,13.7-6.7
		c0-5.1-6.6-6.3-11.9-7.4l-0.3-0.1c-1-0.2-1.9-0.4-2.7-0.6c-7.8-2-16.1-5.1-16.1-15.5c0-10.2,8.1-16,22.1-16
		c6.7,0,11.6,0.7,15.6,1.3l1.9,0.3v9.6l-1-0.2c-4.5-0.8-9.7-1.7-14.7-1.7c-5.6,0-12.2,1-12.2,6c0,4.1,5.4,5.3,11.7,6.7
		c8.8,1.9,19.7,4.3,19.7,16.3C355.8,107.2,346.9,113.5,331.4,113.5"/>
	<path d="M448.9,87.1c-10.1,0-16.4,1.5-16.4,8.9c0,8.6,8,9.3,15.5,9.3c2.8,0,7.8-0.4,9.4-0.5V87.4C455.2,87.3,449.6,87.1,448.9,87.1
		 M444.7,113.5c-12.3,0-23.6-2.2-23.6-17.8c0-17,17.5-17,28-17c1,0,6,0.2,7.5,0.3c0-9.5-0.1-11.8-14-11.8c-5.5,0-11.6,1.1-17,2
		l-1,0.2V60l0.7-0.1c6.2-1.3,12.2-1.9,18.4-1.9c13.4,0,24.8,1.4,24.8,18v36.3l-0.8,0.1C458.4,113.4,451.1,113.5,444.7,113.5"/>
	<path d="M282.9,87.1c-10.1,0-16.4,1.5-16.4,8.9c0,8.6,8,9.3,15.5,9.3c2.8,0,7.8-0.4,9.4-0.5V87.4C289.2,87.3,283.6,87.1,282.9,87.1
		 M278.8,113.5c-12.3,0-23.6-2.2-23.6-17.8c0-17,17.5-17,28-17c1,0,6,0.2,7.5,0.3c0-9.5-0.1-11.8-14-11.8c-5.5,0-11.6,1.1-17,2
		l-1,0.2V60l0.7-0.1c6.2-1.3,12.2-1.9,18.4-1.9c13.4,0,24.8,1.4,24.8,18v36.3l-0.8,0.1C292.5,113.4,285.1,113.5,278.8,113.5"/>
	<path d="M508.5,67.5c-12,0-18.1,6.1-18.1,18.2c0,15.5,9.1,18.8,16.7,18.8c1.9,0,4,0,8.6-0.6V67.8C512.1,67.6,510.5,67.5,508.5,67.5
		 M515.6,136.4v-23.1c-4.6,0.7-7.1,0.7-9.1,0.7c-4.7,0-9.9-1-13.9-2.7c-9-3.7-14.4-13.3-14.4-25.5c0-6.1,1.5-17.3,11.4-23.3
		c5-3,10.9-4.3,19.7-4.3c3.2,0,7.5,0.2,11.6,0.5l6.7,0.3v72L515.6,136.4z"/>
	<path class="st0" d="M133.7,0L94.6,107.5c-1,2.7-3.4,4.6-6.3,4.9v0.1h41.4c3.2,0,6-2.1,7.1-4.9L175.8,0H133.7z"/>
	<path class="st0" d="M84.9,110.8c2.4,0,4.5-1.2,5.8-3c0.1-0.2,0.6-0.8,0.9-1.7L106,66.6l-8.4-23C96.5,41,94,39.2,91,39.2
		c-2.4,0-4.5,1.2-5.8,3c-0.1,0.2-0.7,1-0.9,1.7L70,83.4l8.4,23.1C79.5,109,82,110.8,84.9,110.8"/>
	<path class="st0" d="M88,37.6H46.2c-3.2,0-6,2.1-7.1,4.9L0,150h42.1L81.2,42.5C82.2,39.7,84.9,37.7,88,37.6L88,37.6z"/>
</g>
</svg>
