<?xml version="1.0" encoding="utf-8"?>
<!-- Generator: Adobe Illustrator 24.1.0, SVG Export Plug-In . SVG Version: 6.00 Build 0)  -->
<svg version="1.1" id="Layer_1" xmlns="http://www.w3.org/2000/svg" xmlns:xlink="http://www.w3.org/1999/xlink" x="0px" y="0px"
	 viewBox="0 0 1211.5 150" style="enable-background:new 0 0 1211.5 150;" xml:space="preserve">
<style type="text/css">
	.st0{fill:#0A7B79;}
	.st1{fill:#D4102D;}
</style>
<g>
	<g>
		<path class="st0" d="M108,88.9c-0.4-2.3-1-4.5-1.9-6.5c-2.9-6.3-6.9-11.5-13-15c-9.4-5.5-20.8-5.5-30.1,0.2
			c-4.2,2.6-7.7,6.2-9.9,10.6c-0.7,1.5-1.4,3.1-1.9,4.7c-2.5,7.8-2.4,18.3,2.1,25.4c1.4,2.3,3.5,4.3,6.1,5.3c2.6,1,5.6,0.9,7.9-0.6
			c3-1.9,3.5-5.6,2.9-8.8c-0.7-4.1-1.2-8.2,0.3-12.3c0.5-1.3,1.2-2.5,2.2-3.5c0.6-0.6,1.3-1.1,2.1-1.4c1.6-0.8,3.4-1.1,5.2-0.9
			c3.1,0.5,5.6,2.9,7,5.7c1.4,2.8,1.7,6,1.9,9.1c0.7,13.6-2.6,27.6-6.1,40.7c-0.4,1.3-0.7,2.7-1.1,4c-0.3,1-0.8,2.3-0.2,3.3
			c0.3,0.4,0.7,0.7,1.2,0.9c2,0.8,3.7-0.4,5-1.8c8-8,13.1-18.3,16.5-29c1.3-4,2.4-8,3.2-12.1C108.4,101.3,109,94.8,108,88.9"/>
		<path class="st0" d="M165,26.1c0-2-1.8-3.4-3.7-3.3c-2,0.1-3.8,1.1-5.6,1.8c-35,13.3-74.5,15.9-111.4,10.5
			c-6.3-0.9-12.7-2.2-19.1-3.2c-4-0.6-7.9-1.5-11.9-1.8c-3.4-0.3-7.7-0.4-10.4,2c-3.6,3.1-3.4,9.1-1.3,13c2.5,4.7,6.8,8.3,11.3,11
			c4.4,2.6,9.6,5.4,14.9,5.1c14.1-0.9,28.2-2.3,42.2-4.1c23.9-3.1,49-6,71.4-15.3c7.3-3,14.6-6.8,20.9-11.7
			C163.3,29.2,165,27.8,165,26.1"/>
		<path class="st1" d="M64.5,14.1c0,7.6,6.2,13.8,13.8,13.8c7.6,0,13.8-6.2,13.8-13.8c0-1.1-0.3-2.3-0.8-3.3
			c-1.2-2.5-2.5-3.7-2.4-6.7c0.2-4-5-4.1-7.8-4.1c-3,0-6.3,0.4-9,1.8c-2.2,1.1-4.1,2.8-5.4,4.9c-1.4,2.1-2.1,4.6-2.2,7.1
			C64.5,13.9,64.5,14,64.5,14.1"/>
	</g>
	<polygon points="240.5,42.7 240.5,120.4 225.3,120.4 225.3,83 193.7,83 193.7,120.4 178.5,120.4 178.5,42.7 193.7,42.7 193.7,72.9 
		225.3,72.9 225.3,42.7 	"/>
	<g>
		<path d="M282.2,91.3l-7.4,1c-6.9,0.9-11.7,4.9-11.7,10.8c0,5.1,3.4,8.6,7.3,8.6c6.4,0,11.8-3.2,11.8-15.4V91.3z M285.5,120.5
			c-0.8-0.7-2.2-3.1-2.3-5.1c-4.6,4.8-10.9,6.3-16.7,6.3c-10.4,0-18.3-7-18.3-18c0-10.3,7.6-18.8,21.4-20.2L282,82
			c0-9.5-5-12.3-10.3-12.3c-6.4,0-12.3,3.1-17.3,7.7l-2.6-11.2c6-4.2,12.2-6.2,20.8-6.2c10.9,0,24,5.3,24,21.8v24.2
			c0,4.6,0.7,10.1,2.8,14.6H285.5z"/>
		<path d="M321.4,61v5.1c4.1-4.1,9.7-6.2,15.4-6.2c14.2,0,23,8.8,23,23.2v37.3h-14.6V85.2c0-9.1-4.2-15.2-11.7-15.2
			c-6.8,0-12.1,5.9-12.1,15.7v34.8H307V61H321.4z"/>
		<path d="M401,91.3l-7.4,1c-6.9,0.9-11.7,4.9-11.7,10.8c0,5.1,3.4,8.6,7.3,8.6c6.4,0,11.8-3.2,11.8-15.4V91.3z M404.4,120.5
			c-0.8-0.7-2.2-3.1-2.3-5.1c-4.6,4.8-10.9,6.3-16.7,6.3c-10.4,0-18.3-7-18.3-18c0-10.3,7.6-18.8,21.4-20.2l12.4-1.4
			c0-9.5-5-12.3-10.3-12.3c-6.4,0-12.3,3.1-17.3,7.7l-2.6-11.2c6-4.2,12.2-6.2,20.8-6.2c10.9,0,24,5.3,24,21.8v24.2
			c0,4.6,0.7,10.1,2.8,14.6H404.4z"/>
	</g>
	<polygon points="500.9,42.7 500.9,52.8 472.1,52.8 472.1,77.6 500.2,77.6 500.2,87.6 472.1,87.6 472.1,120.4 456.9,120.4 
		456.9,42.7 	"/>
	<g>
		<path d="M508.6,61h14.6v59.4h-14.6V61z M507.5,46.7c0-4.7,3.7-8.4,8.3-8.4c4.7,0,8.4,3.8,8.4,8.4c0,4.7-3.8,8.3-8.4,8.3
			C511.1,55,507.5,51.3,507.5,46.7"/>
		<path d="M548.7,61v5.1c4.1-4.1,9.7-6.2,15.4-6.2c14.2,0,23,8.8,23,23.2v37.3h-14.6V85.2c0-9.1-4.2-15.2-11.7-15.2
			c-6.8,0-12.1,5.9-12.1,15.7v34.8h-14.4V61H548.7z"/>
		<path d="M628.3,91.3l-7.4,1c-6.9,0.9-11.7,4.9-11.7,10.8c0,5.1,3.4,8.6,7.3,8.6c6.4,0,11.8-3.2,11.8-15.4V91.3z M631.7,120.5
			c-0.8-0.7-2.2-3.1-2.3-5.1c-4.6,4.8-10.9,6.3-16.7,6.3c-10.4,0-18.3-7-18.3-18c0-10.3,7.6-18.8,21.4-20.2l12.4-1.4
			c0-9.5-5-12.3-10.3-12.3c-6.4,0-12.3,3.1-17.3,7.7L598,66.1c6-4.2,12.2-6.2,20.8-6.2c10.9,0,24,5.3,24,21.8v24.2
			c0,4.6,0.7,10.1,2.8,14.6H631.7z"/>
		<path d="M667.5,61v5.1c4.1-4.1,9.7-6.2,15.4-6.2c14.2,0,23,8.8,23,23.2v37.3h-14.6V85.2c0-9.1-4.2-15.2-11.7-15.2
			c-6.8,0-12.1,5.9-12.1,15.7v34.8h-14.4V61H667.5z"/>
		<path d="M760.2,106l1.8,10.7c-5.6,3.8-12.3,4.9-17,4.9c-22.5,0-31.1-17.4-31.1-30.6c0-15.4,11.2-31.1,31.8-31.1
			c4.9,0,10.4,1.1,15.1,4.1l-2.1,10.2c-4.1-3.1-8.2-4.2-12.3-4.2c-8.2,0-17.6,6.9-17.6,20.6c0,11,7,20.9,17.6,20.9
			C750.5,111.5,755.1,110.2,760.2,106"/>
		<path d="M769.6,61h14.6v59.4h-14.6V61z M768.5,46.7c0-4.7,3.7-8.4,8.3-8.4c4.7,0,8.4,3.8,8.4,8.4c0,4.7-3.8,8.3-8.4,8.3
			C772.2,55,768.5,51.3,768.5,46.7"/>
		<path d="M827,91.3l-7.4,1c-6.9,0.9-11.7,4.9-11.7,10.8c0,5.1,3.4,8.6,7.3,8.6c6.4,0,11.8-3.2,11.8-15.4V91.3z M830.3,120.5
			c-0.8-0.7-2.2-3.1-2.3-5.1c-4.6,4.8-10.9,6.3-16.7,6.3c-10.4,0-18.3-7-18.3-18c0-10.3,7.6-18.8,21.4-20.2l12.4-1.4
			c0-9.5-5-12.3-10.3-12.3c-6.4,0-12.3,3.1-17.3,7.7l-2.6-11.2c6-4.2,12.2-6.2,20.8-6.2c10.9,0,24,5.3,24,21.8v24.2
			c0,4.6,0.7,10.1,2.8,14.6H830.3z"/>
	</g>
	<rect x="852.3" y="39.3" width="14.6" height="81.1"/>
	<g>
		<path d="M960.3,83.2h15.2v32.6c-7.8,3.8-19.1,5.8-26.6,5.8c-27,0-42.2-18.1-42.2-40.2c0-20.4,15.3-39.8,43.1-39.8
			c8.9,0,19.6,2.8,25,6.7L972.3,59c-6.3-5-14.6-7-22.2-7c-17.1,0-27.7,12.3-27.7,29.3c0,18.6,12.2,29.8,26.4,29.8
			c3.8,0,8.3-0.3,11.4-2V83.2z"/>
		<path d="M999.4,61v5.1c3.3-3.3,7.9-6.2,13.8-6.2c3.1,0,6.7,0.2,10.6,2.4l-2.7,10.3c-3.4-2.3-7.2-2.7-9.8-2.4
			c-4.6,0.3-11.8,4.6-11.8,15.7v34.6h-14.6V61H999.4z"/>
		<path d="M1041.6,90.7c0,13.1,6.1,21.8,13.8,21.8c7.7,0,13.9-8.7,13.9-21.8c0-13.1-6.2-21.8-13.9-21.8
			C1047.7,68.9,1041.6,77.6,1041.6,90.7 M1026.5,90.7c0-18,12.7-30.8,28.9-30.8c16.2,0,29,12.8,29,30.8c0,18.1-12.8,30.9-29,30.9
			C1039.2,121.6,1026.5,108.8,1026.5,90.7"/>
		<path d="M1130.5,120.5v-5.1c-4.1,4.1-9.7,6.2-15.4,6.2c-14.2,0-23-8.8-23-23.2V61h14.6v35.2c0,9.1,4.2,15.2,11.7,15.2
			c6.8,0,12.1-5.9,12.1-15.7V61h14.4v59.4H1130.5z"/>
		<path d="M1169.1,90.9c0,12.8,6.1,21.8,13.6,21.8c8,0,13.9-9.4,13.9-21.8c0-12.4-5.9-21.7-13.9-21.7
			C1175,69.2,1169.1,78.5,1169.1,90.9 M1154.5,142.7V61h14.7v5.1c3.7-4.1,10-6.2,15.4-6.2c16.3,0,26.9,12.3,26.9,30.9
			c0,18.2-10.6,30.8-26.6,30.8c-6.2,0-11.9-2.3-15.8-5.9v27H1154.5z"/>
	</g>
</g>
</svg>
