<?xml version="1.0" encoding="utf-8"?>
<!-- Generator: Adobe Illustrator 24.1.0, SVG Export Plug-In . SVG Version: 6.00 Build 0)  -->
<svg version="1.1" id="Layer_1" xmlns="http://www.w3.org/2000/svg" xmlns:xlink="http://www.w3.org/1999/xlink" x="0px" y="0px"
	 viewBox="0 0 319.1 150" style="enable-background:new 0 0 319.1 150;" xml:space="preserve">
<style type="text/css">
	.st0{fill:#424471;}
	.st1{fill:#59B148;}
</style>
<path class="st0" d="M145.5,36c0,0-0.5,0-0.9,0c-0.2,0-0.4,0-0.8,0c-8,0-14.8,2.1-20.4,6.4V9.9h-13.2v96.4h11.5l0.9-5.5
	c5.6,4.5,12.9,6.8,21.4,6.8h0.1h0.1l0,0c9.7-0.1,17.9-3.4,23.9-9.7c6-6.4,9.2-15.5,9.2-26.1C177.4,50.6,164.9,36.6,145.5,36
	 M144.5,96.3c-0.2,0-0.4,0-0.5,0c-11.6,0-18.7-9.3-18.7-24.5s7.2-24.5,18.9-24.5c0.4,0,0.9,0,1.2,0c10.9,0.6,17.5,9.9,17.5,24.4
	C162.8,86.6,155.8,96,144.5,96.3z"/>
<path class="st0" d="M214.4,35.9c-9.8,0-18.2,3.3-24.2,9.8s-9.2,15.5-9.2,26.1c0,21.8,10.6,35.9,33.5,35.9c9.8,0,18.2-3.3,24.2-9.7
	c6-6.4,9.2-15.5,9.2-26.1C247.9,50,234.7,35.9,214.4,35.9 M214.4,96.3c-11.6,0-18.7-9.3-18.7-24.5s7.2-24.5,18.9-24.5
	c11.6,0,18.7,9.3,18.7,24.5C233.3,86.8,226,96.3,214.4,96.3z"/>
<polyline class="st1" points="85.1,42.3 76.5,33.6 85.1,25 93.8,33.6 85.1,42.3 "/>
<polyline class="st1" points="85.1,17.3 76.5,8.7 85.1,0 93.8,8.7 85.1,17.3 "/>
<polyline class="st1" points="97.7,29.9 89,21.2 97.7,12.5 106.3,21.2 97.7,29.9 "/>
<path class="st0" d="M47,94.3C27.6,94.3,15,78.8,15,56s13.2-38.4,32.3-38.4c14.1,0,20.3,7.1,25.1,12.2l8.6-8.7
	C76.6,16.4,67.5,4.8,47,4.8c-25.3,0-47,19-47,51.3s19.4,51.4,46.3,51.4c20,0,30.8-10.5,35-16l-9-9C68.6,87,60.3,94.3,47,94.3"/>
<path class="st0" d="M97.2,149.6l-0.4-2.8c0,0-2.3,3.2-7.6,3.2c-6.1,0-11-4.7-11-12.7c0-8,5.4-12.6,11.6-12.6c6.2,0,8.8,4.3,9,4.4
	l-2.3,2.1c-0.3-0.3-2-3.4-6.7-3.4c-4.5,0-8,3.7-8,9.5s3.1,9.6,7.8,9.6c4.7,0,6.4-2.9,6.4-2.9v-4.2h-6V137h9.5v12.8h-2.5"/>
<rect x="104.7" y="124.2" class="st0" width="3.4" height="25.4"/>
<path class="st0" d="M119.6,149.9c-5.2,0-8.7-3.7-8.7-9.3c0-5.7,3.4-9.3,8.6-9.3c5.2,0,8.7,3.7,8.7,9.3
	C128.3,146.3,124.7,149.9,119.6,149.9 M119.6,134c-3.3,0-5.2,2.8-5.2,6.6c0,3.9,1.8,6.6,5.1,6.6s5.2-2.7,5.2-6.6
	C124.6,136.8,122.9,134,119.6,134z"/>
<path class="st0" d="M141.1,149.9c-3.7,0-5.2-2.4-5.6-3.1l-0.4,2.8h-3v-25.4h3.4v10.4c0.2-0.4,2-3.2,5.9-3.2c4.7,0,7.6,3.9,7.6,9.3
	C149,146,145.8,149.9,141.1,149.9 M140.5,134c-3.1,0-5.2,3-5.2,6.6c0,3.5,1.8,6.6,5.1,6.6s5.2-3,5.2-6.6
	C145.5,137.1,143.7,134,140.5,134z"/>
<path class="st0" d="M163.1,149.6c0,0-0.4-1.1-0.4-2.3c-1.1,1.3-2.8,2.6-5.7,2.6s-5.7-1.6-5.7-5.5c0-3.9,3.3-4.9,4.8-5.3
	c1.4-0.4,3.9-0.6,6.4-0.6v-1.1c0-2.6-1.8-3.4-4.1-3.4s-4.2,0.9-5.4,1.6l-1.1-2.5c1.5-0.9,4-1.7,6.6-1.7c2.7,0,4.4,0.8,5.5,1.6
	c1.1,1,1.9,2.3,1.9,5.1v7.7c0,1.8,0.3,2.9,0.9,3.8L163.1,149.6 M162.7,140.8c-0.6,0-2.9,0.1-4,0.3c-1.2,0.2-3.8,0.8-3.8,3.2
	c0,2.5,1.8,3.1,3.2,3.1s3.4-0.9,4.4-2.8v-3.9H162.7z"/>
<rect x="170.7" y="124.2" class="st0" width="3.4" height="25.4"/>
<polyline class="st0" points="211.5,149.6 211,129.3 203.7,149.6 200.6,149.6 193.4,129.3 193,149.6 189.5,149.6 190.4,125 
	195.2,125 202.3,145.1 209.4,125 214.3,125 215.1,149.6 211.5,149.6 "/>
<path class="st0" d="M230.5,149.6c0,0-0.4-1.1-0.4-2.3c-1.1,1.3-2.8,2.6-5.7,2.6c-2.9,0-5.7-1.6-5.7-5.5c0-3.9,3.3-4.9,4.8-5.3
	c1.4-0.4,3.9-0.6,6.4-0.6v-1.1c0-2.6-1.8-3.4-4.1-3.4s-4.2,0.9-5.4,1.6l-1.1-2.5c1.5-0.9,4-1.7,6.6-1.7c2.7,0,4.4,0.8,5.5,1.6
	c1.1,1,1.9,2.3,1.9,5.1v7.7c0,1.8,0.3,2.9,0.9,3.8L230.5,149.6 M229.9,140.8c-0.6,0-2.9,0.1-4,0.3c-1.2,0.2-3.8,0.8-3.8,3.2
	c0,2.5,1.8,3.1,3.2,3.1s3.4-0.9,4.4-2.8v-3.9H229.9z"/>
<path class="st0" d="M248.6,134.8c0,0-0.5-0.2-1.3-0.2c-0.8,0-1.6,0.1-2.5,0.8c-1,0.8-2.1,2.1-2.5,4.1v10.1H239v-17.9h3.2l0.2,3.4
	c1-2,2.9-3.9,5.5-3.9c0.9,0,1.4,0.2,1.4,0.2L248.6,134.8"/>
<polyline class="st0" points="263.5,149.6 257.6,141.2 255.3,143.3 255.3,149.6 251.9,149.6 251.9,124.2 255.3,124.2 255.3,139.6 
	262.8,131.6 267,131.6 259.9,138.8 267.6,149.6 263.5,149.6 "/>
<path class="st0" d="M271.4,141.3c0,3.7,2,5.9,5.4,5.9c3.3,0,5.3-1.8,5.5-2l1.4,2.3c0,0-2.4,2.5-7.3,2.5s-8.5-3.4-8.5-9.2
	c0-5.9,3.7-9.3,8.5-9.3c4.8,0,7.7,3.7,7.7,8.7v1.3L271.4,141.3 M276.3,133.9c-3.2,0-4.7,2.8-4.8,5.1h9.3
	C280.8,136.4,279.5,133.9,276.3,133.9z"/>
<path class="st0" d="M291.8,134.3v9.2c0,1.6,0.2,2.5,0.6,2.9c0.4,0.5,1.2,0.8,1.9,0.8c0.8,0,1.6-0.2,1.9-0.3l0.4,2.6
	c-0.6,0.3-2.1,0.5-3.3,0.5c-1.5,0-2.8-0.3-3.8-1.4s-1.3-2.4-1.3-4.6v-9.7h-2.6v-2.6h2.6l0.3-4.8h3.1v4.8h4.9v2.6L291.8,134.3"/>
<path class="st0" d="M310.9,148.3c-1,1-2.6,1.7-5.3,1.7c-3.7,0-6.2-2.3-7.1-3.1l1.8-2.1c1.1,1.2,3.2,2.6,5.3,2.6s3.4-0.8,3.4-2.4
	c0-1.6-1.8-2.1-2.8-2.5c-1-0.3-2.4-0.8-3.2-1.1c-0.9-0.4-3.7-1.5-3.7-4.6c0-3.2,2.7-5.3,6.7-5.3c3.9,0,6.2,2.3,6.3,2.4l-1.5,2.3
	c-1.1-1-3-2-4.8-2s-3.3,0.6-3.3,2.3c0,1.5,1.6,2,2.8,2.5c1.3,0.4,2.7,0.9,3.4,1.2c0.8,0.3,3.7,1.5,3.7,4.6
	C312.6,146.1,311.8,147.4,310.9,148.3"/>
<path class="st0" d="M265.6,75.1c0.1,13.9,7.3,21.2,20.1,21.2c12.7,0,20.1-7,20.7-7.7l5.8,9.3c0,0-9.1,9.7-28.2,9.7
	c-19,0-32.6-13.1-32.6-35.6c0-22.7,14.2-35.9,32.6-35.9c18.5,0,29.3,13.9,29.3,33.5l-0.1,5.5H265.6 M283.6,46.5
	c-12,0-17.3,9.9-17.9,18.3h34.5C300.2,55.4,295.5,46.5,283.6,46.5z"/>
<path class="st0" d="M316.2,41.8c-0.4,0-0.8-0.1-1.1-0.2c-0.3-0.1-0.6-0.3-0.9-0.6c-0.2-0.2-0.4-0.5-0.6-1c-0.1-0.3-0.2-0.8-0.2-1.2
	c0-0.4,0.1-0.9,0.2-1.2s0.3-0.6,0.6-1c0.2-0.2,0.5-0.4,0.9-0.6c0.3-0.1,0.8-0.2,1.1-0.2c0.4,0,0.8,0.1,1.1,0.2
	c0.3,0.1,0.6,0.3,1,0.6c0.2,0.2,0.4,0.5,0.6,1c0.2,0.4,0.2,0.8,0.2,1.2c0,0.4-0.1,0.9-0.2,1.2c-0.1,0.3-0.3,0.6-0.6,1
	c-0.2,0.2-0.5,0.4-1,0.6C317.1,41.7,316.7,41.8,316.2,41.8 M316.2,41.2c0.3,0,0.6-0.1,0.9-0.2c0.3-0.1,0.5-0.3,0.8-0.5
	c0.2-0.2,0.3-0.4,0.4-0.8c0.1-0.3,0.2-0.6,0.2-1c0-0.3-0.1-0.6-0.2-1c-0.1-0.3-0.3-0.5-0.4-0.8c-0.2-0.2-0.4-0.4-0.8-0.5
	c-0.3-0.1-0.5-0.2-0.9-0.2c-0.3,0-0.6,0.1-0.9,0.2c-0.3,0.1-0.5,0.3-0.8,0.5s-0.3,0.4-0.4,0.8s-0.2,0.6-0.2,1c0,0.3,0.1,0.8,0.2,1
	c0.1,0.3,0.3,0.5,0.4,0.8c0.2,0.2,0.4,0.4,0.8,0.5C315.7,41.2,315.9,41.2,316.2,41.2z M315.2,40.3v-3.1h1.2c0.3,0,0.6,0.1,0.9,0.2
	c0.2,0.1,0.3,0.4,0.3,0.8c0,0.2,0,0.3-0.1,0.5c-0.1,0.1-0.2,0.2-0.4,0.3l0.8,1.3H317l-0.5-1.1h-0.6v1.1H315.2z M315.8,38.7h0.4
	c0.4,0,0.6-0.2,0.6-0.5c0-0.1,0-0.3-0.1-0.3c-0.1-0.1-0.2-0.1-0.5-0.1h-0.4V38.7z"/>
</svg>
