<?xml version="1.0" encoding="utf-8"?>
<!-- Generator: Adobe Illustrator 24.1.0, SVG Export Plug-In . SVG Version: 6.00 Build 0)  -->
<svg version="1.1" id="Layer_1" xmlns="http://www.w3.org/2000/svg" xmlns:xlink="http://www.w3.org/1999/xlink" x="0px" y="0px"
	 viewBox="0 0 1498.8 150" style="enable-background:new 0 0 1498.8 150;" xml:space="preserve">
<style type="text/css">
	.st0{fill:#BD2B30;}
</style>
<g>
	<g>
		<g>
			<polyline class="st0" points="97,45.6 79,28.5 98,8.2 116.2,25.3 			"/>
			<path class="st0" d="M81.8,71.6l-11.9,12H53.1L41.7,72.2V54.5l11.9-11.8h16.9l11.2,11.8 M75.1,32.1H49.5l-18,18v26.8l17.2,17.2
				H74L92.2,76V50L75.1,32.1z"/>
			<polyline class="st0" points="68.3,48.2 55.9,48.2 47.2,56.8 47.2,69.7 55.4,78 67.6,78 76.3,69.3 76.3,56.8 			"/>
			<polyline class="st0" points="118.5,31.1 111.9,37.6 114.5,40.3 114.5,85.4 83,116.9 38.9,116.9 9.2,87 9.2,40.5 40.3,9.3 
				85,9.3 87.5,11.9 93.9,5 89.1,0 36.6,0 0,36.6 0,91.1 35.1,126.2 86.7,126.2 123.5,89.3 123.5,36.4 			"/>
			<polyline class="st0" points="43,15.9 15.7,43.3 15.7,84.1 41.7,110.3 80.4,110.3 108,82.7 108,43.1 107.2,42.3 97.4,52 
				97.4,78.3 76.2,99.6 46.4,99.6 26.1,79.3 26.1,47.8 47.2,26.6 74.2,26.6 83,16.8 82.1,15.9 			"/>
			<path d="M231.5,84h21.4l-0.9,3.7c-3.1,11-8.1,19.1-15.2,24.4c-7,5.3-16,8-26.8,8c-13.3,0-24.5-4.5-33-13.6
				C168.2,97.4,164,85,164,69.3c0-16.6,4.2-29.6,12.9-38.8c8.7-9.2,20.2-13.8,34.3-13.8c12.3,0,22.3,3.6,30.1,10.8
				c4.5,4.3,8.1,10.4,10.2,18.4l1.2,4.6l-21.4,0.2c-1.1-5.2-3.6-9.3-7.4-12.2c-3.7-3-8.4-4.5-13.8-4.5c-7.4,0-13.5,2.7-18.2,8
				c-4.7,5.3-7,13.9-7,25.9c0,12.7,2.2,21.7,6.8,27.1c4.7,5.4,10.5,8,17.8,8c5.4,0,10.2-1.7,14.1-5.1
				C227.1,94.7,229.8,90.1,231.5,84"/>
			<path d="M278.2,18.4V54c5.9-7.3,16-11,24.2-11c4.3,0,9.2,1.3,12.6,3.1c2.6,1.4,5.3,4.5,7.1,7c1.7,2.5,2.9,5.4,3.6,8.5
				c0.6,3.1,0.9,7.9,0.9,14.4v41.8h-18.5V80.1c0-7.6-0.3-12.4-0.9-14.5c-0.8-2-2-3.7-3.7-4.9c-1.9-1.2-4.2-1.8-6.8-1.8
				c-3.1,0-9,0.8-11.5,2.3c-2.3,1.5-4.2,3.9-5.3,7c-1.1,3.1-1.7,7.7-1.7,13.8v35.6h-18.3V18.4"/>
			<path d="M337.7,117.4V45.1h18.3v72.3 M337.7,35.4V17.6h18.3v17.7H337.7z"/>
			<path d="M429.4,62.7c0.5,1,1.2,4.9,1.1,6.7l-18.9,0c-0.6-3.9-2-6.7-4.2-8.7c-2.3-1.9-5.3-2.9-8.8-2.9c-4.7,0-8.4,1.7-11.3,5.1
				C384.4,66.3,383,72,383,80c0,8.9,1.4,15.2,4.3,18.9c2.8,3.7,6.7,5.5,11.5,5.5c3.6,0,6.5-1.1,8.8-3.3c1.9-1.9,3.4-4.9,4.3-9
				c0-0.1,19.5-0.4,19.5-0.4c-0.2,0.5-0.5,2.5-0.6,3c-2,8.2-5.6,14.5-10.9,18.8c-5.4,4.6-12.9,6.8-22.2,6.8
				c-10.5,0-18.9-3.4-25.1-10.4c-6.2-6.9-9.3-16.5-9.3-28.7c0-12.3,3.1-22,9.3-28.9c6.4-6.9,14.9-10.3,25.6-10.3
				c8.7,0,15.7,1.9,20.9,5.8C423.7,51.4,427.1,56.3,429.4,62.7"/>
			<path d="M459.1,59.8c1.9-1.4,4.5-2.1,8.1-2.1c5.1,0,8.5,0.8,10.4,2.4s2.8,4.3,2.8,8.1v2c-3.4,1.5-9.8,3.1-18.8,4.8
				c-6.7,1.3-11.8,2.8-15.5,4.5c-3.6,1.7-6.4,4.2-8.2,7.5c-2,3.3-2.9,6.9-2.9,11.1c0,6.3,2.2,11.5,6.5,15.6
				c4.3,4.1,10.2,6.2,17.8,6.2c4.2,0,8.2-0.8,11.9-2.4c3.9-1.6,7.4-4,10.7-7.3c0.2,0.4,0.3,1.1,0.6,2.3c0.8,2.5,1.4,4.4,1.9,5.7
				h19.1c-1.7-3.5-2.8-6.8-3.4-9.9c-0.6-3.1-0.9-7.8-0.9-14.3l0.2-22.7c0-8.4-0.9-14.3-2.6-17.4c-1.7-3.2-4.7-5.8-8.8-7.8
				c-4.2-2.1-10.7-3.1-19.2-3.1c-9.5,0-16.6,1.7-21.4,5.2c-4.2,3-7.3,7.3-9.3,13.1c-0.5,0.9-1.1,4.5-0.9,6.1l17.4-0.1
				C455.5,63.6,457,61.2,459.1,59.8 M480.3,86.7c0,4.7-0.3,7.8-0.8,9.5c-0.8,2.5-2.3,4.7-4.5,6.4c-3.3,2.3-6.5,3.5-10.1,3.5
				c-3.1,0-5.6-1-7.6-3c-2-2-3.1-4.3-3.1-7.1c0-2.8,1.2-5.1,3.9-6.8c1.6-1.1,5.1-2.2,10.4-3.4c5.4-1.2,9.3-2.1,11.8-3V86.7z"/>
			<path d="M508.6,127.1c0,6.6,2.6,12.1,7.6,16.4c5.1,4.3,13.7,6.5,25.8,6.5c6.4,0,11.8-0.7,15.8-2.1c4.2-1.4,7.6-3.3,10.1-5.8
				c2.5-2.5,4.5-5.8,5.9-10.2c1.4-4.3,2-10.8,2-19.5V46.1h-17.5v10.5c-5.7-8-13-12-21.9-12c-8.5,0-15.7,3.3-21.4,9.8
				c-5.7,6.5-8.5,16-8.5,28.4c0,9.9,2.2,18.1,6.5,24.7c5.6,8.4,13.2,12.6,22.8,12.6c8.5,0,15.7-4,21.3-12v10.8c0,4.4-0.3,7.4-0.8,9
				c-0.9,2.3-2.2,3.9-3.9,4.9c-2.5,1.5-6.2,2.3-11.2,2.3c-3.9,0-6.7-0.7-8.5-2.2c-1.2-1-2.2-2.9-2.5-5.6
				C530.1,127.2,508.6,126.5,508.6,127.1 M530,65c2.9-3.6,6.7-5.5,11.2-5.5c4.7,0,8.4,1.9,11.5,5.6c2.9,3.7,4.5,9.4,4.5,17
				c0,7.3-1.6,12.8-4.8,16.6c-3.1,3.7-7,5.6-11.5,5.6c-4.3,0-7.9-1.8-10.9-5.5c-2.9-3.6-4.3-9.4-4.3-17.2
				C525.6,74.2,527,68.6,530,65z"/>
			<path d="M587.5,102.5c3.1,5.9,7.6,10.4,13.5,13.4c5.9,3.1,12.1,4.6,18.6,4.6c10.5,0,19.2-3.7,26.2-11
				c6.8-7.3,10.4-16.6,10.4-27.8c0-11.1-3.4-20.2-10.4-27.5c-6.8-7.3-15.7-10.9-26.4-10.9c-7,0-13.3,1.6-18.9,4.8
				c-5.6,3.2-9.9,7.8-13,13.9c-3.1,6.1-4.7,12.3-4.7,18.8C582.9,89.4,584.4,96.6,587.5,102.5 M607.2,65c3.3-3.9,7.4-5.9,12.4-5.9
				c5,0,9,2,12.3,5.9c3.4,3.9,5,9.5,5,16.8c0,7.4-1.6,13.1-5,17c-3.3,3.9-7.3,5.9-12.3,5.9c-5,0-9.2-2-12.4-5.9
				c-3.4-3.9-5.1-9.5-5.1-16.9C602.1,74.6,603.8,68.9,607.2,65z"/>
			<path d="M711,74.2c9.2,0,15,0.5,17.7,1.4c2.8,1,4.8,2.5,6.2,4.6c1.6,2.1,2.3,4.7,2.3,7.7c0,3.5-1.1,6.4-2.9,8.5
				c-1.9,2.1-4.2,3.5-7.1,4c-2,0.4-6.5,0.6-13.8,0.6h-18.5V74.2 M674.9,117.9h33.7c12.7-0.1,20.8-0.3,24-0.7
				c5.4-0.6,9.8-2.2,13.5-4.7c3.6-2.6,6.5-6,8.5-10.3c2-4.3,3.1-8.7,3.1-13.3c0-5.8-1.6-10.8-4.8-15.1c-3.3-4.3-7.9-7.3-13.8-9.1
				c4.2-2,7.6-4.9,10.1-8.8c2.3-3.9,3.6-8.2,3.6-12.9c0-4.3-0.9-8.2-2.9-11.7c-2-3.5-4.5-6.3-7.6-8.4c-2.9-2.1-6.5-3.5-10.2-4.1
				c-3.9-0.7-9.8-1-17.5-1h-39.6V117.9z M706.4,34.4c9.3,0,15,0.1,17.1,0.3c3.3,0.4,5.7,1.6,7.4,3.5c1.6,1.9,2.5,4.5,2.5,7.6
				c0,3.2-0.9,5.8-2.9,7.8c-1.9,2-4.5,3.2-7.9,3.6c-2,0.2-6.8,0.3-14.6,0.3h-13V34.4H706.4z"/>
			<path d="M766.6,102.3c3.1,5.9,7.6,10.4,13.5,13.4c6.1,3.1,12.3,4.6,18.6,4.6c10.5,0,19.4-3.7,26.2-11c7-7.3,10.4-16.6,10.4-27.8
				c0-11.1-3.4-20.3-10.2-27.5s-15.7-10.9-26.4-10.9c-7,0-13.3,1.6-18.9,4.8c-5.7,3.2-10.1,7.8-13.2,13.9
				c-2.9,6.1-4.5,12.4-4.5,18.8C762.1,89.2,763.6,96.4,766.6,102.3 M786.3,64.8c3.4-3.9,7.6-5.9,12.6-5.9c4.8,0,9,2,12.3,5.9
				c3.3,3.9,5,9.5,5,16.8c0,7.5-1.7,13.1-5,17.1c-3.3,3.9-7.4,5.9-12.3,5.9c-5,0-9.2-2-12.6-5.9c-3.3-3.9-5-9.6-5-16.9
				C781.3,74.4,783,68.7,786.3,64.8z"/>
			<path d="M864.5,60.3c1.9-1.4,4.5-2,7.9-2c5,0,8.4,0.8,10.2,2.4c1.9,1.6,2.8,4.2,2.8,8v1.9c-3.4,1.5-9.6,3-18.6,4.7
				c-6.5,1.3-11.5,2.8-15,4.5c-3.6,1.7-6.2,4.1-8.2,7.3c-1.9,3.2-2.9,6.8-2.9,10.9c0,6.2,2.2,11.3,6.5,15.3c4.2,4,10.1,6.1,17.5,6.1
				c4.2,0,8.1-0.8,11.8-2.4c3.7-1.6,7.3-4,10.5-7.2c0,0.4,0.3,1.1,0.6,2.2c0.6,2.5,1.2,4.4,1.7,5.6h18.9c-1.7-3.5-2.9-6.7-3.6-9.7
				c-0.6-3-0.9-7.7-0.9-14.1l0.3-22.4c0-8.3-0.9-14-2.6-17.1c-1.7-3.1-4.7-5.7-8.7-7.7c-4.2-2-10.5-3-18.9-3
				c-9.3,0-16.3,1.7-21.1,5.1c-4.3,3.1-7.4,7.7-9.5,13.9c-0.2,0.6-0.8,2.9-0.8,4.7l17.4,0.1C860.9,64.1,862.4,61.7,864.5,60.3
				 M885.4,86.8c0,4.6-0.3,7.7-0.8,9.3c-0.8,2.5-2.2,4.6-4.5,6.3c-3.1,2.3-6.4,3.4-9.8,3.4c-3.1,0-5.6-1-7.6-2.9
				c-2-1.9-2.9-4.3-2.9-6.9c0-2.7,1.2-5,3.7-6.7c1.6-1.1,5-2.2,10.2-3.3c5.3-1.1,9.2-2.1,11.6-2.9V86.8z"/>
			<path d="M932.7,117.8h-18.5V45.3h17.2v10.3c2.9-4.9,5.1-7.1,7.4-8.6c2.3-1.5,5.7-3.4,8.7-3.6c2-0.2,6.2-0.7,8.7,0.4v19
				c-3.1-2.1-6.7-1.6-9.3-1.6c-2.6,0-6.5,1.5-8.4,3c-1.7,1.5-3.3,3.2-4.3,7.1c-1.1,3.9-1.6,12-1.6,24.2"/>
			<path d="M1026.9,17.8h-19.1v36c-6.1-6.7-13-10.1-21.1-10.1c-8.8,0-16.1,3.2-22,9.6c-5.7,6.4-8.7,15.7-8.7,28
				c0,12,2.9,21.4,9,28.1c5.9,6.7,13,10.1,21.4,10.1c4,0,8.1-1,12.1-3.1c4-2,7.6-5.1,10.5-9.3v10.6h17.8 M980.3,63.9
				c2.9-3.6,6.8-5.4,11.5-5.4c4.7,0,8.5,1.8,11.6,5.5c2.9,3.7,4.5,9.6,4.5,18c0,7.5-1.6,13.1-4.7,16.8c-3.3,3.7-7,5.6-11.3,5.6
				c-5.6,0-9.9-2.5-13.2-7.5c-2-3.5-3.1-9-3.1-16.8C975.7,72.9,977.2,67.5,980.3,63.9z"/>
			<path d="M1048.9,102.2c3.1,5.9,7.8,10.4,13.8,13.5c6.1,3.1,12.4,4.6,18.9,4.6c10.9,0,19.7-3.7,26.8-11.1
				c7.1-7.4,10.7-16.6,10.7-27.8c0-11.1-3.6-20.3-10.5-27.6c-7.1-7.3-16-10.9-27-10.9c-7.1,0-13.7,1.6-19.4,4.8
				c-5.7,3.2-10.2,7.9-13.3,13.9s-4.8,12.4-4.8,18.9C1044.1,89,1045.8,96.2,1048.9,102.2 M1068.9,64.6c3.6-3.9,7.8-5.9,12.7-5.9
				c5.1,0,9.3,2,12.7,5.9c3.4,3.9,5.1,9.5,5.1,16.8c0,7.5-1.7,13.2-5.1,17.1c-3.4,3.9-7.6,5.9-12.7,5.9c-5,0-9.2-2-12.7-5.9
				c-3.4-3.9-5.1-9.6-5.1-17S1065.5,68.5,1068.9,64.6z"/>
			<path d="M1118,45.2h10.2v-4.6c0-6,0.6-10.5,1.9-13.5c1.2-3,3.6-5.4,6.8-7.3c3.4-1.9,7.6-2.8,12.7-2.8c3.3,0,6.5,0.3,9.8,0.9
				c0,0,0,15.7-0.2,15.9c-1.7-0.3-3.4-0.4-5.1-0.4c-2.6,0-4.5,0.7-5.7,1.9c-1.2,1.3-1.9,1.9-1.9,5.5v4.2h13.8v14.7h-13.8v58h-18.3
				v-58H1118"/>
			<polyline points="1208.9,117.9 1208.9,34.8 1180.3,34.8 1180.3,17.9 1256.8,17.9 1256.8,34.8 1228.3,34.8 1228.3,117.9 			"/>
			<path d="M1424.5,18.2h-19.1v36c-5.9-6.7-13-10.1-21.1-10.1c-8.8,0-16.3,3.2-22,9.6c-5.9,6.4-8.7,15.7-8.7,28
				c0,12,2.9,21.4,8.8,28.1c6.1,6.7,13.2,10.1,21.6,10.1c4,0,8.1-1,12.3-3.1c4-2,7.4-5.1,10.4-9.3v10.6h17.8 M1377.8,64.2
				c3.1-3.6,7-5.4,11.6-5.4c4.7,0,8.5,1.8,11.6,5.5c2.9,3.7,4.5,9.6,4.5,18c0,7.5-1.6,13.1-4.7,16.8c-3.1,3.7-7,5.6-11.3,5.6
				c-5.6,0-10.1-2.5-13.2-7.5c-2.2-3.5-3.1-9.1-3.1-16.8C1373.3,73.2,1374.9,67.8,1377.8,64.2z"/>
			<path d="M1477.1,98c-1.1,2.4-2.3,4.2-4,5.4c-2,1.6-4.7,2.5-7.8,2.5c-4.5,0-8.4-1.6-11.5-4.8c-2.9-3.2-4.7-7.6-4.8-13.3h49.8
				c0.2-14.7-2.8-25.6-9.3-32.7c-6.5-7.1-15.2-10.7-26.4-10.7c-9.9,0-18.2,3.4-24.7,10.2c-6.5,6.8-9.8,16.2-9.8,28.2
				c0,10.1,2.5,18.4,7.4,25c6.2,8.2,15.8,12.4,28.9,12.4c8.4,0,15.2-1.8,20.6-5.5c5.3-3.5,9.3-8.7,11.8-15.3c0-0.2,0.5-1.3,0.6-1.5
				C1498.1,97.8,1477.1,98,1477.1,98 M1449.5,76c-0.2-5.2,1.2-9.3,4-12.3c2.8-3,6.5-4.6,10.9-4.6c4,0,7.4,1.4,10.2,4.3
				c2.8,2.9,4.3,7.1,4.5,12.6H1449.5z"/>
			<path d="M1259.6,117.8h-18.3V45.3h17.1v10.3c2.9-4.8,5.1-7.1,7.4-8.6c2.5-1.5,5.7-3.4,8.7-3.7c2-0.2,6.2-0.7,8.7,0.5v19
				c-3.1-2.1-6.7-1.6-9.3-1.6c-2.6,0-6.5,1.5-8.2,3c-1.9,1.5-3.4,3.2-4.5,7c-0.9,3.9-1.6,12-1.6,24.3"/>
			<path d="M1308.2,60.5c1.9-1.4,4.5-2,7.9-2c5.1,0,8.5,0.8,10.4,2.4c1.7,1.6,2.6,4.2,2.6,8v1.9c-3.4,1.5-9.6,3-18.5,4.7
				c-6.5,1.3-11.6,2.8-15.2,4.5c-3.4,1.7-6.2,4.1-8.1,7.3c-2,3.2-2.9,6.8-2.9,10.9c0,6.2,2.2,11.3,6.4,15.3c4.3,4,10.1,6.1,17.5,6.1
				c4.2,0,8.2-0.8,11.9-2.4c3.6-1.6,7.1-4,10.4-7.2c0.2,0.4,0.3,1.1,0.6,2.2c0.8,2.5,1.4,4.4,1.9,5.6h18.8c-1.7-3.5-2.8-6.7-3.4-9.7
				c-0.6-3-0.9-7.7-0.9-14.1l0.2-22.4c0-8.3-0.9-14-2.5-17.1c-1.7-3.1-4.7-5.7-8.8-7.7c-4.2-2-10.4-3-18.9-3
				c-9.3,0-16.3,1.7-21.1,5.1c-4.3,3.1-7.4,7.7-9.5,13.9c-0.2,0.6-0.8,2.9-0.8,4.7l17.4,0.2C1304.7,64.2,1306.3,61.8,1308.2,60.5
				 M1329.1,87c0,4.6-0.3,7.7-0.8,9.3c-0.6,2.5-2.2,4.6-4.5,6.3c-3.1,2.3-6.4,3.4-9.8,3.4c-3.1,0-5.6-1-7.4-2.9
				c-2-2-3.1-4.3-3.1-6.9c0-2.7,1.2-5,3.7-6.7c1.6-1.1,5.1-2.2,10.4-3.3c5.3-1.1,9-2.1,11.5-2.9V87z"/>
		</g>
	</g>
</g>
</svg>
