<?xml version="1.0" encoding="utf-8"?>
<!-- Generator: Adobe Illustrator 24.1.0, SVG Export Plug-In . SVG Version: 6.00 Build 0)  -->
<svg version="1.1" id="Layer_1" xmlns="http://www.w3.org/2000/svg" xmlns:xlink="http://www.w3.org/1999/xlink" x="0px" y="0px"
	 viewBox="0 0 1005.4 150" style="enable-background:new 0 0 1005.4 150;" xml:space="preserve">
<style type="text/css">
	.st0{clip-path:url(#SVGID_2_);}
</style>
<g>
	<path d="M161.5,63.8v-0.3c0-31.8,23.8-57.8,57.6-57.8c20.6,0,33,7.2,43.7,17.4l-12.6,14.5c-8.9-8.3-18.5-13.9-31.3-13.9
		c-21.4,0-36.9,17.6-36.9,39.4v0.3c0,21.9,15.5,39.7,36.9,39.7c13.7,0,22.5-5.6,32.1-14.5l12.6,12.7c-11.6,12.1-24.4,19.8-45.3,19.8
		C185.7,121.2,161.5,95.9,161.5,63.8"/>
	<polygon points="280.8,7.6 301.7,7.6 335.7,60.5 369.7,7.6 390.6,7.6 390.6,119.3 371,119.3 371,39.2 335.7,91.9 335,91.9 
		300.1,39.5 300.1,119.3 280.8,119.3 	"/>
	<polygon points="411.7,7.6 494.5,7.6 494.5,25.2 431.3,25.2 431.3,54.2 487.3,54.2 487.3,71.8 431.3,71.8 431.3,101.8 495.3,101.8 
		495.3,119.3 411.7,119.3 	"/>
	<path d="M535.9,63.8v-0.3c0-31.3,24-57.8,57.6-57.8c19.5,0,31.4,5.4,42.9,15.2L624,35.7c-8.6-7.3-17.1-12-31.3-12
		c-20.6,0-36.2,18-36.2,39.4v0.3c0,23,15.1,39.9,38,39.9c10.5,0,20.1-3.4,27-8.5V74h-28.6V56.9h47.5v46.9
		c-11,9.4-26.8,17.4-46.6,17.4C558.9,121.2,535.9,96.4,535.9,63.8"/>
	<path d="M660.6,35.1h19.3v19c5.3-12.6,15-21.2,29.8-20.6v20.4h-1.1c-16.9,0-28.7,11-28.7,33.3v32.1h-19.3V35.1z"/>
	<path d="M717.6,77.7v-0.3c0-24.1,19.2-44,45-44c25.8,0,44.8,19.6,44.8,43.7v0.3c0,23.9-19.1,43.9-45.2,43.9
		C736.6,121.2,717.6,101.6,717.6,77.7 M788.1,77.7v-0.3c0-14.8-10.7-27.1-25.9-27.1c-15.5,0-25.4,12.1-25.4,26.8v0.3
		c0,14.7,10.7,27.1,25.7,27.1C778.3,104.5,788.1,92.2,788.1,77.7"/>
	<path d="M822.9,88.7V35.1h19.3V83c0,13.1,6.5,20.6,18,20.6c11.2,0,19-7.8,19-20.9V35.1h19.3v84.3h-19.3v-13.1
		c-5.4,8-13.2,14.8-26.3,14.8C833.9,121.1,822.9,108.3,822.9,88.7"/>
	<path d="M918.3,35.1h19.3v14.1c6.2-8.8,15-15.8,28.6-15.8c20,0,39.3,15.8,39.3,43.7v0.3c0,27.9-19.2,43.7-39.3,43.7
		c-13.9,0-22.7-7-28.6-14.8V150h-19.3V35.1z M985.8,77.4V77c0-16.3-11-27-24.1-27c-13.1,0-24.6,10.9-24.6,27v0.3
		c0,16.3,11.5,27,24.6,27C974.9,104.3,985.8,94,985.8,77.4"/>
</g>
<g>
	<defs>
		<path id="SVGID_1_" d="M10.6,103.2l27.2,27.2h12.6c-7.7-7.1-13.9-16.4-18.2-27.2H10.6z M36.9,103.2c4.8,11.2,11.7,20.5,20.4,27.2
			h5.5v-27.2H36.9z M67.5,103.2v27.2h5.3c8.7-6.7,15.6-16,20.4-27.2H67.5z M97.9,103.2c-4.3,10.8-10.5,20.1-18.3,27.2h12.7
			l27.2-27.2H97.9z M0,67.4v25.3l5.9,5.9h24.5c-3.2-9.5-5-20-5.2-31.1H0z M29.7,67.4c0.2,11.2,2.1,21.7,5.4,31.1h27.7V67.4H29.7z
			 M67.5,67.4v31.1H95c3.4-9.4,5.2-19.9,5.5-31.1H67.5z M105,67.4c-0.2,11.1-2.1,21.6-5.3,31.1h24.5l6-6V67.4H105z M6.1,31.7L0,37.9
			v24.8h25.2c0.2-11.1,2-21.5,5.2-30.9H6.1z M35.1,31.7c-3.3,9.3-5.2,19.8-5.4,30.9h33.1V31.7H35.1z M67.5,31.7v30.9h33
			c-0.2-11.1-2.1-21.6-5.4-30.9H67.5z M99.8,31.7c3.1,9.4,4.9,19.9,5.1,30.9h25.3V37.9l-6.1-6.1H99.8z M37.4,0L10.7,27h21.4
			c4.3-10.7,10.3-19.9,18-27H37.4z M56.9,0c-8.5,6.6-15.3,15.9-20,27h25.9V0H56.9z M67.5,0v27h25.8c-4.7-11.1-11.5-20.4-20-27H67.5z
			 M80.2,0c7.6,7.1,13.7,16.3,17.9,27h21.3l-27-27H80.2z"/>
	</defs>
	<clipPath id="SVGID_2_">
		<use xlink:href="#SVGID_1_"  style="overflow:visible;"/>
	</clipPath>
	<g class="st0">
		<defs>
			<rect id="SVGID_3_" x="-0.7" y="-0.7" width="131.7" height="131.7"/>
		</defs>
		<clipPath id="SVGID_4_">
			<use xlink:href="#SVGID_3_"  style="overflow:visible;"/>
		</clipPath>
		<g transform="matrix(1 0 0 1 0 0)" style="clip-path:url(#SVGID_4_);">
			
				<image style="overflow:visible;" width="77" height="77" xlink:href="D0454A71F069D9A6.jpg"  transform="matrix(1.7102 0 0 1.7102 -0.671 -0.6826)">
			</image>
		</g>
	</g>
</g>
</svg>
