<?xml version="1.0" encoding="utf-8"?>
<!-- Generator: Adobe Illustrator 24.1.0, SVG Export Plug-In . SVG Version: 6.00 Build 0)  -->
<svg version="1.1" id="Layer_1" xmlns="http://www.w3.org/2000/svg" xmlns:xlink="http://www.w3.org/1999/xlink" x="0px" y="0px"
	 viewBox="0 0 168 150" style="enable-background:new 0 0 168 150;" xml:space="preserve">
<style type="text/css">
	.st0{fill:#003A78;}
	.st1{fill-rule:evenodd;clip-rule:evenodd;fill:#003A78;}
</style>
<g>
	<g>
		<polyline class="st0" points="15,98.6 27.9,95.7 27.9,57.2 41.8,57.2 41.8,51.4 0,51.4 1.4,57.2 15,57.2 		"/>
		<path class="st1" d="M84.1,51.5c-3.1,8.2-6.1,16.4-10,23.8c-3.4-7.9-6.5-16.1-10-23.8H50.3v45.7h7.3V66.9L71,96.7L84,67.5v0.6
			c0,0,0,0,0,0v29h12.9V51.5"/>
		<path class="st0" d="M168,38.6h-17.2c3.1-12.3,4.7-25.3,4.7-38.6l-10.8,4.3c-2,69.5-51.4,127.1-117.1,141.5l-1.4,4.2
			c29.1-5.9,55.1-20.1,75.7-40h12.5l16.4-23.6l16.4,23.6H168l-27.4-35.7"/>
		<path class="st0" d="M126.3,62.8l-8.5-11.3h-14.3l17,22.2C122.8,70.4,124.9,66.5,126.3,62.8"/>
	</g>
</g>
</svg>
