<?xml version="1.0" encoding="utf-8"?>
<!-- Generator: Adobe Illustrator 24.1.0, SVG Export Plug-In . SVG Version: 6.00 Build 0)  -->
<svg version="1.1" id="Layer_1" xmlns="http://www.w3.org/2000/svg" xmlns:xlink="http://www.w3.org/1999/xlink" x="0px" y="0px"
	 viewBox="0 0 150.3 150" style="enable-background:new 0 0 150.3 150;" xml:space="preserve">
<style type="text/css">
	.st0{fill:#9ACFE6;}
	.st1{fill:#020203;}
</style>
<g>
	<polygon class="st0" points="0,0 0,74.6 0,149.3 19.4,149.3 38.8,149.3 38.8,144.8 38.8,140.3 23.9,140.3 9,140.3 9,74.6 9,9 
		74.6,9 140.3,9 140.3,50.8 140.3,92.6 144.8,92.6 149.3,92.6 149.3,46.3 149.3,0 	"/>
	<rect x="53" y="105.1" class="st1" width="7.2" height="44.1"/>
	<g>
		<path class="st1" d="M104.4,106.5v6.8c-2.1-1.1-4.1-2-6.2-2.5c-2.1-0.6-4.1-0.9-6.2-0.9c-4.7,0-8.3,1.5-10.9,4.5
			c-2.6,3-3.9,7.1-3.9,12.5c0,5.4,1.3,9.6,3.9,12.6c2.6,3,6.3,4.4,10.9,4.4c2.1,0,4.2-0.3,6.2-0.8c2.1-0.6,4.1-1.4,6.2-2.6v6.7
			c-2,1-4.1,1.7-6.3,2.1c-2.2,0.5-4.5,0.7-6.9,0.7c-6.6,0-11.9-2.1-15.8-6.3c-3.9-4.2-5.9-9.8-5.9-16.9c0-7.2,2-12.8,5.9-17
			c4-4.1,9.4-6.2,16.3-6.2c2.2,0,4.4,0.2,6.5,0.7C100.4,104.9,102.4,105.5,104.4,106.5"/>
		<path class="st1" d="M150.3,125c0-6.6-1.7-11.7-5.2-15.6c-3.4-3.8-8.1-5.7-14-5.7c-6.6,0-11.9,2.1-15.8,6.4
			c-3.9,4.2-5.8,9.9-5.8,17.2c0,7,2.1,12.5,6.1,16.6c4.1,4.1,9.7,6.2,16.7,6.2c2.8,0,5.6-0.3,8.3-0.9c2.7-0.6,5.4-1.4,8-2.5v-6.9
			c-2.6,1.4-5.2,2.4-7.8,3.1c-2.6,0.7-5.3,1-8.1,1c-4.8,0-8.5-1.3-11.2-3.9c-2.7-2.6-4.2-6.4-4.5-11.4h33.3V125z M117.3,122.9
			c0.4-4.2,1.8-7.4,4.2-9.6c2.4-2.3,5.7-3.4,9.7-3.4c3.6,0,6.4,1.2,8.6,3.5c2.2,2.4,3.3,5.5,3.3,9.5L117.3,122.9z"/>
	</g>
</g>
</svg>
