<?xml version="1.0" encoding="utf-8"?>
<!-- Generator: Adobe Illustrator 24.1.0, SVG Export Plug-In . SVG Version: 6.00 Build 0)  -->
<svg version="1.1" id="Layer_1" xmlns="http://www.w3.org/2000/svg" xmlns:xlink="http://www.w3.org/1999/xlink" x="0px" y="0px"
	 viewBox="0 0 541.5 150" style="enable-background:new 0 0 541.5 150;" xml:space="preserve">
<style type="text/css">
	.st0{fill:#E84610;}
</style>
<g>
	<path class="st0" d="M137.9,21.4c11-13.1,27.5-21.4,46-21.4H225v30h-41.2c-9.2,0-17.5,4.2-23,10.7l-73.7,87.8
		c-11,13.1-27.5,21.4-46,21.4H0v-30h41.2c9.2,0,17.5-4.2,23-10.7L137.9,21.4z"/>
</g>
<rect x="255" y="0" class="st0" width="31.5" height="150"/>
<g>
	<path class="st0" d="M403.6,21.4L429,51.7l25.4-30.2c11-13.1,27.5-21.4,46-21.4h41.2v30h-41.2c-9.2,0-17.5,4.2-23,10.7L448.6,75
		l28.8,34.3c5.5,6.6,13.7,10.7,23,10.7h41.2v30h-41.2c-18.5,0-35-8.3-46-21.4L429,98.3l-25.4,30.2c-11,13.1-27.5,21.4-46,21.4h-41.2
		v-30h41.2c9.2,0,17.5-4.2,23-10.7L409.4,75l-28.8-34.3c-5.5-6.6-13.7-10.7-23-10.7h-41.2V0h41.2C376.1,0,392.6,8.3,403.6,21.4"/>
</g>
</svg>
