<?xml version="1.0" encoding="utf-8"?>
<!-- Generator: Adobe Illustrator 24.1.0, SVG Export Plug-In . SVG Version: 6.00 Build 0)  -->
<svg version="1.1" id="Layer_1" xmlns="http://www.w3.org/2000/svg" xmlns:xlink="http://www.w3.org/1999/xlink" x="0px" y="0px"
	 viewBox="0 0 483.8 150" style="enable-background:new 0 0 483.8 150;" xml:space="preserve">
<style type="text/css">
	.st0{fill:#018C7F;}
	.st1{fill:#90D4F4;}
	.st2{fill:#31BEEF;}
	.st3{fill:#4FC2EF;}
	.st4{fill:#28ABE3;}
	.st5{fill:#4ABBBB;}
	.st6{fill:#00A8A7;}
	.st7{fill:#8ACDCC;}
	.st8{fill:#008F8E;}
	.st9{fill:#15A750;}
	.st10{fill:#006864;}
	.st11{fill:#7EBA3E;}
	.st12{fill:#058171;}
	.st13{fill:#ACCD6B;}
	.st14{fill:#00A14B;}
	.st15{fill:#C1DCA4;}
	.st16{fill:#78BB5D;}
</style>
<path class="st0" d="M157.5,51.3c0-0.4,0.3-0.7,0.7-0.7h26.9c0.4,0,0.7,0.3,0.7,0.7v6.5c0,0.4-0.3,0.7-0.7,0.7h-17.3
	c-0.3,0-0.4,0.1-0.4,0.4v11.6c0,0.3,0.1,0.4,0.4,0.4h14.8c0.4,0,0.7,0.3,0.7,0.7v6.1c0,0.4-0.3,0.7-0.7,0.7h-14.8
	c-0.3,0-0.4,0.2-0.4,0.4V92c0,0.3,0.1,0.4,0.4,0.4h17.9c0.4,0,0.7,0.3,0.7,0.7v6.7c0,0.4-0.3,0.7-0.7,0.7h-27.5
	c-0.4,0-0.7-0.3-0.7-0.7 M230.3,89.3c0,7.9-7.3,12-17.9,12c-12.1,0-17.8-4-17.8-12v-38c0-0.4,0.3-0.7,0.7-0.7h8.3
	c0.4,0,0.7,0.3,0.7,0.7v35.1c0,5.7,3.8,6.6,8.2,6.6c4.4,0,8.1-0.9,8.1-6.7V51.3c0-0.4,0.3-0.7,0.7-0.7h8.2c0.4,0,0.7,0.3,0.7,0.7
	V89.3z M256.7,83.1c-0.6-1.1-0.7-1.3-1.2-1.4H250c-0.4,0-0.6,0.2-0.6,0.5v17.6c0,0.4-0.3,0.7-0.7,0.7h-8.3c-0.4,0-0.7-0.3-0.7-0.7
	V51.3c0-0.4,0.3-0.7,0.7-0.7h15.4c11.2,0,16.8,3.8,16.8,13.8c0,6.6-1.4,10.6-6.5,13.5c-0.5,0.4-0.7,0.7-0.7,1c0,0.7,0.4,1.5,1.2,2.9
	l9.8,18c0.2,0.4,0.2,0.7-0.4,0.7h-9.8c-0.4,0-0.7-0.1-0.9-0.7L256.7,83.1z M262.3,66c0-6.6-1.8-8.3-8.4-8.3h-3.6c-0.8,0-1,0.1-1,0.4
	v16.3c0,0.4,0.1,0.5,0.5,0.6h4C260.3,75.1,262.3,72.6,262.3,66 M314.2,96.7c-3.1,3.7-7.6,4.6-14.7,4.6c-7.1,0-11.4-1-14.6-4.6
	c-3.2-3.8-4.9-11.8-4.9-21.1c0-9.3,1.8-17.3,4.9-21.1c3.2-3.7,7.6-4.6,14.8-4.6c7.1,0,11.4,1,14.5,4.6c3.2,3.8,5,11.8,5,21.1
	C319.2,84.9,317.5,92.9,314.2,96.7 M292.6,91.4c1.2,1.6,3.2,1.8,7,1.8c3.9,0,5.9-0.2,7.1-1.8c1.6-2.3,2.4-8.8,2.4-15.8
	c0-7.1-0.7-13.5-2.4-15.8c-1.2-1.6-3.2-1.8-6.9-1.8c-3.9,0-6,0.2-7.1,1.8c-1.6,2.3-2.4,8.7-2.4,15.8C290.3,82.6,291,89.1,292.6,91.4
	 M351.6,100.6c-0.6,0-0.8-0.3-1-0.9l-13.3-36c-0.4-1-0.6-1.5-1-1.5c-0.4,0-0.5,0.1-0.5,1.4l0,36.3c0,0.4-0.3,0.7-0.7,0.7h-7.1
	c-0.4,0-0.7-0.3-0.7-0.7V51.3c0-0.4,0.3-0.7,0.7-0.7h12.6c0.5,0,0.7,0.4,1,0.9L354,86.2c0.4,1.1,0.5,1.2,0.9,1.2
	c0.4,0,0.5-0.1,0.5-0.7l0-35.4c0-0.4,0.3-0.7,0.7-0.7h7.3c0.4,0,0.7,0.3,0.7,0.7v48.5c0,0.4-0.3,0.7-0.7,0.7H351.6z M373.2,51.3
	c0-0.4,0.3-0.7,0.7-0.7h26.9c0.4,0,0.7,0.3,0.7,0.7v6.5c0,0.4-0.3,0.7-0.7,0.7h-17.3c-0.3,0-0.4,0.1-0.4,0.4v11.6
	c0,0.3,0.1,0.4,0.4,0.4h14.8c0.4,0,0.7,0.3,0.7,0.7v6.1c0,0.4-0.3,0.7-0.7,0.7h-14.8c-0.3,0-0.4,0.2-0.4,0.4V92
	c0,0.3,0.1,0.4,0.4,0.4h17.9c0.4,0,0.7,0.3,0.7,0.7v6.7c0,0.4-0.3,0.7-0.7,0.7H374c-0.4,0-0.7-0.3-0.7-0.7V51.3z M447.1,99.7
	L432,73.9l13-22.4c0.2-0.4-0.1-0.9-0.7-0.9h-8.5c-0.5,0-0.9,0.2-1.2,0.9L426.8,65l-7.9-13.5c-0.3-0.6-0.8-0.9-1.5-0.9h-8.6
	c-0.6,0-0.8,0.4-0.6,0.9L421,73.8l-14.5,25.9c-0.2,0.5,0,0.9,0.5,0.9h8.8c0.6,0,0.9-0.2,1.3-0.9l9.3-16.7l9.9,16.7
	c0.4,0.7,0.8,0.9,1.3,0.9h8.9C447.1,100.6,447.3,100.1,447.1,99.7 M461.7,59c0-0.3-0.1-0.4-0.4-0.4H450c-0.4,0-0.7-0.3-0.7-0.7v-6.6
	c0-0.4,0.3-0.7,0.7-0.7h33.1c0.4,0,0.7,0.3,0.7,0.7v6.6c0,0.4-0.3,0.7-0.7,0.7h-11.2c-0.3,0-0.4,0.1-0.4,0.4v40.8
	c0,0.4-0.3,0.7-0.7,0.7h-8.3c-0.4,0-0.7-0.3-0.7-0.7V59z"/>
<rect y="50.3" class="st1" width="13.7" height="39.2"/>
<rect y="89.5" class="st2" width="13.7" height="31.2"/>
<rect x="13.7" y="21" class="st3" width="13.9" height="43.5"/>
<rect x="13.7" y="64.4" class="st4" width="13.9" height="49.8"/>
<rect x="27.6" y="28.2" class="st5" width="13.8" height="46.9"/>
<rect x="27.6" y="75.1" class="st6" width="13.8" height="54.9"/>
<rect x="41.4" class="st7" width="21" height="50"/>
<rect x="41.4" y="50" class="st8" width="21" height="91.4"/>
<rect x="62.4" y="24.7" class="st9" width="13.8" height="64.6"/>
<rect x="62.4" y="89.3" class="st10" width="13.8" height="60.7"/>
<rect x="76.3" y="12.2" class="st11" width="21" height="57.1"/>
<rect x="76.3" y="69.4" class="st12" width="21" height="61.9"/>
<rect x="97.3" y="50.2" class="st13" width="13.8" height="31"/>
<rect x="97.3" y="81.2" class="st14" width="13.8" height="33"/>
<rect x="111.1" y="41" class="st15" width="13.8" height="28.3"/>
<rect x="111.1" y="69.4" class="st16" width="13.8" height="32.9"/>
</svg>
