<?xml version="1.0" encoding="utf-8"?>
<!-- Generator: Adobe Illustrator 24.1.0, SVG Export Plug-In . SVG Version: 6.00 Build 0)  -->
<svg version="1.1" id="Layer_1" xmlns="http://www.w3.org/2000/svg" xmlns:xlink="http://www.w3.org/1999/xlink" x="0px" y="0px"
	 viewBox="0 0 302.9 150" style="enable-background:new 0 0 302.9 150;" xml:space="preserve">
<style type="text/css">
	.st0{fill:none;stroke:#000000;stroke-width:0.618;}
</style>
<g>
	<g>
		<g>
			<path d="M183.2,101.8L183,88c0-3.6-0.9-4.6-4.8-5.4v-0.6h9.3v0.6c-2.3,0.3-2.8,1.8-3.1,4.2c-0.5,4.2-0.3,13.3-0.1,21.5l-0.4,0.1
				c-5.4-7.1-11.5-13.8-17.2-20.6v7c0,9.4-0.2,11.3,4.7,12.4v0.6h-10.2v-0.6c4.6-0.5,4.4-4,4.4-12.6V89c0-3.8-0.5-5.3-4.9-6.3v-0.6
				h5.6L183.2,101.8z"/>
			<path d="M192,98.1c-0.3,3.9,2.1,7.6,6,7.6c1.8,0,3-0.9,4-2.4l0.5,0.4c-1.3,2.5-3.6,4.4-6.3,4.4c-4.2,0-7.1-3.9-7.1-8.4
				c0-4.9,3.1-9.1,7.7-9.1c3.1,0,5.1,2.2,5.2,5.6h-9.9L192,98.1z M198.8,95.2c-0.3-1.7-1.3-3.7-3.1-3.7c-1.9,0-3.1,2.1-3.5,4
				L198.8,95.2z"/>
			<path d="M211.2,108.2h-0.5l-4.9-13.5c-0.6-1.6-1-2.9-2.8-3v-0.6h7.2v0.6c-2.5,0.1-2.1,1.3-1.5,3.1l3.3,9.3l3.2-8.4
				c-1.1-3-1.1-3.6-3.1-3.9v-0.6h7.3v0.6c-2.6,0.1-2.2,1.2-1.8,2.5l3.3,9.8c1.4-3.4,3.7-9.2,3.7-11c0-1.2-1.1-1.2-1.9-1.4v-0.6h5.7
				v0.6c-1.9,0.2-2.4,1.7-3.2,3.4l-5.3,13.2h-0.5l-4-11.5L211.2,108.2z"/>
			<path d="M258.5,82.1v0.6c-3,0.3-4.4,2.1-5.9,4.8l-4,8.8v4.3c0.1,4.3,0.1,5.9,4.5,6.7v0.6h-12v-0.6c4.4-0.8,4.4-2.3,4.5-6.7v-3
				l-3.5-8.6c-1.3-3.2-2.2-5.9-5.6-6.3v-0.6h9.4v0.6c-2.8,0.4-2.4,1.7-1.3,4.3l3.4,8.2l3-6.2c2.1-4.4,1.8-5.8-1.1-6.2v-0.6H258.5z"
				/>
			<path d="M262.7,108.2c-4.7,0-8.4-3.3-8.4-8.7c0-5.2,3.8-8.8,8.4-8.8c4.6,0,8.3,3.3,8.3,8.7C271.1,104.5,267.2,108.2,262.7,108.2z
				 M262.7,91.5c-3.7,0-5.2,4.2-5.2,7.7c0,3.5,1.8,8.1,5.4,8.1c3.4,0,5-4.3,5-7.6C267.9,96.2,266.4,91.5,262.7,91.5z"/>
			<path d="M278,103.4c0,3.1,0.1,3.4,3.4,3.8v0.6h-8.5v-0.6c2.3-0.4,2.4-0.9,2.5-3.8v-7.2c0-1.6,0-2.1-1.7-3.4v-0.4l4-1.7l0.4,0.2
				l-0.1,4.5h0.1c0.7-2,2.7-4.6,4.8-4.6c1,0,1.7,0.7,1.7,1.7c0,1-1,2-1.8,2.4c-0.6-0.5-1.4-1.3-2.2-1.2c-2.9,0.3-2.7,5.4-2.7,6
				V103.4z"/>
			<path d="M290.1,103.4c0,3.1,0.1,3.4,2.7,3.8v0.6h-7.9v-0.6c2.5-0.4,2.6-0.9,2.7-3.8V86.1c0-1.6,0-2.1-1.7-3.4v-0.4l3.9-1.7
				l0.4,0.2V103.4z M300.5,90.8v0.6c-3.7,0.8-5.3,2.6-8,6l4.6,5.8c1.4,1.6,2.8,3.3,4.6,4.2v0.4c-0.8,0.1-1.5,0.3-2.3,0.3
				c-3.6,0-7.2-6.6-9-9.5c3.4-4.7,4.9-5.6,2.1-6.6v-0.6L300.5,90.8z"/>
		</g>
		<g>
			<path d="M17.6,135.3l6.2-15c0.9-2.1,1.3-4,0.6-4.5l0.1-0.6h7.5v0.6c-2.2,0.5-3.5,1.4-3.4,4l0.7,13.8c0.4,5.3,0.4,6.1,4,6.8v0.6
				H22v-0.6c2.6-0.5,4.3-0.8,4.1-4.1l-0.9-16.5h-0.1l-8.7,21.2h-0.4l-8.1-20.3H8c-0.5,5.8-0.8,10-1.1,15.8c-0.1,1.5,0,3.2,4.1,3.9
				v0.6H1.5v-0.6c3-0.6,3.3-2.2,3.8-5.3l1.3-10.6l0.4-5.1c0.2-2.5-1.7-3.4-3.7-3.6v-0.6h7.3l0,0.4c-0.7,0.9,0.2,3.1,0.4,3.7
				L17.6,135.3z"/>
			<path d="M37.6,131.2c-0.3,3.9,2.1,7.6,6,7.6c1.8,0,3-0.9,4-2.4l0.5,0.4c-1.3,2.5-3.6,4.4-6.3,4.4c-4.2,0-7.1-3.9-7.1-8.4
				c0-4.9,3.1-9.1,7.7-9.1c3.1,0,5.1,2.2,5.2,5.6h-9.9L37.6,131.2z M44.4,128.3c-0.3-1.7-1.3-3.7-3.1-3.7c-1.9,0-3.1,2.1-3.5,4
				L44.4,128.3z"/>
			<path d="M54.6,136.5c0,3.1,0.1,3.4,3.4,3.8v0.6h-8.5v-0.6c2.3-0.4,2.4-0.9,2.5-3.8v-7.2c0-1.6,0-2.1-1.7-3.4v-0.4l4-1.7l0.4,0.2
				l-0.1,4.5h0.1c0.7-2,2.7-4.6,4.8-4.6c1,0,1.7,0.7,1.7,1.7c0,1-1,2-1.8,2.4c-0.6-0.5-1.4-1.3-2.2-1.2c-2.9,0.3-2.7,5.4-2.7,6
				V136.5z"/>
			<path d="M75.3,138.1c-1.5,1.9-3.6,3.1-6,3.1c-4.1,0-7-3.9-7-8.3c0-5.3,4.1-9.2,8.7-9.2c1.1,0,3.7,0.2,3.7,1.9
				c0,0.8-0.8,1.7-1.6,1.7c-1.2,0-2.4-2.5-4.1-2.5c-2.7,0-4,3.5-4,6.1c0,4.9,3,8,6.4,8c1.4,0,2.4-0.6,3.5-1.5L75.3,138.1z"/>
			<path d="M85.1,131.5c0.3-4.1-0.7-5.8-3.4-5.8c-2.3,0-2.1,1.2-2.1,3.3l-1.7,0.1c-0.3,0-0.8,0-0.8-0.4c0-1,3.7-5,6.5-5
				c3.1,0,4.1,2.6,4.1,5.7v5.4c0,3.3-0.2,4.1,3,4.8v0.6c-1.3,0.4-2.4,0.8-3.4,0.8c-1.4,0-2-0.9-2.1-2.4c-1.1,1.4-2.6,2.6-4.3,2.6
				c-2.2,0-3.4-2-3.4-4.3c0-0.6,0.1-1.1,0.2-1.7L85.1,131.5z M80.5,134.8c-0.1,0.5-0.2,1-0.2,1.5c0,1.6,0.8,3,2.4,3
				c0.9,0,1.8-0.7,2.4-1.4v-5.7L80.5,134.8z"/>
			<path d="M93.9,129.2c0-1.6,0-2.1-1.7-3.4v-0.4l4-1.7l0.4,0.2l-0.3,2.8c1.9-1.6,3.8-2.9,6-2.9c4.1,0,4.3,3.7,4.3,6v6.7
				c0,3.1,0.1,3.4,2.7,3.8v0.6h-7.9v-0.6c2.5-0.4,2.6-0.9,2.7-3.8v-4.3c0-2.6,0.1-6.4-4-6.4c-1.4,0-2.3,0.5-3.5,1.6v9.1
				c0,3.1,0.1,3.4,2.7,3.8v0.6h-7.9v-0.6c2.5-0.4,2.6-0.9,2.7-3.8V129.2z"/>
			<path d="M115.3,134.2c0,3.4,0,5.5,3.7,5.5c0.7,0,1.4-0.1,2-0.3l0.1,0.6c-1.7,0.7-3.5,1.2-5.4,1.2c-3.3,0-3.1-1.9-3.1-4.8v-10.3
				h-2.3l-0.2-0.3l4.8-5.3h0.3v3.9h5.4v1.6h-5.4V134.2z"/>
			<path d="M121.3,140.9v-0.6c2.5-0.4,2.6-0.9,2.7-3.8v-7.2c0-1.6,0-2.1-2.1-3.4v-0.4l4.3-1.7l0.4,0.2v12.6c0,3.1,0.1,3.4,2.7,3.8
				v0.6H121.3z M126.9,116.6c0,1.1-0.8,1.9-1.7,1.9c-1,0-1.7-0.9-1.7-1.9c0-1.1,0.8-1.9,1.7-1.9
				C126.1,114.7,126.9,115.6,126.9,116.6z"/>
			<path d="M130,140.9v-0.6c2.5-0.4,2.6-0.9,2.7-3.8v-17.3c0-1.6,0-2.1-1.7-3.4v-0.4l3.9-1.7l0.4,0.2v22.6c0,3.1,0.1,3.4,2.7,3.8
				v0.6H130z"/>
			<path d="M142.4,131.2c-0.3,3.9,2.1,7.6,6,7.6c1.8,0,3-0.9,4-2.4l0.5,0.4c-1.3,2.5-3.6,4.4-6.3,4.4c-4.2,0-7.1-3.9-7.1-8.4
				c0-4.9,3.1-9.1,7.7-9.1c3.1,0,5.1,2.2,5.2,5.6h-9.9L142.4,131.2z M149.2,128.3c-0.3-1.7-1.3-3.7-3.1-3.7c-1.9,0-3.1,2.1-3.5,4
				L149.2,128.3z"/>
			<path d="M164.3,140.3c4.1-0.6,4.1-1.7,4.2-5.6v-13.3c-0.1-3.9-0.1-5-4.2-5.6v-0.6h18.3l-0.4,5.8h-0.5c-0.2-4.9-3.4-4.9-6.8-4.9
				h-3.3v10.8h3.5c2.6,0,4.5-0.2,4.9-3.5h0.5v8.4h-0.5c-0.4-3.3-2.3-3.4-4.9-3.4h-3.5v6.2c0,2.2-0.5,5.3,5.1,5.3
				c4.3,0,6.4-1.8,7.2-6.6h0.5c0,2.9-0.5,5.2-1.2,7.5h-18.9V140.3z"/>
			<path d="M197.3,136.4c1.1,2.1,1.8,3.5,4.1,3.9v0.6h-7.2v-0.6c1.7-0.3,1.4-1.2,0.6-2.6l-1.9-3.7c-0.5,1-2.4,4.2-2.4,5.3
				c0,0.6,0.5,1,1,1.1v0.6h-5.6v-0.6c2.7-0.6,3.1-1.2,4.6-3.6l2.1-3.4l-2.7-5c-1.1-2-1.6-3.5-4.1-3.7v-0.6h7.3v0.6
				c-2.1,0.2-1.4,1.5-0.9,2.3l1.9,3.8c0.5-1.1,2.2-3.8,2.2-4.9c0-0.7-0.5-1.1-1.1-1.2v-0.6h5.7v0.6c-1.2,0.1-1.8,0.2-2.7,1.1
				c-1.1,1.1-2.6,3.7-3.7,5.6L197.3,136.4z"/>
			<path d="M215.8,138.1c-1.5,1.9-3.6,3.1-6,3.1c-4.1,0-7-3.9-7-8.3c0-5.3,4.1-9.2,8.7-9.2c1.1,0,3.7,0.2,3.7,1.9
				c0,0.8-0.8,1.7-1.6,1.7c-1.2,0-2.4-2.5-4.1-2.5c-2.7,0-4,3.5-4,6.1c0,4.9,3,8,6.4,8c1.4,0,2.4-0.6,3.5-1.5L215.8,138.1z"/>
			<path d="M222.2,136.5c0,3.1,0.1,3.4,2.7,3.8v0.6H217v-0.6c2.5-0.4,2.6-0.9,2.7-3.8v-17.3c0-1.6,0-2.1-1.7-3.4v-0.4l3.9-1.7
				l0.4,0.2v12.4c1.8-1.2,3.7-2.5,5.9-2.5c4.1,0,4.3,3.7,4.3,6v6.7c0,3.1,0.1,3.4,2.7,3.8v0.6h-7.9v-0.6c2.5-0.4,2.6-0.9,2.7-3.8
				v-4.3c0-2.6,0.1-6.4-4-6.4c-1.4,0-2.3,0.5-3.5,1.3V136.5z"/>
			<path d="M244.5,131.5c0.3-4.1-0.7-5.8-3.4-5.8c-2.3,0-2.1,1.2-2.1,3.3l-1.7,0.1c-0.3,0-0.8,0-0.8-0.4c0-1,3.7-5,6.5-5
				c3.1,0,4.1,2.6,4.1,5.7v5.4c0,3.3-0.2,4.1,3,4.8v0.6c-1.3,0.4-2.4,0.8-3.4,0.8c-1.4,0-2-0.9-2.1-2.4c-1.1,1.4-2.6,2.6-4.3,2.6
				c-2.2,0-3.4-2-3.4-4.3c0-0.6,0.1-1.1,0.2-1.7L244.5,131.5z M239.9,134.8c-0.1,0.5-0.2,1-0.2,1.5c0,1.6,0.8,3,2.4,3
				c0.9,0,1.8-0.7,2.4-1.4v-5.7L239.9,134.8z"/>
			<path d="M253.3,129.2c0-1.6,0-2.1-1.7-3.4v-0.4l4-1.7l0.4,0.2l-0.3,2.8c1.9-1.6,3.8-2.9,6-2.9c4.1,0,4.3,3.7,4.3,6v6.7
				c0,3.1,0.1,3.4,2.7,3.8v0.6h-7.9v-0.6c2.5-0.4,2.6-0.9,2.7-3.8v-4.3c0-2.6,0.1-6.4-4-6.4c-1.4,0-2.3,0.5-3.5,1.6v9.1
				c0,3.1,0.1,3.4,2.7,3.8v0.6h-7.9v-0.6c2.5-0.4,2.6-0.9,2.7-3.8V129.2z"/>
			<path d="M281.1,138c3.6-0.2,5.6,1.6,5.6,4.1c0,3.7-4.5,7.9-10.6,7.9c-4,0-5.7-2.3-5.7-3.9c0-2.8,2.6-4.2,4.6-5.3
				c-1.3-0.2-3.5-1.1-3.5-2.9c0-1.2,1.8-2.6,2.6-3.3c-1.6-1-2.8-2.7-2.8-4.8c0-3.9,3.2-6,6.4-6c1.7,0,3,0.5,4.5,1.2h4.9v1.6
				l-4.1-0.1c0.5,0.9,0.7,1.8,0.7,2.9c0,3.9-3.1,6-6.3,6c-0.9,0-1.7-0.2-2.6-0.5c-1.1,1.2-1.1,3.4,2,3.2L281.1,138z M276.1,140.9
				c-1.2,0.6-3.2,2.1-3.2,3.8c0,2.8,3.6,3.5,5.5,3.5c2.4,0,6.3-1.2,6.3-4.5c0-3.6-4.4-3-5.3-3L276.1,140.9z M280.7,129.9
				c0-2.5-1-5.3-3.5-5.3c-2.2,0-2.9,2.5-2.9,4.6c0,3.7,2,5.4,3.6,5.4C280,134.6,280.7,132,280.7,129.9z"/>
			<path d="M291.4,131.2c-0.3,3.9,2.1,7.6,6,7.6c1.8,0,3-0.9,4-2.4l0.5,0.4c-1.3,2.5-3.6,4.4-6.3,4.4c-4.2,0-7.1-3.9-7.1-8.4
				c0-4.9,3.1-9.1,7.7-9.1c3.1,0,5.1,2.2,5.2,5.6h-9.9L291.4,131.2z M298.1,128.3c-0.3-1.7-1.3-3.7-3.1-3.7c-1.9,0-3.1,2.1-3.5,4
				L298.1,128.3z"/>
		</g>
		<line class="st0" x1="0" y1="71.1" x2="302.7" y2="71.1"/>
		<polyline points="282.3,0 264.2,0 264.2,4.9 253.2,4.9 273.1,25 293.2,4.9 282.3,4.9 282.3,0 		"/>
		<polyline points="282.3,59.4 264.3,59.4 264.3,54.5 253.3,54.5 273.2,34.4 293.2,54.5 282.3,54.5 282.3,59.4 		"/>
		<polyline points="243.6,20.5 243.6,38.5 248.4,38.5 248.4,49.5 268.6,29.6 248.4,9.6 248.4,20.5 243.6,20.5 		"/>
		<polyline points="302.9,20.8 302.9,38.8 298,38.8 298,49.8 277.9,29.9 298,9.8 298,20.8 302.9,20.8 		"/>
	</g>
</g>
</svg>
