<?xml version="1.0" encoding="utf-8"?>
<!-- Generator: Adobe Illustrator 24.1.0, SVG Export Plug-In . SVG Version: 6.00 Build 0)  -->
<svg version="1.1" id="Layer_1" xmlns="http://www.w3.org/2000/svg" xmlns:xlink="http://www.w3.org/1999/xlink" x="0px" y="0px"
	 viewBox="0 0 900.8 150" style="enable-background:new 0 0 900.8 150;" xml:space="preserve">
<g>
	<path d="M498,77.8V28c-4.6-4.4-11-8.7-18.5-8.7c-13.1,0-17.6,5.4-17.6,33.2c0,27.4,3.9,33.8,16.2,33.8
		C486.6,86.3,492.4,83.2,498,77.8 M439.3,138.2l8.9-17.2c8.9,5.4,18.1,9.1,30.7,9.1c13.5,0,19.1-6.4,19.1-23.6V94.2
		c-6.2,7-14.9,11.6-25.3,11.6c-21.2,0-36.1-11.4-36.1-52.5c0-38,11.6-53.3,34.9-53.3c11.6,0,22.2,5.8,28.6,13.1l2.7-10.4h18.9v107.1
		c0,29-15.4,40.3-39.4,40.3C463.6,150,451.1,145.6,439.3,138.2"/>
	<path d="M668.6,55c0-30.1-5.4-37.1-19.1-37.1c-13.7,0-18.9,7.3-18.9,37.3c0,29.7,5.4,37.3,19.1,37.3
		C663.4,92.5,668.6,84.6,668.6,55 M605.5,55c0-39.6,16.8-55,44-55c27.2,0,44.4,15.8,44.4,55.2s-17,55.2-44.2,55.2
		C622.5,110.4,605.5,94.4,605.5,55"/>
	<path d="M712.3,81.7v-79h23.7v73.4c0,11.2,4.1,14.5,11.8,14.5c7.3,0,13.9-4.1,20.1-9.5V2.7h23.4v105h-18.9l-2.5-11.6
		c-8.3,8.3-16.4,14.3-29.7,14.3C724.3,110.4,712.3,101.2,712.3,81.7"/>
	<path d="M875.5,55c0-29.7-3.9-35.7-16.4-35.7c-8.5,0-14.1,3.9-19.7,9.3V83c4.6,4.4,11,7.9,18.3,7.9C871,90.9,875.5,85.3,875.5,55
		 M815.8,2.7h18.9l2.7,11c7.9-8.5,17.2-13.7,28-13.7c21.2,0,35.5,11.6,35.5,53.7c0,41.7-11.4,56.6-35.5,56.6
		c-11.2,0-20.1-5.2-25.9-10.6v48.7h-23.7V2.7z"/>
	<path d="M546.1,2.7H565l2.9,13.5c6.8-9.3,14.5-15.3,25.5-15.3c1.9,0,4.1,0.2,5.4,0.6v23.8h-0.6c-2.1-1-5.6-1.7-8.5-1.7
		c-8.1,0-13.9,3.1-19.9,8.1v75.9h-23.6V2.7z"/>
	<path d="M130,45h34.4c-0.2-20.3-3.9-27.4-17-27.4C136.9,17.6,131.2,23,130,45 M104.7,55c0-39.8,16.2-55,42.5-55
		c28.2,0,41.5,15.8,41.5,54.1v7.7h-58.9c0.8,24.1,6.6,29.5,21.6,29.5c10.8,0,17.4-4.4,24.1-9.3l11.2,16.2
		c-9.1,7.7-19.9,12.2-35.1,12.2C120.3,110.4,104.7,94.4,104.7,55"/>
	<path d="M228.3,45h34.4c-0.2-20.3-3.9-27.4-17-27.4C235.2,17.6,229.6,23,228.3,45 M203,55c0-39.8,16.2-55,42.5-55
		c28.2,0,41.5,15.8,41.5,54.1v7.7h-58.9c0.8,24.1,6.6,29.5,21.6,29.5c10.8,0,17.4-4.4,24.1-9.3L285,98.1
		c-9.1,7.7-19.9,12.2-35.1,12.2C218.6,110.4,203,94.4,203,55"/>
	<polygon points="293.4,107.7 323.6,52.2 297.9,2.7 323.9,2.7 337.4,32.5 351.1,2.7 376.7,2.7 350.4,51.1 380,107.7 354.1,107.7 
		336.4,70.5 319,107.7 	"/>
	<polygon points="68.5,55.2 37.3,107.7 0,107.7 31.2,55.2 0,2.7 37.3,2.7 	"/>
</g>
</svg>
