<?xml version="1.0" encoding="utf-8"?>
<!-- Generator: Adobe Illustrator 24.1.0, SVG Export Plug-In . SVG Version: 6.00 Build 0)  -->
<svg version="1.1" id="Layer_1" xmlns="http://www.w3.org/2000/svg" xmlns:xlink="http://www.w3.org/1999/xlink" x="0px" y="0px"
	 viewBox="0 0 506.9 150" style="enable-background:new 0 0 506.9 150;" xml:space="preserve">
<g>
	<path d="M148.2,126.3c-3.1-0.8-6.1-1.3-9-1.5l-0.1,1.1c2.7,0.2,5.6,0.7,8.5,1.4v9.6c-4.5-1-8.9-1.6-12.9-1.6c-4.5,0-8.8,0.7-13,2
		c-3.7,1.2-6.7,2.6-9.4,3.9c-3.5,1.7-6.2,2.9-8.8,2.9h0c-0.7,0-1.3-0.1-1.9-0.2v-2.5v-7.1c0.6,0.1,1.3,0.2,1.9,0.2
		c2.9,0,5.8-1.4,9.3-3c3.8-1.8,8.4-4,14.2-5.1l-0.2-1c-1.7,0.3-3.4,0.7-5,1.2c-3.7,1.1-6.7,2.6-9.4,3.9c-3.1,1.5-5.7,2.7-8,2.9V132
		c0-0.8-0.3-2.1-3.4-2.1c-3.1,0-6.5,2-6.5,4.2v2.7c-3.7,1.1-9.9,1.6-13.7,1.6c-2,0-5.2-0.2-8.5-0.7c-2.1-0.2-3.8-0.6-5.2-1v-2.7
		c0-2.2-3.4-4.2-6.5-4.2c-3.1,0-3.3,1.3-3.3,2.1v1.3c-2.4-0.2-4.9-1.4-8-2.9c-3.9-1.9-8.5-4-14.5-5.1l-0.1,1.1
		c5.8,1.1,10.3,3.2,14.1,5c3.5,1.6,6.5,3,9.3,3c0.7,0,1.3-0.1,1.9-0.2v7.1v2.5c-0.6,0.2-1.2,0.2-1.9,0.2c-2.6,0-5.4-1.3-8.8-2.9
		c-5.5-2.6-12.3-5.9-22.5-5.9c-4.1,0-8.4,0.6-12.9,1.6v-9.6c2.8-0.7,5.5-1.1,8.2-1.4l0-1.1c-2.8,0.3-5.8,0.8-8.8,1.5l-0.4,0.1v11.9
		l0.7-0.2c4.7-1.2,9.2-1.7,13.3-1.7c9.9,0,16.6,3.2,22,5.7c3.5,1.6,6.5,3.1,9.3,3.1c0.9,0,1.8-0.2,2.6-0.4l0.4-0.1v-3.3
		c1,0.1,2,0.3,2.9,0.7v5.2l0.3,0.2c3.3,2,12.6,2.6,16.5,2.6c4,0,13.2-0.6,16.5-2.6l0.3-0.2V142c0.9-0.4,1.9-0.7,2.9-0.7v3.3l0.4,0.1
		c0.8,0.3,1.7,0.4,2.6,0.4h0c2.9,0,5.8-1.4,9.3-3.1c5.4-2.6,12.1-5.7,22-5.7c4.2,0,8.7,0.5,13.4,1.7l0.6,0.2v-11.9L148.2,126.3z
		 M96.3,142.5v4c-1.4,0.7-3.8,1.3-7.2,1.8c-3.3,0.4-6.6,0.6-8.5,0.6s-5.2-0.2-8.5-0.6c-3.4-0.5-5.8-1.1-7.2-1.8v-4v-5.2
		c3.8,1.7,12,2.2,15.7,2.2c3.7,0,11.9-0.5,15.7-2.2V142.5z"/>
	<path d="M17.8,134.2l-0.1,0.2l0.4-0.1c0.3,0,0.7-0.1,1-0.1c1.6-0.2,2.8-1.5,2.8-3c0-0.6-0.2-1.2-0.6-1.6c-0.5-0.6-1.2-0.9-2.1-0.9
		c-0.3,0-0.6,0-0.9,0.1c-0.2,0-0.4,0.1-0.5,0.1l-0.1,0l0,0.1c0,0,0,0.1,0,0.1c0.1,0.3,0.2,0.6,0.2,1.2v2.2
		C18,133.5,17.9,133.8,17.8,134.2 M19,130.2c0-0.2,0-0.5,0-0.8c1.6,0.1,1.7,1.3,1.7,1.7c0,1.3-0.9,2-1.7,2.2c0-0.3,0-0.5,0-1V130.2z
		"/>
	<path d="M24.5,129.5v2.5c0,0.8-0.1,1.2-0.2,1.5l-0.1,0.2l0.2,0c0.5,0,0.8,0,1.2,0h0.2l-0.1-0.2c-0.2-0.5-0.2-0.8-0.2-1.4v-2.4
		c0-0.8,0.1-1,0.2-1.3l0.1-0.2h-0.2c-0.5,0-0.8,0-1.2,0l-0.2,0l0.1,0.2C24.4,128.6,24.5,128.9,24.5,129.5"/>
	<path d="M30.9,133.9c0.1,0,0.3,0,0.4,0c0.6,0,1-0.2,1.3-0.3l0.1,0l0.1-1.1l-0.2,0.1c-0.2,0.2-0.6,0.4-1.2,0.4c-0.1,0-0.2,0-0.2,0
		c-1.3-0.1-1.8-1.1-1.8-2c0-1,0.7-1.8,1.7-1.8c0.1,0,0.1,0,0.2,0c0.6,0.1,1,0.3,1.3,0.5l0.2,0.1v-1.2l-0.1,0
		c-0.3-0.1-0.6-0.3-1.2-0.3c-0.1,0-0.2,0-0.3,0c-1.4,0-2.9,1-2.9,2.7c0,0.3,0.1,1,0.6,1.7C29.2,133.4,30,133.8,30.9,133.9"/>
	<path d="M38.8,130.8l0.1,0.1l0.1-0.1c0.1-0.3,0.3-0.5,0.4-0.7l0.1-0.2l-0.2,0c-1.3-0.3-2.7-0.6-4-0.8l-0.1,0l0,0.1
		c-0.1,0.2-0.1,0.3-0.2,0.5l-0.2,0.6l0.2,0c0.5-0.1,0.8-0.1,1.1-0.1c0.2,0,0.3,0,0.5,0.1v3.3c0,0.6-0.1,1-0.1,1.3l0,0.2l0.1,0
		c0.4,0.1,0.8,0.2,1.1,0.2l0.2,0l-0.1-0.2c-0.1-0.4-0.2-0.8-0.2-1.3v-3.3C38.1,130.4,38.3,130.4,38.8,130.8"/>
	<path d="M43,131.3l0.1-0.1l-0.1,0c-0.4-0.1-0.8-0.3-1.1-0.4l-0.3-0.1l0.1,0.3c0.1,0.2,0.2,0.4,0.2,1.2v2.1c0,1.3,0.7,2.4,1.8,2.7
		c0.3,0.1,0.6,0.2,1,0.2c0.3,0,0.5,0,0.6-0.1c0,0.1,0,0.2,0,0.3l0,0.1l0.1,0c0.3,0.1,0.6,0.2,0.9,0.3l0.2,0.1l0-0.3
		c-0.1-0.7-0.1-1-0.1-1.4v-2.8c0-0.7,0.1-0.8,0.1-1l0.1-0.1l-0.3-0.1c-0.3-0.1-0.7-0.3-1-0.4l-0.3-0.1l0.1,0.3
		c0.2,0.4,0.2,1,0.2,1.2v2.1c0,0.4,0,0.4,0,0.5c-0.1,0.2-0.4,0.4-0.7,0.4c-0.1,0-0.2,0-0.4-0.1c-0.3-0.1-0.9-0.4-1.1-1.2
		c-0.1-0.2-0.1-0.4-0.1-0.7v-1.9C42.8,131.8,42.9,131.6,43,131.3"/>
	<path d="M54.8,136.1L55,136l-0.2-0.1c-0.3-0.1-0.7-0.3-1-0.5l-0.1,0l-0.1,0.1c-0.1,0.2-0.2,0.3-0.3,0.4c-0.4,0.3-0.9,0.7-1.3,1.1
		l-0.1,0.1l-0.3-0.5c-0.3-0.6-0.7-1.1-1-1.6c-0.3-0.5-0.4-0.7-0.4-0.9l0-0.1l-0.1,0c-0.4-0.2-0.8-0.3-1.2-0.4l-0.4-0.1l0.2,0.3
		c0.2,0.3,0.3,0.5,0.5,0.7v3.3c0,0.9-0.1,1.1-0.2,1.2l-0.1,0.2l0.1,0.1c0.4,0.2,0.8,0.3,1.2,0.4l0.3,0.1l-0.1-0.2
		c-0.2-0.6-0.2-1-0.2-1.2V136c0.5,0.8,1,1.7,1.5,2.5l0.1,0.1l0.1,0c0.5-0.5,1-0.9,1.5-1.4v2.2c0,0.5-0.1,0.9-0.2,1.1l-0.1,0.1
		l0.1,0.1c0.4,0.2,0.8,0.4,1.2,0.5l0.3,0.1l-0.1-0.3c-0.2-0.6-0.2-1-0.2-1.5v-2.6C54.4,136.4,54.6,136.3,54.8,136.1"/>
	<path d="M72.8,141.1L72.8,141.1l-0.1,0.1c-0.2,0.2-0.2,0.3-0.4,0.5c-0.5,0.5-1,1.1-1.4,1.5c-0.4-0.6-0.9-1.2-1.3-1.9
		c-0.3-0.4-0.4-0.6-0.4-0.8l0-0.1l-0.1,0c-0.4-0.1-0.8-0.1-1.2-0.2l-0.4-0.1l0.2,0.3c0.1,0.1,0.2,0.2,0.2,0.3
		c0.1,0.1,0.2,0.2,0.3,0.4v3.2c0,0.8-0.1,1.1-0.2,1.3l-0.1,0.1l0.2,0c0.4,0.1,0.8,0.2,1.2,0.3l0.3,0.1l-0.1-0.2
		c-0.2-0.5-0.2-1-0.2-1.2v-2.2l0.1,0.1c0.5,0.7,1,1.4,1.5,2.1l0.1,0.1l0.1-0.1c0.5-0.6,1-1.1,1.5-1.7v2.1c0,0.5-0.1,0.9-0.2,1.2
		l-0.1,0.2l0.2,0c0.4,0.1,0.8,0.1,1.3,0.2l0.2,0l-0.1-0.2c-0.2-0.5-0.2-1-0.2-1.4v-2.6c0-0.7,0.2-0.9,0.4-1.1l0.2-0.2l-0.3,0
		C73.5,141.2,73.1,141.1,72.8,141.1"/>
	<path d="M77,146.2v-1.6c0.3,0,0.5,0.1,1,0.3l0.1,0l0.1-0.1c0.2-0.2,0.3-0.5,0.5-0.7l0.1-0.2l-0.2,0c-0.5,0-1-0.1-1.5-0.1v-1.6
		c0.4,0,0.7,0.1,1.3,0.4l0.1,0.1l0.1-0.1c0.1-0.2,0.1-0.3,0.2-0.4c0.1-0.1,0.1-0.2,0.2-0.3l0.1-0.2l-0.2,0c-0.9,0-1.9-0.1-2.8-0.2
		l-0.2,0l0.1,0.2c0.1,0.4,0.2,0.9,0.2,1.3v2.6c0,0.7-0.1,1-0.2,1.3l-0.1,0.2l0.2,0c0.9,0.1,1.8,0.1,2.8,0.2l0.1,0l0-0.1
		c0.1-0.2,0.2-0.4,0.2-0.5l0.3-0.6L79,146C77.9,146.3,77.5,146.3,77,146.2"/>
	<path d="M81,142.9v2.1c0,1.3,0.7,2.1,1.8,2.1c0,0,0.1,0,0.1,0c0.6,0,1.2-0.3,1.5-0.5c0,0.1,0,0.1,0,0.2l0,0.2l0.2,0
		c0.3,0,0.6,0,0.9-0.1l0.2,0l0-0.1c-0.1-0.7-0.1-1-0.1-1.3v-2.8c0-0.7,0.1-0.8,0.1-1.1l0.1-0.2l-0.2,0c-0.4,0-0.7,0.1-1.1,0.1
		l-0.2,0l0.1,0.2c0.2,0.4,0.2,0.9,0.2,1.1v2.1c0,0.3,0,0.4,0,0.5c-0.1,0.4-0.5,0.9-1.1,0.9h0c-0.1,0-0.8,0-1-0.7
		c-0.1-0.2-0.1-0.4-0.1-0.7V143c0-0.7,0-0.9,0.2-1.2l0.1-0.2l-0.2,0c-0.3,0-0.6,0-0.9,0l-0.4,0l0.1,0.2C80.9,142,81,142.2,81,142.9"
		/>
	<path d="M87.8,141.9v3.2c0,0.8-0.1,1.1-0.2,1.4l-0.1,0.2l0.2,0c0.4,0,0.8-0.1,1.3-0.2l0.2,0l-0.1-0.2c-0.2-0.4-0.2-0.9-0.2-1.1V143
		c0.5,0.6,1,1.1,1.5,1.7l0.1,0.1l0.1-0.1c0.5-0.7,0.9-1.4,1.5-2.2v2.1c0,0.5-0.1,0.9-0.2,1.3l-0.1,0.2l0.5-0.1
		c0.3-0.1,0.6-0.1,1-0.2l0.2,0l-0.1-0.2c-0.2-0.4-0.2-0.9-0.2-1.3v-2.6c0-0.7,0.2-1,0.4-1.3l0.2-0.3l-0.3,0.1
		c-0.3,0.1-0.7,0.1-1,0.2l-0.1,0l0,0.1c-0.1,0.3-0.2,0.4-0.3,0.6l0,0c-0.3,0.5-0.7,1-1,1.5l-0.4,0.6c-0.5-0.5-0.9-1-1.3-1.4
		c-0.3-0.3-0.3-0.5-0.4-0.6l0-0.1l-0.1,0c-0.5,0.1-0.8,0.1-1.2,0.1l-0.3,0l0.2,0.2C87.5,141.6,87.7,141.8,87.8,141.9"/>
	<path d="M110.1,136c0-0.7-0.6-1.2-1.4-1.2c-0.3,0-0.5,0.1-0.8,0.2c-0.3,0.1-0.7,0.2-1.1,0.4c-0.2,0.1-0.3,0.2-0.4,0.2l-0.1,0.1
		l0.1,0.2c0.1,0.1,0.2,0.3,0.2,1.2v2.2c0,0.8-0.1,1.3-0.2,1.7l-0.1,0.3l0.2-0.1c0.3-0.1,0.6-0.2,0.9-0.4l0.4-0.2l0-0.1
		c-0.1-0.3-0.2-1-0.2-1.3v-0.5C108.8,138.2,110.1,137.1,110.1,136 M107.5,136.3c0-0.2,0-0.3,0-0.5c0.6-0.3,1-0.4,1.2-0.1
		c0.2,0.1,0.3,0.3,0.3,0.6c0,0.7-1,1.4-1.5,1.5V136.3z"/>
	<path d="M120.6,131.1c0.2-0.1,0.4-0.1,0.6-0.1c0.3,0,0.5,0.1,0.7,0.1l0.2,0l0-0.2c0-0.3-0.1-0.5-0.1-0.8l0-0.1l-0.1,0
		c-0.1,0-0.2,0-0.4,0c-0.3,0-0.5,0-0.8,0.1c-0.9,0.2-1.7,0.8-2.2,1.6c-0.5,0.7-0.7,1.5-0.7,2.3c0.1,1,0.8,2,2.1,2
		c0.3,0,0.6,0,0.9-0.1c0.9-0.3,1.3-0.6,1.6-0.8l0.1,0l0-0.1c0-0.3,0-0.6,0-0.8l0-0.4l-0.2,0.3c-0.3,0.3-0.7,0.7-1.4,0.9
		c-0.2,0.1-0.4,0.1-0.6,0.1c-0.8,0-1.3-0.6-1.4-1.4C118.8,132.4,119.5,131.4,120.6,131.1"/>
	<path d="M124.9,129.3l-0.2,0.5c-0.1,0.2-0.1,0.3-0.2,0.5l-0.1,0.3l0.3-0.2c0.9-0.5,1.2-0.6,1.5-0.6v3.2c0,0.6-0.1,1-0.2,1.3l0,0.2
		l0.2,0c0.4-0.1,0.8-0.1,1.1-0.2l0.2,0l0-0.1c-0.1-0.3-0.1-0.7-0.1-1.2v-3.4c0.2,0,0.3,0,0.4,0c0.2,0,0.4,0,0.8,0.1l0.1,0l0-0.1
		c0.1-0.2,0.1-0.3,0.2-0.5c0.1-0.1,0.1-0.2,0.2-0.4l0.1-0.2l-0.2,0C127.6,128.8,126.3,129,124.9,129.3L124.9,129.3z"/>
	<path d="M131.5,129.7v2.1c0,1.3,0.7,2.1,1.8,2.1h0.1c0.6,0,1.2-0.3,1.5-0.5c0,0.1,0,0.1,0,0.2l0,0.2h1.2l0-0.2
		c-0.1-0.7-0.1-1-0.1-1.3v-2.8c0-0.7,0.1-0.8,0.1-1l0.1-0.2l-0.2,0c-0.4,0-0.8,0-1.1,0l-0.2,0l0.1,0.2c0.2,0.4,0.2,0.9,0.2,1.1v2.1
		c0,0.3,0,0.4,0,0.5c-0.1,0.5-0.6,0.8-1.1,0.8h0c-0.1,0-0.8,0-1.1-0.7c-0.1-0.2-0.1-0.4-0.1-0.7v-1.9c0-0.7,0-0.9,0.2-1.2l0.1-0.2
		l-0.2,0c-0.4,0-0.8,0-1.1,0.1l-0.2,0l0.1,0.2C131.5,128.8,131.5,128.9,131.5,129.7"/>
	<path d="M138.7,128.8c0.1,0.1,0.2,0.2,0.3,0.3v3.2c0,0.8-0.1,1.1-0.2,1.3l-0.1,0.2l0.2,0c0.4,0,0.7,0.1,1.2,0.1l0.2,0l-0.1-0.2
		c-0.2-0.4-0.2-1-0.2-1.1v-2.2c0.5,0.7,1,1.3,1.5,2l0.1,0.1l0.1-0.1c0.5-0.6,1-1.1,1.5-1.7v2.1c0,0.5-0.1,0.9-0.2,1.2l-0.1,0.2
		l0.2,0c0.4,0.1,0.8,0.1,1.2,0.2l0.2,0l-0.1-0.2c-0.2-0.5-0.2-1-0.2-1.4v-2.6c0-0.7,0.2-0.9,0.4-1.1l0.2-0.2l-0.3,0
		c-0.2,0-0.3-0.1-0.5-0.1c-0.2,0-0.4-0.1-0.5-0.1l-0.1,0l0,0.1c-0.2,0.3-0.2,0.3-0.4,0.5l-0.3,0.4c-0.4,0.4-0.7,0.8-1.1,1.3
		c-0.4-0.6-0.9-1.2-1.3-1.8c-0.3-0.4-0.3-0.5-0.4-0.7l0-0.1l-0.1,0c-0.4,0-0.8-0.1-1.2-0.1l-0.3,0l0.2,0.2
		C138.5,128.6,138.6,128.7,138.7,128.8"/>
	<path d="M114.9,136.6C114.9,136.6,114.9,136.6,114.9,136.6c0.2,0.3,0.3,0.5,0.3,0.8l0,0.2l0.2-0.1c0.4-0.2,0.9-0.4,1.2-0.5l0.2-0.1
		l-0.2-0.1c-0.2-0.2-0.5-0.5-0.9-1.1c-0.3-0.4-0.6-0.8-0.8-1.2c-0.4-0.6-0.9-1.2-1.3-1.9l-0.1-0.1l-0.1,0.1l-0.1,0l0,0.1
		c-0.5,1.5-1,3.1-1.5,4.7c-0.3,1.1-0.5,1.2-0.6,1.5l-0.2,0.4l0.4-0.2c0.4-0.2,0.9-0.4,1.2-0.5l0.1,0l0-0.1c-0.1-0.3,0-0.7,0.1-0.9
		L114.9,136.6z M113.2,135.9c0.1-0.4,0.2-0.7,0.3-1c0-0.1,0.1-0.2,0.1-0.4c0.1,0.2,0.2,0.3,0.3,0.5c0.1,0.1,0.2,0.3,0.3,0.4l0.2,0.4
		l-1.4,0.6L113.2,135.9z"/>
	<path d="M66.1,95.9c0.1,0.5,0.2,1.1,0.2,1.5c-0.2,0.2-0.3,0.5-0.3,0.8c0,0.7,0.5,1.2,1.2,1.2c0.7,0,1.2-0.5,1.2-1.2
		c0-0.3-0.1-0.6-0.3-0.8c0.1-0.5,0.2-1.1,0.3-1.5c0.8-0.1,1.6-0.3,2.3-0.6l0-2.3c-0.8,0.5-1.5,0.7-2.2,0.8v-3.7
		c0-1.7-0.2-3.9-1.2-4.4c-1,0.5-1.2,2.8-1.2,4.4v3.7c-0.7-0.1-1.4-0.3-2.2-0.8l0,2.3C64.5,95.6,65.2,95.8,66.1,95.9"/>
	<path d="M67.7,79.1c2.2,0,3.9-0.4,3.9-0.8c0,0,0,0,0,0l-0.1-0.2c-0.4-0.3-1.9-0.6-3.8-0.6V79.1z"/>
	<path d="M67.3,71.2c0.5,0,0.9-0.4,0.9-0.9c0-0.5-0.4-0.9-0.9-0.9c-0.5,0-0.9,0.4-0.9,0.9C66.4,70.8,66.8,71.2,67.3,71.2"/>
	<path d="M66.8,72.3C66.8,72.2,66.8,72.2,66.8,72.3l-3.2,4.9c0.9-0.2,2-0.3,3.2-0.4V72.3z"/>
	<path d="M66.8,79.1v-1.6c-1.9,0-3.4,0.3-3.8,0.6l-0.1,0.2C62.9,78.7,64.6,79.1,66.8,79.1"/>
	<path d="M94.3,72.3v4.5c1.2,0,2.3,0.1,3.2,0.4L94.3,72.3C94.4,72.2,94.3,72.2,94.3,72.3"/>
	<path d="M67.7,72.3v4.5c1.2,0,2.3,0.1,3.2,0.4L67.7,72.3C67.7,72.2,67.7,72.2,67.7,72.3"/>
	<path d="M94.3,79.1c2.2,0,3.9-0.4,3.9-0.8c0,0,0,0,0,0l-0.1-0.2c-0.4-0.3-1.9-0.6-3.8-0.6V79.1z"/>
	<path d="M89.5,78.3c0,0.4,1.7,0.7,4,0.8v-1.6c-1.9,0-3.4,0.3-3.8,0.6L89.5,78.3z"/>
	<path d="M93.9,71.2c0.5,0,0.9-0.4,0.9-0.9c0-0.5-0.4-0.9-0.9-0.9c-0.5,0-0.9,0.4-0.9,0.9C93,70.8,93.4,71.2,93.9,71.2"/>
	<path d="M90.3,77.1c0.9-0.2,2-0.3,3.2-0.4v-4.5c0,0,0,0-0.1,0L90.3,77.1z"/>
	<path d="M105.6,63.3h-9.3l-4.5,0c-2.7,0-4.9,0.7-6.2,1.2c-1.7,0.6-2.7,1.6-5.1,2.7C78.1,68.2,76,68,76,68c-3.7-0.3-5.5-3.2-5.5-3.2
		s-0.8-1.1-0.9-1.6l-0.7,0H55.5v24l1.1,1.1v-4.1h19.8v17H56.7h-0.1c-1,1-0.4,1.5-0.7,2.4c0.4-0.1,0.6-0.2,1.1-0.2
		c1.3-0.8,4.4-2.2,6.2,1.1c-1.1,0.2-2.5,0.3-3.5,1.1c0.3,0.7,0.3,1.8,0.2,2.5h16.6v23.6c-5.3-1.9-9.8-5.3-13.1-9.8
		c-2.1-3-3.8-6.4-4.9-10.2c-0.3,0.3-0.6,0.5-1,0.5c1.2,3.8,2.8,7.2,5,10.2c4.3,6,10.5,9.9,18,11.5l0.1,0l0.1,0
		c7.4-1.5,13.6-5.5,18-11.5c2.2-3,3.8-6.4,5-10.2c-0.3,0-0.7-0.3-1-0.5c-1.1,3.8-2.8,7.2-4.9,10.2c-3.3,4.6-7.8,7.9-13.1,9.8V108
		h16.6c-0.1-0.7-0.1-1.8,0.2-2.5c-1-0.8-2.4-0.9-3.5-1.1c1.8-3.3,4.8-1.9,6.2-1.1c0.5,0,0.7,0.1,1.1,0.2c-0.3-0.8,0.3-1.4-0.7-2.4
		h-0.1H84.7v-17h19.8v4.1l1.1-1.1V63.3z M93.9,82.2c-3,0-5.5-1.4-5.5-3.2c0-0.3,0.1-0.7,0.3-0.9l4-6.2c-0.3-0.3-0.5-0.6-0.7-1
		c-2.7,0-3.9,0.3-5.4,1.5c-1.5-1.1-2.7-1.4-5.1-1.5c0.3,1.1,0.8,2.2,1.4,3c-0.9,1.2-1.5,1.9-2.2,3.6c-0.8-1.7-1.4-2.4-2.2-3.6
		c0.6-0.8,1.1-1.9,1.4-3c-2.5,0-3.7,0.4-5.1,1.5c-1.5-1.1-2.7-1.4-5.4-1.5c-0.1,0.4-0.3,0.8-0.7,1l4,6.2c0.2,0.3,0.3,0.6,0.3,0.9
		c0,1.8-2.5,3.2-5.5,3.2c-3,0-5.5-1.4-5.5-3.2c0-0.3,0.1-0.7,0.3-0.9l4-6.2c-0.4-0.4-0.7-0.9-0.7-1.6c0-1.1,0.9-2,2-2
		c0.9,0,1.6,0.6,1.9,1.4h10.3v0c0-0.6,0.5-1.1,1.1-1.1c0.6,0,1.1,0.5,1.1,1.1v0H92c0.3-0.8,1-1.4,1.9-1.4c1.1,0,2,0.9,2,2
		c0,0.6-0.3,1.2-0.7,1.5l4,6.2c0.2,0.3,0.3,0.6,0.3,0.9C99.4,80.7,96.9,82.2,93.9,82.2"/>
	<path d="M64.7,62.5c-0.6-0.5-1.2-1.1-1.4-1.2c-0.5-0.3-0.3-0.3-1.5-0.4c-1.2-0.1-3.8-0.2-3.8-0.2s-1.3,0-2.9,0.5
		c-1.6,0.5-2.4,1.2-3.1,1.6c-0.6,0.4-1.1,0.7-1.1,0.7s1.4,1.4,2.2,2.8c0,0,0.2-0.8,1.6-1.5v-2.2H64.7z"/>
	<path d="M109.1,62.7c-0.6-0.4-1.5-1-3.1-1.6c-1.6-0.5-2.9-0.5-2.9-0.5s-2.6,0.1-3.8,0.2c-1.2,0.1-1.1,0.1-1.5,0.4
		c-0.2,0.1-0.8,0.7-1.4,1.2h10v2.2c1.3,0.7,1.6,1.5,1.6,1.5c0.9-1.3,2.2-2.8,2.2-2.8S109.7,63.1,109.1,62.7"/>
	<path d="M34,47.2c-0.4,0-0.7-0.3-0.7-0.7c0-0.2,0.1-0.3,0.2-0.4c0.3-0.1,0.6-0.1,1.1,0.1c0.1,0.1,0.1,0.2,0.1,0.4
		C34.7,46.9,34.4,47.2,34,47.2 M53.3,95c-0.8,1.2-2.3,1.6-2.3,1.6s1.9,1.2,3.6-0.5c0,0,0.1-0.1,0.2-0.4c0,0,0.2-0.8-0.3-1.1
		C54.4,94.5,53.8,94.2,53.3,95 M46.2,91.2c0,0,0.1-1.1,1-1.9c0,0,0.4-0.5,0.4-1.1c0-0.6-0.5-1.5-1.4-0.8c-0.9,0.7-0.3,3.3-0.2,3.4
		C46.1,90.9,46.2,91.2,46.2,91.2 M54.7,98.5c0,0,1.9,0.5,2.9-1.4c0,0,0.4-0.8-0.4-1.2c0,0-0.3-0.2-0.8,0.1c-0.3,0.1-0.4,0.2-0.5,0.4
		c-0.1,0.2-0.2,1.3-1,2L54.7,98.5z M58,99.9c0,0-2.2-1.8-4.2,0.5c0,0-0.4,0.4-0.1,0.8c0.3,0.3,0.6,0.7,1.4,0.9c0,0,0.3,0.1,0.3-0.1
		c0.1-0.1,0.6-1.4,2.4-2L58,99.9z M62.3,104.1c0,0-1.8-2.2-4.4-0.5c0,0-0.5,0.3-0.4,0.7c0.1,0.5,0.5,0.9,0.9,1.2c0,0,0.2,0.1,0.4,0
		c0.2-0.2,1.4-1.5,3.3-1.4L62.3,104.1z M62.3,111.1c0,0-1.1-2.4-3.2-2.2c0,0-0.4,0-0.5,0.5c-0.2,0.4-0.2,0.9-0.2,1.4
		c0,0,0,0.2,0.3,0.1c0.2-0.1,1.5-0.4,3.4,0.3L62.3,111.1z M34.8,123.8c0,0,0-1.7-2-3.2c0,0-0.6-0.5-1,0.4c-0.4,0.9-0.1,1.1,0.2,1.2
		c0.3,0.1,2,0.5,2.7,1.4L34.8,123.8z M33.8,126.3c0,0,0-3.2-2.4-3.9c-0.9-0.3-0.7,2.1-0.1,2.3c0.4,0.1,1.5,0.4,2.3,1.4L33.8,126.3z
		 M29.9,128.4c0,0,0-3.1-1.4-3.9c-1.5-0.8-2,0.3-1.9,0.8c0.1,0.3,0.3,1,1.2,1.4c0.8,0.4,1.6,1,2,1.5L29.9,128.4z M29.9,66.2
		l-0.7-0.8c-1.6-2.5-1.8-4.9-1.8-4.9S27,61.9,26,62.5c0,0-1.1-1.9-0.7-4.7c0,0,0.2-1.7,0.6-2.5c0,0-0.9,0.2-1.6-0.3
		c0,0,0.4-2.9,1.3-4.4c0.9-1.4,2.2-2.1,2.2-2.1s-2.8,0.2-4.7-2.2c0,0-0.9-1.2-0.8-2c0,0,0.6,0.5,2.4,0.5c0,0-2-0.6-3-2.3
		c-1-1.7-0.6-3.8-0.5-4.2c0,0,3.4,4.2,8.7,4.8c0,0-1.4-0.6-2.2-1.3c0,0,0.1-3.6,2.1-4.3c0,0-0.4,1.1,0.4,2.4c0,0,0.6,1.2,2.2,2.9
		c0,0,0.4,0.4,0.5,0.7c0,0,1.4,0,2.2-0.2c0.8-0.2,1.8-0.6,2.6-0.4c0,0,1,0.2,1.4,1.2c0,0,2.9-1.2,4.2,1c1,1.6,0.2,3.3,0.2,3.3
		s-0.2-1.1-1.8-1.4c0,0-1-0.2-1.8,0.7c0,0-1,1.4-2,1.8c0,0-0.3,0.1-0.8,0.2c-0.4,0.1-1.1,0.4-1.5,0.7c0,0-0.8,0.6-1.1,1.2
		c0,0-0.2,0.3-0.2,0.3c0,0,0.7-0.2,2.1,0c1.4,0.2,1.6,0.4,2.1,0.5c0.6,0.1,1.2,0.2,1.7,0c0,0,0.7-0.2,1.4-0.8c0,0,0.3,2.3-1.6,3.2
		c0,0-1,0.5-2.9,0c0,0-0.9-0.3-1-0.3c0,0-1.6,0.7-2.6,0.7c-0.9,0-1.8-0.2-2.6-1.2c0,0-0.6-0.9-0.4-1.8c0,0,0.1-0.5,0.1-0.6
		c0,0-1,1-0.4,2.8c0,0,0.6,1.9,3.1,1.7c0,0,0.6,0,1.5-0.2c0,0,2.8,0.9,5.1,2.3c-0.1,0.1-0.3,0.1-0.4,0.2c-0.6,0.3-1.2,0.7-1.7,1
		l-0.2,0.2l-1-1.7c-0.7,0.5-1.4,1-2.2,1.5l0.8,1.2c0.4-0.3,0.7-0.5,1.1-0.8l0.3,0.4c-0.4,0.3-0.8,0.6-1.3,0.9l0,0
		c-0.5,0.4-1,0.8-1.6,1.2l-0.2,0.2l-1.2-1.6c-0.7,0.6-1.3,1.1-2,1.7l0.9,1.1c0.3-0.3,0.6-0.5,0.8-0.8l0.4,0.4
		c-0.3,0.2-0.5,0.5-0.8,0.8h0l-0.2,0.2v0c-0.5,0.4-0.9,0.9-1.4,1.4L29.9,66.2z M32.2,46.8c2,2.8,3.9-0.3,3.9-0.3l0,0
		c0,0-0.6,0.1-1,0c-1.3-0.7-2.1-0.3-2.3-0.1C32.7,46.5,32.2,46.8,32.2,46.8 M41.7,60l-0.2-0.5c-0.4,0.2-0.9,0.4-1.3,0.6l-0.5-0.8
		l-0.5,0.3l0.5,0.8c-0.7,0.4-1.4,0.8-2,1.2l-0.5-0.7l-0.4,0.3l0.5,0.7c-0.6,0.4-1.2,0.9-1.8,1.3l-0.5-0.7l-0.4,0.3l0.5,0.7
		c-0.6,0.5-1.2,1-1.8,1.5l-0.7-0.7l-0.4,0.4l0.7,0.7c-0.5,0.5-1,1-1.5,1.5l-0.5-0.5l-0.4,0.4l0.5,0.5c-0.2,0.2-0.4,0.4-0.6,0.6
		l0.4,0.4c0.5-0.5,1-1,1.5-1.5l0.5,0.6l0.4-0.4l-0.5-0.6c0.5-0.5,1.1-1,1.6-1.5l0.5,0.6l0.4-0.3l-0.5-0.7c1.4-1.2,2.8-2.2,4.2-3.1
		l0.4,0.7l0.5-0.3l-0.4-0.7C40.1,60.8,40.9,60.4,41.7,60 M44,61.2l-0.3,0.1c-5.2,2.2-9.6,6.3-12.3,9.3l-0.2,0.2l-4.6-4.4l0.1-0.2
		c0.4-0.6,0.9-1.2,1.6-1.9l0.2-0.2l1.3,1.4c0.3-0.4,0.7-0.7,1-1l-1.3-1.5l0.2-0.2c0.8-0.7,1.6-1.5,2.4-2.1l0.2-0.2l1.2,1.6
		c0.4-0.3,0.8-0.6,1.2-0.9l-1.1-1.6l0.2-0.2c0.9-0.7,1.8-1.3,2.6-1.8l0.2-0.1l1.1,1.7c0.4-0.3,0.9-0.5,1.3-0.8l-0.9-1.8l0.2-0.1
		c0.9-0.5,1.7-0.9,2.4-1.1l0.2-0.1L44,61.2z M43.3,60.9l-2.5-5.1c-0.6,0.2-1.2,0.5-1.8,0.9l0.6,1.3c0.3-0.2,0.6-0.3,0.9-0.5l0.2,0.5
		c-0.4,0.2-0.7,0.4-1.1,0.6c-0.6,0.3-1.2,0.7-1.7,1l-0.2,0.2l-1-1.7c-0.7,0.5-1.4,1-2.2,1.5l0.8,1.2c0.4-0.3,0.7-0.5,1.1-0.8
		l0.3,0.4c-0.4,0.3-0.8,0.6-1.3,0.9l0,0c-0.5,0.4-1,0.8-1.6,1.2l-0.2,0.2l-1.2-1.6c-0.7,0.6-1.3,1.1-2,1.7l0.9,1.1
		c0.3-0.3,0.6-0.5,0.8-0.8l0.4,0.4c-0.3,0.2-0.5,0.5-0.8,0.8h0l-0.2,0.2v0c-0.5,0.4-0.9,0.9-1.4,1.4l-0.2,0.2l-1.3-1.4
		c-0.5,0.6-0.9,1.1-1.2,1.5l1,1c0.1-0.2,0.3-0.4,0.5-0.6l0.4,0.3c-0.2,0.3-0.4,0.5-0.5,0.7l2.4,2.3C34,67,38.2,63.1,43.3,60.9
		 M38.4,51.1c2-0.7,3.5-0.2,4.8,0.1c1.2,0.3,2,0.2,2,0.2c2.8-0.7,1.5-3.6,1.5-3.6s-0.3,2.4-4,1.6c-3.6-0.8-4.5,1.9-4.5,1.9
		L38.4,51.1z"/>
	<path d="M56.9,104c-0.8-0.3-1.9,0.4-1.9,0.4c1-1.4,0.4-2,0.4-2c-2.2,0.3-2.3-1.4-2.3-1.4c-0.9-0.1-1.3,0.6-1.4,1.2
		c-0.1,0.6-0.1,2.2,0.4,3.3c0.5,1.1,0,2.5,0,2.5c-3.6-1.8-6.7-1.6-6.7-1.6l0.5-1.9c-1.4-2.1-1.2-2.8-1.2-2.8c2,2.9,4.3,2.7,4.3,2.7
		l0.2,0h0c-1.9-0.8-2.1-5.8-4.1-7.9c-0.5-0.5-0.9-0.8-1.3-1l-0.2-0.1c-1.4-0.8-3.4-1.1-3.4-1.1c-5.4-1.1-5.7-4.1-5.7-4.1l0,0
		c2-2.9,6.6-6,6.6-6c-0.4-0.4-1-2-1-2c-1.9,0.1-2.8-0.5-2.8-0.5c-2.6-1.6-1.7-3.8-1.7-3.8c0,0.2,0.5,2.3,2.3,3
		c1.8,0.7,2.9-0.1,2.9-0.1s-0.2,0.2,0.3,1.5c0.5,1.3,2.5,3.7,2.5,3.7c1.8-1.8,1.2-4.8,1.2-4.8c0.7,0.6,5,4.3,5,4.3
		c-0.3,0-2.2,0.2-2.2,0.2c-1.6,0.3-1.1,1.3-1.1,1.3c0.4-0.2,1-0.2,1.3,0.4c0.3,0.6,0,1.5,0,1.5c0.4,0.6,0.8,0.4,1.6-0.2
		c0.7-0.6,1.9-0.4,2.3-0.3c0.3,0.1,0.3,0.4,0.4,0.6c0.1,0.2,0.5,0.6,0.5,0.6c0.3,0.4,0.2,0.6,0.2,0.6c-0.3,0.7-0.3,1.3-0.3,1.3
		s-0.4,0.4-0.5,0.9c-0.1,0.5,0.2,0.9,0.7,1.5c0.5,0.6,1.1,0.2,1.1,0.2c0.1-0.1,0.7-0.5,1.1,0c0.5,0.6,0.1,1.6,0.1,1.6
		c0.4,0.3,1-0.1,1.1-0.2c0.1-0.1,0.7-0.5,1.2-0.4c0.6,0.1,0.6,1.1,0.6,1.1c0.8-0.4,1.1-1,1.1-1c0.7-1.3-0.3-3.2-0.6-3.6
		c-0.3-0.4-0.5-0.6-0.7-1c-0.1-0.4-0.4-1.3-0.7-2.1c-0.4-1.1-2.2-2.8-2.6-3.3c-0.4-0.4-2.8-2.2-4.1-4.8c-1.3-2.7-3.9-5.3-3.9-5.3
		c3.3-0.3,4.7,1.7,4.7,1.7c1.6-4.4-0.8-7.5-0.8-7.5c2.3,0.7,2.7,3.7,2.7,3.7s1.3-2.2,0.4-4.5c-0.8-2.3-4.6-3.2-4.6-3.2
		c1.5-0.3,2.7,0.1,2.7,0.1c-1.7-2.6-4.9-3.8-5.5-4c-0.6-0.2-1.9-0.5-2.2-0.6c-0.1,0-0.4-0.2-0.6-0.3l0.1,0.3
		c-4.8,2.1-8.9,5.7-11.6,8.6c-0.1,0.6-0.4,1.3-0.4,1.3c-1.6,3.8-4.7,2.5-5.8,2.1c-1.1-0.5-4.1-3.3-2.7-6c1.4-2.7,1-4.3,0.7-5.6
		c-0.3-1.2-2.9-5.3-2.9-5.3c-6.3-10-5.9-17.6-5.9-17.6c-1.3,0.8-1.8,2-1.8,2c-1,2.3-0.8,5.9-0.8,5.9c-0.2-0.2-1.6-2.3-2.7-5
		c-1.1-2.7-1-4.9-1-4.9c-1.2,1.2-1.8,3.3-1.8,3.3c-1.8,5.7,1,11.8,1,11.8c-3.8-3.1-4.1-6.3-4.1-6.3c-3.1,5.6,3.3,12.6,3.3,12.6
		c-3.9-0.4-5-1.9-5-1.9C1.5,62.5,9,64,9,64c-3.7,0.6-7-0.3-7-0.3C2.4,65.1,3.7,67,3.7,67c3.2,4.3,7.7,4.8,7.7,4.8
		c-3,1.7-6.3,2.1-6.3,2.1c0.1,0.4,1.3,2.5,3.7,3.2c2.5,0.7,5.5-0.2,5.5-0.2c-0.6,0.4-1.3,1-2.2,1.9c-0.9,0.9-1.2,1.4-1.2,1.4
		c0.4,0.5,1.3,0.9,1.3,0.9c2.1,1.1,4.4,0.4,4.4,0.4c-0.8,3.1,0.2,4.7,0.2,4.7c2.5,0.5,4.4-0.7,4.4-0.7c0,2.2,0.8,3.1,0.8,3.1
		c2.6-0.3,4.4-2.5,4.4-2.5c0.3,1.5,1.2,3,1.2,3c3.1-1,3.3-4.5,3.3-4.5c0.9,4.4-3.4,5.7-3.4,5.7c-1.3-0.9-1.6-2.4-1.6-2.4
		s-0.5,0.5-1.5,1c-1,0.5-2.2,0.6-2.2,0.6c-0.4,0.7-1.2,2.3-1.2,2.3c-0.9,1.9-2.2,7-2.2,7c-0.9,3.4-2.7,6.2-2.7,6.2
		c-1.7,2.5-3.4,2.2-3.4,2.2c-2.1-0.4-2.8-2.6-2.8-5c-0.1-2.5,1.2-5.4,1.2-5.4c1.5-3.3,1.8-5.3,1.8-5.3c0.8-3.3-1.3-5.8-1.3-5.8
		c-2-2.4-5.1-2.3-5.1-2.3c-1,0-1.9,0.2-2.6,0.6c-0.8,0.4-1.3,1-1.5,1.3c-0.2,0.3-0.7,0.9-0.9,1.1C1.3,86.4,1,86.5,1,86.5
		c-0.5,0.2-1,0-1,0c0.2,0.5,0.6,0.9,0.6,0.9c0.6,0.6,1.8,0.9,1.8,0.9s-0.3,0.5-0.5,1c-0.2,0.6-0.2,1.1,0,1.5
		c0.1,0.4,0.6,0.9,0.6,0.9C3.1,92.2,2.8,93,2.8,93c-0.4,1.2-1.3,1.3-1.3,1.3C2,95,2.9,95.2,2.9,95.2c0,0.6,0.1,1.3,0.1,1.3
		c0.3,2.6,1.7,3.1,1.7,3.1c-0.1-0.4-0.1-1.2,0.2-1.9c0.2-0.7,0.8-2.4,0.8-2.4c0.6-1.9,0.5-3.8,0.5-3.8l0.3,0.5
		c0.6,1,0.5,1.7,0.5,1.7c1.3-0.6,1.5-2.3,1.5-2.3c0.4-3.3-1.5-4-1.5-4c0-0.6,1-1.6,2.2-0.7c1.5,1.1,1.4,2.4,1.3,3.7
		c-0.1,1.5-2.3,6.9-2.3,6.9c-1.5,4.2-1.1,6.6-1.1,6.6c0.2,1.9,1.8,5.4,4.2,6.2c2.5,0.8,4.8,0.1,6.6-1.6c1.8-1.6,3.2-5.4,3.3-5.7
		c0.1-0.3,0.3-0.8,0.3-0.8c-0.3,1.2,0.2,3.9,0.3,5c0.1,1.1-0.7,2.5-1.5,3c-0.8,0.5-1.8,0.3-1.8,0.3c0.3,0.5,0.3,1.1,0.3,1.1
		c0.3,1.7-0.6,3-1,3.4c-0.1,0.1-0.4,0.4-0.4,0.4c-0.2,0.2-0.9,0.8-1.2,2.3c-0.3,1.6,0.7,2.9,0.7,2.9c-0.1-1.8,0.9-3.3,0.9-3.3
		c0.3,1-0.1,0.9-0.1,3.2c0,2.3,1.2,3.4,1.2,3.4c-0.1-2.9,1.3-3.1,1.3-3.1c-0.1,0.5-0.4,2.3,0.3,4.2c0.7,1.8,2.1,2.2,2.1,2.2
		c0-0.3,0-3.1,0.1-2.8c0.1,0.3,0.6,1.4,0.6,1.4c0.2,0.3,1.4,2.1,2.4,2c0.8-0.1,1-0.5,1.1-0.7l0-0.1c-0.4-0.7-0.4-1.1-0.4-1.1
		c-0.2-2,1.4-2.1,2.6-1.2c1.3,1.1,1.7,0.4,1.7,0.4c-1.4-2.5,0.4-2.7,0.4-2.7c0-2.2,1.1-1.8,1.1-1.8c-0.1-0.5-0.6-1-1.6-1.1
		c-0.9,0-2.9,1.2-3.2,1.4c-0.3,0.2-0.9-0.5-0.9-0.5c-1.4-1.9-1.2-4.4-1.2-4.4c1.4-1.7,2.1-3.7,2.1-3.7c-1.2-1.7-0.9-3.5-0.9-3.5
		c1.7,4.3,3.7,3.9,3.7,3.9c-0.8-4.1,0.9-7.3,1.6-8.5c0.4-0.8-0.2-2.4-0.6-3.5c0,0-0.9-2-1-2.8c-0.2-0.8-0.3-2,0.8-3.5l0,0.1
		c-0.1,0.5-0.1,1,0.1,1.9c0.1,0.9,0.6,2.2,1,2.9c0.4,0.7,0.7,1.1,0.7,1.1c3.9,1.8,7.1,2.1,7.1,2.1c0.4,1.5,0,4.7-0.2,5.6
		c-0.1,0.8-0.2,1.9-0.2,1.9c-0.1,0.6,0,2.3,1,2.4c1,0.1,1.8,0.8,2.2,2.1c0.5,1.3,1.5,1.7,1.5,1.7c-0.3-0.7,0-1.4,0-1.4
		c1,2.8,5.8,2.6,5.8,2.6c-0.9-0.8-1.2-1.9-1.2-1.9c2.7,2.5,5.5,0.4,5.5,0.4c-1.1-0.6-1.4-1.8-1.4-1.8c3.6,2.1,4.8-1.2,4.8-1.2
		c-1-0.2-1.1-1-1.1-1c1.3,0.4,1.6-0.2,1.6-0.2c-0.6-1.5,0.3-2.2,0.3-2.2c1.8-1.6,0.8-2.9,0.8-2.9C56.9,106.3,56.9,104,56.9,104
		 M29.5,79c-0.2,0.1-0.3,0.1-0.5,0.1c-0.8,0-1.4-0.7-1.6-0.9c-0.2,0.1-0.8,0.4-1.4,0.4c-0.2,0-0.4,0-0.6-0.1
		c-0.8-0.3-1.3-1.2-1.4-1.5c-0.1,0.1-0.4,0.2-0.8,0.2c-0.3,0-0.6-0.1-0.9-0.2c-0.9-0.5-1.1-1.6-1-2.1c0,0-0.1,0-0.1,0
		c-0.3,0-0.9-0.1-1.4-0.7c-0.6-0.8-0.4-1.6-0.2-2c-0.3,0-1-0.2-1.3-1.2c-0.4-1,0.1-1.7,0.3-1.9c-0.3-0.2-1.1-0.7-1.2-1.6
		c0-1,0.4-1.8,0.9-2.2c-0.5-0.4-3.1-2.8-3.3-6.4c0,0,0-0.2,0-0.3v0l0.1-0.5l0.1,0.4c0,0,1,4.4,4.1,6.5l0.1,0.1l-0.1,0.1
		c0,0-1,0.5-1,2c0,1.4,1,1.5,1.1,1.5l0.1,0l-0.1,0.1c0,0-0.6,1-0.2,2c0.2,0.7,0.7,0.8,0.9,0.8c0.1,0,0.2,0,0.2,0l0.1,0l-0.1,0.1
		c0,0-0.4,0.9,0.2,1.9c0.3,0.6,0.7,0.7,1,0.7c0.2,0,0.3,0,0.3-0.1l0.1,0l0,0.1c0,0,0,0.9,0.7,1.6c0.4,0.4,0.9,0.5,1.2,0.5
		c0.3,0,0.5-0.1,0.6-0.1l0.1,0l0,0.1c0,0,0.3,1,1.1,1.2c0.8,0.2,1.4,0,1.8-0.4l0.1-0.1l0.1,0.1c0,0,0.5,0.9,1.3,0.9
		c0.8,0,1.3,0,2-1.1l0.1-0.1L31,77C31,77,31.4,78.3,29.5,79"/>
	<path d="M126.5,46.5c0-0.1,0-0.3,0.1-0.4c0.4-0.1,0.8-0.1,1.1-0.1c0.1,0.1,0.2,0.3,0.2,0.4c0,0.4-0.3,0.7-0.7,0.7
		C126.8,47.2,126.5,46.9,126.5,46.5 M106.7,94.5c-0.4,0.3-0.3,1.1-0.3,1.1c0.1,0.3,0.2,0.4,0.2,0.4c1.7,1.8,3.6,0.5,3.6,0.5
		s-1.5-0.4-2.3-1.6C107.3,94.1,106.7,94.5,106.7,94.5 M115.1,90.8c0-0.1,0.7-2.7-0.2-3.4c-0.9-0.7-1.4,0.2-1.4,0.8
		c0,0.6,0.4,1.1,0.4,1.1c1,0.8,1,1.9,1,1.9S115.1,90.9,115.1,90.8 M106.3,98.4c-0.7-0.7-0.9-1.8-1-2c-0.1-0.3-0.3-0.3-0.6-0.4
		c-0.5-0.2-0.8-0.1-0.8-0.1c-0.8,0.4-0.4,1.2-0.4,1.2c1,1.9,2.9,1.4,2.9,1.4L106.3,98.4z M103.3,99.9c1.8,0.6,2.4,1.8,2.4,2
		c0.1,0.1,0.3,0.1,0.3,0.1c0.8-0.2,1.1-0.5,1.4-0.9c0.3-0.4-0.1-0.8-0.1-0.8c-2-2.3-4.2-0.5-4.2-0.5L103.3,99.9z M99,104.1
		c1.9-0.1,3.1,1.2,3.3,1.4c0.2,0.2,0.4,0,0.4,0c0.5-0.3,0.8-0.7,0.9-1.2c0.1-0.5-0.4-0.8-0.4-0.8c-2.6-1.7-4.4,0.5-4.4,0.5L99,104.1
		z M99,111c1.9-0.6,3.2-0.3,3.4-0.3c0.2,0.1,0.3-0.1,0.3-0.1c0-0.5,0-0.9-0.2-1.4c-0.2-0.4-0.5-0.5-0.5-0.5
		c-2.1-0.2-3.2,2.2-3.2,2.2L99,111z M126.5,123.6c0.7-0.8,2.4-1.3,2.7-1.4c0.3-0.1,0.5-0.2,0.2-1.2c-0.4-0.9-1-0.4-1-0.4
		c-2.1,1.5-2,3.2-2,3.2L126.5,123.6z M127.5,126.1c0.8-1.1,2-1.3,2.3-1.4c0.6-0.2,0.8-2.5-0.1-2.3c-2.4,0.8-2.4,3.9-2.4,3.9
		L127.5,126.1z M131.3,128.2c0.4-0.5,1.2-1.1,2-1.5c0.8-0.4,1.1-1.1,1.2-1.4c0.1-0.5-0.4-1.6-1.9-0.8c-1.5,0.8-1.4,3.9-1.4,3.9
		L131.3,128.2z M131,66c-0.5-0.5-0.9-0.9-1.4-1.4v0l-0.2-0.2c-0.3-0.3-0.6-0.5-0.8-0.8l0.4-0.4c0.3,0.2,0.5,0.5,0.8,0.8l0.9-1.1
		c-0.7-0.6-1.3-1.2-2-1.7l-1.2,1.6l-0.2-0.2c-0.5-0.4-1-0.8-1.6-1.2v0c-0.4-0.3-0.9-0.7-1.3-0.9l0.3-0.4c0.3,0.2,0.7,0.5,1.1,0.8
		l0.8-1.2c-0.7-0.5-1.5-1-2.2-1.5l-1.1,1.7l-0.2-0.1c-0.6-0.4-1.1-0.7-1.7-1c-0.1-0.1-0.3-0.1-0.4-0.2c2.3-1.4,5.1-2.3,5.1-2.3
		c0.9,0.2,1.5,0.2,1.5,0.2c2.6,0.1,3.1-1.7,3.1-1.7c0.6-1.9-0.4-2.8-0.4-2.8c0.1,0.1,0.1,0.6,0.1,0.6c0.2,0.9-0.4,1.8-0.4,1.8
		c-0.8,1.1-1.7,1.2-2.6,1.2c-0.9,0-2.6-0.7-2.6-0.7c-0.2,0.1-1,0.3-1,0.3c-2,0.5-2.9,0-2.9,0c-1.9-0.8-1.6-3.2-1.6-3.2
		c0.7,0.6,1.4,0.8,1.4,0.8c0.5,0.2,1.1,0,1.7,0c0.6-0.1,0.8-0.2,2.1-0.5c1.4-0.2,2.1,0,2.1,0c0-0.1-0.2-0.3-0.2-0.3
		c-0.4-0.6-1.1-1.2-1.1-1.2c-0.4-0.3-1.1-0.6-1.5-0.7c-0.4-0.1-0.8-0.2-0.8-0.2c-1-0.4-2-1.8-2-1.8c-0.7-0.9-1.8-0.7-1.8-0.7
		c-1.6,0.2-1.8,1.4-1.8,1.4s-0.7-1.7,0.2-3.3c1.3-2.2,4.2-1,4.2-1c0.4-1,1.4-1.2,1.4-1.2c0.8-0.2,1.8,0.2,2.6,0.4
		c0.8,0.2,2.2,0.2,2.2,0.2c0.1-0.3,0.5-0.7,0.5-0.7c1.5-1.7,2.2-2.9,2.2-2.9c0.8-1.3,0.4-2.4,0.4-2.4c2,0.7,2.1,4.3,2.1,4.3
		c-0.8,0.7-2.2,1.3-2.2,1.3c5.3-0.7,8.7-4.8,8.7-4.8c0.2,0.4,0.5,2.5-0.5,4.2c-1,1.7-3,2.3-3,2.3c1.7,0,2.4-0.5,2.4-0.5
		c0,0.8-0.8,2-0.8,2c-1.9,2.4-4.7,2.2-4.7,2.2s1.3,0.7,2.2,2.1c0.9,1.5,1.3,4.4,1.3,4.4c-0.6,0.5-1.6,0.3-1.6,0.3
		c0.4,0.8,0.6,2.5,0.6,2.5c0.4,2.8-0.7,4.8-0.7,4.8c-0.9-0.7-1.4-1.9-1.4-1.9s-0.2,2.4-1.8,4.9l-0.7,0.8L131,66z M128.2,46.3
		c-0.2-0.1-1-0.6-2.3,0.1c-0.3,0.2-1,0-1,0l0,0c0,0,1.9,3,3.9,0.3C128.9,46.8,128.4,46.5,128.2,46.3 M121.9,61.3l-0.4,0.7l0.5,0.3
		l0.4-0.7c1.4,0.9,2.8,1.9,4.2,3.1l-0.5,0.7l0.4,0.3L127,65c0.5,0.5,1.1,1,1.6,1.5l-0.6,0.6l0.4,0.4l0.5-0.6c0.5,0.5,1,1,1.5,1.5
		l0.4-0.4c-0.2-0.2-0.4-0.4-0.6-0.6l0.5-0.5l-0.4-0.4l-0.5,0.5c-0.5-0.5-1-1-1.5-1.5l0.7-0.7l-0.4-0.4l-0.7,0.7
		c-0.6-0.5-1.2-1.1-1.8-1.5l0.5-0.7l-0.4-0.3l-0.5,0.7c-0.6-0.5-1.2-0.9-1.8-1.3l0.5-0.7l-0.4-0.3l-0.5,0.7c-0.7-0.4-1.4-0.9-2-1.2
		l0.5-0.8l-0.5-0.3l-0.5,0.8c-0.4-0.2-0.9-0.4-1.3-0.6l-0.2,0.5C120.2,60.4,121.1,60.8,121.9,61.3 M120.1,55.1l0.2,0.1
		c0.7,0.3,1.5,0.6,2.4,1.1l0.2,0.1l-0.9,1.8c0.4,0.3,0.9,0.5,1.3,0.8l1-1.7l0.2,0.1c0.8,0.6,1.7,1.2,2.6,1.8l0.2,0.2l-1.1,1.6
		c0.4,0.3,0.8,0.6,1.2,0.9l1.2-1.6l0.2,0.2c0.8,0.7,1.6,1.4,2.4,2.1l0.2,0.2l-1.3,1.5c0.3,0.3,0.7,0.7,1,1l1.3-1.4l0.2,0.2
		c0.7,0.7,1.2,1.4,1.6,2l0.1,0.2l-4.6,4.4l-0.2-0.2c-2.7-3-7.1-7.1-12.3-9.3l-0.3-0.1L120.1,55.1z M129.9,70l2.4-2.3
		c-0.1-0.2-0.3-0.4-0.5-0.7l0.4-0.3c0.2,0.2,0.4,0.5,0.5,0.6l1-1c-0.3-0.4-0.7-0.9-1.2-1.5l-1.3,1.4L131,66
		c-0.5-0.5-0.9-0.9-1.4-1.4v0l-0.2-0.2c-0.3-0.3-0.6-0.5-0.8-0.8l0.4-0.4c0.3,0.2,0.5,0.5,0.8,0.8l0.9-1.1c-0.7-0.6-1.3-1.2-2-1.7
		l-1.2,1.6l-0.2-0.2c-0.5-0.4-1-0.8-1.6-1.2v0c-0.4-0.3-0.9-0.7-1.3-0.9l0.3-0.4c0.3,0.2,0.7,0.5,1.1,0.8l0.8-1.2
		c-0.7-0.5-1.5-1-2.2-1.5l-1.1,1.7l-0.2-0.1c-0.6-0.4-1.1-0.7-1.7-1c-0.4-0.2-0.7-0.4-1.1-0.6l0.2-0.5c0.3,0.1,0.6,0.3,0.9,0.5
		l0.6-1.3c-0.7-0.4-1.3-0.7-1.8-0.9l-2.5,5.1C122.9,63.1,127.2,67,129.9,70 M123.1,51.3c0,0-0.9-2.7-4.5-1.9c-3.6,0.8-4-1.6-4-1.6
		s-1.3,3,1.5,3.6c0,0,0.7,0.1,2-0.2c1.2-0.3,2.8-0.8,4.8-0.1L123.1,51.3z"/>
	<path d="M102.1,106.1c0,0-1,1.2,0.8,2.9c0,0,0.9,0.7,0.3,2.2c0,0,0.3,0.6,1.6,0.2c0,0-0.2,0.8-1.1,1c0,0,1.1,3.3,4.8,1.2
		c0,0-0.3,1.2-1.4,1.8c0,0,2.8,2.2,5.5-0.4c0,0-0.4,1.1-1.2,1.9c0,0,4.8,0.2,5.8-2.6c0,0,0.3,0.7,0,1.4c0,0,1.1-0.5,1.5-1.7
		c0.5-1.3,1.2-1.9,2.2-2.1c1-0.1,1-1.8,1-2.4c0,0-0.1-1.1-0.3-1.9c-0.1-0.8-0.6-4.1-0.2-5.6c0,0,3.2-0.3,7.1-2.1
		c0,0,0.3-0.4,0.7-1.1c0.4-0.7,0.9-1.9,1-2.9c0.1-0.9,0.1-1.5,0.1-1.9l0-0.1c1.2,1.5,1,2.7,0.8,3.5c-0.2,0.8-1,2.8-1,2.8
		c-0.4,1.1-1,2.8-0.6,3.5c0.7,1.2,2.4,4.4,1.6,8.5c0,0,2,0.5,3.7-3.9c0,0,0.3,1.9-0.9,3.5c0,0,0.7,2,2.1,3.7c0,0,0.3,2.5-1.2,4.4
		c0,0-0.5,0.6-0.9,0.5c-0.3-0.2-2.3-1.4-3.2-1.4c-1,0-1.5,0.5-1.6,1.1c0,0,1.1-0.3,1.1,1.8c0,0,1.9,0.1,0.4,2.7c0,0,0.4,0.7,1.7-0.4
		c1.2-1,2.8-0.8,2.6,1.2c0,0,0,0.5-0.4,1.1l0,0.1c0.1,0.2,0.3,0.6,1.1,0.7c1.1,0.2,2.3-1.7,2.4-2c0,0,0.6-1,0.6-1.4
		c0.1-0.4,0.1,2.5,0.1,2.8c0,0,1.4-0.4,2.1-2.2c0.7-1.8,0.4-3.7,0.3-4.2c0,0,1.4,0.2,1.3,3.1c0,0,1.2-1.1,1.2-3.4
		c0-2.3-0.4-2.2-0.1-3.2c0,0,1,1.5,0.9,3.3c0,0,1-1.3,0.7-2.9c-0.3-1.5-1-2.1-1.2-2.3c0,0-0.3-0.3-0.4-0.4c-0.4-0.4-1.2-1.8-1-3.4
		c0,0,0.1-0.6,0.3-1.1c0,0-1,0.2-1.8-0.3c-0.8-0.5-1.7-1.9-1.5-3c0.1-1,0.6-3.7,0.3-5c0,0,0.2,0.4,0.3,0.8c0.1,0.3,1.5,4.1,3.3,5.7
		c1.8,1.6,4.1,2.4,6.6,1.6c2.5-0.8,4-4.3,4.3-6.2c0,0,0.4-2.3-1.1-6.6c0,0-2.1-5.4-2.3-6.9c-0.1-1.3-0.1-2.5,1.3-3.7
		c1.1-0.9,2.2,0.1,2.2,0.7c0,0-2,0.7-1.5,4c0,0,0.2,1.8,1.5,2.3c0,0-0.1-0.7,0.5-1.7l0.3-0.5c0,0-0.1,1.9,0.5,3.8
		c0,0,0.6,1.7,0.8,2.4c0.2,0.7,0.3,1.5,0.2,1.9c0,0,1.4-0.5,1.7-3.1c0,0,0.1-0.7,0.1-1.3c0,0,0.9-0.1,1.5-0.8c0,0-0.9-0.2-1.3-1.3
		c0,0-0.3-0.8,0.3-1.3c0,0,0.5-0.5,0.6-0.9c0.1-0.4,0.2-1,0-1.5c-0.2-0.6-0.5-1-0.5-1s1.1-0.3,1.8-0.9c0,0,0.4-0.4,0.6-0.9
		c0,0-0.5,0.2-1,0c0,0-0.3-0.1-0.6-0.4c-0.3-0.2-0.7-0.8-0.9-1.1c-0.2-0.3-0.7-0.9-1.5-1.3c-0.8-0.4-1.7-0.6-2.6-0.6
		c0,0-3.1-0.1-5.1,2.3c0,0-2.1,2.5-1.3,5.8c0,0,0.4,2,1.8,5.3c0,0,1.2,2.9,1.2,5.4c-0.1,2.5-0.7,4.7-2.9,5.1c0,0-1.7,0.3-3.4-2.2
		c0,0-1.7-2.8-2.7-6.2c0,0-1.3-5.1-2.2-7c0,0-0.7-1.6-1.1-2.3c0,0-1.2-0.1-2.2-0.6c-1-0.5-1.5-1-1.5-1s-0.3,1.5-1.6,2.4
		c0,0-4.3-1.2-3.4-5.7c0,0,0.2,3.5,3.3,4.5c0,0,0.9-1.4,1.2-3c0,0,1.7,2.3,4.4,2.5c0,0,0.8-1,0.8-3.2c0,0,1.9,1.2,4.4,0.8
		c0,0,0.9-1.6,0.2-4.7c0,0,2.3,0.7,4.4-0.4c0,0,0.8-0.4,1.3-0.9c0,0-0.3-0.5-1.3-1.4c-0.9-1-1.6-1.6-2.2-1.9c0,0,3,0.9,5.5,0.2
		c2.5-0.7,3.6-2.8,3.7-3.2c0,0-3.3-0.3-6.3-2.1c0,0,4.5-0.4,7.7-4.8c0,0,1.3-1.9,1.8-3.3c0,0-3.3,0.9-7,0.3c0,0,7.5-1.5,7.2-8.2
		c0,0-1.1,1.4-5,1.9c0,0,6.3-7,3.3-12.6c0,0-0.2,3.3-4.1,6.3c0,0,2.8-6.1,1-11.8c0,0-0.6-2.1-1.8-3.3c0,0,0.1,2.2-1,4.9
		c-1.1,2.7-2.5,4.8-2.7,5c0,0,0.3-3.6-0.7-5.9c0,0-0.5-1.3-1.8-2c0,0,0.4,7.6-5.9,17.6c0,0-2.6,4.1-2.9,5.3
		c-0.3,1.2-0.7,2.8,0.7,5.6c1.4,2.7-1.6,5.6-2.7,6c-1.1,0.4-4.3,1.8-5.8-2.1c0,0-0.3-0.7-0.4-1.3c-2.7-2.9-6.8-6.5-11.6-8.6l0.1-0.3
		c-0.3,0.2-0.5,0.3-0.6,0.3c-0.3,0.1-1.6,0.4-2.2,0.6c-0.6,0.2-3.8,1.4-5.5,4c0,0,1.2-0.4,2.7-0.1c0,0-3.7,1-4.6,3.2
		c-0.8,2.3,0.4,4.5,0.4,4.5s0.4-3.1,2.7-3.7c0,0-2.5,3.1-0.8,7.5c0,0,1.4-2,4.7-1.7c0,0-2.6,2.6-3.9,5.3c-1.3,2.7-3.7,4.4-4.1,4.8
		c-0.4,0.5-2.2,2.2-2.6,3.3c-0.3,0.8-0.5,1.7-0.7,2.1c-0.1,0.4-0.4,0.6-0.7,1c-0.3,0.4-1.3,2.3-0.6,3.6c0,0,0.3,0.7,1.1,1
		c0,0,0.1-1,0.6-1.1c0.6-0.1,1.1,0.3,1.2,0.4c0.1,0.1,0.7,0.5,1.1,0.2c0,0-0.5-1,0.1-1.6c0.4-0.5,1-0.1,1.1,0c0,0,0.6,0.4,1.1-0.2
		c0.5-0.6,0.7-1,0.7-1.5c-0.1-0.5-0.5-0.9-0.5-0.9s0-0.6-0.2-1.3c0,0-0.1-0.2,0.2-0.6c0,0,0.4-0.4,0.5-0.6c0.1-0.2,0.1-0.5,0.4-0.6
		c0.3-0.1,1.5-0.3,2.3,0.3c0.7,0.6,1.1,0.8,1.6,0.2c0,0-0.3-0.9,0-1.5c0.3-0.6,0.9-0.6,1.3-0.4c0,0,0.5-1-1.1-1.3
		c0,0-1.9-0.2-2.2-0.2c0,0,4.3-3.7,5-4.3c0,0-0.6,3,1.2,4.8c0,0,2-2.4,2.5-3.7c0.5-1.3,0.3-1.5,0.3-1.5s1.1,0.8,2.9,0.1
		c1.8-0.7,2.3-2.7,2.3-2.9c0,0,0.9,2.2-1.7,3.8c0,0-0.9,0.6-2.8,0.5c0,0-0.6,1.6-1,2c0,0,4.6,3.1,6.6,6l0,0c0,0-0.3,3-5.7,4.1
		c0,0-2,0.3-3.4,1.1l-0.2,0.1c-0.4,0.3-0.9,0.5-1.3,1c-2,2.2-2.3,7.2-4.1,7.9h0l0.2,0c0,0,2.2,0.2,4.3-2.7c0,0,0.2,0.8-1.2,2.8
		l0.5,1.9c0,0-3.1-0.3-6.6,1.6c0,0-0.5-1.4-0.1-2.5c0.5-1.1,0.5-2.7,0.4-3.3c-0.1-0.6-0.4-1.3-1.4-1.2c0,0,0,1.7-2.3,1.4
		c0,0-0.6,0.6,0.4,2c0,0-1.1-0.8-1.9-0.4C104.2,104,104.2,106.3,102.1,106.1 M130.1,77l0.1-0.2l0.1,0.1c0.6,1.1,1.1,1.1,2,1.1
		c0.8,0,1.3-0.9,1.3-0.9l0.1-0.1l0.1,0.1c0.4,0.4,1,0.6,1.8,0.4c0.8-0.2,1.1-1.2,1.1-1.2l0-0.1l0.1,0c0.1,0,0.3,0.1,0.6,0.1
		c0.3,0,0.7-0.1,1.2-0.5c0.7-0.7,0.7-1.6,0.7-1.6l0-0.1l0.1,0c0,0,0.1,0.1,0.3,0.1c0.3,0,0.7-0.1,1-0.7c0.6-1,0.2-1.9,0.2-1.9
		l-0.1-0.1l0.2,0c0,0,0.1,0,0.2,0c0.2,0,0.6-0.1,0.9-0.8c0.4-1-0.2-2-0.2-2l-0.1-0.1l0.1,0c0,0,1-0.1,1.1-1.5c0-1.4-1-1.9-1-2
		l-0.1-0.1l0.1-0.1c3.1-2.2,4.1-6.5,4.1-6.5l0.1-0.4l0.1,0.5v0c0,0.1,0,0.3,0,0.3c-0.2,3.6-2.8,6-3.3,6.4c0.4,0.4,0.9,1.2,0.9,2.2
		c0,0.9-0.9,1.5-1.2,1.6c0.2,0.2,0.7,0.9,0.3,1.9c-0.3,1-1.1,1.1-1.3,1.2c0.1,0.3,0.3,1.2-0.2,2c-0.5,0.6-1.1,0.7-1.4,0.7
		c-0.1,0-0.1,0-0.1,0c0.1,0.5-0.1,1.6-1,2.1c-0.3,0.2-0.6,0.2-0.9,0.2c-0.4,0-0.7-0.1-0.8-0.2c-0.1,0.3-0.6,1.2-1.4,1.5
		c-0.2,0.1-0.4,0.1-0.6,0.1c-0.6,0-1.2-0.3-1.4-0.4c-0.2,0.2-0.8,0.9-1.6,0.9c-0.2,0-0.3,0-0.5-0.1C129.7,78.3,130.1,77,130.1,77"/>
	<path d="M74.7,8c3.4-1.6,9.1-1.3,11.9,0l1.6-1.7l1.6-5c-1.3-0.5-2.7-0.8-4.1-1l-0.5,2.3c-0.7-0.1-1.4-0.2-2.1-0.2V0.1
		C81.4,0,79.8,0,78.3,0.1v2.3c-0.8,0.1-1.5,0.1-2.2,0.2l-0.5-2.3c-1.5,0.2-2.9,0.5-4,0.9l1.6,5.1L74.7,8z"/>
	<path d="M136.1,24.4c-1.2,2.1-4,3.4-6.9,3c1.3-3.6,0.4-10.8-3.2-11.1c0.2,2.7-3.4,6.6-8.3,6.9c-2.2-2.3-5.5-3.3-7.2-3.3
		c-2.3,0-6.5,3.2-5.9,9.3c-0.8-2.5-5.4-3.2-6.8-2.2c2.9,1.9,3.5,17.3-2.4,17.3c-1.5,0-3-0.4-5-2.6v0v0c1.1,0.1,2.2-0.2,2.5-2
		c0.1-0.8-0.1-1.4-0.4-1.9c0.2-0.1,0.4-0.1,0.5-0.2l0,0l1.2-0.8c0.5-0.3,0.9-1,1.1-1.7c0.6-0.7,0.6-2,0.4-3c0.4-2.5-1.1-4.3-2.7-4.3
		c-0.2,0-0.4,0-0.6,0.1c-0.6-0.1-1.3-0.1-2-0.4c-0.1-0.3-0.2-0.6-0.3-0.9c0.3,0,0.5,0,0.7,0c1.7,0,5-1.4,5-4.6c0-1-0.3-1.8-0.9-2.4
		c0.5-0.8-0.1-2.4-1.1-3.1c-1-0.8-2.3-1.4-3.9-0.8c-0.1-0.3-0.3-0.7-0.5-1c-0.7-0.8-1.7-1-2.7-0.5l-0.2,0.1l-0.7-5.5l0-0.1
		c-2.4-1-7.2-1.3-10.3,0l0.1,0.1l-0.5,3.8c-0.3,0.2-0.5,0.5-0.5,0.5C74.5,12.2,75,12,75,12c-1.4-1-2.4,0.1-2.4,0.1
		c-1.1-0.7-0.8-1.6-0.8-1.6c-1.2,0.2-1.4,1-1.4,1c-2.1-1.5-2.7,1-2.7,1s0.2,0.1,0.6,0.3c-0.4-0.1-0.8-0.1-1.3,0.2
		c0,0,0.8,0.7,0.7,1.6l-0.1-0.1c-0.3-0.2-0.8-0.5-0.8-0.5s-1.3-0.7-1.3,0.4c0,1.1,0.3,2.4,0.3,2.4c-0.2,0.2-0.4,0.3-1.1,0.6
		c-0.3-0.1-0.6-0.2-0.9-0.2c-0.3,0-0.8,0-1.1,0.2c-0.3,0.1-0.6,0.4-1,0.7c0.3,0.1,0.4,0.2,0.4,0.3c-0.7,0.1-1.1,0.4-1.3,0.7
		c-0.7,0.8-0.9,2.2-0.6,3.1c0.2-0.3,0.5-0.6,0.8-0.7c0,0.6,0.2,1.2,0.5,1.7c0.3,0.5,0.8,0.7,1.3,0.8c0.2,1.2,0.7,3.1,1.3,3.8
		c0.5,0.6,0.8,0.9,1.5,1.2c0.6,0.3,0.6,0.3,1,0.7l0.2,0.2c0.3,0.3,0.6,0.5,1.1,0.5c0.5,0,0.7-0.3,0.9-0.5c0.3,0.4,0.7,0.7,1.1,1
		c0,0.3,0,0.5,0,0.7c0,0,0,0.1,0,0.1c-0.2,0.2-0.4,0.5-0.7,0.8c-0.3,0.4-0.7,0.9-1.1,1.2c-0.2-0.1-0.4-0.1-0.6-0.1
		c-0.5,0-1.3,0.1-1.9,1c-1,0.2-1.7,1-1.8,2c0,0.7,0.2,1.4,0.5,1.8c0.1,0.1,0.2,0.2,0.4,0.3c0.4,0.5,1,0.9,1.6,0.9c0,0,0,0.1,0,0.1
		c0.5,1.7,2,2.2,3.4,2.1c-0.7,2.4,0.7,4.1,2.1,4.6c0.5-1.8,2.7-4.2,4.6-4.5c-1,1.1-2.3,2.8-2.4,4.6c6.4-0.3,11.3-2.4,14.5-5.1
		c0.3,0.3,0.6,0.6,0.8,0.9c2.4,3,4.4,3.3,6.1,3.3l0.4,0c1.4,0,2.7-0.2,3.8-0.7l0.4-0.2l-0.2,0.4c-1.3,2-1.5,8.5,1.4,11.6l0.2,0.2
		h-0.3c-3.5,0-9.8-4.5-10.2-9.2c-0.7,0.8-1.6,4.3-1.6,6.4l0,0.4l-0.2-0.3c-3.1-3.9-2.1-8.6-0.9-10.9c-6.6,4.6-21.6,8.5-20.1,0
		c-1.2,0.9-2.4,2.8-2.4,4.6c0,4.2,6.3,5.7,18.7,0.8c-2.3,1.8-5.8,3.8-9.6,4.5c1.1,2.2,1.4,6.6,0.9,9c-0.3-1.3-1.1-6.9-3.5-8.8
		c-1.9,0-3.8-0.4-5.6-1.3l0,0c0,0,0,0,0,0c0,0,0,0,0,0c0,0,0,0,0,0c-1.4,2.7-4.9,4.6-7.6,4.6c2.9-3,2.8-9.6,1.4-11.7
		c1.2,0.5,2.5,0.7,3.8,0.7l0.4,0c0.2,0,0.4,0,0.7,0c0.2-0.6,0.4-1.1,0.8-1.6c-0.7,0.1-1.3,0.1-1.8,0.1c-6.1,0-5.8-14.1-1.5-14.8
		c-0.9-2.3-5.6-3.9-6.5,2.6C56.7,26,54.2,20,49.4,20c-1.8,0-5,1-7.2,3.3c-4.9-0.3-8.5-4.2-8.3-6.9c-3.6,0.3-4.5,7.5-3.2,11.1
		c-2.8,0.3-5.6-0.9-6.9-3c-2.1,4.9,2.7,11.7,7.7,11.7c9.5,0,7.6-9,12.6-9c2.2,0,6.5,3.4,8.1,9.1c-6-3.9-12.8,1.1-13.3,4.5
		c10.1-3.3,17.6,3.4,19,4.7c2.7,2.6,1.4,11.2-3.3,12.3c5.1,2.6,10.1,0.1,12.9-3.4c0.7,0.7,1.7,1.1,2.8,1.3c0.9,0.8,1.6,2,1.6,4.2
		c-1.3,0.4-2.4,1.7-1.6,3.3c0.8,1.8,3.9,3.4,5.4,3.4c3.9,0,5.1-1.3,8.3-3c3.6-1.9,7.7-2,10-1.6c-0.1,0-0.1-0.1-0.1-0.1
		c0,0,0,0-0.1-0.1c-3.2-2.9-3-8.4-2.8-9.4c0.9,2.9,6.9,9.1,14.1,5.4c-4.7-1-5.7-9.5-3.5-12.5c1.3-1.7,4.4-4.3,8.1-3.9
		c1.3,0.1,2.6,1.6,2,3.4c1.6-0.6,4.9-2.9,4.9-6.1c0-3.2-4.3-6.6-7.9-5c1.7-5.7,5.5-5.7,7.7-5.7c4.3,0,2.3,8.3,11.8,8.3
		C133.4,36.1,138.2,29.4,136.1,24.4 M88.9,33.7l-0.3-2c0.4,0,0.8,0,1.2,0c0.4,0,0.8,0,1.3-0.1c0.1,0.4,0.2,0.8,0.5,1.2
		c0.1,0.4,0.2,0.5,0.1,1c0,0.1,0,0.2,0,0.2c-0.1-0.1-0.2-0.2-0.4-0.3c-0.3-0.3-0.6-0.7-1.3-0.7C89.6,33.1,89.2,33.4,88.9,33.7
		 M89.3,16.9c2.5-1.8,5.4,0.9,5.2,2.3c-0.7-0.6-1.7-0.8-2.2-0.8c0,0-0.1,0-0.1,0c0,0,0,0,0,0c0,0-0.1,0-0.1,0c0,0,0,0,0,0
		c0,0,0,0-0.1,0c0,0,0,0-0.1,0c0,0,0,0-0.1,0c0,0,0,0-0.1,0c0,0,0,0-0.1,0c0,0,0,0-0.1,0c0,0,0,0,0,0c-0.4,0.1-0.7,0.4-1.3,0.5
		c-0.2,0-0.5,0-0.8,0c-0.1,0-0.1,0-0.2,0h0c-0.1,0-0.1,0-0.2,0c0,0,0,0,0,0c-0.1,0-0.1,0-0.2,0c0,0,0,0,0,0c-0.1,0-0.1,0-0.2-0.1
		c0,0,0,0-0.1,0c-0.1,0-0.1,0-0.2-0.1c0,0-0.1,0-0.1,0c-0.1,0-0.1,0-0.1-0.1c0,0-0.1,0-0.1-0.1c0,0-0.1,0-0.1-0.1
		c-0.1,0-0.2-0.1-0.2-0.1c0,0,0,0,0,0c0,0,0,0,0,0c0,0,0,0,0,0c0,0,0,0,0,0c0,0,0,0,0,0c0,0,0,0,0,0.1c0,0,0,0,0,0
		c0.1,0.2,0.2,0.4,0.4,0.6c0.2,0.2,0.5,0.4,0.9,0.4c-0.7,0.7-1.6,0.6-2.2,0.5c-0.2-0.1-0.4-0.2-0.6-0.2c0,0,0,0,0,0
		c-0.1-0.1-0.3-0.2-0.4-0.2c0,0,0,0-0.1-0.1c-0.1-0.1-0.2-0.1-0.2-0.2c-0.2-0.2-0.4-0.4-0.8-0.6c0,0,0,0,0,0c0,0,0,0,0,0h0
		c0,0-0.1,0-0.1,0c0,0,0,0,0,0c0,0,0,0,0,0c0,0-0.1,0-0.1,0c0,0,0,0,0,0c0,0,0,0,0,0h0c0,0,0,0-0.1,0c0,0,0,0,0,0c0,0,0,0,0,0
		c0,0-0.1,0-0.1,0c0,0-0.1,0-0.1,0c0,0-0.1,0-0.1,0c0,0,0,0,0,0c0,0,0,0-0.1,0c0,0-0.1,0-0.1,0h0c0,0,0,0-0.1,0c0,0-0.1,0-0.1,0
		c0,0,0,0-0.1,0h0c0,0-0.1,0-0.1,0c0,0,0,0-0.1,0c0,0-0.1,0-0.1,0c0,0-0.1,0-0.1,0c0,0,0,0,0,0c0,0,0,0,0,0c0,0-0.1,0-0.1,0h-0.1
		c-0.1,0-0.2,0-0.2,0h0c-1.2,0-2.1,0.4-2.1,1.3c0,0.8,0.9,1.2,2.2,1.2h0h0c0.2,0,0.4,0,0.7-0.1c0.1,0,0.2,0,0.2-0.1
		c0.2-0.1,0.4-0.1,0.5-0.2c0.1,0,0.2-0.1,0.3-0.1c0.2-0.1,0.4-0.2,0.7-0.2c0.1,0,0.1,0,0.2-0.1c0.3,0.2,0.7,0.5,1.3,0.6
		c0.1,0,0.3,0.1,0.4,0.1c0,0,0,0-0.1,0v0c-0.1,0-0.2,0.1-0.3,0.1c-0.1,0-0.1,0-0.2,0.1c-0.1,0.1-0.2,0.1-0.3,0.2
		c-0.1,0-0.1,0.1-0.2,0.1c-0.2,0.1-0.3,0.2-0.5,0.3c0,0-0.1,0-0.1,0.1c-0.1,0.1-0.3,0.1-0.4,0.2c-0.1,0-0.1,0.1-0.2,0.1
		c-0.1,0.1-0.3,0.1-0.4,0.2c-0.1,0-0.1,0-0.2,0c-0.2,0.1-0.3,0.1-0.5,0.2c0,0,0,0,0,0c-0.5,0.1-1,0.2-1.6,0.2c-1.7,0-3.4-1-3.4-2.8
		c0-0.4,0.1-0.8,0.3-1.1c0-0.1,0.1-0.1,0.1-0.2c0.1-0.1,0.1-0.2,0.2-0.3c0,0,0.1-0.1,0.1-0.1c0.7-0.7,1.8-1.2,3.4-1.2c0,0,0,0,0.1,0
		c0,0,0.1,0,0.1,0v0c1.4,0,2.2,0.6,3.3,0.6c2,0,1.1-2.1,0.6-2.3C88.7,14.2,89.7,16.3,89.3,16.9 M90.6,21.6c0.2-0.2,0.4-0.3,0.7-0.3
		c0.8,0,1.1,0.7,1.1,1c0,0.7-0.9,1.5-3,1.5c-0.3,0-0.5,0-0.8-0.1c-0.3,0-0.6-0.1-1-0.1l-0.1-1c0.4,0.6,1.2,1.3,3,0.8
		C90.2,22.4,90.4,21.8,90.6,21.6 M79.2,11.5c0-0.8,0.5-1.9,1.4-1.9c0.9,0,1.4,1.2,1.4,1.9v1.8h-2.9V11.5z M66.1,14.5
		c0.2-0.2,1,0.2,1.7,0.7c0.2-0.3,0.2-0.6,0.2-0.6c0.1-0.8-0.3-1.2-0.3-1.2s0.6-0.1,1.3,0.4c0.2,0.1,0.5,0.5,0.5,0.5s0.1-0.3-0.1-1
		c-0.2-0.6-0.8-1-1-1c0,0,0.5-1.2,1.7-0.2c0.3,0.2,0.8,1.2,0.8,1.2s-0.2-1,0.2-1.5c0.2-0.3,0.3-0.4,0.3-0.4s0,0.5,0.4,1
		c0.4,0.5,1,0.7,1,0.7s0.2-0.8,0.9-0.9c0.4,0,0.6,0.2,0.6,0.2s-0.4,0.6,0.2,1.8c0,0,0.8-1.3,1.6-1.2c0,0-0.4,0.2-0.4,1.3l0,0.6
		l0,0.2c0.6-0.1,1.2-0.1,1.5,0.2c0,0.2-0.2,1.1-0.4,1.3l-2.4,2.1c0,0,0.5,0.9-0.2,1.6c-0.3,0.2-1.2,0.6-2-0.5
		c-0.1-0.1-0.1-0.2-0.2-0.2c0.1,0,0.4,0,0.5-0.3c0.2-0.3,0.6-0.4,0.6-0.4l-0.5-0.3c0,0-0.4,0.5-0.8,0.5h-0.3h0h-0.4
		c-0.4,0-0.8-0.5-0.8-0.5l-0.5,0.3c0,0,0.6,0.1,0.8,0.4c0.1,0.3,0.5,0.3,0.5,0.3L71,19.7c0,0-0.1,0.1-0.1,0.2
		c-0.8,1.1-1.8,0.6-2,0.5c-0.8-0.7-0.3-1.7-0.3-1.7l-1.5-1.3C65.8,16.2,66,14.6,66.1,14.5 M71.5,22.6c1.2,0,1.2-1.8,1.3-1.9l0.1,0.1
		c0.1,0,0.4,0.1,0.5,0c-0.7,0.6-0.3,1.2-1.1,1.8c0,0,0,0,0,0c-0.3,0.2-0.6,0.3-0.9,0.3c-0.2,0-0.4-0.1-0.6-0.1
		c-0.1,0-0.1-0.1-0.2-0.1c0,0,0,0-0.1-0.1c-0.6-0.5-0.5-1.3-1.3-1.8c0.3,0,0.5,0,0.6,0l0.1,0C70.2,20.8,70.3,22.6,71.5,22.6
		 M71.5,21c0.2,0,0.9,0.1,0.8,0.6c-0.2,0.7-0.8,0.6-0.8,0.6s-0.6,0.1-0.8-0.6C70.6,21,71.4,21,71.5,21 M64.9,18.3
		c0,0.4-0.3,0.8-0.7,0.7l0-0.1c-0.1-0.3-0.7-0.8-1-0.9C63.9,17.7,64.6,18,64.9,18.3 M63.5,19.1c0.2,0.2,0.2,0.4,0.1,0.5
		c-0.2,0.2-0.4,0.3-0.7,0.3c-0.2-0.4-0.8-0.5-1.4-0.4C62,18.7,63,18.8,63.5,19.1 M60.8,20.9c0.2-1.1,1.3-1,1.9-0.7
		c0.2,0.2,0.2,0.4,0,0.6c-0.1,0.1-0.5,0.2-0.7,0.1C61.6,20.6,61.1,20.7,60.8,20.9 M68.3,29.4c-0.1,0.3-0.3,0.6-0.9,0
		c-0.6-0.6-0.6-0.6-1.4-1c-0.5-0.2-0.8-0.4-1.2-1c0.3,0.1,0.5,0.1,0.9-0.1c-0.6,0-1.4-0.8-1.7-1.5c0.2,0.1,0.5,0.1,0.7,0
		c-0.8-0.6-0.9-1.5-1.1-2.4c-1.4-0.3-1.8-1.4-1.7-2.1c0.6,0.1,1.1-0.1,1.3-0.3c0.1-0.2,0.1-0.5,0-0.8c0.6,0.1,0.9-0.3,1-0.7
		c0.4,0.2,1.1,0.1,1.3-0.8c0.1,0.1,0.2,0.3,0.3,0.6c-0.3,0.6-0.9,1.5-1.3,2l0.5,0.5c0.1,0.1,0.3,0.2,0.5,0.3
		c-0.4,0.9-0.3,3.1,1.1,4.2c0.2,0.9,0.6,2.4,2.1,2.9c0,0,0,0,0,0C68.4,29.3,68.3,29.4,68.3,29.4 M66.7,18.5
		c-0.6,0.1-0.9-0.3-1.1-0.7c0.1-0.1,0.2-0.1,0.3-0.1c0.4-0.1,0.7-0.2,0.9,0l1,1.4c0,0-0.2,1.2,1,1.8c0.3,0.3,0.8,0.8,1,1.4
		c0.3,1,1.2,1.4,1.7,1.4c0.7,0,1.4-0.4,1.7-1.4c0.2-0.6,0.6-1.1,1-1.4c1.2-0.5,1.1-1.8,1.1-1.8l1.2-1.4c0.1-0.1,0.2,0,0.3,0
		c0.3,0.5,0.6,0.6,1,0.9c-0.2,0.4-0.8,0.4-1.3,0.2c0,0.3,0.1,0.5,0.2,0.9c0,0,0,0,0,0c0.1,0.2,0.1,0.5,0.2,0.7
		c0,0.1,0.1,0.2,0.1,0.3c0,0.1,0.1,0.2,0.1,0.2c0.1,0.2,0.1,0.3,0.2,0.5c0,0,0,0,0,0c0,0,0,0,0,0c0,0,0,0,0,0.1
		c0.1,0.1,0.1,0.2,0.2,0.3c0.1,0.1,0.1,0.1,0.2,0.2c0,0,0,0,0,0c-0.2,0.2-0.7,0.2-1.2-0.1c0,0,0,0,0,0c0,0,0,0,0,0
		c0.2,0.1,0.3,0.3,0.4,0.5c0,0.1,0.1,0.1,0.1,0.2c0,0.1,0.1,0.2,0.1,0.3c0,0.1,0.1,0.3,0.1,0.5c0,0,0,0.1,0,0.1c0,0.2,0,0.4,0,0.6v0
		c-0.1,1-0.4,1.9-0.8,2.4c0-0.9-0.2-2.2-1.2-2.7c1.3,1.8-0.1,4.6-2,5c0.3-0.5,1.1-2.2-0.2-3.8c1.8,3.2-2.4,3.6-1.3,6.1
		c-0.3-0.1-0.6-0.3-0.9-0.4c0,0,0,0-0.1,0c-0.9-2.6,0.5-5.2,0.5-5.2s-2,2.2-1.2,4.8c0,0-0.1-0.1-0.1-0.1c-0.1-0.1-0.2-0.2-0.3-0.4
		c-0.1-0.1-0.1-0.1-0.1-0.2c-0.1-0.1-0.1-0.2-0.2-0.3c0-0.1-0.1-0.2-0.1-0.3c-0.4-1.2,0.1-2.5,0.6-3.2c-1,0.3-1.4,1.6-1.4,2.9
		c-2.3-2.8-0.5-4.6,0.3-5.3c-0.8,0.1-1.7,1.2-2.1,2.1c-1-1.7-0.6-3.2,0.5-4c-0.7,0.3-1.4,0.2-1.6,0c0,0,1.1-1.3,1.3-2.2
		C66.6,19,66.6,18.9,66.7,18.5L66.7,18.5z M65,38c-0.2-0.2-0.4-0.7-0.4-1.2c0-0.8,0.7-1.4,1.5-1.4c0.6-1.1,1.6-1.1,2.1-0.9
		c1.1-0.5,1.8-2.1,2.4-2.5c0-0.2,0-0.5,0-0.8c0.5,0.2,1.1,0.3,1.5,0.3c-0.5-1.3-0.2-1.7,0.3-2.3c1.3,0.2,2.4-0.5,3-1.3
		c1.4-0.9,2.2-2.6,2.4-4c3-0.6,7,0.1,9.8,0.5c0,0,0,0,0.1,0c0.3,0,0.5,0.1,0.8,0.1c3.2,0.4,4.7-0.9,4.7-2.2c0-0.8-0.8-1.7-1.8-1.7
		c-1.1,0-1.9,0.9-1.6,2.3c-2,0-2.1-1.4-1.3-2.1c0.5-0.1,1-0.3,1.4-0.7l0.4-0.3c0.8,0,1.4-0.3,1.9-0.6c1.7,0.3,3,1.1,3,3
		c0,2.8-3,3.9-4.3,3.9c-0.5,0-1.6-0.1-2.7-0.7c0.9,0.5,1.5,1.8,1.7,2.8c1,0.5,2.1,0.6,2.7,0.7c1.6-0.5,2.5,1.3,2.6,2.2
		c-0.2-0.3-1-0.6-1.5-0.6c1.2,0.6,1.7,2,1.6,3.2c-0.2-0.4-0.7-1-1.1-0.9c1,1.2,0.5,3-0.3,3.6c0-0.5-0.1-1-0.2-1.4
		c0.2,0.9-0.8,2.7-1.8,2.3c-0.9-0.4-1.8-0.6-2.2-0.6l0,0c0,0-0.1,0-0.1,0c-0.1,0-0.1,0-0.2,0c-0.1,0-0.2,0-0.2,0S89,36.7,88.9,37
		c0,0,0,0,0,0s0,0,0,0c0,0,0,0,0,0c-0.1-0.2-0.2-0.4-0.2-0.6c0-0.1,0-0.2,0-0.3c0,0,0,0,0-0.1c0-0.1,0-0.1,0.1-0.2c0,0,0-0.1,0-0.1
		c0-0.1,0-0.1,0.1-0.2c0,0,0,0,0-0.1c0-0.1,0.1-0.1,0.1-0.2c0-0.1,0-0.2,0-0.3c0.1-0.6,0.7-1.1,1-1.1c0.7,0,0.8,1,1.9,1
		c0.2,0,0.4-0.1,0.5-0.9c0.1-0.6,0-0.9-0.2-1.5c-0.4-0.5-0.5-1.2-0.5-1.7C91,31,89.6,31,88.5,30.9c-0.1,0-0.2,0-0.3,0
		c-0.1,0-0.2,0-0.3,0c-0.1,0-0.2,0-0.3,0c-0.1,0-0.2,0-0.3,0c-0.1,0-0.1,0-0.2,0c-0.1,0-0.3-0.1-0.4-0.1c0,0,0,0,0,0
		c-0.4-0.7-0.9-2.6-1.9-3.4c-1.3,1.7-0.6,3.2,0.4,4.6c0.3,0.1,0.8,1.1-0.4,1.5c0,0,0-0.1-0.1-0.1c-0.1-0.1-0.2-0.1-0.3-0.1
		c-0.4,0-0.9,0.3-0.9,0.8c-0.2,0-0.3,0-0.5,0c-0.3,0-0.6,0.2-0.8,0.5c0,0,0,0,0,0c0,0.1-0.1,0.1-0.1,0.2C82,34.8,82,34.9,81.9,35
		c-0.1,0.1-0.2,0.2-0.4,0.3l0,0c-0.3,0-0.5,0-0.8-0.1c-1.2-0.1-1.9,0.2-2.5,0.5c-0.9-0.5-2-0.5-2.9-0.3c0-0.1,0-0.1,0-0.2
		c0-0.1,0-0.1,0-0.2c0,0,0-0.1,0-0.1c0-0.1,0-0.2,0.1-0.2c0,0,0-0.1,0-0.1c0-0.1,0.1-0.2,0.1-0.3c0,0,0-0.1,0.1-0.1
		c0-0.1,0.1-0.2,0.1-0.2c0,0,0-0.1,0.1-0.1c0-0.1,0.1-0.1,0.1-0.2c0,0,0.1-0.1,0.1-0.1c0.1-0.1,0.1-0.1,0.1-0.2c0,0,0.1,0,0.1-0.1
		c0,0,0.1-0.1,0.1-0.1c0.1,0,0.1,0,0.2,0c0,0,0,0,0.1,0c0.7,0,1.9,0.4,2.1,0.4c0,0,0,0,0,0c0.3,0,0.7-0.1,0.9-0.4
		c0,0,0.1-0.1,0.1-0.1c0-0.1,0.1-0.1,0.1-0.2c0,0,0,0,0,0c0.2-0.3,0.5-0.6,0.8-0.9c0.6-0.5,1.2-1,1.7-1l0,0h0
		c-1.8-0.1-2.1-1.5-2.1-2.4c0-1.1,1.3-2.3,2-2.6c-0.2-0.1-0.4-0.1-0.6-0.1c-1.3,0-2.1,1.1-2.4,1.8c0,0.1-0.1,0.2-0.2,0.2
		c-0.2,0.2-0.6,0.5-1.1,0.7c-0.7,0.3-1.5,0.7-2.4,1.1c0,0,0,0,0,0c0,0.3-0.1,0.7-0.2,1c-0.1,0.3-0.3,0.5-0.5,0.7
		c-0.1-0.2-0.3-0.7-0.6-0.9h0c0.5,1.5-0.5,3.1-1.3,3.5c0.2-0.2,0.2-1-0.1-1.5c0,0.3-0.1,0.5-0.2,0.8c0,0.1-0.1,0.1-0.1,0.2
		c-0.1,0.2-0.1,0.3-0.2,0.4c-0.6,1-1.5,1.6-2,1.8c-0.1,0.2-0.2,0.3-0.4,0.5c0,0,0,0,0,0c-0.1,0.1-0.2,0.2-0.3,0.3c0,0,0,0,0,0
		c-0.1,0.1-0.2,0.1-0.3,0.2c0,0,0,0-0.1,0c-0.1,0-0.2,0.1-0.3,0.1h0c0.3-0.8-0.3-1.3-0.8-1.4c-0.4-0.1-1,0.2-1.1,0.9
		c-0.5-0.6-1-0.2-1.1,0.3c-0.1-0.1-0.5-0.3-0.7-0.2C65,36.8,64.8,37.3,65,38 M68.5,38.4c-0.2,0-0.3-0.1-0.5-0.3
		c-0.1-0.1-0.1-0.1-0.2-0.2c0,0,0,0,0,0c-0.1-0.1-0.1-0.2-0.2-0.2c0,0,0,0,0,0c-0.1-0.2-0.2-0.4-0.2-0.6c0-0.1,0-0.2,0-0.2
		c0,0,0,0,0,0c0,0,0,0,0,0c0.1-0.4,0.6-0.4,0.8-0.4c0.2,0.1,0.5,0.3,0.4,0.7c0,0,0,0,0,0v0v0c-0.1,0.1-0.1,0.2-0.1,0.4
		c0,0,0,0.1,0,0.1c0,0.1-0.1,0.2-0.1,0.3c0,0,0,0,0,0h0C68.4,38,68.4,38.2,68.5,38.4 M66.6,38.2c-0.1-0.1-0.1-0.2-0.1-0.3
		c-0.1-0.2-0.1-0.4-0.2-0.6l0,0c0-0.3,0.2-0.4,0.3-0.5c0.2,0,0.4,0.1,0.5,0.3c0,0,0,0,0,0h0c0,0,0,0,0,0.1c0,0,0,0,0,0
		c0,0.1,0,0.1,0,0.2v0c0,0.1,0,0.2,0,0.3c0,0,0,0.1,0,0.1c0,0.1,0,0.2,0.1,0.3c0,0,0,0.1,0,0.1c0,0.1,0.1,0.2,0.1,0.3c0,0,0,0,0,0
		c-0.1,0-0.2,0-0.3-0.1c0,0,0,0-0.1,0c-0.1,0-0.1-0.1-0.2-0.1c0,0,0,0,0,0C66.7,38.4,66.6,38.3,66.6,38.2 M65.4,38.2L65.4,38.2
		C65.4,38.2,65.4,38.2,65.4,38.2c0-0.1,0-0.1-0.1-0.1c-0.2-0.4,0-0.9,0.1-1c0.2-0.1,0.4,0,0.6,0.3c0,0,0,0,0,0c0,0.4,0.2,1,0.4,1.3
		c0,0,0,0,0,0c0,0.1,0.1,0.1,0.1,0.2v0C66.1,38.9,65.6,38.6,65.4,38.2 M71.8,40.4c-1.3,0.6-3.7,0.1-4-1.2c0.1-0.1,0.2-0.2,0.2-0.3
		c0.5,0.3,0.9,0,1.2-0.1c-0.1-0.3-0.2-0.7,0-1c0.1,0,0.1,0,0.2-0.1c1.3,0.5,2.8,2.2,2.8,2.2L71.8,40.4z M75.9,40.2
		c-0.6,0.4-2.2,0.1-3-1c-0.8-1.2-1.7-1.6-1.7-1.6s0.1-0.1,0.2-0.2c0.4-0.3,0.8-0.5,1.6-0.4c0.9,0.1,1.8,1.4,2.3,1.9
		c0.4,0.6,1,1.1,1,1.1L75.9,40.2z M79.7,39.7c-0.6,0.4-2.1,0.1-2.9-1c-0.8-1.1-1.7-1.6-1.7-1.6s0.1-0.1,0.2-0.2
		c0.2-0.2,0.5-0.3,0.7-0.3c0.4,0.1,0.8,0.1,1.3,0.2c0.7,0.4,1.3,1.2,1.7,1.7c0.4,0.5,0.9,1,0.9,1L79.7,39.7z M83.5,40
		c-0.6,0.4-2.1-0.1-2.7-1.3c-0.7-1.2-1.5-1.7-1.5-1.7s0.1-0.1,0.2-0.2c0,0,0,0,0,0c0.4-0.1,0.8-0.1,1.2-0.3c0.1,0,0.2,0,0.3,0.1
		c0.8,0.2,1.6,1.5,2,2.1c0.4,0.6,0.8,1.1,0.8,1.1L83.5,40z M87.4,40.4c-0.7,0.3-2-0.3-2.5-1.5c-0.5-1.2-1.3-1.8-1.3-1.8
		s0.1-0.1,0.2-0.2c0.5-0.2,0.8-0.3,1.5,0c0.8,0.3,1.4,1.6,1.7,2.2c0.3,0.6,0.7,1.2,0.7,1.2L87.4,40.4z M89.1,39.8
		c-0.4-0.5-1.4-2-1.4-2s0.6-0.1,1.2-0.2h0c0,0,2,0,2.7,1.3c0,0,0,0,0,0c0.1,0.3,0.1,0.6,0,1.1C91.2,41.6,89.5,40.3,89.1,39.8
		 M38.7,30c-1.2,2.3-2.4,4.5-7.1,4.5c-1.8,0-3.9-1.3-5.2-3.4c-0.8-1.2-1.2-2.4-1.4-3.6c1.4,0.9,3.1,1.4,4.9,1.4c0.3,0,0.7,0,1-0.1
		l1.9-0.2l-0.7-1.8c-0.9-2.3-0.6-6.2,0.6-8.1c0,0,0-0.1,0.1-0.1c0.3,0.8,0.8,1.5,1.5,2.3c1.8,2,4.4,3.4,7.2,3.7
		C40.2,26.3,39.3,28.9,38.7,30 M133.7,31.2c-1.4,2.1-3.4,3.4-5.2,3.4c-4.7,0-5.9-2.2-7.1-4.5c-0.6-1.1-1.5-3.7-2.8-5.3
		c2.7-0.3,5.4-1.7,7.2-3.7c0.6-0.7,1.1-1.5,1.4-2.3c0,0,0.1,0.1,0.1,0.1c1.2,1.9,1.5,5.7,0.6,8.1l-0.7,1.8l1.9,0.2
		c0.3,0,0.7,0.1,1,0.1c1.8,0,3.5-0.5,4.9-1.4C134.9,28.8,134.5,30,133.7,31.2"/>
	<path d="M73.6,16.9l0.9-0.4h-2v1.3l0.2-0.2C72.7,17.6,73.6,17.7,73.6,16.9"/>
	<path d="M70.4,17.6l0.2,0.2v-1.3h-2l0.9,0.4C69.5,17.7,70.4,17.6,70.4,17.6"/>
	<path d="M66.3,14.9c0.1,1.8,1,1,1.4,1.5C67.8,16,67.6,14.9,66.3,14.9"/>
	<path d="M77,15.3c-1.3-0.3-1.6,0.7-1.7,1.1C75.9,15.9,76.6,16.8,77,15.3"/>
</g>
<polygon points="191.3,73.5 220.6,73.5 220.6,63.9 203.8,63.9 203.8,28.1 191.3,28.1 "/>
<g>
	<path d="M223.1,54.3c0,11.1,5.9,20.1,18.5,20.1c12.6,0,18.5-9,18.5-20.1c0-11.2-5.9-20.1-18.5-20.1C229,34.1,223.1,43.1,223.1,54.3
		 M235.3,54.3c0-5.9,1-11.6,6.3-11.6c5.7,0,6.3,5.7,6.3,11.6c0,5.8-0.6,11.5-6.3,11.5C236.3,65.8,235.3,60.1,235.3,54.3"/>
	<path d="M286.3,73.5h11.9V46.3c0-4.5,0-12.2-9.4-12.2c-5.2,0-8.3,2.5-12.6,6.1V35h-11.9v38.4h11.9V47.8c1.7-1.6,4.1-3.9,6.4-3.9
		c2.9,0,3.7,2.6,3.7,5.9V73.5z"/>
	<path d="M338.4,23.9h-11.9v15c-3-2.6-5.5-4.8-10.2-4.8c-11.2,0-13.3,11-13.3,19.6c0,9.7,2.1,20.7,13,20.7c3,0,6.3-0.7,10.5-5v4.1
		h11.9V23.9z M326.5,62.5c-1.6,1.5-3,2.9-5.6,2.9c-5.3,0-5.7-7.2-5.7-10.7c0-4.8,0.3-11.7,5.8-11.7c2.4,0,3.9,1.3,5.5,3.1V62.5z"/>
	<path d="M342.6,54.3c0,11.1,5.9,20.1,18.5,20.1c12.6,0,18.5-9,18.5-20.1c0-11.2-5.9-20.1-18.5-20.1
		C348.5,34.1,342.6,43.1,342.6,54.3 M354.8,54.3c0-5.9,1-11.6,6.3-11.6c5.7,0,6.3,5.7,6.3,11.6c0,5.8-0.6,11.5-6.3,11.5
		C355.8,65.8,354.8,60.1,354.8,54.3"/>
	<path d="M405.8,73.5h11.9V46.3c0-4.5,0-12.2-9.4-12.2c-5.2,0-8.3,2.5-12.6,6.1V35h-11.9v38.4h11.9V47.8c1.7-1.6,4.1-3.9,6.4-3.9
		c2.9,0,3.7,2.6,3.7,5.9V73.5z"/>
	<path d="M188.9,115.6c0.7,2.5,3.5,7.2,10.9,7.2c9.6,0,11.6-6.4,11.6-9.6c0-5.9-4.1-7.9-6.2-8.9l-6.1-2.7c-2.2-1-4.5-2-4.5-5.4
		c0-3.1,1.8-5.5,6-5.5c2.4,0,5.3,0.9,6.1,4.1l4.3-1.4c-1.6-4.5-5.6-6.2-10.4-6.2c-4.9,0-10.6,2.7-10.6,9.3c0,3.5,1.8,6,5,7.5
		l8.2,3.8c1.2,0.6,3.6,1.7,3.6,5.4c0,2.9-2.3,5.9-6.6,5.9c-4.5,0-6.4-2.9-7-5.3L188.9,115.6z"/>
	<path d="M217.5,96h-4.2v3.2h4.2v16.1c0,3.2,1.1,7.3,7.1,7.3c0.7,0,2.4-0.2,4-0.8v-3.3c-1.5,0.6-2.2,0.8-3.5,0.8
		c-3.1,0-3.3-2.2-3.3-4.5V99.2h6.6V96h-6.6v-8.8l-4.2,1.8V96z"/>
	<path d="M241,122.6c8.6,0,11.8-7.4,11.8-14.7c0-5.7-1.9-14.7-11.8-14.7c-8.6,0-11.8,7.4-11.8,14.7C229.2,113.6,231,122.6,241,122.6
		 M241,96.6c5.9,0,7.5,5.8,7.5,11.3c0,5.5-1.5,11.4-7.5,11.4c-5.9,0-7.5-5.9-7.5-11.4C233.5,102.4,235.1,96.6,241,96.6"/>
	<path d="M276.4,100.6c-1.9-5.4-4.9-7.4-9.2-7.4c-10,0-11.8,9-11.8,14.7c0,6.3,1.9,14.7,11.1,14.7c6.2,0,8.4-3.3,10.1-7.3l-3.7-1.2
		c-1.1,3.3-3.3,5.2-6.4,5.2c-5.2,0-6.8-5.7-6.8-11.4c0-5.5,1.5-11.3,7.5-11.3c4,0,5.1,4.1,5.5,5.2L276.4,100.6z"/>
</g>
<polygon points="279.6,84.9 279.6,122.1 283.8,122.1 283.8,107.5 283.9,107.5 295.3,122.1 300.7,122.1 288.3,106.8 299.9,93.8 
	294.6,93.8 283.8,106.4 283.8,84.9 "/>
<polygon points="314.6,122.1 335.4,122.1 335.4,118.5 319,118.5 319,106.2 334.1,106.2 334.1,102.7 319,102.7 319,91.6 335,91.6 
	335,88 314.6,88 "/>
<g>
	<path d="M188.9,115.6c0.7,2.5,3.5,7.2,10.9,7.2c9.6,0,11.6-6.4,11.6-9.6c0-5.9-4.1-7.9-6.2-8.9l-6.1-2.7c-2.2-1-4.5-2-4.5-5.4
		c0-3.1,1.8-5.5,6-5.5c2.4,0,5.3,0.9,6.1,4.1l4.3-1.4c-1.6-4.5-5.6-6.2-10.4-6.2c-4.9,0-10.6,2.7-10.6,9.3c0,3.5,1.8,6,5,7.5
		l8.2,3.8c1.2,0.6,3.6,1.7,3.6,5.4c0,2.9-2.3,5.9-6.6,5.9c-4.5,0-6.4-2.9-7-5.3L188.9,115.6z"/>
	<path d="M217.5,96h-4.2v3.2h4.2v16.1c0,3.2,1.1,7.3,7.1,7.3c0.7,0,2.4-0.2,4-0.8v-3.3c-1.5,0.6-2.2,0.8-3.5,0.8
		c-3.1,0-3.3-2.2-3.3-4.5V99.2h6.6V96h-6.6v-8.8l-4.2,1.8V96z"/>
	<path d="M241,122.6c8.6,0,11.8-7.4,11.8-14.7c0-5.7-1.9-14.7-11.8-14.7c-8.6,0-11.8,7.4-11.8,14.7C229.2,113.6,231,122.6,241,122.6
		 M241,96.6c5.9,0,7.5,5.8,7.5,11.3c0,5.5-1.5,11.4-7.5,11.4c-5.9,0-7.5-5.9-7.5-11.4C233.5,102.4,235.1,96.6,241,96.6"/>
	<path d="M276.4,100.6c-1.9-5.4-4.9-7.4-9.2-7.4c-10,0-11.8,9-11.8,14.7c0,6.3,1.9,14.7,11.1,14.7c6.2,0,8.4-3.3,10.1-7.3l-3.7-1.2
		c-1.1,3.3-3.3,5.2-6.4,5.2c-5.2,0-6.8-5.7-6.8-11.4c0-5.5,1.5-11.3,7.5-11.3c4,0,5.1,4.1,5.5,5.2L276.4,100.6z"/>
</g>
<polygon points="279.6,84.9 279.6,122.1 283.8,122.1 283.8,107.5 283.9,107.5 295.3,122.1 300.7,122.1 288.3,106.8 299.9,93.8 
	294.6,93.8 283.8,106.4 283.8,84.9 "/>
<polygon points="314.6,122.1 335.4,122.1 335.4,118.5 319,118.5 319,106.2 334.1,106.2 334.1,102.7 319,102.7 319,91.6 335,91.6 
	335,88 314.6,88 "/>
<g>
	<path d="M347.4,107.1l-9.4,15h4.8l6.6-10.6c0.5-0.7,0.8-1.4,0.9-1.7h0.1c0.1,0.4,0.5,1.2,0.8,1.7l6.1,10.6h5l-9.2-15.1l8.5-13.2
		h-4.6l-5.2,8.4c-0.5,0.8-1,1.8-1.4,2.6h-0.1c-0.4-0.8-0.9-1.8-1.4-2.6l-4.9-8.4h-4.9L347.4,107.1z"/>
	<path d="M384.3,100.6c-2-5.4-4.9-7.4-9.2-7.4c-10,0-11.8,9-11.8,14.7c0,6.3,1.9,14.7,11.1,14.7c6.2,0,8.4-3.3,10.1-7.3l-3.7-1.2
		c-1.1,3.3-3.3,5.2-6.4,5.2c-5.2,0-6.8-5.7-6.8-11.4c0-5.5,1.5-11.3,7.5-11.3c4,0,5.1,4.1,5.5,5.2L384.3,100.6z"/>
	<path d="M387.5,122.1h4.2v-20.1c1.7-2,4.2-4.9,8.1-4.9c3.5,0,4.1,2.8,4.1,5.7v19.3h4.2v-20.9c0-5.3-2.6-8-6.9-8
		c-4.3,0-7.2,3.1-9.5,5.2V84.9h-4.2V122.1z"/>
	<path d="M416.5,101.4c1.2-3.1,2.8-5,6.3-5c5.5,0,5.5,4.5,5.5,6.5v1.8h-4c-7.7,0-12.7,3.2-12.7,9.7c0,3.7,2,8,7.8,8
		c3.3,0,6.1-1.5,8.8-5.1h0.1v4.8h4.4c-0.2-1.6-0.2-2.7-0.2-3.3v-14.9c0-5-1.1-10.7-9.4-10.7c-6.8,0-8.9,3.7-10.2,7.1L416.5,101.4z
		 M428.3,107.8v6.4c-3.9,4.4-6.1,4.8-7.9,4.8c-3.5,0-4.7-2.4-4.7-5c0-4.3,3.5-6.2,9.5-6.2H428.3z"/>
	<path d="M436.3,122.1h4.2v-20.1c1.7-2,4.2-4.9,8.1-4.9c3.5,0,4.1,2.8,4.1,5.7v19.3h4.2v-20.9c0.1-5.3-2.6-8-6.9-8
		c-4.3,0-7.2,3.1-9.5,5.2v-4.6h-4.2V122.1z"/>
	<path d="M483.5,93.8h-8.6c-1.2-0.3-2.7-0.6-4.7-0.6c-6.9,0-10.2,4.2-10.2,9c0,4.9,3.6,7.3,5.4,7.9c-1.5,1.1-2.8,2.1-2.8,4.2
		c0,1.9,1.3,2.5,1.9,2.8c-3,1.8-5.3,3.7-5.3,7.5c0,5.2,5.5,7.1,11.4,7.1c5.7,0,12.2-2,12.2-8c0-5.1-3.8-6.5-8-7.4l-4.6-1.1
		c-3.3-0.8-3.7-1.1-3.7-2.2c0-0.9,0.4-1.4,1.4-2.2c0.5,0.2,1.2,0.2,2.2,0.2c8,0,10.6-4.8,10.6-8.8c0-2.6-0.7-4.1-2.3-5.7h5V93.8z
		 M464,102c0-3.9,2.7-5.9,6.4-5.9c3.7,0,6.4,2,6.4,5.9c0,4.2-2.9,6.3-6.4,6.3C466.9,108.3,464,106.2,464,102 M474.1,120
		c3.8,0.9,4.5,2.1,4.5,4c0,2.6-2.6,4.6-7.3,4.6c-3.4,0-8.1-0.9-8.1-4.5c0-2.4,1.8-4.2,4.2-5.7L474.1,120z"/>
	<path d="M488.5,105.8c0.6-5.8,2.9-9.3,7.3-9.3c4.5,0,6.8,4.2,6.8,9.3H488.5z M506.9,109v-2.1c0-6.6-2.9-13.7-11-13.7
		c-10,0-11.8,9-11.8,14.7c0,5.7,1.9,14.7,11.8,14.7c5.1,0,8.6-2.7,10.4-7l-3.7-1.3c-0.4,1.5-2.2,5-6.7,5c-3.8,0-7.3-2.7-7.5-10.3
		H506.9z"/>
</g>
</svg>
