<?xml version="1.0" encoding="utf-8"?>
<!-- Generator: Adobe Illustrator 24.1.0, SVG Export Plug-In . SVG Version: 6.00 Build 0)  -->
<svg version="1.1" id="Layer_1" xmlns="http://www.w3.org/2000/svg" xmlns:xlink="http://www.w3.org/1999/xlink" x="0px" y="0px"
	 viewBox="0 0 178.5 150" style="enable-background:new 0 0 178.5 150;" xml:space="preserve">
<style type="text/css">
	.st0{clip-path:url(#SVGID_2_);fill:url(#SVGID_3_);}
	.st1{clip-path:url(#SVGID_5_);fill:url(#SVGID_6_);}
	.st2{clip-path:url(#SVGID_8_);fill:url(#SVGID_9_);}
	.st3{clip-path:url(#SVGID_11_);fill:url(#SVGID_12_);}
	.st4{clip-path:url(#SVGID_14_);fill:url(#SVGID_15_);}
	.st5{clip-path:url(#SVGID_17_);fill:url(#SVGID_18_);}
</style>
<g>
	<path d="M101.1,123.7c-5.8-1.7-8.3-2.8-8.3-5.6v-0.1c0-2.1,2-3.7,4.8-3.7c3.3,0,6.8,1.6,10.3,4.2l4.5-7.1c-4-3.5-8.9-5.5-14.7-5.5
		c-8.1,0-13.8,5.2-13.8,13v0.1c0,5.7,5.2,10.6,13.1,13.1c6.1,2,8,3.1,8,5.5v0.1c0,2.5-2.8,4-5.7,4c-4.5,0-8.2-2-11.8-5.2l-4.6,7.2
		c4.7,4.2,10.4,6.4,16.2,6.4c8.5,0,14.5-6.4,14.5-13.3v-0.1C113.6,130.3,109.1,126,101.1,123.7"/>
</g>
<g>
	<defs>
		<rect id="SVGID_1_" x="0" width="19.5" height="96.3"/>
	</defs>
	<clipPath id="SVGID_2_">
		<use xlink:href="#SVGID_1_"  style="overflow:visible;"/>
	</clipPath>
	
		<linearGradient id="SVGID_3_" gradientUnits="userSpaceOnUse" x1="-520.7524" y1="500.6335" x2="-516.5858" y2="500.6335" gradientTransform="matrix(0 -25.33 -25.33 0 12690.7979 -13097.7832)">
		<stop  offset="0" style="stop-color:#00417B"/>
		<stop  offset="0.45" style="stop-color:#00B5E5"/>
		<stop  offset="0.4668" style="stop-color:#00B7E6"/>
		<stop  offset="0.6211" style="stop-color:#60C5ED"/>
		<stop  offset="0.766" style="stop-color:#86CFF2"/>
		<stop  offset="0.8965" style="stop-color:#99D4F5"/>
		<stop  offset="1" style="stop-color:#9FD6F6"/>
	</linearGradient>
	<rect x="0" y="0" class="st0" width="19.5" height="96.3"/>
</g>
<g>
	<defs>
		<rect id="SVGID_4_" x="26" width="19.5" height="96.3"/>
	</defs>
	<clipPath id="SVGID_5_">
		<use xlink:href="#SVGID_4_"  style="overflow:visible;"/>
	</clipPath>
	
		<linearGradient id="SVGID_6_" gradientUnits="userSpaceOnUse" x1="-520.7524" y1="499.8534" x2="-516.5858" y2="499.8534" gradientTransform="matrix(0 -25.33 -25.33 0 12697.0381 -13097.7832)">
		<stop  offset="0" style="stop-color:#00417B"/>
		<stop  offset="0.45" style="stop-color:#00B5E5"/>
		<stop  offset="0.4668" style="stop-color:#00B7E6"/>
		<stop  offset="0.6211" style="stop-color:#60C5ED"/>
		<stop  offset="0.766" style="stop-color:#86CFF2"/>
		<stop  offset="0.8965" style="stop-color:#99D4F5"/>
		<stop  offset="1" style="stop-color:#9FD6F6"/>
	</linearGradient>
	<rect x="26" y="0" class="st1" width="19.5" height="96.3"/>
</g>
<g>
	<defs>
		<rect id="SVGID_7_" x="52" width="19.5" height="96.3"/>
	</defs>
	<clipPath id="SVGID_8_">
		<use xlink:href="#SVGID_7_"  style="overflow:visible;"/>
	</clipPath>
	
		<linearGradient id="SVGID_9_" gradientUnits="userSpaceOnUse" x1="-520.7524" y1="499.0731" x2="-516.5858" y2="499.0731" gradientTransform="matrix(0 -25.33 -25.33 0 12703.2803 -13097.7832)">
		<stop  offset="0" style="stop-color:#00417B"/>
		<stop  offset="0.45" style="stop-color:#00B5E5"/>
		<stop  offset="0.4668" style="stop-color:#00B7E6"/>
		<stop  offset="0.6211" style="stop-color:#60C5ED"/>
		<stop  offset="0.766" style="stop-color:#86CFF2"/>
		<stop  offset="0.8965" style="stop-color:#99D4F5"/>
		<stop  offset="1" style="stop-color:#9FD6F6"/>
	</linearGradient>
	<rect x="52" y="0" class="st2" width="19.5" height="96.3"/>
</g>
<g>
	<defs>
		<rect id="SVGID_10_" x="78" width="19.5" height="96.3"/>
	</defs>
	<clipPath id="SVGID_11_">
		<use xlink:href="#SVGID_10_"  style="overflow:visible;"/>
	</clipPath>
	
		<linearGradient id="SVGID_12_" gradientUnits="userSpaceOnUse" x1="-520.7524" y1="498.293" x2="-516.5858" y2="498.293" gradientTransform="matrix(0 -25.33 -25.33 0 12709.5195 -13097.7832)">
		<stop  offset="0" style="stop-color:#00417B"/>
		<stop  offset="0.45" style="stop-color:#00B5E5"/>
		<stop  offset="0.4668" style="stop-color:#00B7E6"/>
		<stop  offset="0.6211" style="stop-color:#60C5ED"/>
		<stop  offset="0.766" style="stop-color:#86CFF2"/>
		<stop  offset="0.8965" style="stop-color:#99D4F5"/>
		<stop  offset="1" style="stop-color:#9FD6F6"/>
	</linearGradient>
	<rect x="78" y="0" class="st3" width="19.5" height="96.3"/>
</g>
<g>
	<defs>
		<rect id="SVGID_13_" x="104" width="19.5" height="96.3"/>
	</defs>
	<clipPath id="SVGID_14_">
		<use xlink:href="#SVGID_13_"  style="overflow:visible;"/>
	</clipPath>
	
		<linearGradient id="SVGID_15_" gradientUnits="userSpaceOnUse" x1="-520.7524" y1="497.5127" x2="-516.5858" y2="497.5127" gradientTransform="matrix(0 -25.33 -25.33 0 12715.7607 -13097.7832)">
		<stop  offset="0" style="stop-color:#00417B"/>
		<stop  offset="0.45" style="stop-color:#00B5E5"/>
		<stop  offset="0.4668" style="stop-color:#00B7E6"/>
		<stop  offset="0.6211" style="stop-color:#60C5ED"/>
		<stop  offset="0.766" style="stop-color:#86CFF2"/>
		<stop  offset="0.8965" style="stop-color:#99D4F5"/>
		<stop  offset="1" style="stop-color:#9FD6F6"/>
	</linearGradient>
	<rect x="104" y="0" class="st4" width="19.5" height="96.3"/>
</g>
<g>
	<defs>
		<rect id="SVGID_16_" x="130" width="19.5" height="96.3"/>
	</defs>
	<clipPath id="SVGID_17_">
		<use xlink:href="#SVGID_16_"  style="overflow:visible;"/>
	</clipPath>
	
		<linearGradient id="SVGID_18_" gradientUnits="userSpaceOnUse" x1="-520.7524" y1="496.733" x2="-516.5858" y2="496.733" gradientTransform="matrix(0 -25.33 -25.33 0 12721.999 -13097.7832)">
		<stop  offset="0" style="stop-color:#00417B"/>
		<stop  offset="0.45" style="stop-color:#00B5E5"/>
		<stop  offset="0.4668" style="stop-color:#00B7E6"/>
		<stop  offset="0.6211" style="stop-color:#60C5ED"/>
		<stop  offset="0.766" style="stop-color:#86CFF2"/>
		<stop  offset="0.8965" style="stop-color:#99D4F5"/>
		<stop  offset="1" style="stop-color:#9FD6F6"/>
	</linearGradient>
	<rect x="130" y="0" class="st5" width="19.5" height="96.3"/>
</g>
<g>
	<polygon points="130,141.9 130,131.7 146.8,131.7 146.8,124.1 130,124.1 130,113.9 149.5,113.9 149.5,106.3 121.3,106.3 
		121.3,149.5 149.5,149.5 149.5,141.9 	"/>
	<polygon points="26,106.3 26,133.5 8.7,106.3 0,106.3 0,149.5 8.6,149.5 8.6,121 26.7,149.5 34.6,149.5 34.6,106.3 	"/>
	<polygon points="70.6,106.3 61,122 51.4,106.3 41,106.3 56.7,130.8 56.7,149.5 65.5,149.5 65.5,130.6 81.1,106.3 	"/>
	<path d="M164.4,108.1h-3.2v10.1h-2.1v-10.1h-3.2v-1.8h8.5V108.1z M176.4,110.6l-0.1,0l-3.3,7.7h-1.1l-3.5-8l-0.1,0v7.9h-2.1v-11.9
		h2.6l3.6,8.7h0.1l3.6-8.7h2.5v11.9h-2.1V110.6z"/>
</g>
</svg>
