<?xml version="1.0" encoding="utf-8"?>
<!-- Generator: Adobe Illustrator 24.1.0, SVG Export Plug-In . SVG Version: 6.00 Build 0)  -->
<svg version="1.1" id="Layer_1" xmlns="http://www.w3.org/2000/svg" xmlns:xlink="http://www.w3.org/1999/xlink" x="0px" y="0px"
	 viewBox="0 0 824.7 150" style="enable-background:new 0 0 824.7 150;" xml:space="preserve">
<style type="text/css">
	.st0{fill:#686C6E;}
	.st1{fill:#000099;}
	.st2{fill:none;stroke:#000099;stroke-width:0.27;stroke-miterlimit:10;}
</style>
<g>
	<g>
		<path class="st0" d="M409.1,120h4.6v-17.7h-13v5.5h6.5c-0.6,4.4-3.2,7-6.9,7c-4.7,0-7.4-4.2-7.4-12.2c0-8.2,2.6-12.4,7.6-12.4
			c3,0,5.1,1.6,6.5,4.8l5.9-1.5c-1.7-5.7-6-8.8-12.3-8.8c-9,0-14.4,6.4-14.4,17.5c0,11.6,5.1,18.3,13.3,18.3c4.1,0,7-1.3,9.2-4.2
			L409.1,120z"/>
		<path class="st0" d="M429.2,100.4v-9.7h5.7c4.1,0,6.1,1.4,6.1,4.8c0,3.4-2,4.8-6.1,4.8H429.2z M422.8,120h6.4v-14.1h6l6.7,14.1h7
			l-7.7-15.6c4.1-1.1,6.4-4.3,6.4-8.8c0-7.1-4.3-10.4-13.1-10.4h-11.8V120z"/>
		<path class="st0" d="M461.7,102.7c0-8,2.7-12.1,7.8-12.1c5.1,0,7.8,4.1,7.8,12.1c0,7.9-2.7,12-7.8,12
			C464.4,114.7,461.7,110.6,461.7,102.7 M455,102.7c0,11.3,5.6,17.9,14.5,17.9s14.4-6.6,14.4-17.9c0-11.3-5.5-17.9-14.4-17.9
			C460.5,84.8,455,91.4,455,102.7"/>
		<path class="st0" d="M492,107.2c0,9,4.3,13.3,13.2,13.3c8.5,0,13.2-4.4,13.2-12.3V85.2H512v22.3c0,5.1-1.7,7.3-6.8,7.3
			c-4.8,0-6.6-2.4-6.6-7.3V85.2H492V107.2z"/>
		<path class="st0" d="M535.1,100.4v-9.8h4.9c4.5,0,6.6,1.1,6.6,4.9c0,3.7-2.1,4.9-6.6,4.9H535.1z M528.5,120h6.6v-14.1h6.5
			c7.6,0,11.5-3.6,11.5-10.4c0-7-4-10.3-12.2-10.3h-12.4V120z"/>
		<path class="st0" d="M395,59V35.8h3.5c7,0,10.2,3.6,10.2,11.5c0,8.3-3,11.8-10.1,11.8H395z M388.5,64.8h10.4
			c11,0,16.6-5.9,16.6-17.5c0-11.4-5.6-17.3-16.3-17.3h-10.6V64.8z"/>
	</g>
	<polygon class="st0" points="423.9,64.8 447.2,64.8 447.2,58.9 430.4,58.9 430.4,49.4 442.1,49.4 442.1,43.9 430.4,43.9 
		430.4,35.6 446.4,35.6 446.4,30 423.9,30 	"/>
	<g>
		<path class="st0" d="M454.9,52c0,8.9,4.3,13.3,13.2,13.3c8.5,0,13.2-4.4,13.2-12.3V30h-6.4v22.3c0,5.1-1.7,7.3-6.8,7.3
			c-4.8,0-6.6-2.4-6.6-7.3V30h-6.6V52z"/>
	</g>
	<polygon class="st0" points="497.6,64.8 504.2,64.8 504.2,35.7 513.4,35.7 513.4,30 488.5,30 488.5,35.7 497.6,35.7 	"/>
	<g>
		<path class="st0" d="M518,56.9c2.2,5.5,6.7,8.3,13.2,8.3c7.5,0,11.8-4,11.8-10.3c0-5.5-2.9-7.7-8.7-10.1c-5.5-2.3-8.9-2.9-8.9-6.2
			c0-2.2,1.7-3.7,4.6-3.7c3,0,4.8,1.4,6.3,4.4l5.9-2.2c-1.8-5-5.8-7.6-11.7-7.6c-6.9,0-11.3,4-11.3,9.5c0,3.3,1.4,6,4.1,7.7
			c2.3,1.5,5.2,2.4,8.3,3.6c3.6,1.3,5.2,2.5,5.2,4.9c0,2.6-2.1,4.4-5.6,4.4c-3.1,0-5.3-1.6-7.1-5.3L518,56.9z"/>
		<path class="st0" d="M569.4,54.4c-0.9,3.2-3.4,5.2-6.7,5.2c-5,0-7.2-3.9-7.2-12c0-8.4,2.3-12.5,7-12.5c3.2,0,5.2,1.7,6.1,5.1
			l6-1.5c-1.3-5.9-5.5-9.1-11.7-9.1c-8.9,0-14.1,6.4-14.1,18c0,11.8,4.7,17.8,13.7,17.8c6.6,0,11.1-3.3,12.8-9.3L569.4,54.4z"/>
	</g>
	<polygon class="st0" points="583,64.8 589.5,64.8 589.5,49.7 602.8,49.7 602.8,64.8 609.3,64.8 609.3,30 602.8,30 602.8,43.8 
		589.5,43.8 589.5,30 583,30 	"/>
	<polygon class="st0" points="619.7,64.8 643,64.8 643,58.9 626.2,58.9 626.2,49.4 637.9,49.4 637.9,43.9 626.2,43.9 626.2,35.6 
		642.3,35.6 642.3,30 619.7,30 	"/>
	<g>
		<path class="st0" d="M673.8,43.9v-8.6h5c4.3,0,6.5,1.1,6.5,4.3c0,2.9-2.1,4.3-6.1,4.3H673.8z M673.8,59.4V49.1h5.6
			c4.4,0,6.5,1.6,6.5,5.1c0,3.7-2.2,5.2-6.8,5.2H673.8z M667.4,64.8h12.3c8.6,0,12.8-3.2,12.8-9.8c0-4.3-2-7.1-5.9-8.5
			c3.5-1.7,5.1-4,5.1-7.3c0-6-4-9.2-11.7-9.2h-12.6V64.8z"/>
		<path class="st0" d="M706.2,47.5c0-8,2.7-12.1,7.8-12.1c5.1,0,7.8,4.1,7.8,12.1c0,7.9-2.7,12-7.8,12
			C708.9,59.5,706.2,55.4,706.2,47.5 M699.5,47.5c0,11.3,5.6,17.9,14.5,17.9c8.9,0,14.5-6.6,14.5-17.9c0-11.3-5.5-17.9-14.5-17.9
			C705,29.6,699.5,36.1,699.5,47.5 M715.4,25.9h5.3v-5.7h-5.3V25.9z M707.3,25.9h5.3v-5.7h-5.3V25.9z"/>
		<path class="st0" d="M742.9,45.2v-9.7h5.7c4.1,0,6.1,1.4,6.1,4.8c0,3.4-2,4.8-6.1,4.8H742.9z M736.5,64.8h6.4V50.7h6l6.7,14.1h7
			l-7.7-15.6c4.1-1.1,6.4-4.3,6.4-8.8c0-7.1-4.3-10.4-13.1-10.4h-11.8V64.8z"/>
		<path class="st0" d="M768.2,56.9c2.2,5.5,6.7,8.3,13.2,8.3c7.5,0,11.8-4,11.8-10.3c0-5.5-2.9-7.7-8.7-10.1
			c-5.5-2.3-8.9-2.9-8.9-6.2c0-2.2,1.7-3.7,4.6-3.7c3,0,4.8,1.4,6.3,4.4l5.9-2.2c-1.8-5-5.8-7.6-11.7-7.6c-6.9,0-11.3,4-11.3,9.5
			c0,3.3,1.4,6,4.1,7.7c2.3,1.5,5.2,2.4,8.3,3.6c3.6,1.3,5.2,2.5,5.2,4.9c0,2.6-2.1,4.4-5.6,4.4c-3.1,0-5.3-1.6-7.1-5.3L768.2,56.9z
			"/>
	</g>
	<polygon class="st0" points="801.4,64.8 824.7,64.8 824.7,58.9 807.9,58.9 807.9,49.4 819.6,49.4 819.6,43.9 807.9,43.9 
		807.9,35.6 824,35.6 824,30 801.4,30 	"/>
	<polygon class="st1" points="36.4,92.7 0,113.3 0,135.6 55.9,103.7 	"/>
	<polygon class="st1" points="94.8,100.5 78.2,91 39.2,91 75.3,111.5 	"/>
	<polygon class="st1" points="153.6,70.2 78.3,113.2 117.3,113.2 172.8,81.4 	"/>
	<polygon class="st1" points="212.1,78.1 195.2,68.5 156.3,68.5 192.5,89.4 	"/>
	<polygon class="st1" points="328.5,37.1 234.3,91 195.4,91 328.5,15 	"/>
	<polygon class="st2" points="328.5,37.1 234.3,91 195.4,91 328.5,15 	"/>
	<rect x="355.5" class="st0" width="6" height="150"/>
</g>
</svg>
