<?xml version="1.0" encoding="utf-8"?>
<!-- Generator: Adobe Illustrator 24.1.0, SVG Export Plug-In . SVG Version: 6.00 Build 0)  -->
<svg version="1.1" id="Layer_1" xmlns="http://www.w3.org/2000/svg" xmlns:xlink="http://www.w3.org/1999/xlink" x="0px" y="0px"
	 viewBox="0 0 338.9 150" style="enable-background:new 0 0 338.9 150;" xml:space="preserve">
<style type="text/css">
	.st0{fill:#E62645;}
	.st1{fill:#00365F;}
</style>
<g>
	<path class="st0" d="M53.9,0h-2.8C23.7,1.7,1.5,23.2,0,50.6v2.8h8.5l0.4-4.7C10.5,28,28.6,10.2,49.3,8.9l4.6-0.4V0z M53.9,28
		l-2.8,0.2c-11.6,1-21.9,11-22.6,22.6l-0.2,2.6h25.5V28z"/>
	<path class="st0" d="M147.7,119.2v4.6c3.8,0,6.9,3.1,6.9,6.9c0,3.8-3.1,6.9-6.9,6.9v4.6c6.4,0,11.5-5.1,11.5-11.5
		C159.2,124.3,154.1,119.2,147.7,119.2"/>
	<polygon class="st1" points="338.8,29.1 338.8,13.4 298.6,13.4 293,13.4 282.8,13.4 282.8,92.6 293,92.6 338.8,92.6 338.8,76.9 
		298.6,76.9 298.6,60.7 336.8,60.7 336.8,45 298.6,45 298.6,29.1 	"/>
	<polygon class="st1" points="172.3,76.8 137.2,76.8 137.2,13.4 121.3,13.4 121.3,92.6 172.3,92.6 	"/>
</g>
<g>
	<polygon class="st1" points="247.6,13.4 247.6,13.5 225.6,49.4 203.5,13.4 203.2,13.6 203.2,13.4 187.4,13.4 187.4,92.6 
		203.2,92.6 203.2,43.2 216.3,64.5 216.2,64.7 216.4,64.7 234.8,64.7 234.9,64.7 234.9,64.5 247.6,43.7 247.6,92.6 263.5,92.6 
		263.5,13.4 	"/>
	<path class="st1" d="M62,13.4l-3.8-0.6l-4.4-0.2l-4.2,0.2l-4.2,0.6C-0.2,24.4,3,87.6,49.7,93.7l4.2,0.2l4.4-0.2
		C104.9,87.1,107.8,24.3,62,13.4 M24.4,59.3L24,56.5l-0.2-3.2l0.2-3l0.4-3.1c8.3-33.2,55-30.8,59.4,3.1l0.2,3l-0.2,3.2
		C78.8,90.3,32.6,92.5,24.4,59.3"/>
</g>
<g>
	<path class="st1" d="M23,119.2h4.2l9.5,23.2h-4.6l-2.1-5.5h-9.7l-2.1,5.5h-4.6L23,119.2z M21.6,133.5h7.3l-3.6-9.3L21.6,133.5z"/>
	<path class="st1" d="M39.7,125.5h3.5l0.6,2.5c1.3-1.8,3.4-2.9,5.8-2.9c3.9,0,6.6,2.7,6.6,6.5v10.9h-4.4v-10.2
		c0-2.1-1.5-3.5-3.5-3.5c-2.4,0-4.1,1.8-4.1,4.4v9.3h-4.4V125.5z"/>
	<path class="st1" d="M196.8,118.8c2.8,0,5.7,0.9,8.3,2.6l-1.9,3.1c-1.9-1.3-3.9-2-5.9-2c-4.6,0-7.8,3.4-7.8,8.4
		c0,4.9,3.2,8.4,7.8,8.4c2,0,4-0.7,5.9-2l1.9,3.1c-2.6,1.7-5.5,2.6-8.3,2.6c-7,0-11.9-5-11.9-12
		C184.9,123.7,189.8,118.8,196.8,118.8"/>
	<path class="st1" d="M216.2,125.1c5.4,0,9.2,3.7,9.2,8.9c0,5.2-3.8,8.9-9.2,8.9c-5.3,0-9.1-3.7-9.1-8.9
		C207.1,128.7,210.9,125.1,216.2,125.1 M216.2,139.4c2.7,0,4.7-2.2,4.7-5.4c0-3.2-1.9-5.4-4.7-5.4c-2.7,0-4.6,2.2-4.6,5.4
		C211.6,137.1,213.5,139.4,216.2,139.4"/>
	<path class="st1" d="M229.3,125.5h3.5l0.6,2.3c1.4-1.8,3.3-2.7,5.6-2.7c2.4,0,4.5,1.2,5.4,3.1c1.6-2,3.7-3.1,6.1-3.1
		c3.7,0,6.3,2.6,6.3,6.2v11.2h-4.4v-10.5c0-1.9-1.3-3.2-3.3-3.2c-2.2,0-3.8,1.7-3.8,4.1v9.6h-4.4v-10.5c0-1.9-1.3-3.2-3.2-3.2
		c-2.3,0-3.9,1.7-3.9,4.1v9.6h-4.4V125.5z"/>
	<path class="st1" d="M261.7,125.5h3.5l0.6,2.2c1.2-1.7,3.2-2.6,5.4-2.6c4.6,0,7.8,3.7,7.8,8.9c0,5.2-3.2,8.9-7.8,8.9
		c-2.1,0-3.9-0.8-5.1-2.3v9.1h-4.4V125.5z M270,128.6c-2.3,0-4,1.8-4,4.2v2.3c0,2.4,1.7,4.2,4,4.2c2.6,0,4.4-2.2,4.4-5.4
		C274.4,130.8,272.6,128.6,270,128.6"/>
	<path class="st1" d="M289.6,131.9c1,0,2.2,0.1,3.3,0.3v-0.9c0-1.7-1.4-3-3.5-3c-1.7,0-3.6,0.4-5.6,1.2l-1.1-3.1
		c2.5-1,4.9-1.4,7.2-1.4c4.3,0,7.1,2.6,7.1,6.3v6.9c0,0.7,0.4,1.2,1.2,1.2c0.3,0,0.7-0.1,0.9-0.1l0.3,3.2c-0.7,0.1-1.5,0.2-2.4,0.2
		c-1.7,0-3-0.9-3.6-2.3c-1.5,1.5-3.5,2.3-5.6,2.3c-3.5,0-6-2.2-6-5.3C281.8,133.9,284.7,131.9,289.6,131.9 M289,139.7
		c2.3,0,3.9-1.6,3.9-3.9v-1c-0.9-0.2-1.8-0.3-2.8-0.3c-2.5,0-4.1,1.1-4.1,2.8C286.1,138.6,287.3,139.7,289,139.7"/>
	<path class="st1" d="M302.4,125.5h3.5l0.6,2.5c1.3-1.8,3.4-2.9,5.8-2.9c3.9,0,6.6,2.7,6.6,6.5v10.9h-4.4v-10.2
		c0-2.1-1.5-3.5-3.5-3.5c-2.4,0-4.1,1.8-4.1,4.4v9.3h-4.4V125.5z"/>
	<path class="st1" d="M331.4,144.3c-1.5,3.8-3.7,5.7-6.8,5.7c-0.7,0-1.7-0.1-2.6-0.3l0.6-3.5c0.6,0.1,1.2,0.2,1.6,0.2
		c1.5,0,2.4-0.8,3.2-2.8l0.6-1.5l-7-16.7h4.6l4.4,11.9l4.3-11.9h4.6L331.4,144.3z"/>
	<polygon class="st1" points="141.4,123.8 141.4,119.2 129.7,119.2 128.1,119.2 125.1,119.2 125.1,142.2 128.1,142.2 141.4,142.2 
		141.4,137.6 129.7,137.6 129.7,132.9 140.8,132.9 140.8,128.4 129.7,128.4 129.7,123.8 	"/>
	<polygon class="st1" points="89.8,119.2 89.8,128.4 78.7,128.4 78.7,119.2 74.1,119.2 74.1,142.2 78.7,142.2 78.7,133 89.8,133 
		89.8,142.2 94.4,142.2 94.4,119.2 	"/>
	<path class="st1" d="M121.1,142.2l-8.5-12.8c0.4-0.3,0.9-0.8,1.2-1.1c4-3.6,4.4-7.8,4.4-9.1h-4.4c0,0.6-0.2,3.4-2.9,5.9
		c-1.3,1.2-3.4,3-5.2,4.4v-10.2h-4.6v22.9h4.6v-7.1l0,0c0.1-0.1,1.7-1.4,3.5-2.9l6.6,10H121.1z"/>
	<path class="st1" d="M168.2,119.2v4.6c-3.8,0-6.9,3.1-6.9,6.9c0,3.8,3.1,6.9,6.9,6.9v4.6c-6.4,0-11.5-5.1-11.5-11.5
		C156.7,124.3,161.8,119.2,168.2,119.2"/>
</g>
</svg>
