<svg id="Layer_1" data-name="Layer 1" xmlns="http://www.w3.org/2000/svg" viewBox="0 0 99.16 39.68"><defs><style>.cls-1,.cls-2{fill:#1b3764;}.cls-2,.cls-4{fill-rule:evenodd;}.cls-3,.cls-4{fill:#8b8d90;}</style></defs><path class="cls-1" d="M36.61,6.16a5.92,5.92,0,0,1,1.22-3.6,3.69,3.69,0,0,1,.71.22,2.88,2.88,0,0,1,1.15,1,1.47,1.47,0,0,0,.82,0c.27-.09,1-.51,1.35-.45A1.84,1.84,0,0,1,42.93,4a1.82,1.82,0,0,0,.53.66,2.15,2.15,0,0,1,1,1.34,1.18,1.18,0,0,1-.14,1,.22.22,0,0,0,0,.3c.12.16.31.25.31.49s-.14.28-.06.52.19.27.21.47,0,.38.22.51.36,0,.52.21.22.71.38.89.35.19.5.36a1,1,0,0,1,.18.64,6.68,6.68,0,0,1-3.45,1,6.31,6.31,0,0,1-6.45-6.16"/><path class="cls-1" d="M39.19,1.23A6.65,6.65,0,0,1,43.06,0,6.3,6.3,0,0,1,49.5,6.16a6,6,0,0,1-1,3.29,2.34,2.34,0,0,1,0-.26,2.76,2.76,0,0,0,.08-1.35,3,3,0,0,0-.4-1c-.16-.16-.36-.34-.38-.54s-.14-.5-.22-.86a5.84,5.84,0,0,0-.56-1.12c-.2-.4-.7-2.38-.7-2.38s0-.21-.14-.23a2.21,2.21,0,0,0-.34,0s-.21,0-.15.22-.16.37-.3.35A.5.5,0,0,1,45.13,2a.4.4,0,0,0-.34-.17h-3a1,1,0,0,1-.42-.08,2.28,2.28,0,0,0-.5-.44,3.67,3.67,0,0,0-1.28,0,1.38,1.38,0,0,1-.35,0"/><path class="cls-2" d="M46.35,33.74a1.67,1.67,0,0,0-1.89-1.83c-1.65,0-2.94,1.44-2.94,3.46a1.62,1.62,0,0,0,1.86,1.81,3.18,3.18,0,0,0,3-3.44m-1,.11c0,1.48-.87,2.54-1.86,2.54-.76,0-1.07-.42-1.07-1.17,0-1.28.74-2.53,1.86-2.53.73,0,1.07.41,1.07,1.16"/><path class="cls-1" d="M51.44,29.62a4,4,0,0,0-.84-.09,2.19,2.19,0,0,0-2.31,2.09l-.08.39h-1l-.15.71h1l-.89,4.64c-.22,1.19-.63,1.56-1.36,1.56a2.32,2.32,0,0,1-.71-.11l-.23.78a4.24,4.24,0,0,0,.88.09c1.24,0,2-.67,2.33-2.34L49,32.72h1.37L50.5,32H49.12l.07-.38c.17-.95.58-1.35,1.31-1.35a3,3,0,0,1,.72.1Z"/><path class="cls-1" d="M58.37,30.33a5.75,5.75,0,0,0-1.52-.21c-2.61,0-4,2.25-4,4.68,0,1.21.51,2.37,2.48,2.37a5.27,5.27,0,0,0,1.84-.33l0-.85a3.82,3.82,0,0,1-1.6.34c-1.33,0-1.74-.69-1.74-1.69,0-1.73.8-3.7,2.81-3.7a4,4,0,0,1,1.43.25Z"/><path class="cls-2" d="M63.15,33.74a1.68,1.68,0,0,0-1.9-1.83c-1.65,0-2.94,1.44-2.94,3.46a1.62,1.62,0,0,0,1.86,1.81,3.18,3.18,0,0,0,3-3.44m-1,.11c0,1.48-.86,2.54-1.86,2.54-.76,0-1.07-.42-1.07-1.17,0-1.28.75-2.53,1.86-2.53.74,0,1.07.41,1.07,1.16"/><path class="cls-1" d="M71.86,33.63c.2-1.06-.13-1.73-1-1.73S69,32.94,68.5,34h0a3.46,3.46,0,0,0,.24-1.12.91.91,0,0,0-1-1c-1,0-1.84,1.05-2.31,2.11h0A13.65,13.65,0,0,0,66,32a11.57,11.57,0,0,0-1.78.07l-.1.54c.29,0,.63.06.85.1v0l-.82,4.33H65l.21-1.15c.3-1.5,1.38-3.26,2.19-3.26.43,0,.57.36.42,1.16l-.63,3.25h.9l.22-1.15c.3-1.53,1.38-3.26,2.19-3.26.43,0,.57.36.42,1.16l-.63,3.25h.9Z"/><path class="cls-1" d="M80.92,33.63c.2-1.06-.13-1.73-1-1.73S78,32.94,77.56,34h0a3.46,3.46,0,0,0,.24-1.12.91.91,0,0,0-1-1c-1,0-1.85,1.05-2.32,2.11h0A15,15,0,0,0,75,32a11.52,11.52,0,0,0-1.78.07l-.11.54a8.55,8.55,0,0,1,.86.1v0l-.82,4.33h.91l.21-1.15c.3-1.5,1.38-3.26,2.19-3.26.43,0,.57.36.42,1.16l-.63,3.25h.9l.22-1.15c.29-1.53,1.38-3.26,2.19-3.26.42,0,.57.36.41,1.16l-.62,3.25h.9Z"/><path class="cls-2" d="M86.22,33.07c0-.6-.41-1.16-1.49-1.16-1.68,0-2.78,1.65-2.78,3.62,0,1.15.54,1.65,1.71,1.65a4.62,4.62,0,0,0,1.74-.31v-.73a3.84,3.84,0,0,1-1.43.29c-.81,0-1.09-.2-1.09-1a3.61,3.61,0,0,1,.05-.59c2.18-.08,3.29-.69,3.29-1.78m-.91.11c0,.61-.69.93-2.27,1,.24-.86.78-1.56,1.59-1.56.41,0,.68.2.68.57"/><path class="cls-1" d="M90.67,31.92c-1.09-.22-1.67.73-2.25,2h0A13.66,13.66,0,0,0,88.93,32a11.49,11.49,0,0,0-1.77.07l-.1.54c.3,0,.63.06.86.1v0l-.83,4.34H88l.21-1.15c.26-1.38,1.25-3.49,2.28-3.12Z"/><path class="cls-1" d="M94.59,32.08a3.71,3.71,0,0,0-1.07-.16c-1.82,0-2.91,1.63-2.91,3.57,0,1,.45,1.68,1.77,1.68a3.66,3.66,0,0,0,1.33-.25l.07-.8a2.85,2.85,0,0,1-1.15.24.93.93,0,0,1-1.06-1.07c0-1.16.6-2.61,1.89-2.61a2.27,2.27,0,0,1,.93.19Z"/><path class="cls-2" d="M99.1,33.07c0-.6-.41-1.16-1.49-1.16-1.68,0-2.78,1.65-2.78,3.62,0,1.15.54,1.65,1.71,1.65a4.62,4.62,0,0,0,1.74-.31v-.73a3.88,3.88,0,0,1-1.43.29c-.82,0-1.09-.2-1.09-1a3.61,3.61,0,0,1,0-.59c2.18-.08,3.29-.69,3.29-1.78m-.91.11c0,.61-.69.93-2.27,1,.24-.86.78-1.56,1.59-1.56.41,0,.68.2.68.57"/><path class="cls-1" d="M10.84,14.46a10.63,10.63,0,0,0-3.45-.58A7.35,7.35,0,0,0,0,21.3a7.08,7.08,0,0,0,7.18,7.16,11.25,11.25,0,0,0,3.66-.56L11,22.61a4.11,4.11,0,0,1-3,1.32,2.83,2.83,0,0,1-2.87-2.76A2.77,2.77,0,0,1,8,18.41a4.6,4.6,0,0,1,3,1.43Z"/><polygon class="cls-1" points="12.28 28.24 17.23 28.24 17.23 23.33 20.38 23.33 20.38 28.24 25.33 28.24 25.33 14.1 20.38 14.1 20.38 18.86 17.23 18.86 17.23 14.1 12.28 14.1 12.28 28.24"/><path class="cls-2" d="M31.65,26.48h3.88L36,28.24h5.44l-5-14.14H30.71L25.8,28.24h5.44Zm.92-3.36.93-4.31h.19c.1.6.19,1.22.34,1.82l.6,2.49Z"/><path class="cls-1" d="M41.92,28.24h5l.6-6c.06-.56.1-1.14.13-1.71h.17a10,10,0,0,0,.32,1.77l1.84,6h3l2-6.34a11.14,11.14,0,0,0,.34-1.41h.09l.7,7.75h5L58.76,14.1H53.53l-1.59,5.55a14.85,14.85,0,0,0-.36,1.88h-.13l-2-7.43H44.21Z"/><path class="cls-2" d="M62,28.24h7c2.48,0,5.18-1,5.18-3.9A3.43,3.43,0,0,0,71.68,21v-.11A2.86,2.86,0,0,0,73.53,18c0-3.26-2.79-3.92-5.53-3.92H62Zm4.76-8.7v-2h.36c.75,0,1.71-.07,1.71,1s-.85,1.05-1.6,1.05Zm0,3h.51c.82,0,2.14,0,2.14,1.16s-1.22,1.18-2.07,1.18h-.58Z"/><polygon class="cls-1" points="75.03 28.24 84.69 28.24 84.69 24.38 80.2 24.38 80.2 22.99 84.16 22.99 84.16 19.31 80.2 19.31 80.2 17.96 84.53 17.96 84.53 14.1 75.03 14.1 75.03 28.24"/><path class="cls-2" d="M85.86,28.24h5V23.7H91l2.25,4.54h5.93l-3.08-4.6a3.72,3.72,0,0,0-.86-.84v-.11C97.13,22.05,98,21.15,98,19c0-3.56-2.7-4.91-5.89-4.91H85.86Zm5-10.28h.39c.88,0,1.65.13,1.65,1.22s-.84,1.18-1.69,1.18h-.35Z"/><polygon class="cls-3" points="20.41 12.31 24.92 12.31 24.92 8 28.2 8 28.2 4.8 24.92 4.8 24.92 3.53 28.66 3.53 28.66 0 20.41 0 20.41 12.31"/><polygon class="cls-3" points="29.41 12.31 36.31 12.31 36.31 8.36 33.89 8.36 33.89 0 29.41 0 29.41 12.31"/><path class="cls-4" d="M50.42,12.31h4.37v-4h.08l2,4H62l-2.67-4a3.18,3.18,0,0,0-.76-.73v-.1C60.23,6.92,61,6.14,61,4.28,61,1.18,58.6,0,55.82,0h-5.4Zm4.37-9h.35c.76,0,1.43.12,1.43,1.07s-.73,1-1.47,1h-.31Z"/><rect class="cls-3" x="61.66" width="4.47" height="12.31"/><path class="cls-4" d="M67.1,12.31h5.66c3.61,0,6.19-2.32,6.19-6C79,1.81,75.78,0,71.65,0H67.1Zm4.47-8.46h.28c1.63,0,2.63.74,2.63,2.47s-1.15,2.3-2.63,2.3h-.28Z"/><path class="cls-4" d="M82.91,10.78H86.3l.4,1.53h4.74L87.05,0h-5L77.82,12.31h4.74Zm.8-2.92.82-3.76h.16c.09.52.17,1.06.3,1.58l.52,2.18Z"/></svg>