<?xml version="1.0" encoding="utf-8"?>
<!-- Generator: Adobe Illustrator 24.1.0, SVG Export Plug-In . SVG Version: 6.00 Build 0)  -->
<svg version="1.1" id="Layer_1" xmlns="http://www.w3.org/2000/svg" xmlns:xlink="http://www.w3.org/1999/xlink" x="0px" y="0px"
	 viewBox="0 0 448 150" style="enable-background:new 0 0 448 150;" xml:space="preserve">
<style type="text/css">
	.st0{fill:#00529F;}
	.st1{fill:#231F20;}
</style>
<g>
	<path class="st0" d="M403.1,23V14h-6.9c-0.7,1.2-1.4,2.6-2,4c-0.7,1.6-1.4,3.3-1.9,5.1H403.1z"/>
	<path class="st0" d="M389.6,34h13.5v-9.2h-11.4C390.7,28.3,390.1,31.4,389.6,34"/>
	<path class="st0" d="M403.1,12.1l0-7.4c-0.2,0.1-0.4,0.2-0.7,0.4c-1.3,1.4-3.2,3.8-5.2,7H403.1z"/>
	<path class="st0" d="M377.9,22.2c-0.1,0.3-0.3,0.5-0.4,0.8h12.8c1-3.4,2.3-6.4,3.8-9.1h-10.6C381.5,16.4,379.6,19.1,377.9,22.2"/>
	<path class="st0" d="M387.8,34c0.5-2.7,1.1-5.8,2.1-9.2h-13.2c-1.4,3.1-2.3,6.3-2.9,9.2H387.8z"/>
	<path class="st0" d="M387.5,35.8h-14.1c-0.8,4.9-0.7,8.7-0.7,9.5h14.1C386.8,44.8,386.7,41.4,387.5,35.8"/>
	<path class="st0" d="M388.6,45.3L388.6,45.3l-0.1,0v0h14.6v-9.5h-13.8C388.4,41.8,388.6,45.3,388.6,45.3"/>
	<path class="st0" d="M374.7,24.8h-12l-2.9,2.9V34h12C372.4,31.1,373.3,28,374.7,24.8"/>
	<path class="st0" d="M371.5,35.8h-11.7v9.5h11C370.8,44.3,370.7,40.6,371.5,35.8"/>
	<path class="st0" d="M376.3,21.4c1.5-2.7,3.1-5.2,4.8-7.4h-7.6l-9,9.1h11C375.8,22.5,376,21.9,376.3,21.4"/>
	<path class="st0" d="M385,12.1h10.1c0.8-1.4,1.6-2.6,2.4-3.7c1.2-2,2.3-3.3,3.3-4.4c-0.6,0-3.9-0.4-8.5,2
		C389.8,7.5,387.3,9.6,385,12.1"/>
	<path class="st0" d="M389.6,5.6c2.4-1.6,4.8-2.8,7.2-3.3c0.1,0,0.2-0.1,0.2-0.1h-11.8L375,12.1h7.6C384.9,9.4,387.2,7.3,389.6,5.6"
		/>
	<path class="st0" d="M404.8,23v-9h6.9c0.7,1.2,1.4,2.6,2,4c0.7,1.6,1.4,3.3,1.9,5.1H404.8z"/>
	<path class="st0" d="M418.3,34h-13.5v-9.2h11.4C417.2,28.3,417.8,31.3,418.3,34"/>
	<path class="st0" d="M404.8,12.1l0-7.4c0.2,0.1,0.5,0.2,0.7,0.4c1.3,1.4,3.2,3.8,5.1,7H404.8z"/>
	<path class="st0" d="M430,22.2c0.1,0.3,0.3,0.5,0.4,0.8h-12.8c-1-3.4-2.3-6.4-3.7-9h10.6C426.4,16.4,428.2,19.1,430,22.2"/>
	<path class="st0" d="M420.1,34c-0.5-2.7-1.1-5.7-2.1-9.2h13.2c1.4,3.1,2.3,6.3,2.9,9.2H420.1z"/>
	<path class="st0" d="M420.4,35.8h14.1c0.8,4.9,0.7,8.7,0.7,9.5h-14.1C421.1,44.8,421.2,41.4,420.4,35.8"/>
	<path class="st0" d="M419.3,45.3L419.3,45.3l0.1,0v0h-14.6v-9.5h13.8C419.5,41.8,419.3,45.3,419.3,45.3"/>
	<path class="st0" d="M433.2,24.8h12l2.9,2.9V34h-12C435.5,31.1,434.6,28,433.2,24.8"/>
	<path class="st0" d="M436.4,35.8H448v9.5h-11C437.1,44.3,437.1,40.6,436.4,35.8"/>
	<path class="st0" d="M431.5,21.4c-1.5-2.7-3.1-5.2-4.8-7.4h7.6l9,9h-11C432.1,22.5,431.8,21.9,431.5,21.4"/>
	<path class="st0" d="M422.9,12.1h-10.1c-0.8-1.4-1.6-2.6-2.4-3.7c-1.2-2-2.3-3.3-3.3-4.4c0.6,0,3.9-0.4,8.5,2
		C418.1,7.5,420.5,9.6,422.9,12.1"/>
	<path class="st0" d="M418.2,5.6c-2.4-1.6-4.8-2.8-7.2-3.3c-0.1,0-0.1,0-0.2-0.1h11.8l10.3,9.9h-7.6C423,9.4,420.7,7.2,418.2,5.6"/>
	<path class="st0" d="M402.8,69.6v9H396c-0.7-1.2-1.4-2.6-2.1-4c-0.7-1.6-1.4-3.3-1.9-5.1H402.8z"/>
	<path class="st0" d="M389.4,58.6h13.5v9.2h-11.4C390.5,64.4,389.8,61.3,389.4,58.6"/>
	<path class="st0" d="M402.8,80.5l0,7.4c-0.2-0.1-0.4-0.2-0.7-0.4c-1.3-1.4-3.2-3.8-5.2-7H402.8z"/>
	<path class="st0" d="M377.7,70.4c-0.1-0.3-0.3-0.5-0.4-0.8h12.8c1,3.4,2.3,6.4,3.7,9h-10.6C381.3,76.3,379.4,73.5,377.7,70.4"/>
	<path class="st0" d="M387.5,58.6c0.5,2.7,1.1,5.7,2.1,9.2h-13.2c-1.4-3.1-2.3-6.3-2.9-9.2H387.5z"/>
	<path class="st0" d="M387.3,56.8h-14.1c-0.8-4.9-0.7-8.7-0.7-9.5h14.1C386.6,47.9,386.4,51.2,387.3,56.8"/>
	<path class="st0" d="M388.4,47.3L388.4,47.3l-0.1,0v0h14.6v9.5h-13.8C388.2,50.8,388.4,47.3,388.4,47.3"/>
	<path class="st0" d="M374.4,67.8h-11.8l-2.9-2.9v-6.3h11.8C372.2,61.5,373.1,64.6,374.4,67.8"/>
	<path class="st0" d="M371.3,56.8h-11.5v-9.5h10.9C370.6,48.3,370.5,52,371.3,56.8"/>
	<path class="st0" d="M376.1,71.2c1.5,2.7,3.1,5.2,4.8,7.4h-7.6l-9-9h11C375.5,70.2,375.8,70.7,376.1,71.2"/>
	<path class="st0" d="M384.8,80.5h10.1c0.8,1.3,1.6,2.6,2.3,3.7c1.2,2,2.3,3.3,3.3,4.4c-0.6,0-3.9,0.4-8.5-2
		C389.5,85.1,387.1,83.1,384.8,80.5"/>
	<path class="st0" d="M389.4,87c2.4,1.6,4.8,2.8,7.2,3.3c0.1,0,0.2,0.1,0.2,0.1h-11.8l-10.3-9.9h7.6C384.7,83.2,387,85.4,389.4,87"
		/>
	<path class="st0" d="M404.6,69.6v9.1h6.9c0.7-1.2,1.4-2.6,2-4c0.7-1.6,1.4-3.3,1.9-5.1H404.6z"/>
	<path class="st0" d="M418.1,58.6h-13.5v9.2H416C416.9,64.4,417.6,61.3,418.1,58.6"/>
	<path class="st0" d="M404.6,80.5l0,7.4c0.2-0.1,0.5-0.2,0.7-0.4c1.3-1.4,3.2-3.8,5.1-7H404.6z"/>
	<path class="st0" d="M429.7,70.4c0.1-0.3,0.3-0.5,0.4-0.8h-12.8c-1,3.4-2.4,6.4-3.8,9.1h10.6C426.2,76.3,428,73.5,429.7,70.4"/>
	<path class="st0" d="M419.9,58.6c-0.5,2.7-1.1,5.7-2.1,9.2H431c1.4-3.1,2.3-6.3,2.9-9.2H419.9z"/>
	<path class="st0" d="M420.2,56.8h14.1c0.8-4.9,0.7-8.7,0.7-9.5h-14.1C420.9,47.9,421,51.2,420.2,56.8"/>
	<path class="st0" d="M419,47.3L419,47.3l0.1,0v0h-14.6v9.5h13.8C419.2,50.8,419,47.3,419,47.3"/>
	<path class="st0" d="M433,67.8h12l2.9-2.9v-6.3h-12C435.2,61.5,434.4,64.6,433,67.8"/>
	<path class="st0" d="M436.1,56.8h11.7v-9.5h-11C436.8,48.3,436.9,52,436.1,56.8"/>
	<path class="st0" d="M431.3,71.2c-1.5,2.7-3.1,5.2-4.8,7.4h7.6l9-9.1h-11C431.9,70.2,431.6,70.7,431.3,71.2"/>
	<path class="st0" d="M422.6,80.5h-10.1c-0.8,1.4-1.6,2.6-2.4,3.7c-1.2,2-2.3,3.3-3.3,4.4c0.6,0,3.9,0.4,8.5-2
		C417.9,85.1,420.3,83.1,422.6,80.5"/>
	<path class="st0" d="M418,87c-2.4,1.6-4.8,2.8-7.2,3.3c-0.1,0-0.2,0-0.2,0.1h11.8l10.3-9.9h-7.6C422.8,83.2,420.5,85.4,418,87"/>
	<path class="st1" d="M26.6,121.2c-1.9-1.3-3.9-1.8-6.3-1.8c-5.7,0-9.7,4.5-9.7,10.1c0,5.6,4,10.2,9.7,10.2c2.1,0,4.4-0.8,6.3-1.9
		l1.2,2.1c-2.2,1.3-4.9,2.3-7.5,2.3c-7.2,0-12.9-4.7-12.9-12.7c0-7.5,5.7-12.7,12.9-12.7c2.9,0,5.2,0.7,7.6,2L26.6,121.2z"/>
	<path class="st1" d="M31.6,115.3h2.9l-0.1,11.6h0.1c1.4-2,3.8-3.2,5.9-3.2c4,0,5.4,2.1,5.4,5.3c0,1.3,0,2.7,0,4l-0.1,8.7h-2.8
		l0.1-7.9c0-1.5,0-3.1,0-4.8c0-1.9-1.3-2.8-3.2-2.8c-1.8,0-3.5,1.1-5.2,3.2l-0.1,12.3h-2.8L31.6,115.3z"/>
	<path class="st1" d="M50.6,120.5h3v-3.2h-3V120.5z M50.6,141.7h2.8l0.1-17.5h-2.8L50.6,141.7z"/>
	<path class="st1" d="M69.5,128c-1.1-1.3-2.4-2-3.8-2c-2.6,0-5.3,2.5-5.3,7.5c0,3.9,2.5,6.4,5.3,6.4c1.5,0,3.1-1.1,4-2.3l1.4,1.7
		c-1.7,2-3.5,2.9-5.9,2.9c-4.4,0-7.8-3.5-7.8-9.3c0-4.8,3.4-9.3,8.2-9.3c2.3,0,4.4,1.2,5.7,2.9L69.5,128z"/>
	<path class="st1" d="M89.4,140.9c-1,0.8-2,1.3-3.3,1.3c-1.6,0-2.5-1.4-2.6-2.9c-1.3,1.6-3,2.9-5.3,2.9c-3.1,0-5.1-2.1-5.1-5.1
		c0-5,6.4-6.1,10.3-6.3c0-0.7,0.1-1.5,0.1-2.2c0-1.5-0.8-2.6-2.7-2.6c-1.4,0-2.5,0.5-5.1,2.4l-1.2-1.8c3.5-2.3,4.6-2.9,7.2-2.9
		c2.9,0,4.4,1.7,4.4,4.4c0,3.3-0.3,6.4-0.3,9.5c0,1.3,0.2,2.5,1.3,2.5c0.6,0,1-0.3,1.5-0.6L89.4,140.9z M83.4,132.5
		c-4.9,0.6-7.4,1.6-7.4,4.6c0,2,1.2,3,3.1,3c1.7,0,3.1-1.2,4.2-2.6L83.4,132.5z"/>
	<path class="st1" d="M108,126.4l-4.2-0.1c0.9,1.1,1.3,2.3,1.3,3.4c0,3.4-2.7,5.8-6.1,5.8c-1.1,0-2.1-0.2-3.1-0.7
		c-1.6,1.2-1.9,1.6-1.9,2c0,0.6,0.6,1.1,5.6,1.9c4.6,0.7,7.5,1.8,7.5,4.9c0,4.3-5.1,6.3-8.7,6.3c-3.1,0-8.1-0.9-8.1-4.9
		c0-2.5,2.8-3.9,4.7-4.9v-0.1c-3.1-0.3-4.2-1.2-4.2-2.3c0-1.1,1.1-2,4.1-3.7c-1.6-1.3-2.2-2.7-2.2-4.8c0-3.5,3-5.8,6.3-5.8
		c1.1,0,2.3,0.2,3.3,0.8l5.8-0.1V126.4z M98.2,148.3c2.2,0,5.9-1.2,5.9-4c0-2-1.5-2.6-7.2-3.7c-3.1,1.7-3.8,2.8-3.8,4.4
		C93,147.6,96.1,148.3,98.2,148.3 M98.8,125.5c-1.9,0-3.4,1.7-3.4,4.2c0,2,1.2,3.9,3.3,3.9c2.6,0,3.6-1.8,3.6-4
		C102.3,127.2,101.3,125.5,98.8,125.5"/>
	<path class="st1" d="M117.5,123.6c5.1,0,8.2,3.5,8.2,9.3c0,4.6-3,9.3-8.6,9.3c-5.2,0-8.2-3.5-8.2-9.3
		C109,128.4,112,123.6,117.5,123.6 M117.2,140.1c2.6,0,5.5-2.3,5.5-7.2c0-4.9-2.4-7.2-5.2-7.2c-2.6,0-5.5,2.3-5.5,7.2
		C112,137.8,114.3,140.1,117.2,140.1"/>
	<polygon class="st1" points="141.8,117.3 144.9,117.3 152.3,137.9 160.2,117.3 163.5,117.3 167.4,141.7 164.4,142.2 161.3,121.3 
		161.3,121.3 153.7,141.7 150.8,141.7 143.7,121.3 143.6,121.3 140.3,142.2 137.4,141.7 	"/>
	<path class="st1" d="M172.8,132.5v0.6c0,3.7,1.4,6.9,5,6.9c2,0,3.5-1.2,5-2.5l1.4,1.5c-1.8,1.8-4.1,3.1-6.7,3.1
		c-4.9,0-7.7-3.5-7.7-9.3c0-4.8,3.3-9.3,8-9.3c4.7,0,6.8,3.6,6.8,8.3v0.6H172.8z M181.7,130.6c0-2.5-1.1-4.9-3.9-4.9
		c-2.6,0-4.3,2.5-4.8,4.9H181.7z"/>
	<path class="st1" d="M188.8,124.1h2.9l0,3.4l0.1,0.1c0.6-1.6,2.3-4,4.9-4c0.6,0,1.1,0.1,1.5,0.2l-0.8,2.7c-0.3-0.1-0.7-0.2-1.1-0.2
		c-1.2,0-3,1-4.5,3.8l-0.1,11.5h-2.8L188.8,124.1z"/>
	<path class="st1" d="M211.1,128c-1.1-1.3-2.4-2-3.8-2c-2.6,0-5.3,2.5-5.3,7.5c0,3.9,2.5,6.4,5.2,6.4c1.5,0,3.1-1.1,4-2.3l1.4,1.7
		c-1.7,2-3.5,2.9-5.9,2.9c-4.4,0-7.8-3.5-7.8-9.3c0-4.8,3.4-9.3,8.2-9.3c2.3,0,4.4,1.2,5.7,2.9L211.1,128z"/>
	<path class="st1" d="M231.3,140.9c-1,0.8-2,1.3-3.3,1.3c-1.6,0-2.5-1.4-2.6-2.9c-1.3,1.6-3,2.9-5.3,2.9c-3.1,0-5.1-2.1-5.1-5.1
		c0-5,6.4-6.1,10.3-6.3c0-0.7,0.1-1.5,0.1-2.2c0-1.5-0.8-2.6-2.7-2.6c-1.4,0-2.5,0.5-5.1,2.4l-1.2-1.8c3.5-2.3,4.7-2.9,7.2-2.9
		c2.9,0,4.4,1.7,4.4,4.4c0,3.3-0.3,6.4-0.3,9.5c0,1.3,0.2,2.5,1.3,2.5c0.6,0,1-0.3,1.5-0.6L231.3,140.9z M225.3,132.5
		c-4.9,0.6-7.4,1.6-7.4,4.6c0,2,1.2,3,3.1,3c1.7,0,3.1-1.2,4.2-2.6L225.3,132.5z"/>
	<path class="st1" d="M233.7,124.1h2.8l-0.1,2.8h0.1c1.5-2.1,3.9-3.3,6-3.3c4.1,0,5.4,2.1,5.4,5.3c0,1.3,0,2.7,0,4l-0.1,8.7h-2.8
		l0.1-7.9c0-1.5,0-3.1,0-4.8c0-1.9-1.3-2.8-3.2-2.8c-1.8,0-3.4,1.1-5.3,3.2l-0.1,12.3h-2.8L233.7,124.1z"/>
	<path class="st1" d="M253.4,124.1l0.1-6.5h2.8l-0.1,6.5h4.8v2.1h-4.8l-0.1,7.2c0,2,0,3.3,0,4.2c0,1.4,0.4,2.3,1.6,2.3
		c1,0,2.1-0.6,2.8-1l0.9,1.8c-1.2,0.8-2.9,1.5-4.4,1.5c-2.7,0-3.8-1.7-3.8-4.5c0-1.2,0-2.6,0-5l0.1-6.4h-3v-2.1H253.4z"/>
	<path class="st1" d="M264.2,117.3h3v3.2h-3V117.3z M264.3,124.1h2.8l-0.1,17.5h-2.8L264.3,124.1z"/>
	<polygon class="st1" points="272.2,115.3 275.1,115.3 274.9,141.7 272,141.7 	"/>
	<path class="st1" d="M281.3,132.5v0.6c0,3.7,1.4,6.9,5,6.9c2,0,3.5-1.2,5-2.5l1.4,1.5c-1.8,1.8-4.1,3.1-6.7,3.1
		c-4.9,0-7.7-3.5-7.7-9.3c0-4.8,3.3-9.3,8-9.3s6.8,3.6,6.8,8.3v0.6H281.3z M290.2,130.6c0-2.5-1.1-4.9-3.9-4.9
		c-2.6,0-4.3,2.5-4.8,4.9H290.2z"/>
	<polygon class="st1" points="307,117.3 319.6,117.3 319.6,119.8 310,119.8 309.9,128.1 319.2,128.1 319.2,130.7 310,130.7 
		309.9,139.1 319.7,139.1 319.7,141.7 306.8,141.7 	"/>
	<polygon class="st1" points="329.9,134.6 324.6,142.2 322.3,140.6 328.3,132.7 322.6,125 325.2,123.6 329.9,130.8 335.1,123.6 
		337.4,125 331.5,132.7 337.5,140.6 335,142.2 	"/>
	<path class="st1" d="M351.5,128c-1.1-1.3-2.4-2-3.8-2c-2.6,0-5.3,2.5-5.3,7.5c0,3.9,2.5,6.4,5.3,6.4c1.5,0,3.1-1.1,4-2.3l1.5,1.7
		c-1.7,2-3.5,2.9-5.9,2.9c-4.4,0-7.8-3.5-7.8-9.3c0-4.8,3.4-9.3,8.2-9.3c2.3,0,4.4,1.2,5.7,2.9L351.5,128z"/>
	<path class="st1" d="M356.5,115.3h2.9l-0.1,11.6h0.1c1.4-2,3.8-3.2,5.9-3.2c4.1,0,5.3,2.1,5.3,5.3c0,1.3,0,2.7,0,4l-0.1,8.7h-2.8
		l0.1-7.9c0-1.5,0-3.1,0-4.8c0-1.9-1.3-2.8-3.2-2.8c-1.8,0-3.5,1.1-5.3,3.2l-0.1,12.3h-2.8L356.5,115.3z"/>
	<path class="st1" d="M389.8,140.9c-1,0.8-2,1.3-3.3,1.3c-1.6,0-2.5-1.4-2.6-2.9c-1.3,1.6-3,2.9-5.3,2.9c-3.1,0-5.1-2.1-5.1-5.1
		c0-5,6.4-6.1,10.3-6.3c0-0.7,0.1-1.5,0.1-2.2c0-1.5-0.8-2.6-2.7-2.6c-1.4,0-2.5,0.5-5.1,2.4l-1.2-1.8c3.5-2.3,4.6-2.9,7.2-2.9
		c2.9,0,4.4,1.7,4.4,4.4c0,3.3-0.3,6.4-0.3,9.5c0,1.3,0.2,2.5,1.3,2.5c0.6,0,1-0.3,1.5-0.6L389.8,140.9z M383.8,132.5
		c-4.9,0.6-7.4,1.6-7.4,4.6c0,2,1.2,3,3.1,3c1.7,0,3.1-1.2,4.2-2.6L383.8,132.5z"/>
	<path class="st1" d="M392.2,124.1h2.8l-0.1,2.8h0.1c1.5-2.1,3.9-3.3,6-3.3c4.1,0,5.4,2.1,5.4,5.3c0,1.3,0,2.7,0,4l-0.1,8.7h-2.8
		l0.1-7.9c0-1.5,0-3.1,0-4.8c0-1.9-1.3-2.8-3.2-2.8c-1.8,0-3.5,1.1-5.3,3.2l-0.1,12.3h-2.8L392.2,124.1z"/>
	<path class="st1" d="M426.5,126.4l-4.2-0.1c1,1.1,1.3,2.3,1.3,3.4c0,3.4-2.7,5.8-6.1,5.8c-1.1,0-2.1-0.2-3.1-0.7
		c-1.6,1.2-1.9,1.6-1.9,2c0,0.6,0.6,1.1,5.6,1.9c4.6,0.7,7.5,1.8,7.5,4.9c0,4.3-5.1,6.3-8.7,6.3c-3.1,0-8.1-0.9-8.1-4.9
		c0-2.5,2.9-3.9,4.7-4.9v-0.1c-3.1-0.3-4.2-1.2-4.2-2.3c0-1.1,1.1-2,4.1-3.7c-1.6-1.3-2.2-2.7-2.2-4.8c0-3.5,3-5.8,6.3-5.8
		c1.1,0,2.3,0.2,3.3,0.8l5.9-0.1V126.4z M416.7,148.3c2.2,0,5.8-1.2,5.8-4c0-2-1.5-2.6-7.2-3.7c-3.1,1.7-3.8,2.8-3.8,4.4
		C411.6,147.6,414.7,148.3,416.7,148.3 M417.3,125.5c-1.9,0-3.4,1.7-3.4,4.2c0,2,1.2,3.9,3.3,3.9c2.6,0,3.6-1.8,3.6-4
		C420.8,127.2,419.8,125.5,417.3,125.5"/>
	<path class="st1" d="M430.9,132.5v0.6c0,3.7,1.4,6.9,5,6.9c2,0,3.5-1.2,5-2.5l1.4,1.5c-1.8,1.8-4.1,3.1-6.7,3.1
		c-4.9,0-7.7-3.5-7.7-9.3c0-4.8,3.3-9.3,8-9.3c4.7,0,6.8,3.6,6.8,8.3v0.6H430.9z M439.8,130.6c0-2.5-1.1-4.9-3.9-4.9
		c-2.6,0-4.3,2.5-4.8,4.9H439.8z"/>
	<path class="st1" d="M64.7,28.7c-5.1-5.3-10.9-8.8-16.7-8.8c-16.2,0-25.9,12.7-25.9,26.5c0,13.8,9.7,26.5,25.9,26.5
		c6.8,0,13.1-2.9,17.1-8.3l14.7,15.8c-9,9-24.1,12.3-31.8,12.3c-26.7,0-48-18.6-48-46.3S21.3,0,48,0c11.2,0,23.5,4,32,13.4
		L64.7,28.7z"/>
	<path class="st1" d="M92.2,2.2h21V16h0.4c3.9-8.3,12.3-16,27-16c13.6,0,23,5.3,27.6,16.4C174.6,5.2,184,0,197.2,0
		C220.8,0,229,16.7,229,37.9v52.6H207v-50c0-11-3.3-20.6-16.4-20.6c-13.8,0-18.9,11.4-18.9,22.8v47.8h-22.1V37.9
		c0-10.9-4.4-18-15.1-18c-14.5,0-20.2,10.7-20.2,22.4v48.2H92.2V2.2z"/>
	<path class="st1" d="M262.4,54.1c1.5,13.1,11.4,21,23.7,21c11,0,18.2-5.1,23.7-12l15.8,12c-10.3,12.7-23.4,17.7-37.3,17.7
		c-26.7,0-48-18.6-48-46.3S261.7,0,288.4,0c24.6,0,41.4,17.3,41.4,48v6.1H262.4z M307.7,37.5c-0.2-12.9-8.6-21-22.4-21
		c-13.1,0-21.1,8.3-22.8,21H307.7z"/>
</g>
</svg>
